<svg width="149" height="56" viewBox="0 0 149 56" fill="none" xmlns="http://www.w3.org/2000/svg">
<g clip-path="url(#clip0_775_7125)">
<g clip-path="url(#clip1_775_7125)">
<path fill-rule="evenodd" clip-rule="evenodd" d="M33.2375 25.892V41.6923L38.6376 46.9325L44.0376 52.1726L44.1438 36.5998L44.2501 21.027L38.7438 15.5594L33.2375 10.0918V25.892Z" fill="#FAFBFB"/>
<path fill-rule="evenodd" clip-rule="evenodd" d="M17.0825 21.6061V42.7121L22.6643 49.7131L28.2462 56.7141L28.3571 35.9128L28.4681 15.1115L22.7753 7.80811L17.0825 0.5V21.6061Z" fill="#F9DB10"/>
<path fill-rule="evenodd" clip-rule="evenodd" d="M0.884766 26.7337V42.534L6.28478 47.7741L11.6848 53.0143L11.791 37.4415L11.8973 21.8687L6.39103 16.4011L0.884766 10.9335V26.7337Z" fill="#FCF16C"/>
</g>
</g>
<path d="M86.7455 34.345C86.7455 36.295 86.1605 37.96 84.9905 39.34C83.7305 40.78 82.1405 41.5 80.2205 41.5H60.2405V36.1H80.2205C80.9705 36.1 81.3455 35.515 81.3455 34.345C81.3455 33.175 80.9705 32.59 80.2205 32.59H65.6855C63.7655 32.59 62.1755 31.87 60.9155 30.43C59.7155 29.08 59.1155 27.43 59.1155 25.48C59.1155 23.53 59.7305 21.85 60.9605 20.44C62.1905 19.03 63.7655 18.325 65.6855 18.325H85.6655V23.725H65.6855C64.9355 23.725 64.5605 24.31 64.5605 25.48C64.5605 26.62 64.9355 27.19 65.6855 27.19H80.2205C82.1405 27.19 83.7305 27.91 84.9905 29.35C86.1605 30.73 86.7455 32.395 86.7455 34.345ZM116.628 34.345C116.628 36.295 116.043 37.96 114.873 39.34C113.613 40.78 112.023 41.5 110.103 41.5H90.1233V36.1H110.103C110.853 36.1 111.228 35.515 111.228 34.345C111.228 33.175 110.853 32.59 110.103 32.59H95.5683C93.6483 32.59 92.0583 31.87 90.7983 30.43C89.5983 29.08 88.9983 27.43 88.9983 25.48C88.9983 23.53 89.6133 21.85 90.8433 20.44C92.0733 19.03 93.6483 18.325 95.5683 18.325H115.548V23.725H95.5683C94.8183 23.725 94.4433 24.31 94.4433 25.48C94.4433 26.62 94.8183 27.19 95.5683 27.19H110.103C112.023 27.19 113.613 27.91 114.873 29.35C116.043 30.73 116.628 32.395 116.628 34.345ZM147.861 26.155C147.861 28.225 147.291 29.995 146.151 31.465C144.921 33.115 143.301 33.94 141.291 33.94H124.281V41.5H118.881V18.325H141.291C143.301 18.325 144.921 19.15 146.151 20.8C147.291 22.3 147.861 24.085 147.861 26.155ZM142.461 26.155C142.461 24.535 142.071 23.725 141.291 23.725H124.281V28.54H141.291C142.071 28.54 142.461 27.745 142.461 26.155Z" fill="white"/>
<defs>
<clipPath id="clip0_775_7125">
<rect width="43.3654" height="55" fill="white" transform="translate(0.75 0.5)"/>
</clipPath>
<clipPath id="clip1_775_7125">
<rect width="43.3654" height="56.2117" fill="white" transform="translate(0.884766 0.5)"/>
</clipPath>
</defs>
</svg>
