<?xml version="1.0" encoding="UTF-8" standalone="no"?>
<svg
   width="65"
   height="65"
   viewBox="0 0 65 65"
   fill="none"
   version="1.1"
   id="svg44"
   sodipodi:docname="press-asset-logo4_black.svg"
   inkscape:version="1.2.2 (732a01da63, 2022-12-09)"
   xmlns:inkscape="http://www.inkscape.org/namespaces/inkscape"
   xmlns:sodipodi="http://sodipodi.sourceforge.net/DTD/sodipodi-0.dtd"
   xmlns="http://www.w3.org/2000/svg"
   xmlns:svg="http://www.w3.org/2000/svg">
  <defs
     id="defs48" />
  <sodipodi:namedview
     id="namedview46"
     pagecolor="#ffffff"
     bordercolor="#000000"
     borderopacity="0.25"
     inkscape:showpageshadow="2"
     inkscape:pageopacity="0.0"
     inkscape:pagecheckerboard="0"
     inkscape:deskcolor="#d1d1d1"
     showgrid="false"
     inkscape:zoom="15.556349"
     inkscape:cx="26.323657"
     inkscape:cy="36.44814"
     inkscape:window-width="2560"
     inkscape:window-height="1369"
     inkscape:window-x="-8"
     inkscape:window-y="-8"
     inkscape:window-maximized="1"
     inkscape:current-layer="svg44" />
  <path
     d="M 43.6869,36.8953 32.8919,50.7127 31.6858,41.0671 24.5696,40.2979 Z"
     fill="#03578c"
     id="path2" />
  <path
     d="m 32.7412,34.1732 -8.1716,6.1247 1.6886,-16.007 z"
     fill="#03578c"
     id="path4" />
  <path
     d="m 32.5603,34.1436 -6.3021,-9.8527 5.9704,1.361 z"
     fill="#0099f7"
     id="path6" />
  <path
     d="M 52.8837,39.5582 H 52.8536 L 51.1951,50.7423 H 32.892 V 50.7127 L 43.6869,36.8953 Z"
     fill="#28adff"
     id="path8" />
  <path
     d="m 24.5696,40.2978 8.051,-6.0359 -0.0603,-0.1183 11.1266,2.7516 z"
     fill="#0099f7"
     id="path10" />
  <path
     d="m 37.1134,31.0369 -4.3723,3.1363 -0.1809,-0.0296 -0.3317,-8.4917 11.3076,2.6333 0.0301,-0.0296 0.9649,3.4618 z"
     fill="#0474ba"
     id="path12" />
  <path
     d="m 59.3065,38.9367 -6.4227,0.6214 -9.1968,-2.6629 0.5428,-0.1775 -7.0861,-5.6809 15.2275,5.5625 2.9852,1.1243 0.6634,-0.6805 -1.0253,-4.6157 -3.4978,-0.0591 -5.7894,-0.5326 4.4325,-1.7753 5.2166,1.864 0.392,-8.4621 0.3618,0.1184 z"
     fill="#0474ba"
     id="path14" />
  <path
     d="m 56.0197,37.0432 -0.6634,0.6806 -2.9851,-1.1244 -0.8745,-4.231 3.4978,0.0592 z"
     fill="#03578c"
     id="path16" />
  <path
     d="m 43.9281,13.52094 -3.4676,0.85805 -4.0707,1.83444 0.0603,-2.39661 L 42.9934,10 Z"
     fill="#49484d"
     id="path18" />
  <path
     d="m 45.6771,20.1191 -9.3778,-0.0592 0.0905,-3.84642 4.0707,-1.83444 3.4677,-0.85804 z"
     fill="#ffb536"
     id="path20" />
  <path
     d="M 26.2582,24.3796 13.1716,50.9494 H 13.14144 L 5,53.0501 Z"
     fill="#ffc767"
     id="path22" />
  <path
     d="M 26.3186,24.2909 24.5697,40.2979 16.6694,53.0502 13.17163,50.9494 26.2582,24.3797 Z"
     fill="#ffb536"
     id="path24" />
  <path
     d="m 29.4847,40.8304 -4.4326,11.0954 -8.3827,1.1244 7.9003,-12.7523 z"
     fill="#ffc767"
     id="path26" />
  <path
     d="m 32.892,50.7423 -0.9046,3.8168 -6.875,-2.6333 h -0.0603 l 4.4326,-11.0954 2.2012,0.2367 z"
     fill="#ffb536"
     id="path28" />
  <path
     d="m 43.5361,28.2852 -17.2176,-3.9943 9.9808,-4.2311 h 0.1508 l 5.7291,6.6277 z"
     fill="#ffb536"
     id="path30" />
  <path
     d="m 55.4467,23.3737 h -0.0301 l -11.8805,4.9115 -1.3569,-1.5977 5.3975,-6.0063 z"
     fill="#ffc767"
     id="path32" />
  <path
     d="m 47.5767,20.6812 -5.3974,6.0063 -5.88,-6.6277 9.3778,0.0592 1.8695,0.5622 z"
     fill="#03578c"
     id="path34" />
  <path
     d="m 55.4166,23.3736 -1.7187,3.5801 -3.528,3.1068 h -0.0302 l -4.4325,1.7752 -1.176,-0.1183 -0.9951,-3.4322 11.8504,-4.882 z"
     fill="#0099f7"
     id="path36" />
  <path
     d="m 44.2297,36.7178 -0.5428,0.1775 -10.9155,-2.6925 -0.0302,-0.0296 4.4024,-3.1363 z"
     fill="#03578c"
     id="path38" />
  <path
     d="M 52.3712,36.5994 37.1437,31.0369 h -0.0302 l 7.4178,0.6805 1.176,0.1184 5.7894,0.5326 z"
     fill="#0099f7"
     id="path40" />
  <path
     d="m 55.7483,23.4624 -0.392,8.4621 -5.2165,-1.864 h 0.0301 l 3.528,-3.1068 1.7187,-3.5801 h 0.0302 z"
     fill="#03578c"
     id="path42" />
</svg>
