<?xml version="1.0" encoding="UTF-8"?>
<svg version="1.1" xmlns="http://www.w3.org/2000/svg" width="545" height="545">
<path d="M0 0 C0.66 0 1.32 0 2 0 C3.19824219 1.35083008 3.19824219 1.35083008 4.546875 3.26953125 C5.30859009 4.34062134 5.30859009 4.34062134 6.08569336 5.43334961 C6.90952515 6.61102905 6.90952515 6.61102905 7.75 7.8125 C8.93269023 9.47720478 10.11631402 11.14124663 11.30078125 12.8046875 C11.91260254 13.66674805 12.52442383 14.52880859 13.15478516 15.41699219 C16.03969722 19.45541103 18.98638263 23.44733299 21.9375 27.4375 C22.51790039 28.22358643 23.09830078 29.00967285 23.69628906 29.81958008 C24.87518853 31.41623699 26.05438772 33.01267265 27.23388672 34.60888672 C30.74312623 39.35999147 34.24461276 44.11681291 37.74755859 48.87255859 C40.67420749 52.84531489 43.60270774 56.81667846 46.53515625 60.78515625 C52.77471072 69.23340257 58.9706422 77.71006584 65.10791016 86.23291016 C70.75718083 94.06877486 76.49312892 101.83992854 82.23388672 109.60888672 C85.74312623 114.35999147 89.24461276 119.11681291 92.74755859 123.87255859 C95.67420749 127.84531489 98.60270774 131.81667846 101.53515625 135.78515625 C107.9349982 144.45089058 114.28793221 153.14663004 120.56933594 161.89868164 C123.89955144 166.52426985 127.31197929 171.0586866 130.92578125 175.46875 C132 177 132 177 132 179 C46.53 179 -38.94 179 -127 179 C-124.72550033 174.45100065 -121.99927714 170.43500075 -119.125 166.25 C-118.54492188 165.40308594 -117.96484375 164.55617188 -117.3671875 163.68359375 C-113.23444896 157.69112287 -108.93608262 151.85212097 -104.52416992 146.0637207 C-100.06928655 140.18158006 -95.92362759 134.1091268 -91.78735352 128.00048828 C-88.00423691 122.42745525 -84.09947134 116.96670929 -80.08911133 111.55566406 C-76.70142719 106.97834135 -73.39788617 102.34750967 -70.125 97.6875 C-65.96039455 91.75930818 -61.75163615 85.86609341 -57.5 80 C-53.29307142 74.19438858 -49.12391078 68.36487575 -45 62.5 C-40.33863251 55.87077288 -35.61055569 49.29271463 -30.85546875 42.73046875 C-27.20004296 37.67917631 -23.58652036 32.60040762 -20 27.5 C-15.64258218 21.30538087 -11.24414277 15.1417585 -6.8125 9 C-6.24724609 8.21560547 -5.68199219 7.43121094 -5.09960938 6.62304688 C-4.3174707 5.54120117 -4.3174707 5.54120117 -3.51953125 4.4375 C-2.82500854 3.47650391 -2.82500854 3.47650391 -2.11645508 2.49609375 C-1 1 -1 1 0 0 Z " fill="#63EFBE" transform="translate(208,223)"/>
<path d="M0 0 C85.47 0 170.94 0 259 0 C257.52688963 2.94622075 256.22464911 5.21178533 254.3046875 7.80859375 C253.76199219 8.54464844 253.21929687 9.28070313 252.66015625 10.0390625 C252.07105469 10.83054688 251.48195313 11.62203125 250.875 12.4375 C250.25753906 13.27152344 249.64007813 14.10554687 249.00390625 14.96484375 C243.72257601 22.07717626 238.35084552 29.11933333 232.96875 36.15551758 C226.19794454 45.02014234 219.58968832 54.00036852 213 63 C205.09138797 73.80090443 197.09947505 84.52646636 188.96582031 95.15917969 C182.19624425 104.02277637 175.58876628 113.00162777 169 122 C161.01272918 132.90832986 152.93638849 143.73545498 144.71533203 154.46899414 C139.31729306 161.53620735 134.09535087 168.71217845 129 176 C125.83209844 174.64492915 124.19384681 173.31217904 122.22265625 170.5 C121.71613525 169.787229 121.20961426 169.07445801 120.68774414 168.34008789 C120.15141357 167.56785889 119.61508301 166.79562988 119.0625 166 C117.89602169 164.35273119 116.72934973 162.70559949 115.5625 161.05859375 C114.67304688 159.79378174 114.67304688 159.79378174 113.765625 158.50341797 C111.06081713 154.66836543 108.31281283 150.86498552 105.5625 147.0625 C105.02955322 146.32386719 104.49660645 145.58523438 103.94750977 144.82421875 C99.99849737 139.35790133 96.00684594 133.92402273 92 128.5 C85.80988881 120.12051542 79.69525691 111.68892637 73.60888672 103.23388672 C70.90987872 99.48640216 68.20461116 95.74344155 65.5 92 C64.41663696 90.50002146 63.33330362 89.00002146 62.25 87.5 C61.71375 86.7575 61.1775 86.015 60.625 85.25 C55.75 78.5 55.75 78.5 54.12524414 76.25024414 C53.04121584 74.7493445 51.95706858 73.24853078 50.87280273 71.74780273 C48.17412345 68.01226033 45.47748688 64.27527746 42.78515625 60.53515625 C36.65766496 52.0280567 30.47970015 43.56117478 24.24829102 35.12988281 C19.59869442 28.83172794 15.00389619 22.49542544 10.4375 16.13671875 C9.695 15.10417969 9.695 15.10417969 8.9375 14.05078125 C8.22013672 13.05232178 8.22013672 13.05232178 7.48828125 12.03369141 C5.41349114 9.19855334 3.26274479 6.42278367 1.1015625 3.65307617 C0 2 0 2 0 0 Z " fill="#EF6363" transform="translate(204,143)"/>
</svg>
