<?xml version="1.0" encoding="utf-8"?>
<!-- Generator: Adobe Illustrator 28.2.0, SVG Export Plug-In . SVG Version: 6.00 Build 0)  -->
<svg version="1.1" id="Layer_1" xmlns="http://www.w3.org/2000/svg" xmlns:xlink="http://www.w3.org/1999/xlink" x="0px" y="0px"
	 viewBox="0 0 457.9 457.9" style="enable-background:new 0 0 457.9 457.9;" xml:space="preserve">
<style type="text/css">
	.st0{fill:#FFFFFF;}
	.st1{fill:#1B63EF;stroke:#1B63EF;stroke-width:4;}
	.st2{fill:#1B63EF;}
</style>
<g id="Fusion-logo-circle" transform="translate(-5497 -8659)">
	<ellipse id="Ellipse_347" class="st0" cx="5725.9" cy="8887.9" rx="228.9" ry="228.9"/>
	<g id="Group_8649" transform="translate(483.358 -36.5)">
		<path id="Path_459277" class="st1" d="M5150.6,8924.7c0-9,0.3-18,1-27s1.7-18,3.1-26.9c2.7-17.9,7.1-35.4,13.1-52.5
			c6.2-16.9,14.2-33.4,25.8-47.6c1.5-1.7,2.9-3.5,4.5-5.1l2.4-2.5c0.8-0.8,1.7-1.5,2.5-2.3c1.6-1.5,3.5-3,5.3-4.4
			c0.9-0.7,1.9-1.3,2.8-2c0.9-0.7,1.9-1.3,2.9-1.9c4-2.4,8.2-4.4,12.6-5.8c9-2.8,18.6-2.9,27.6-0.3c4.5,1.3,8.8,3.2,12.9,5.5
			c1,0.5,2,1.2,3,1.8c1,0.6,2,1.2,2.9,2c1.8,1.4,3.7,2.8,5.4,4.3c0.9,0.8,1.8,1.5,2.6,2.3l2.4,2.5c1.7,1.5,3.1,3.4,4.6,5.1
			c6,7,11.2,14.6,15.6,22.7c4.5,8,8.4,16.3,11.7,24.9c6.5,17.1,11.2,34.8,14.3,52.8c1.5,9,2.7,18,3.5,27.1
			c0.8,9.1,1.3,18.2,1.4,27.3c-0.1,9.1-0.6,18.2-1.4,27.3s-2,18.2-3.5,27.1c-3,18-7.8,35.7-14.3,52.8c-3.3,8.6-7.2,16.9-11.6,24.9
			c-4.4,8.1-9.7,15.7-15.6,22.7c-1.5,1.7-3.1,3.5-4.6,5.1l-2.5,2.4c-0.9,0.8-1.8,1.5-2.6,2.3c-1.7,1.5-3.6,2.9-5.4,4.3
			c-0.9,0.7-1.9,1.3-2.9,2c-1,0.7-2,1.3-3,1.8c-4.1,2.3-8.4,4.2-12.9,5.5c-4.5,1.2-9.2,1.8-13.9,1.8c-4.7-0.1-9.3-0.9-13.8-2.2
			c-4.4-1.4-8.6-3.3-12.6-5.8c-1-0.6-2-1.2-2.9-1.9c-0.9-0.7-1.9-1.3-2.8-2c-1.8-1.5-3.6-2.8-5.3-4.4c-0.8-0.8-1.7-1.5-2.5-2.3
			l-2.4-2.5c-1.5-1.5-3-3.4-4.5-5.1c-11.6-14.1-19.5-30.7-25.8-47.6c-6-17-10.4-34.6-13.1-52.4c-1.4-8.9-2.4-17.9-3.1-26.9
			S5150.5,8933.7,5150.6,8924.7z M5150.8,8924.7c0.1,36,5.3,72.3,17.9,106c3.2,8.4,6.9,16.6,11.3,24.5c4.3,7.9,9.4,15.3,15.2,22.1
			c5.7,6.8,12.5,12.6,20.1,17.2c3.8,2.2,7.8,4,12,5.2c4.2,1.1,8.5,1.7,12.9,1.8c4.3-0.1,8.6-0.9,12.8-2.1c4.1-1.3,8.1-3.2,11.8-5.5
			c7.4-4.7,13.9-10.7,19.4-17.5c5.5-6.9,10.3-14.3,14.4-22.2c4.1-7.9,7.6-16,10.6-24.4c5.8-16.8,10.1-34.2,12.5-51.8
			c1.3-8.8,2.2-17.7,2.8-26.6c0.6-8.9,0.7-17.8,0.7-26.7c0-8.9-0.1-17.8-0.7-26.7c-0.5-8.9-1.5-17.7-2.8-26.6
			c-2.5-17.6-6.7-35-12.6-51.8c-3-8.4-6.5-16.5-10.6-24.4c-4-7.9-8.8-15.3-14.4-22.2c-5.4-6.9-12-12.8-19.4-17.5
			c-3.7-2.3-7.7-4.1-11.8-5.5c-4.2-1.3-8.5-2-12.8-2.1c-4.4,0-8.7,0.6-12.9,1.8c-4.2,1.2-8.3,3-12,5.2c-7.6,4.6-14.4,10.4-20.1,17.2
			c-5.8,6.8-10.9,14.2-15.1,22.1c-4.4,7.9-8.1,16-11.3,24.5C5156.1,8852.4,5150.9,8888.7,5150.8,8924.7L5150.8,8924.7z"/>
		<path id="Path_459278" class="st1" d="M5197.4,8846.1c7.8-4.5,15.8-8.7,23.9-12.7s16.4-7.5,24.8-10.7c16.8-6.6,34.2-11.6,52-14.9
			c17.8-3.1,36.1-4.4,54.1-1.5c2.2,0.4,4.5,0.7,6.7,1.3l3.3,0.8c1.1,0.3,2.2,0.7,3.3,1c2.2,0.6,4.3,1.5,6.5,2.4
			c1.1,0.4,2.1,1,3.1,1.4c1,0.5,2.1,1,3.1,1.5c4.1,2.2,7.9,4.9,11.3,8c6.9,6.4,11.8,14.6,14.1,23.8c1.1,4.6,1.7,9.2,1.7,13.9
			c0,1.2,0,2.3-0.1,3.5c-0.1,1.2-0.1,2.3-0.2,3.5c-0.3,2.3-0.5,4.6-1,6.9c-0.2,1.1-0.4,2.3-0.7,3.4l-0.9,3.4c-0.5,2.2-1.4,4.4-2,6.6
			c-3.1,8.7-7,17-11.8,24.9c-4.7,7.9-10,15.4-15.7,22.5c-11.6,14.1-24.5,27.1-38.6,38.7c-7,5.8-14.3,11.4-21.8,16.6
			s-15.1,10.2-23,14.9c-8,4.5-16.1,8.6-24.4,12.5c-8.3,3.8-16.7,7.3-25.3,10.5c-17.1,6.4-34.8,11.1-52.9,14.1
			c-9,1.4-18.2,2.2-27.3,2.4c-9.2,0.2-18.4-0.5-27.5-2.2c-2.2-0.5-4.5-0.9-6.8-1.5l-3.3-0.9c-1.1-0.4-2.2-0.7-3.3-1.1
			c-2.2-0.7-4.3-1.7-6.5-2.5c-1.1-0.4-2.1-1-3.1-1.5c-1.1-0.5-2.1-1-3.1-1.7c-4.1-2.3-7.8-5.1-11.2-8.4
			c-6.8-6.5-11.5-14.9-13.5-24.1c-1-4.5-1.4-9.2-1.3-13.8c0-1.1,0.1-2.3,0.2-3.4c0.1-1.1,0.1-2.3,0.3-3.4c0.4-2.3,0.6-4.5,1.2-6.8
			c0.3-1.1,0.5-2.2,0.8-3.3l1-3.3c0.6-2.2,1.5-4.3,2.2-6.5c6.5-17,16.8-32.2,28.4-46.1c11.7-13.7,24.7-26.3,38.9-37.6
			c7-5.7,14.3-11,21.7-16.1C5181.9,8855.3,5189.5,8850.5,5197.4,8846.1z M5197.5,8846.3c-31.1,18.1-59.9,40.7-82.8,68.6
			c-5.7,7-10.9,14.3-15.5,22c-4.7,7.6-8.5,15.7-11.6,24.2c-3.1,8.3-4.7,17.1-4.9,26c0,4.4,0.5,8.8,1.5,13
			c2.1,8.5,6.6,16.2,13.1,22.1c3.2,2.9,6.8,5.4,10.6,7.5c7.8,4,16.2,6.7,24.9,8c8.7,1.3,17.6,1.8,26.4,1.3
			c8.9-0.4,17.7-1.5,26.4-3.1c17.5-3.3,34.6-8.4,51.1-15c8.3-3.3,16.4-6.9,24.4-10.8c8-4,15.8-8.3,23.5-12.8
			c7.7-4.5,15.3-9,22.8-13.9s14.6-10.2,21.7-15.7c14-11,26.9-23.3,38.6-36.8c5.8-6.7,11-13.8,15.8-21.3c4.8-7.4,8.8-15.3,12-23.6
			c3.2-8.2,5.1-16.8,5.5-25.6c0.1-4.3-0.2-8.7-1.1-12.9c-1.9-8.6-6.2-16.4-12.5-22.4c-3.2-3-6.7-5.6-10.5-7.8
			c-7.8-4.3-16.2-7.3-25-8.8c-8.8-1.6-17.8-2.3-26.7-2.1c-9,0.2-17.9,1-26.8,2.4C5262.7,8814.7,5228.8,8828.3,5197.5,8846.3
			L5197.5,8846.3z"/>
		<path id="Path_459279" class="st1" d="M5198.8,9002.7c-7.9-4.4-15.6-9-23.2-13.9c-7.5-5-14.9-10.2-22-15.7
			c-14.3-11-27.6-23.3-39.6-36.9c-11.7-13.6-22.4-28.6-29.2-45.6c-0.8-2.1-1.7-4.2-2.3-6.4l-1-3.3c-0.3-1.1-0.5-2.2-0.8-3.3
			c-0.6-2.2-0.9-4.5-1.3-6.7c-0.2-1.1-0.2-2.3-0.4-3.4c-0.1-1.1-0.2-2.3-0.2-3.4c-0.2-4.6,0.1-9.3,1-13.8c1-4.6,2.6-9,4.7-13.1
			c2.3-4.1,5.1-7.9,8.3-11.3c3.3-3.3,7-6.2,11-8.6c1-0.6,2-1.2,3.1-1.7c1-0.5,2-1.1,3.1-1.5c2.1-0.9,4.2-1.9,6.4-2.7
			c1.1-0.4,2.2-0.8,3.3-1.2l3.3-1c2.2-0.7,4.5-1.1,6.7-1.7c9-1.8,18.2-2.7,27.4-2.7c9.1,0,18.2,0.6,27.3,1.9
			c18.1,2.6,35.9,7,53.1,13.1c8.6,3,17,6.4,25.5,10.1c8.4,3.6,16.5,7.7,24.6,12c7.9,4.5,15.7,9.3,23.2,14.4
			c7.6,5.1,15,10.5,22.2,16.2c14.3,11.4,27.5,24.1,39.3,38c5.9,7,11.3,14.4,16.2,22.2c4.9,7.8,9,16,12.2,24.6
			c0.7,2.2,1.5,4.3,2.2,6.6l0.9,3.3c0.3,1.1,0.5,2.3,0.8,3.4c0.6,2.2,0.8,4.6,1.2,6.9c0.2,1.1,0.2,2.3,0.3,3.5
			c0.1,1.2,0.2,2.3,0.2,3.5c0.1,4.7-0.4,9.4-1.4,13.9c-2.1,9.2-6.9,17.5-13.7,24.1c-3.4,3.2-7.1,6-11.2,8.2c-1,0.6-2,1.1-3.1,1.6
			c-1,0.5-2,1.1-3.1,1.5c-2.1,0.9-4.2,1.8-6.4,2.5c-1.1,0.4-2.2,0.7-3.3,1.1l-3.3,0.9c-2.2,0.7-4.5,1-6.7,1.5
			c-18,3.3-36.3,2.2-54.2-0.5c-17.8-2.9-35.2-7.6-52.1-13.9c-8.5-3.1-16.8-6.6-25-10.3C5214.7,9011.2,5206.7,9007,5198.8,9002.7z
			 M5199,9002.4c31.5,17.3,65.8,30.3,101.4,35.5c8.9,1.3,17.9,1.9,26.9,1.9c9,0.1,17.9-0.8,26.7-2.6c8.7-1.7,17.1-4.8,24.8-9.3
			c3.8-2.2,7.3-4.9,10.4-8c6.2-6.2,10.4-14,12.1-22.6c0.8-4.3,1.1-8.6,0.9-12.9c-0.6-8.8-2.6-17.4-6-25.4c-3.4-8.2-7.5-16-12.5-23.3
			c-4.9-7.4-10.4-14.4-16.2-21c-11.9-13.3-25-25.3-39.2-36c-7.1-5.4-14.4-10.5-21.9-15.3c-7.5-4.8-15.2-9.3-23-13.5
			c-7.8-4.2-15.6-8.5-23.7-12.4c-8-3.9-16.2-7.2-24.6-10.3c-16.6-6.3-33.9-11-51.4-13.9c-8.8-1.4-17.6-2.3-26.5-2.6
			c-8.8-0.3-17.6,0.3-26.3,1.9c-8.7,1.4-17,4.3-24.8,8.5c-3.8,2.1-7.3,4.7-10.5,7.7c-6.4,6-10.8,13.8-12.7,22.3
			c-0.9,4.3-1.4,8.7-1.3,13.1c0.4,8.8,2.2,17.5,5.4,25.8c3.2,8.4,7.2,16.4,12,24c4.8,7.6,10.1,14.9,15.9,21.7
			C5138.3,8962.8,5167.5,8984.9,5199,9002.4L5199,9002.4z"/>
		<g id="Group_179" transform="translate(5202.275 8878.283)">
			<path id="Path_73" class="st2" d="M48.6,88.1l-8.3,4.8L22.5,82.5l8.1-4.7l0.2-0.1l0.3,0.2L48.6,88.1z"/>
			<path id="Path_74" class="st2" d="M80.5,23.2v9.7L63,22.8l-4.8-2.7l-4.8,2.7L31.1,35.7l-4.8,2.7v5.7l-8.6-5L13,36.4l-4.8,2.8
				l-8.1,4.7V23.2L40.3,0L80.5,23.2z"/>
			<path id="Path_75" class="st2" d="M80.5,43.9v25.8L58.2,82.6l0,0L35.9,69.7V43.9L58.2,31L80.5,43.9z"/>
			<path id="Path_76" class="st2" d="M25.8,54.8v14.7l-12.9,7.4L0,69.5V54.8l12.9-7.4L25.8,54.8z"/>
		</g>
	</g>
</g>
</svg>
