<svg id="Layer_1" data-name="Layer 1" xmlns="http://www.w3.org/2000/svg" viewBox="0 0 500 500"><path d="M130.0437,369.8523q-.5736,1.251-1.1073,2.52a84.488,84.488,0,0,0,0,65.5411,85.5622,85.5622,0,0,0,18.8358,27.7808,86.9726,86.9726,0,0,0,28.1865,18.5645,88.0511,88.0511,0,0,0,66.499,0,86.9737,86.9737,0,0,0,28.1875-18.5645L430.53,308.1243a86.9149,86.9149,0,0,0,26.0141-61.9023c0-20.854-6.5487-40.9474-20.8518-56.7137a39.1009,39.1009,0,0,0-22.4148-2.5285c-6.757,1.2495-12.9517,5.2039-18.1074,9.8478L243.2819,350.4592a37.8251,37.8251,0,0,1-9.5847,7.0727q2.7949-1.695,5.51-3.538c-.1545.0614-.3091.1228-.4636.183.1512-.1008.3014-.2.4516-.3014q.2334-.1561.4647-.3123-.4571.309-.9163.6137a128.6534,128.6534,0,0,1-108.7,15.6754Z" fill="#104ade"/><path d="M238.7345,354.1758q.4587-.304.9163-.6137a38.0094,38.0094,0,0,1-47.004-16.0743,37.6,37.6,0,0,1,5.9415-45.6417l50.5574-50.2635L322.9825,168.81c.1041-.0865.2082-.1742.3113-.263.2071-.1765.4132-.3529.6313-.5173l11.1136-10.96a86.2523,86.2523,0,0,1,17.178-1.5815c12.9857,0,24.0314,1.2505,35.042,4.3885a85.5962,85.5962,0,0,1,42.3942,22.8476c2.1964,2.1877,4.2679,4.5135,6.187,6.8513a39.1281,39.1281,0,0,0-22.5715-2.5965c-6.758,1.2506-12.9516,5.205-18.1085,9.8489L243.2732,350.4592a37.8324,37.8324,0,0,1-9.5858,7.0727q2.7948-1.695,5.5108-3.538C239.0436,354.0553,238.8891,354.1167,238.7345,354.1758Z" fill="#0038c7"/><path d="M361.2808,61.9a79.2024,79.2024,0,0,0-17.4684-25.7451,93.3173,93.3173,0,0,0-30.248-19.9324,94.4615,94.4615,0,0,0-71.37,0,93.3166,93.3166,0,0,0-30.2481,19.9324L80.3088,165.86a122.7371,122.7371,0,0,0-2.7417,172.5928l1.3709,1.3141,1.4211,1.45a52.5763,52.5763,0,0,0,4.0748,3.5577,128.4765,128.4765,0,0,0,155.2191,8.7879A38.0081,38.0081,0,0,1,192.65,337.4867a37.6014,37.6014,0,0,1,5.94-45.6406l50.5584-50.2635L322.9858,168.81c.3134-.2608.6159-.5337.9426-.7814l19.884-19.609a78.498,78.498,0,0,0,17.4684-86.4949Z" fill="#0f75fc"/></svg>