<?xml version="1.0" encoding="UTF-8" standalone="no"?>
<svg
   width="145"
   height="145"
   fill="none"
   version="1.1"
   id="svg858"
   sodipodi:docname="XO Swap.min.svg"
   inkscape:version="1.1.1 (c3084ef, 2021-09-22)"
   xmlns:inkscape="http://www.inkscape.org/namespaces/inkscape"
   xmlns:sodipodi="http://sodipodi.sourceforge.net/DTD/sodipodi-0.dtd"
   xmlns="http://www.w3.org/2000/svg"
   xmlns:svg="http://www.w3.org/2000/svg">
  <sodipodi:namedview
     id="namedview860"
     pagecolor="#ffffff"
     bordercolor="#666666"
     borderopacity="1.0"
     inkscape:pageshadow="2"
     inkscape:pageopacity="0.0"
     inkscape:pagecheckerboard="0"
     showgrid="false"
     inkscape:zoom="3.8655914"
     inkscape:cx="21.600834"
     inkscape:cy="96.104312"
     inkscape:window-width="1800"
     inkscape:window-height="1097"
     inkscape:window-x="0"
     inkscape:window-y="44"
     inkscape:window-maximized="1"
     inkscape:current-layer="svg858" />
  <circle
     cx="72.5"
     cy="72.5"
     r="72.5"
     fill="url(#paint0_linear_347_2104)"
     id="circle824"
     style="fill:url(#paint0_linear_347_2104)" />
  <path
     opacity="0.3"
     d="m 126.573,103.728 8.721,5.037 c -12.536,21.667 -35.964,36.243 -62.796,36.243 -26.83,0 -50.256,-14.574 -62.794,-36.237 l 8.722,-5.035 c 10.797,18.653 30.969,31.203 54.072,31.203 23.106,0 43.28,-12.553 54.075,-31.211 z"
     fill="url(#paint1_linear_347_2104)"
     id="path826"
     style="fill:url(#paint1_linear_347_2104)" />
  <path
     opacity="0.5"
     d="m 72.5,0 c 40.039,0 72.498,32.46 72.498,72.5 0,13.208 -3.532,25.59 -9.702,36.255 l -8.721,-5.037 c 5.313,-9.183 8.354,-19.846 8.354,-31.218 0,-34.479 -27.95,-62.43 -62.429,-62.43 z"
     fill="url(#paint2_linear_347_2104)"
     id="path828"
     style="fill:url(#paint2_linear_347_2104)" />
  <path
     opacity="0.15"
     d="m 72.498,0 v 10.067 l -1.03,0.01 C 37.464,10.63 10.069,38.366 10.069,72.5 c 0,11.374 3.042,22.038 8.356,31.222 l -8.72,5.037 C 3.533,98.094 0,85.709 0,72.5 0,32.46 32.458,0.001 72.498,0 Z"
     fill="url(#paint3_linear_347_2104)"
     id="path830"
     style="fill:url(#paint3_linear_347_2104)" />
  <path
     d="m 100.835,55.909 a 19.165,19.165 0 0 0 -8.25,-1.892 651.72,651.72 0 0 0 -7.866,0.006 c -0.534,0.003 -1.264,0.327 -1.622,0.72 -5.346,5.865 -10.676,11.745 -16.013,17.62 -0.276,0.305 -0.554,0.61 -0.853,0.937 a 0.524,0.524 0 0 0 0,0.703 l 3.603,3.936 c 4.47,4.88 8.936,9.76 13.42,14.629 0.267,0.29 0.81,0.528 1.203,0.531 3.218,0.023 4.61,0.032 7.918,0.011 9.754,-0.06 17.732,-6.852 19.363,-16.472 1.429,-8.428 -3.092,-17.017 -10.906,-20.729 z m -9.502,29.23 c -6.4,0 -11.584,-5.188 -11.584,-11.584 0,-6.396 5.188,-11.583 11.584,-11.583 6.396,0 11.583,5.187 11.583,11.583 0,6.396 -5.187,11.583 -11.583,11.583 z"
     fill="#ffffff"
     id="path832" />
  <path
     d="m 62.461,73.88 a 0.335,0.335 0 0 1 0,-0.454 l 16.865,-18.58 a 0.484,0.484 0 0 0 -0.35,-0.809 c -0.792,-0.011 -7.507,-0.028 -11.528,-0.005 -0.267,0 -0.603,0.172 -0.787,0.373 -3.47,3.786 -6.924,7.587 -10.38,11.385 a 7.246,7.246 0 0 1 -0.233,0.247 c -0.155,0.16 -0.428,0.135 -0.534,-0.06 A 1.067,1.067 0 0 0 55.379,65.781 C 51.969,62.009 48.549,58.254 45.148,54.482 44.849,54.152 44.556,54 44.1,54 c -3.907,0.02 -7.817,0.011 -11.727,0.011 h -0.005 a 0.337,0.337 0 0 0 -0.247,0.566 c 1.346,1.481 2.61,2.877 3.875,4.269 4.355,4.794 8.704,9.59 13.067,14.373 0.299,0.328 0.313,0.526 0,0.864 -5.503,5.983 -10.994,11.98 -16.489,17.974 -0.163,0.178 -0.324,0.359 -0.502,0.557 -0.161,0.18 -0.035,0.47 0.21,0.47 h 0.077 c 4.002,0 7.94,0.018 11.942,0.04 0.45,0 0.715,-0.183 0.99,-0.487 3.41,-3.764 6.83,-7.522 10.246,-11.282 0.086,-0.095 0.144,-0.215 0.247,-0.376 0.873,0.953 1.665,1.811 2.449,2.672 2.77,3.04 5.534,6.084 8.316,9.112 0.155,0.17 0.428,0.33 0.646,0.333 4.168,0.02 7.883,0.014 12.051,0.012 0.04,0 0.233,0 0.44,-0.006 0.166,-0.003 0.249,-0.201 0.137,-0.322 C 74.027,86.456 68.234,80.172 62.467,73.877 Z m 41.644,105.441 c -1.39,0 -2.641,-0.364 -3.752,-1.091 a 8.416,8.416 0 0 1 -2.598,-2.693 v 10.293 h -2.18 v -23.537 h 1.956 v 3.239 a 7.574,7.574 0 0 1 2.661,-2.534 6.847,6.847 0 0 1 3.56,-0.994 c 1.154,0 2.213,0.246 3.175,0.738 a 7.836,7.836 0 0 1 2.501,1.924 8.87,8.87 0 0 1 1.635,2.79 8.62,8.62 0 0 1 0.61,3.207 c 0,1.56 -0.321,3.003 -0.962,4.329 -0.62,1.304 -1.497,2.351 -2.63,3.142 -1.133,0.791 -2.458,1.187 -3.976,1.187 z m -0.61,-1.924 c 0.92,0 1.743,-0.182 2.47,-0.545 a 5.897,5.897 0 0 0 1.86,-1.54 6.906,6.906 0 0 0 1.218,-2.148 7.676,7.676 0 0 0 0.417,-2.501 c 0,-0.898 -0.16,-1.754 -0.481,-2.566 a 6.33,6.33 0 0 0 -1.315,-2.148 6.704,6.704 0 0 0 -1.988,-1.476 5.51,5.51 0 0 0 -2.437,-0.545 c -0.556,0 -1.133,0.107 -1.732,0.321 a 6.834,6.834 0 0 0 -1.731,0.93 6.06,6.06 0 0 0 -1.347,1.315 3.516,3.516 0 0 0 -0.674,1.571 v 5.131 a 7.838,7.838 0 0 0 1.38,2.148 7.199,7.199 0 0 0 1.987,1.508 c 0.77,0.363 1.561,0.545 2.373,0.545 z M 76.754,174.19 c 0,-1.048 0.299,-1.946 0.897,-2.694 0.599,-0.769 1.422,-1.357 2.47,-1.763 1.069,-0.428 2.298,-0.642 3.687,-0.642 a 17.4,17.4 0 0 1 2.534,0.193 c 0.876,0.128 1.657,0.32 2.34,0.577 v -1.411 c 0,-1.411 -0.416,-2.533 -1.25,-3.367 -0.834,-0.834 -1.988,-1.251 -3.463,-1.251 -0.898,0 -1.785,0.171 -2.662,0.513 -0.855,0.321 -1.753,0.802 -2.694,1.443 l -0.833,-1.539 c 1.09,-0.748 2.159,-1.304 3.207,-1.668 a 9.251,9.251 0 0 1 3.206,-0.577 c 2.053,0 3.677,0.588 4.874,1.764 1.198,1.176 1.796,2.801 1.796,4.874 v 7.729 c 0,0.299 0.064,0.523 0.193,0.673 0.128,0.128 0.331,0.203 0.609,0.224 V 179 c -0.235,0.021 -0.438,0.043 -0.61,0.064 a 1.1,1.1 0 0 1 -0.384,0 c -0.535,-0.021 -0.94,-0.192 -1.219,-0.513 -0.278,-0.321 -0.427,-0.663 -0.449,-1.026 l -0.032,-1.219 c -0.748,0.962 -1.72,1.711 -2.918,2.245 a 9.202,9.202 0 0 1 -3.656,0.77 c -1.069,0 -2.041,-0.225 -2.918,-0.674 -0.855,-0.47 -1.528,-1.09 -2.02,-1.86 a 4.987,4.987 0 0 1 -0.706,-2.597 z m 11.191,1.283 c 0.235,-0.3 0.417,-0.588 0.545,-0.866 0.129,-0.278 0.193,-0.524 0.193,-0.738 v -2.437 a 13.201,13.201 0 0 0 -2.277,-0.641 12.21,12.21 0 0 0 -2.341,-0.225 c -1.56,0 -2.822,0.31 -3.784,0.93 -0.962,0.62 -1.443,1.465 -1.443,2.534 0,0.62 0.16,1.207 0.48,1.763 0.322,0.535 0.792,0.984 1.412,1.347 0.62,0.342 1.347,0.513 2.18,0.513 1.048,0 2.02,-0.203 2.919,-0.609 0.919,-0.406 1.624,-0.93 2.116,-1.571 z m -14.487,-13.18 h 2.148 L 68.423,179 H 66.531 L 63.036,170.695 59.572,179 H 57.68 l -7.183,-16.707 h 2.117 l 6.093,14.462 3.078,-7.536 -2.822,-6.894 h 1.956 l 2.117,5.419 2.148,-5.419 h 1.924 l -2.79,6.894 3.079,7.536 6.06,-14.462 z M 47.2,160.497 a 5.456,5.456 0 0 0 -1.122,-0.962 7.132,7.132 0 0 0 -1.443,-0.77 10.388,10.388 0 0 0 -1.731,-0.513 9.192,9.192 0 0 0 -1.924,-0.192 c -1.988,0 -3.453,0.385 -4.393,1.154 -0.92,0.749 -1.38,1.775 -1.38,3.079 0,0.898 0.214,1.603 0.642,2.116 0.449,0.513 1.144,0.93 2.084,1.251 0.94,0.321 2.138,0.652 3.592,0.994 1.625,0.342 3.025,0.748 4.2,1.219 1.176,0.47 2.085,1.111 2.726,1.924 0.642,0.791 0.962,1.87 0.962,3.238 0,1.048 -0.203,1.957 -0.609,2.726 a 5.428,5.428 0 0 1 -1.7,1.924 c -0.726,0.513 -1.592,0.898 -2.597,1.155 -1.005,0.235 -2.106,0.352 -3.303,0.352 -1.176,0 -2.309,-0.117 -3.399,-0.352 a 14.74,14.74 0 0 1 -3.046,-1.091 12.61,12.61 0 0 1 -2.694,-1.859 l 1.122,-1.828 c 0.407,0.427 0.888,0.833 1.443,1.218 0.578,0.364 1.208,0.695 1.892,0.994 0.706,0.3 1.454,0.535 2.245,0.706 0.812,0.149 1.646,0.224 2.501,0.224 1.818,0 3.228,-0.331 4.233,-0.994 1.026,-0.663 1.54,-1.646 1.54,-2.95 0,-0.941 -0.257,-1.689 -0.77,-2.245 -0.513,-0.577 -1.283,-1.047 -2.309,-1.411 -1.026,-0.363 -2.288,-0.716 -3.784,-1.058 -1.582,-0.363 -2.918,-0.77 -4.008,-1.219 -1.09,-0.448 -1.914,-1.036 -2.47,-1.763 -0.534,-0.748 -0.801,-1.732 -0.801,-2.95 0,-1.411 0.342,-2.598 1.026,-3.56 0.705,-0.983 1.667,-1.721 2.886,-2.213 1.218,-0.513 2.619,-0.769 4.2,-0.769 1.006,0 1.935,0.107 2.79,0.32 a 9.453,9.453 0 0 1 2.406,0.866 9.833,9.833 0 0 1 2.084,1.443 l -1.09,1.796 z"
     fill="#ffffff"
     id="path834" />
  <defs
     id="defs856">
    <linearGradient
       id="paint0_linear_347_2104"
       x1="145"
       y1="145"
       x2="0"
       y2="0"
       gradientUnits="userSpaceOnUse">
      <stop
         stop-color="#420BE6"
         id="stop836" />
      <stop
         offset="1"
         stop-color="#A16BB3"
         id="stop838" />
    </linearGradient>
    <linearGradient
       id="paint1_linear_347_2104"
       x1="130.49699"
       y1="107.008"
       x2="14.997"
       y2="108.008"
       gradientUnits="userSpaceOnUse">
      <stop
         stop-color="#fff"
         id="stop841" />
      <stop
         offset="1"
         stop-color="#fff"
         stop-opacity="0"
         id="stop843" />
    </linearGradient>
    <linearGradient
       id="paint2_linear_347_2104"
       x1="72.998001"
       y1="2.5"
       x2="133.21201"
       y2="103.372"
       gradientUnits="userSpaceOnUse">
      <stop
         stop-color="#fff"
         id="stop846" />
      <stop
         offset="1"
         stop-color="#fff"
         stop-opacity="0"
         id="stop848" />
    </linearGradient>
    <linearGradient
       id="paint3_linear_347_2104"
       x1="13"
       y1="109"
       x2="71.418999"
       y2="4.1760001"
       gradientUnits="userSpaceOnUse">
      <stop
         stop-color="#fff"
         id="stop851" />
      <stop
         offset="1"
         stop-color="#fff"
         stop-opacity="0"
         id="stop853" />
    </linearGradient>
  </defs>
</svg>
