<?xml version="1.0" encoding="UTF-8"?>
<svg id="Layer_1" xmlns="http://www.w3.org/2000/svg" version="1.1" viewBox="0 0 250 250">
  <!-- Generator: Adobe Illustrator 29.0.1, SVG Export Plug-In . SVG Version: 2.1.0 Build 192)  -->
  <defs>
    <style>
      .st0 {
        fill: #fff;
      }
    </style>
  </defs>
  <circle cx="125" cy="125" r="122.5"/>
  <path class="st0" d="M189.3,146.2c-.7,3.4-1.7,6.5-3.2,9.3-1.8,3.4-4.4,6.5-7.9,9.4-3.3,2.7-6.7,4.7-10.2,5.9-3.5,1.2-7.9,1.8-13.2,1.8s-13.4-1.4-19.1-4.3c-5.7-2.9-9.8-7.2-12.5-12.8-3,5.2-7.1,9.3-12.4,12.4-5.3,3.1-11.9,4.6-19.8,4.6s-9.8-.8-14-2.4c-4.1-1.6-7.7-3.9-10.6-6.8-2.3-2.3-4.2-5.1-5.6-8.2-1.4-3.1-2.1-6.7-2.1-10.7s.8-7.7,2.3-11c1.5-3.3,3.6-6.1,6.3-8.4,2.6-2.3,5.7-4.1,9.2-5.4,3.5-1.3,7.1-2,10.9-2,4.8-.1,9.6-.2,14.3-.3,4.7,0,9.5,0,14.3,0v-9.6c0-6-1.7-10.4-5.2-13.2-3.5-2.8-8-4.1-13.7-4.1s-10.4,1.3-14.1,3.8c-3.7,2.5-5.7,6.6-6.1,12.3l-14.5-2.6c.5-4,1.5-7.5,3.2-10.5,2.1-3.7,4.7-6.6,7.9-8.9,3.2-2.3,6.9-4,11.1-5.1,4.1-1.1,8.3-1.6,12.6-1.6s5.2.3,8,.8c2.7.5,5.4,1.3,8,2.4,2.6,1.1,5,2.4,7.2,4.1,2.2,1.7,4,3.7,5.6,5.9,3-4.1,6.7-7.3,11.1-9.6s10.1-3.4,16.8-3.4,13.8,1.4,18.5,4.1c4.7,2.8,8.6,6.6,11.8,11.6,2.7,4.1,4.5,8.7,5.5,13.5.9,4.9,1.4,10.6,1.4,17.3v4.6l-60.5.2v.7c0,3.8.4,7.5,1.2,11.1.8,3.6,2.2,6.8,4.1,9.6,1.9,2.8,4.3,5,7.4,6.7s6.9,2.6,11.4,2.6,8.5-1.3,12.4-3.9c3.9-2.6,6.5-6.7,7.8-12.4l14.3,2.6ZM91,128.5c-4.6,0-8.6,1.3-11.9,4-3.4,2.7-5,6.5-5,11.4s1.6,8.8,4.9,11.4c3.2,2.7,7.2,4,11.9,4s6.8-.5,10.1-1.5c3.3-1,6.1-2.7,8.5-5.1,3.4-3.4,5.5-6.9,6.2-10.5.7-3.5,1.1-7.4,1.1-11.5v-2.5l-25.6.2ZM176,117.4c-.1-4.1-.6-7.9-1.5-11.2-.9-3.4-2.3-6.3-4.3-8.7-1.7-2.1-3.8-3.9-6.4-5.2-2.6-1.4-5.9-2-9.9-2s-6.4.6-8.8,1.8c-2.5,1.2-4.7,2.8-6.6,4.8-2.5,2.6-4.3,5.7-5.6,9.2-1.2,3.5-1.9,7.4-1.9,11.5h45Z"/>
</svg>