<?xml version="1.0" encoding="UTF-8"?>
<svg id="Layer_1" xmlns="http://www.w3.org/2000/svg" version="1.1" viewBox="0 0 250 250">
  <!-- Generator: Adobe Illustrator 29.0.1, SVG Export Plug-In . SVG Version: 2.1.0 Build 192)  -->
  <defs>
    <style>
      .st0 {
        fill-rule: evenodd;
      }
    </style>
  </defs>
  <path class="st0" d="M105.8,4.1C23.5,16.9-22.1,107.3,16.3,181.8c45,87.5,172.3,87.5,217.4,0C279.5,92.4,205-11.3,105.8,4.1ZM152.3,21.8c74.2,19.6,104,110.4,55.9,170.2-61.4,76.4-184.7,36.2-189.8-61.9C14.7,58.6,82.8,3.5,152.3,21.8ZM149,71.5c-3.6,3.3-78.2,92.5-81.2,97.2-4,6,1.5,14.4,8.3,12.7,1.8-.4,15.5-15.8,36.6-41l33.8-40.3.6,39.1c.7,43.3.5,42.6,8.8,42.6s8.4.9,8.4-56.5,0-51.7-2.5-54.1c-3.3-3.2-9-3.1-12.7.3Z"/>
</svg>