<?xml version="1.0" encoding="UTF-8"?>
<svg id="Layer_1" xmlns="http://www.w3.org/2000/svg" xmlns:xlink="http://www.w3.org/1999/xlink" version="1.1" viewBox="0 0 250 250">
  <!-- Generator: Adobe Illustrator 29.0.1, SVG Export Plug-In . SVG Version: 2.1.0 Build 192)  -->
  <defs>
    <style>
      .st0, .st1, .st2, .st3, .st4, .st5, .st6 {
        fill: none;
      }

      .st1 {
        stroke: url(#linear-gradient2);
        stroke-width: 1.3px;
      }

      .st1, .st2, .st3, .st4, .st5, .st6 {
        isolation: isolate;
        stroke-miterlimit: 10;
      }

      .st1, .st2, .st3, .st4, .st5, .st6, .st7 {
        opacity: .8;
      }

      .st2 {
        stroke: url(#linear-gradient1);
      }

      .st2, .st6 {
        stroke-width: 1.4px;
      }

      .st3 {
        stroke: url(#linear-gradient4);
      }

      .st3, .st4 {
        stroke-width: 1.1px;
      }

      .st4 {
        stroke: url(#linear-gradient5);
      }

      .st5 {
        stroke: url(#linear-gradient3);
        stroke-width: 1.2px;
      }

      .st8 {
        fill: url(#radial-gradient);
      }

      .st6 {
        stroke: url(#linear-gradient);
      }

      .st9 {
        fill: #fff;
      }

      .st10 {
        clip-path: url(#clippath);
      }
    </style>
    <radialGradient id="radial-gradient" cx="-475.9" cy="491.2" fx="-475.9" fy="491.2" r="1.3" gradientTransform="translate(-51071.1 49745.8) rotate(90) scale(104.2 -104.2)" gradientUnits="userSpaceOnUse">
      <stop offset=".2" stop-color="#073183"/>
      <stop offset="1" stop-color="#0054f9"/>
    </radialGradient>
    <clipPath id="clippath">
      <path class="st0" d="M247.5,125C247.5,57.3,192.6,2.5,125,2.5S2.5,57.3,2.5,125s54.8,122.5,122.5,122.5,122.5-54.9,122.5-122.5Z"/>
    </clipPath>
    <linearGradient id="linear-gradient" x1="-14.7" y1="-378.6" x2="266" y2="-673.1" gradientTransform="translate(0 -403.6) scale(1 -1)" gradientUnits="userSpaceOnUse">
      <stop offset=".2" stop-color="#89d0ff"/>
      <stop offset=".4" stop-color="#ebbf9a"/>
      <stop offset=".6" stop-color="#eb8280"/>
      <stop offset=".8" stop-color="#a281ff"/>
    </linearGradient>
    <linearGradient id="linear-gradient1" x1="-3.8" y1="-391.2" x2="255" y2="-663.9" gradientTransform="translate(0 -403.6) scale(1 -1)" gradientUnits="userSpaceOnUse">
      <stop offset=".2" stop-color="#89d0ff"/>
      <stop offset=".4" stop-color="#ebbf9a"/>
      <stop offset=".6" stop-color="#eb80da"/>
      <stop offset=".8" stop-color="#a281ff"/>
    </linearGradient>
    <linearGradient id="linear-gradient2" x1="7.2" y1="-402.2" x2="244" y2="-653" gradientTransform="translate(0 -403.6) scale(1 -1)" gradientUnits="userSpaceOnUse">
      <stop offset=".2" stop-color="#89d0ff"/>
      <stop offset=".4" stop-color="#ebbf9a"/>
      <stop offset=".6" stop-color="#eb8280"/>
      <stop offset=".8" stop-color="#a281ff"/>
    </linearGradient>
    <linearGradient id="linear-gradient3" x1="18.2" y1="-413.2" x2="233" y2="-642" gradientTransform="translate(0 -403.6) scale(1 -1)" gradientUnits="userSpaceOnUse">
      <stop offset=".2" stop-color="#89d0ff"/>
      <stop offset=".4" stop-color="#ebbf9a"/>
      <stop offset=".6" stop-color="#eb80e7"/>
      <stop offset=".8" stop-color="#a281ff"/>
    </linearGradient>
    <linearGradient id="linear-gradient4" x1="29.1" y1="-424.2" x2="222" y2="-631" gradientTransform="translate(0 -403.6) scale(1 -1)" gradientUnits="userSpaceOnUse">
      <stop offset=".2" stop-color="#89d0ff"/>
      <stop offset=".4" stop-color="#ebbf9a"/>
      <stop offset=".6" stop-color="#eb80d3"/>
      <stop offset=".8" stop-color="#a281ff"/>
    </linearGradient>
    <linearGradient id="linear-gradient5" x1="40.2" y1="-435.1" x2="211.1" y2="-620" gradientTransform="translate(0 -403.6) scale(1 -1)" gradientUnits="userSpaceOnUse">
      <stop offset=".2" stop-color="#89d0ff"/>
      <stop offset=".4" stop-color="#ebbf9a"/>
      <stop offset=".6" stop-color="#a280eb"/>
      <stop offset=".8" stop-color="#a281ff"/>
    </linearGradient>
  </defs>
  <g id="Layer_3">
    <path class="st8" d="M247.5,125C247.5,57.3,192.6,2.5,125,2.5S2.5,57.3,2.5,125s54.8,122.5,122.5,122.5,122.5-54.9,122.5-122.5Z"/>
  </g>
  <g id="Layer_11" data-name="Layer_1">
    <path class="st9" d="M208.3,86.7c-.5,3-1.1,4.5-1.8,6.1h0c-.8,1.8-1.6,3.8-2.4,8.1-.3,1.6-.5,2.9-.7,4h0c-.3,1.8-.4,3-1.1,5-.5,1.7-1.5,4.5-3.7,7.4-1.8,2.4-4.9,6.5-9,7-.4,0-1.1,0-1.5-.1-11.6-5.9-21.5-10.3-24.9-11.2-4-1.2-3.4-9.9-3-17.6.3-3.4.4-6.7.3-9.5-.5-9.8-2.2-20.3-10.7-25.5-5-3-11.6-4-17.8-4,1.2-.5,2.4-1.3,3.8-2.1h0c3.7-2.1,8.2-4.8,12.8-5.3,1.5-.1,2.9-.3,4.4-.5,9.1-1.1,17-2,25.3.9,3.8,1.3,11.5,5.5,13.5,9.6,1.5,2.8,3.8,5,8.4,9.4,2.5,2.2,4.1,3.6,5.3,4.6h0c1.7,1.3,2,1.7,2.5,2.6,1.6,3.2,1.1,6.5.3,11.1Z"/>
    <path class="st9" d="M166.2,126.7c.5.1.8.8.4,1.3-1.2,1.8-2.6,4.5-4.4,7.5-.8,1.5-1.6,2.9-2.2,4-2.2,3.8-2.4,7.1-2.5,9.6-.1,2.8-.3,4-2,5-1.3.9-2.8,1.2-12.3,2.6-1.7.3-2.4.5-3,.9-.1.1-.4.1-.5.3-.5.3-1.1-.3-1.1-.8.1-1.3.1-3,.1-5.3v-.4c0-1.8,0-3.4-.1-4.6-.1-2.4-.1-3.4.5-4.5.8-1.3,1.5-1.7,2.4-2.4,1.5-.9,3.4-2.1,6.2-6.1,1.6-2.1,1.8-3.3,2.1-4.2.1-.4.1-.5,1.3-1.5s5-3.8,9.9-3c1.6.3,3.3.8,5.1,1.5Z"/>
    <path class="st9" d="M128.3,170.5c-.3.3-.4.4-.8.4-1.1,0-1.7-.3-2.1-.8-.9-1.2-.8-3.6-.7-5l4.1-1.1c.3,2.2.4,5.3-.5,6.5Z"/>
    <path class="st9" d="M128.6,156c-.1.5-.1,1.2-.1,2v3c-1.3.4-2.4.4-3.7.4v-3.4c0-.8,0-2,.1-2.4.4,0,.8-.1,1.2-.3.8-.1,2-.4,2.6-.3,0,.3,0,.7-.1.9Z"/>
    <path class="st9" d="M121.2,169.4c-.1,2.1-.8,4.6-2.8,5-.9.1-1.3-.1-1.6-.4-1.3-1.2-1.5-4.9-1.3-7.5.9,0,2-.1,3.3-.4.8-.1,1.6-.4,2.2-.5.1,1.1.3,2.4.1,3.8Z"/>
    <path class="st9" d="M120.2,162l-4.4,1.6c.3-1.7.5-4.1.7-5.7.1-1.1.4-1.5.5-1.6,0,0,.1-.1.3-.1h3c-.1,1.2-.1,4.1-.1,5.8Z"/>
    <path class="st9" d="M113.1,160.6c-.3.7-.5,2.5-.7,3.8h-5.4c.3-1.8.8-3.6,1.2-4.9.5-1.3.9-2.4,1.5-2.6s1.7-.4,2.5.3c1.2.8,1.5,2,.9,3.4Z"/>
    <path class="st9" d="M111.1,177.4c-.4.5-.9.9-1.5.9-.7.1-1.1-.1-1.5-.4-1.7-1.6-1.6-6.7-1.5-9.2,2.2-.5,4.8-.9,5.9-1.1,0,2,.1,7.4-1.6,9.8Z"/>
    <path class="st9" d="M104,164.1c-.3.7-.5,1.3-.7,2-.7.3-2.6,0-4.6-.4l1.3-8.6c2.2-.7,4.9-.8,5.4-.1.9.9-.8,5.3-1.5,7.1Z"/>
    <path class="st9" d="M101.5,178.6c-1.1,1.3-2.6,2-4.9,1.8-1.6,0-2.1-.7-2.4-1.1-1.2-2,0-6.6,1.2-9.5l7.4.4c.1.5.1,1.2.1,1.8.1,2.2-.1,4.9-1.5,6.5Z"/>
    <path class="st9" d="M162.8,116.2c-6.7-1.8-6.1-11.6-5.5-21.1.1-3.3.4-6.5.3-9.1-.5-8.8-2-18.5-9.1-22.8-7.7-4.6-20.2-3.6-27.9-2.6h0c-2.8.8-5.4,1.5-7.5,1.3-4.5-.3-8.1-2.1-11.2-3.8-2.4-1.3-4.5-2.5-6.6-2.5h-.3c-5.9.4-8.7,1.8-11.2,4.1-.7.5-1.5,2.1-4,9.4-1.3,3.7-1.5,5.7-1.7,7.5-.3,1.7-.4,3.6-1.3,6.3-.7,1.8-1.2,3.4-1.6,5-1.2,4.1-2.2,7.4-5.1,11.4-.4.4-.8,1.2-1.3,1.8-.7,1.1-1.5,2.4-2.6,3.8-.8,1.1-2.5,5-2.4,6.2.1,2,.8,3.2,1.5,4.5s1.6,2.9,1.7,5.1v.4c.3,3.4-.3,5.1-6.7,11-4.1,3.7-7.1,7.3-9.1,9.9-.1.3,0,.5.4.5h1.3c1.6.1,3.2.8,4.2,2,.1.3.5.3.8.1,1.1-.4,2.2-.4,3.3-.3,1.3.1,2.8.5,3.7,1.5.3.3.7.4,1.1.3,1.1-.3,2.2-.3,3.3.1.8.3,1.6.8,2.1,1.5.4.4,1.1.5,1.6.3.3-.1.7-.4,1.1-.5,1.5-.5,3-.3,4.4.3s1.3.4,2,.9c1.1.8,1.8,1.8,2.2,3,.3.7,1.2.9,1.7.4,1.1-.8,1.8-.9,2.6-.7.4.1.7.4.9.8.4.5,1.1,1.1,1.6.8,2.2-.7,4.9-.3,6.9.8.7.4,1.5.9,1.8,1.7h0v-.4c0-.1.1-.3.3-.4h.4c1.1-.5,6.6-2.1,8.7.1.1.1.3.1.4,0,.3-.3.5-.5.7-.5,1.5-.8,3.8-.9,5.4.5.3.3.8.1,1.1-.1.1-.3.3-.4.5-.5.5-.5,1.3-.7,2.1-.7h3c.8-.1,3.2-.4,3.8-.5h.1c.3,0,.7-.1,1.1-.3,1.5-.3,3.2-.7,4.5,0s1.2,2.1,1.1,3.4c0,.5-.1,1.1-.1,1.6v.8c0,1.2,0,2.2-.1,3h0v.7q.1,0,.1.1c.1.5.8.9,1.2.5,1.1-.7,2.1-1.5,2.5-2h0c0-.3.1-.5.3-1.1.1-1.2.4-3.4.4-8.1v-.5c0-1.7,0-3.2-.1-4.4-.1-2.5-.3-4.5,1.1-6.5,1.2-2,2.4-2.6,3.6-3.4,1.3-.8,2.8-1.7,5.3-5.1,1.2-1.7,1.3-2.4,1.5-2.9.3-1.3.7-2.1,2.6-3.4,1.6-1.2,6.2-4.8,12.5-3.7,2.1.4,5.4,1.5,8.8,2.8h0c.1,0,.3.1.4.1h.1c3,1.2,5.8,2.5,7.8,3.6.4.3.9.1,1.3-.3.7-.8,1.3-1.2,2-1.7.3-.1.5-.3.7-.4.1,0,.1-.1.1-.1.5-.4.5-1.5-.1-1.7-8.8-4.4-17.3-7-20.1-7.8ZM99.1,118.1c-2.1,9-16.1,19-22.4,19h-.4c-.1,0-.3,0-.4-.1h-.3c-1.2-.4-2.8-1.2-4-2.4s-1.5-1.8-1.7-2.8c0-.1-.1-.4-.1-.5-.4-1.6-.8-3.4.5-6.6.1-.4.4-.8.5-1.2,0-.1.1-.3.1-.4.1-.4.3-.7.4-.9.1-.5.4-.9.5-1.2,0-.1.1-.3.1-.4.4-1.1.4-1.5.5-1.8,0-.3.1-.8.3-1.3.4-1.7.7-3.2.8-4.4.3-2.2.7-4.2,1.8-6.1.3-.3.4-.5.7-.8q.1-.1.3-.3t.3-.3c.3-.3.7-.4.9-.5.1,0,.3-.1.4-.1.3-.1.5-.1.8-.3,1.2-.3,2.5-.3,4.1-.1,1.7.1,3.3.4,4.6.8,1.2.3,2.2.7,3,1.1.1,0,.1.1.3.1.1.1.3.1.5.3.3.1.4.1.7.3s.5.3.8.4h.3c.9.5,1.8,1.1,2.5,1.6.4.3.7.5.9.8s.3.1.3.3l.3.3c2.8,2.4,2.6,5.7,2.1,7.7ZM105.7,83.9l-.3,1.6c-.7,3.7-2.1,8.7-7.4,10-5.1,1.2-6.3,1.5-9.9,1.7h-.3c-2.6,0-7.8-1.7-8.7-5.8-.5-2.6.7-4.6,2.5-7.8.3-.5.7-1.1,1.1-1.7,2.6-4.4,3.6-7.5,4.4-10,.8-2.5,1.5-4.5,3.2-6.2.4-.4.8-.8,1.3-1.1.3-.3.7-.4,1.1-.7.5-.3,1.1-.4,1.6-.7,1.2-.4,2.5-.5,3.7-.5,2.5,0,5,.7,6.7,2.1.8.7,2,1.8,2.6,5.7.3,2-.3,5.5-1.6,13.3ZM143.6,94.5c-1.8,3.2-2.8,4.9-4.4,6.2-3.2,2.6-6.7,3.2-9.8,3.2s-4-.4-5.1-.5c-3.2-.5-8.8-1.6-10.8-6.2-.4-.9-.4-1.5-.4-2.2s0-2-.4-4.8h0c-.1-1.5-.3-2.9,0-4.8v-.3c1.1-5.5,1.5-6.3,1.6-6.9.5-1.1,1.8-1.6,3-.9,1.1.5,1.5,1.8,1.1,2.9-.1.3-.4,1.5-1.3,5.8v.3c-.3,1.2-.1,2.1,0,3.3h0c.4,3.3.4,4.6.4,5.4v.4h0c.4,1.1,1.2,1.6,2.1,2.1.7.3,1.3-.3,1.2-.9-.9-4.9-.9-10.6.9-14.1.7-1.2,1.7-3,2.8-4.9h0c.1-.1.3-.4.3-.5.1-.1.1-.3.3-.4.5-.8.9-1.5,1.3-2.1,0-.1.1-.1.1-.3h.1c.1-.3.1-.4.3-.5,0,0,0-.1.1-.1h.1c0-.3.1-.3.1-.4h0c.4-.5.8-1.1,1.1-1.6.5-.7-.1-1.5-.8-1.2-1.8.8-3,1.7-3.3,1.8-.9.8-2.4.7-3.2-.4-.8-.9-.7-2.4.4-3.2,1.2-.9,7.3-5.3,14.5-3.3,5.3,1.5,7.9,5.5,9,7,.8,1.2,3.4,4.9,3.3,10.2,0,3.8-1.6,6.7-4.6,11.9Z"/>
    <path class="st9" d="M96.4,67.4c-.4.9-.8,2-1.3,3.2-1.1,2.8-2.4,5.9-3,7.1-1.1,2-1.8,3.3-2.5,4.2-.8,1.2-1.3,2.1-1.8,3.4-.8,2.2-.9,4.8-.4,7.5-1.5-.1-3.7-1.1-4-2.4-.1-.9.4-1.8,2-4.6.3-.5.7-1.2,1.1-1.7,2.8-4.8,4-8.3,4.8-11,.9-2.8,1.3-4,2.8-5,.9-.4,1.7-.7,2.5-.8Z"/>
    <path class="st9" d="M93.6,167.2c-1.6,3.2-3.4,6.1-4.6,7.5-1.1-2.6-2.8-8.8-2.2-13.7v-.4c.1-1.6.5-2.9,1.3-4.1.5-.8,1.8-1.2,3.3-1.2s2.2.3,3.3.8h0c.5.3,1.3.9,1.3,2.6.3,2.4-.9,5.5-2.4,8.4Z"/>
    <path class="st9" d="M178.1,132c.1.1.1.3.1.4-.4.9-1.1,1.6-1.7,2.4-.8.9-1.7,2-2.5,3.7-1.2,2.4-1.6,4.5-1.7,10-.3,6.5,0,10,.3,12.7.1,2.5.3,4.1-.1,6.6-.9,5-3,8.3-5.8,12.5-3.4,5.3-6.9,10.7-12.7,12.4q-.5.1-2.1.1c-1.3,0-3.6,0-7.7.1-7.7.3-11.5.4-14.7,1.1-3.4.7-5.1,1.5-7,2.1-1.6.7-3,1.2-5.8,1.8-1.7.4-4.2.7-12.8.8-9,0-14.4,0-21.4-.8-9.8-1.1-14.7-1.7-18-3.4-7.7-4.1-11-11.5-16.2-23.6h0c0-.1.1-.3.3-.3.3.1.5.3.8.4.3.1.5.1.7.1.5.1,1.1.1,1.6,0q.1,0,.3-.1h0c.1,0,.3,0,.3.1.4.9.9,1.7,1.8,2.2s2,.5,2.9.5,2.1-.1,3.2-.3c.5,0,1.1.3,1.3.7.9,2.4,2.1,4,4,4.2h.4c.4,0,1.1-.1,1.8-.7.7-.5,1.7-.1,2.2.5.4.7.9,1.1,1.5,1.5,1.8,1.8,6.3,2.8,10,2.8s3.8-.3,4.9-.8c1.6-.8,1.6-1.8,1.5-2.4-.1-.8-.3-1.7-.4-2.5,0-.1.1-.1.1,0,.3.5.5,1.1,1.2,1.2h.3c1.1,0,2.6.4,2.9,1.3.1.5.4.9.7,1.5.7.9,1.8,2.1,4.4,2.2h.1c2.9,0,5.1-.9,6.6-2.8.1-.1.1-.3.3-.4.5-.8,2.1-.8,2.8-.1.8.7,1.7,1.1,2.8,1.1h.5c1.3-.1,2.4-.8,3.3-2,.5-.8.9-1.7,1.2-2.8.1-.3.5-.4.8-.1.5.5,1.5,1.1,2.8,1.1s.7,0,1.1-.1c2.5-.5,3.8-2.6,4.4-4.9,0-.1.1-.1.1,0,.7.8,1.8,1.7,3.8,1.7h.3c1.1,0,2-.5,2.6-1.3.8-1.1,1.1-2.6,1.2-4.1,0-.4.3-.8.8-1.1,2.1-.9,4.8-2.9,5.5-4.2,0,0,0-.1.1-.1.1-.4.5-.7.8-.7,1.7-.3,2.4-.7,3-.9.5-.3.9-.4,2.2-.7,9.6-1.5,11.5-1.8,13.6-3.2,3.2-2.1,3.3-5,3.4-7.8.1-2.4.3-5,2.1-8.2.7-1.2,1.5-2.5,2.2-4.1,1.5-2.6,3.4-6.3,4.9-8.3.3-.4.8-.5,1.2-.3,3.3,1.2,6.2,2.5,6.7,3Z"/>
    <path class="st9" d="M84.3,160.8c-.4,3.3-.7,7.8-.1,13.6.1,1.6.4,3.3.7,5-.4.3-1.8.7-4.2.5-3.4-.1-6.9-.9-7.9-2.1h-.1c-.8-.8-1.5-1.3-1.5-2.5s.1-.8.5-1.5c.3-.3.5-.7.8-1.2.5-.8,1.3-1.7,2.1-3,2.2-3.7,3-4.9,4.1-6.3.1-.1.1-.3.3-.4.7-.8,1.3-1.8,2.5-3.6.8-1.2,1.5-2.2,2.1-3,.9-1.3,1.6-2,2-2.4,0,.5-.1,1.3-.3,2.1-.5,1.6-.8,3-.9,4.8Z"/>
    <path class="st9" d="M82.6,108.8q0,.1,0,0c-.5.7-1.1,1.5-1.7,2.8-1.7,3.7-1.7,5.8-1.7,7.5s0,1.6-.3,2.4c-.1.5-.4,1.2-.8,1.8-.9,2.2-2.2,5.1-1.7,9.1-.8-.4-2-1.3-2.2-1.7,0-.3-.1-.4-.1-.7-.3-1.2-.4-2,.3-3.8,2.1-4.8,2.4-5.9,2.5-7.3,0-.3.1-.5.1-.9.4-1.8.7-3.4.8-4.8.3-2,.5-3.3,1.2-4.2.3-.4.9-.5,1.8-.5s.8,0,1.3.1h.5Z"/>
    <path class="st9" d="M80,155.9c-.1-1.2-.3-2.2-.8-3.4,0,0-.1-.3-.1-.4-.1-.1-.1-.3-.3-.4h-.1q-.1-.3-.3-.3h-.1c-.1-.1-.1-.3-.3-.3h-.1c-.7-.3-1.3-.5-2.1-.7h-.7c-.1,0-.3.1-.5.1s-.1.1-.3.1h-.1q-.1.3-.3.4h-.1v.3c-.3.4-.5.8-.8,1.2-.7.9-1.3,2-2,2.9s-1.2,1.7-1.8,2.6c-.4.5-.7.9-1.1,1.5,0,.1-.1.1-.1.3.4.1.8.1,1.2.3.9.1,1.8.3,2.6.4,1.8.3,3.8.4,5.7.3h.3c.4-.7,1.1-1.5,1.7-2.5.4-.5.8-1.1,1.1-1.6-.4-.1-.5-.5-.5-.8Z"/>
    <path class="st9" d="M73.3,163.7c-.1,1.5-1.7,5.1-4.2,8.7-2.1,2.9-3.4,3.7-3.7,3.7-1.1-.1-2-2.6-2.8-5.1-.3-1.1-.7-2-.8-2.9-.5-1.8-.7-4.5-.5-6.1,2.1,1.2,5.8,1.5,11.1,1.5h0c.3.1.7.1.9.3Z"/>
    <path class="st9" d="M69.6,151.8h0c-.9,1.5-1.8,2.8-2.8,4.1-.5.7-.9,1.3-1.5,2-.3.4-.7.8-.9,1.2-.8-.1-1.5-.4-2.2-.5-.7-.1-1.2-.4-1.8-.7-.1,0-.3-.1-.4-.1-.1-.1-.3-.4-.4-.5h0c.3-.4.4-.9.7-1.3.4-.8.8-1.6,1.3-2.4.8-1.3,1.7-2.8,3.2-3.7.1,0,.1-.1.3-.1.5-.3,1.1-.5,1.7-.7h1.1c.1,0,.3.1.5.1,0,0,.1,0,.1.1.1.1.3.1.4.3-.3-.1.3.4.3.3.3.8.4,1.2.5,2Z"/>
    <path class="st9" d="M62.4,148c-1.7,1.3-2.9,3.2-3.8,5.1l-1.6,3.2c0,.1-.1.3-.1.3-.5-.1-1.1-.3-1.5-.4-.5-.1-1.1-.4-1.6-.5-.3-.1-.4-.3-.7-.4.5-.9,1.1-1.8,1.7-2.8.8-1.2,1.7-2.5,2.6-3.6.4-.4.8-.9,1.2-1.2.5-.3,1.1-.3,1.7-.1.7,0,1.3,0,1.8.3-.1,0,0,.1.1.1Z"/>
    <path class="st9" d="M59.8,170.4q-.1.1-.3.3h-.1c-.4,0-.8.1-1.2.1-.8,0-1.6.1-2.4,0-.4,0-.8-.1-1.1-.4-.3-.4-.4-1.2-.5-1.7-.5-2.9-.5-5.8-.3-8.7,1.5.5,3,.9,4.6,1.2-.4,2.6.3,6.5.5,7.5.4.5.5,1.2.7,1.7Z"/>
    <path class="st9" d="M55,147c-1.3,1.6-2.5,3.3-3.6,5.1-.4.7-.9,1.5-1.3,2.2-.5-.1-1.1-.4-1.5-.7s-.8-.5-1.1-.8c-.1-.1-.4-.3-.5-.4,0,0-.1,0-.1-.1.1-.4.4-.7.4-.9.3-.7.5-1.2.9-1.7.7-1.1,1.3-2.1,2.1-3.2.3-.4.5-.8,1.1-.9.4-.1.9,0,1.3,0,.8.1,1.6.7,2.2,1.3Z"/>
    <path class="st9" d="M44.9,154c0-.1.1-.1,0,0,.5.5.9.9,1.5,1.3.3.1.4.4.7.5h0c-.5,2.4-.9,4.8-.9,7.1s-.1.1-.1,0c-.7-2.8-1.5-7.3-1.1-9Z"/>
    <path class="st9" d="M51.3,158.9c-.3,2-.4,4-.3,5.9,0,1.1.1,2.1.3,3.3h-1.1l-.5-.3c-.3-.1-.5-.5-.8-.9-.5-.9-.7-2-.7-3-.1-2,.1-4.1.5-6.1.3.1.7.3,1.1.4.5.3.9.5,1.5.7h0Z"/>
  </g>
  <g class="st10">
    <g id="Layer_2">
      <g class="st7">
        <path class="st6" d="M103.4,261.9c-9,0-17.4-.5-24.6-1.1h-2c0-.1-2-.4-2-.4-.9-.1-2-.3-3.2-.4-6.9-.8-19.7-2.1-33.8-8.7l-2.2-1.1-2-1.2c-27.2-15.3-37.2-38.1-42.8-50.4-.4-.8-.8-1.7-1.2-2.6-2.8-5.7-4.5-10.7-5.9-15.4l-.3-1.1-.3-1.1c-4-14-4.9-26-3.2-38,1.8-12,6.2-22.8,14-34.3l4-6.5c.8-1.3,1.3-2.8,1.7-4.2,3-15,9.9-25.7,13.3-30.9.9-6.2,2.5-12.3,4.6-18.2l.3-.9.4-.9c0-.1.1-.4.3-.8,1.6-4.6,5.1-15.3,14.3-26.7l3.4-4,3.6-3.2C48.8,1.7,59.7-4.4,71.3-7.8c6.5-2,13.2-3.2,20.1-3.6h1.6c1.2,0,2.4-.1,3.4-.1,4.2,0,8.4.4,12.7,1.1,2.6.4,5.3.1,7.8-.9,7.3-3,14.8-5,22.6-6.1.7-.1,1.2-.1,1.7-.3,1.2-.1,3.2-.4,5.5-.7,4.1-.4,10.4-.9,17.2-.9,13.3,0,24.8,1.7,35.1,5.3l.9.3.8.3c22.7,8.6,34.2,20.6,42.5,31l.4.5,1.2,1.1c7.5,5.8,13.9,13.1,18.9,21.1l1.6,2.5,1.3,2.6c11.1,22.6,7.5,43.6,6.2,51.3v.4c-1.1,5.8-2.6,11.5-4.6,17-.8,5.3-2,10.6-3.7,15.6-2.9,9-7.3,17.6-12.8,25.2-3.2,4.5-6.9,8.8-10.8,12.7-1.5,1.3-2.4,3.2-2.6,5.1-.1,1.2-.4,2.4-.5,3.6-3.3,17.4-10.8,29.6-14,34.5l-9.4,13.5c-11.4,14.1-24.8,23.4-41.1,28.4l-4,1.2-4.2.8c-4.9.9-9.8,1.3-14.8,1.3h-4.1c-1.8,0-3.7.4-5.5.9-10.8,3.4-22.7,5-37.2,5Z"/>
        <path class="st2" d="M103.4,252.5c-8.6,0-16.9-.5-23.8-1.1h-1.6c0-.1-1.6-.4-1.6-.4-1.1-.1-2.2-.3-3.4-.4-6.7-.7-17.8-2-30.2-7.8l-1.8-.9-1.7-.9C15,227.7,6.2,207.8.9,195.9c-.4-.8-.8-1.8-1.3-2.8-2.5-5-4.1-9.8-5.4-14l-.3-.9-.3-.8c-3.4-12.5-4.4-23.1-2.8-33.5,1.6-10.3,5.5-19.9,12.4-30l5.1-8.3c.9-1.5,1.6-3.2,1.8-4.9,2.5-14.3,9.2-24.3,12.3-28.9l.4-.5v-.3c.1-.1.3-.3.3-.4.1-.7.4-1.2.5-1.7.8-5.8,2.2-11.6,4.2-17.2l.3-.8.3-.8c.1-.3.1-.5.4-1.3,1.5-4.4,4.5-13.5,12.4-23.2l2.9-3.4,2.9-2.6c7.8-7.1,17.2-12.4,27.2-15.3,5.8-1.7,11.6-2.8,17.7-3h1.3c1.1,0,2-.1,2.9-.1,4.4,0,8.6-1.2,12.8-.4,3.3.7,6.6.3,9.6-1.1,5.7-2.5,13.3-3.4,22-4.6.7-.1,1.2-.1,1.6-.3,1.2-.1,3-.4,5.1-.5,3.8-.4,9.8-.8,16.2-.8,12.1,0,22.4,1.6,31.5,4.6l.8.3.7.3c20.1,7.7,30,17.7,37.8,27.6.4.5.9,1.1,1.1,1.3h.1c0,.1,1.5,1.5,1.5,1.5v.3c6.9,5.1,12.5,11.5,16.9,18.6l1.3,2.1,1.1,2.2c9.5,19.4,6.6,37.2,5.3,44.7v.4c-1.1,5.5-2.5,10.8-4.5,16.1-.7,5-1.8,10-3.4,14.8-2.6,7.9-6.5,15.4-11.4,22.3-3.3,4.8-7.3,9.1-11.5,12.9-2,1.8-3.3,4.2-3.6,7-.3,2-.5,3.8-.8,5.8-2.9,15.4-9.5,26-12.7,30.8l-7.7,11.1c-10.2,13.1-22.2,21.5-36.7,26l-3.3,1.1-3.6.7c-4.2.8-8.6,1.2-12.8,1.1h-5.9c-2,.1-4,.4-5.9,1.1-9.6,3.2-20.9,4.6-34.6,4.6Z"/>
        <path class="st1" d="M103.4,241.6c-8.2,0-16.2-.5-23-1.1h-1.3c0-.1-1.3-.3-1.3-.3-1.2-.1-2.5-.3-3.8-.4-6.3-.7-16-1.7-26.8-6.9l-1.5-.7-1.3-.8c-20.7-11.6-28.4-28.8-33.4-40.1-.4-.9-.9-2.1-1.3-3-2.2-4.5-3.7-8.7-4.9-12.7l-.3-.7v-.7c-3.2-10.8-4-20.1-2.6-28.8,1.3-8.8,4.9-17.2,11-26l.8-1.1.8-1.1c.5-.7.9-1.3,1.5-1.8l3-5.7c1.1-1.8,1.7-3.8,2-5.9,2-12.7,8.1-21.8,10.8-26h0c.1-.3.4-.5.5-.7l.7-.9c.3-.5.5-1.2.8-2s.7-2,.9-3c.7-5.4,2-10.7,3.8-15.8l.3-.7.3-.7c.1-.5.4-.9.7-1.8,1.3-4.1,3.8-11.6,10.6-19.8l2.2-2.8,2.4-2.1c6.6-6.1,14.5-10.4,23.1-13.1,5-1.5,10-2.4,15.3-2.6h3.6c4.5,0,8.8.5,13.2,1.7,3.7.9,7.7.5,11.1-1.2,5.5-2.6,12.9-5.5,21.5-6.6.5-.1,1.1-.1,1.5-.3,1.1-.1,2.8-.4,4.9-.5,3.6-.4,9.2-.8,15.2-.8,10.8,0,19.9,1.3,28,4.1l.5.3.5.3c18.5,7,26.7,16.1,33,24.2,1.5,1.7,1.6,2,2.5,2.9l1.2,1.1.4.5c3,2.4,9.2,7.3,14.7,16.1l1.1,1.7.9,1.7c8.1,16.2,5.5,31,4.4,38.1v.4c-.9,5.1-2.4,10.3-4.5,15.2v.4c-.5,4.6-1.6,9.2-3,13.6-2.2,7-5.5,13.5-9.9,19.4-3.6,5.1-7.9,9.8-12.8,13.7-1.2.9-2.1,2.1-2.8,3.4s-1.1,2.8-1.2,4.2c-.1,2.9-.5,5.8-1.1,8.7-2.5,13.3-8.3,22.6-11.2,27.2l-5.9,8.7c-8.8,11.9-19.4,19.5-32.2,23.5l-2.6.8-2.9.5c-3.6.7-7.3.9-11,.9h-7.9c-2.1.3-4.2.5-6.2,1.3-9.1,2.9-19.5,4.2-32.6,4.2Z"/>
        <path class="st5" d="M103.4,230.6c-7.8,0-15.6-.5-22-1.1h-.9c0-.1-.9-.3-.9-.3-1.3-.1-2.8-.4-4.1-.5-5.9-.7-14.1-1.6-23.4-5.8l-1.1-.5-1.1-.5c-17.6-9.9-24-24.4-28.8-35-.5-1.1-1.1-2.2-1.5-3.3-2-4.1-3.3-7.9-4.4-11.2v-.5c-.1,0-.5-.4-.5-.4-5.1-18.2-3.2-31,6.9-45.7l.5-.8.5-.8c.7-.8,1.3-1.7,2-2.5.9-1.2,1.8-2.5,2.9-3.7.7-.8,1.2-1.7,1.6-2.6l1.2-2.9c.5-1.3.8-2.6.9-4,1.1-11.7,6.7-20.2,9.5-24.4h0c.3-.3.5-.8.7-.9l.7-1.1.3-.3c.4-.7,1.1-2.2,1.6-3.8.3-1.1.8-2.8,1.3-4.2h0c.5-5,1.7-9.9,3.4-14.5v-.4c.1,0,.3-.4.3-.4.3-.8.5-1.5.8-2.4,1.2-3.6,3.2-9.6,8.6-16.4l1.7-2.1,1.7-1.6c12.8-11.6,27.1-12.5,31.8-12.9h2.8c5.7,0,11.2,1.2,16.5,3.4.9.4,2,.5,2.9.5s2-.3,2.9-.8h0c4.9-2.8,13.7-7.9,25.1-9.2.5-.1,1.1-.1,1.5-.1,1.1-.1,2.6-.3,4.5-.5,3.4-.3,8.6-.7,14.1-.7,9.6,0,17.6,1.2,24.3,3.4h.4c0,.1.4.3.4.3,15.8,5.9,22.6,13.5,28.2,20.6,1.5,2,2.2,2.8,3.8,4.4l.9.8.7.8.5.4c2.6,2.1,7.7,5.9,12.1,13.2l.8,1.3.7,1.3c6.5,13.2,4.4,25.1,3.3,31.4v.4c-.8,4.6-2.1,9.2-4,13.6v.4q-.1.1-.3.4c-.1.4-.1.8-.1,1.2v.5c-.5,4-1.5,7.8-2.8,11.5-2,5.9-4.8,11.5-8.4,16.5-3.6,5.1-7.7,9.4-12.1,12.7-2,1.5-3.6,3.3-4.8,5.5-1.2,2.2-1.7,4.6-1.7,7.1s-.4,6.2-.9,9.2c-2.1,11.4-6.9,19-9.9,23.6l-4.4,6.5c-7.7,10.7-16.8,17.6-27.7,21h-.5c-.9.4-1.8.7-2.8.8h-.7c-3,.7-6.1.9-9.1.9h-5.1c-1.5,0-3.3.1-4.9.1-2.2.1-4.4.5-6.5,1.3-7.9,2.4-17.6,3.7-30,3.7Z"/>
        <path class="st3" d="M103.4,219.6c-7.5,0-14.9-.5-21.3-1.1h-1.3c-1.5-.4-3-.5-4.5-.7-5.5-.7-12.4-1.3-19.8-4.9l-.8-.4-.7-.4c-14.4-8.1-19.8-20.2-24-30-.5-1.2-1.1-2.4-1.6-3.7-1.7-3.4-2.9-6.9-3.8-9.8v-.4c-.1,0-.3-.4-.3-.4-4.2-15-2.8-24.6,5.4-36.4l.4-.5.4-.5c.7-.9,1.3-1.7,2-2.6,2.1-2.8,4.2-5.5,7.3-8.8.7-.7,1.1-1.7,1.2-2.6v-3c.1,0,0-1.2,0-1.2v-1.2c.3-9.8,5.1-17,7.8-21,.3-.4.7-.9.8-1.2l.4-.7.4-.5c.5-.8,1.7-3.6,2.8-6.1.4-1.1.9-3.2,1.6-4.9.1-.5.1-.7.3-1.8.4-4.1,1.5-8.2,2.8-12v-.3c.1,0,.3-.3.3-.3.4-1.1.7-1.8,1.1-2.9,1.1-3.2,2.6-7.8,6.7-12.9l1.2-1.5,1.2-1.1c9-8.1,18.6-9.6,25.2-10h2c5.5,0,12.3,2.6,15.8,4.4.8.4,1.7.7,2.6.7s1.8-.1,2.8-.4c2.2-.8,4.4-1.7,6.3-2.8,4.5-2.6,11.9-6.9,21.1-7.9.5-.1.9-.1,1.3-.1.9-.1,2.4-.3,4.2-.5,3.2-.3,7.9-.7,13.1-.7,8.3,0,15.2.9,20.7,2.9h.3c0,.1.3.3.3.3,13.2,5,18.5,10.7,23.5,17.2,1.6,2.1,2.8,3.6,5.1,5.7l.5.5.5.5c.5.5,1.1.9,1.6,1.3,2.2,1.7,6.1,4.8,9.4,10.3l.5.8.4.9c4.9,9.9,3.3,19.3,2.4,24.8v.4c-.7,3.8-1.7,7.5-3.3,11.1h0c-.4.9-.7,1.8-.9,2.9-.1.7-.3,1.3-.3,1.8v.5c-.5,3.2-1.2,6.3-2.2,9.4-1.6,4.9-4,9.5-6.9,13.6-4.5,6.3-9.6,10.8-15.8,13.7-1.5.7-2.8,1.7-3.7,3.2-.9,1.3-1.5,3-1.6,4.6v1.6c.3,4.8.7,10.2-.4,15.8-1.7,9.2-5.7,15.4-8.6,20.1,0,0-13.5,18.7-25.7,22.6l-1.3.4-1.5.3c-2.4.4-4.8.7-7.3.7h-2.5c-.5,0-1.3,0-2.5.1h-.5c-4.8.1-9.1.3-10.4.5-.7.1-1.3.3-2,.5-6.5,2.8-15.6,4.1-28.1,4.1Z"/>
        <path class="st4" d="M103.4,208.8c-7.1,0-14.3-.5-20.3-.9h-.5c-1.7-.3-3.3-.4-4.8-.5-5.1-.5-10.6-1.2-16.4-3.8h-.4c0-.1-.4-.3-.4-.3-11.2-6.3-15.4-15.7-19.4-24.8-.5-1.3-1.2-2.6-1.8-4-1.3-2.6-2.4-5.5-3.2-8.3h0v-.3c-3.4-12-2.5-18.1,3.8-27.3v-.3c.1,0,.3-.3.3-.3.8-.9,1.5-1.8,2.1-2.6,3-4,5.7-7.4,11.6-12.9h0c.4-.4.8-.9.9-1.6.1-.5.1-1.2-.1-1.7l-1.1-3c-.3-.9-.4-2-.4-2.9h0v-1.5c.3-6.6,3.7-11.7,5.9-15.2.4-.5.7-1.1.9-1.5l.3-.4.3-.4c1.2-1.6,3.2-6.2,4.2-9,.3-.9.9-3.2,1.6-4.9.4-1.3.7-2.6.8-4,.4-3.3,1.1-6.6,2.2-9.6h0v-.3c.5-1.3.9-2.4,1.2-3.4.9-2.8,2-5.9,4.9-9.5l.5-.7.5-.5c6.3-5.8,13.3-6.9,18.6-7.3h1.2c5.3,0,9.2,2.1,11.9,3.6l.7.3h.1c.8.4,1.3.8,2,1.1,1.6.8,3.6,1.1,5.3.5,3.7-.9,9.4-3.2,13.1-5.3h.1c4-2.4,10-5.8,17.2-6.6.4-.1.9-.1,1.3-.1.8-.1,2.2-.3,3.8-.4,2.9-.3,7.4-.7,12-.7,7.1,0,12.8.8,17.2,2.2h.3c10.6,4,14.5,8.2,18.7,13.7,1.7,2.2,3.4,4.4,6.6,7.1l.3.3.3.3c.8.8,1.7,1.6,2.8,2.4,1.8,1.5,4.5,3.4,6.7,7.3l.3.4.3.4c3.3,6.9,2.2,13.3,1.5,18.2v.4c-.5,3-1.3,5.9-2.6,8.8-.7,1.6-1.2,3.3-1.5,5-.1,1.1-.3,1.8-.4,2.5v.5c-.4,2.5-.9,4.9-1.7,7.3-1.2,3.8-3,7.4-5.4,10.7-4,5.8-8.4,9.4-14.4,11.2-2.9.9-5.3,2.8-6.9,5.3l-.5.7-.5.7c-1.5,1.7-1.1,8.3-.8,12.3.3,4.4.5,8.8-.3,13.1-1.3,7.3-4.5,12.1-7.3,16.4,0,0-10.3,14.9-19.7,17.7l-.7.3h-.7c-1.7.4-3.6.7-5.4.7h-2.6c-.7,0-1.6,0-3.2.1h-.3c-6.2.3-10,.4-12.1.8-1.5.3-2.8.7-4.1,1.2-5.7,2.2-13.3,3.4-24.4,3.4Z"/>
      </g>
    </g>
  </g>
</svg>