<?xml version="1.0" encoding="UTF-8"?>
<svg id="Layer_1" xmlns="http://www.w3.org/2000/svg" version="1.1" viewBox="0 0 250 250">
  <!-- Generator: Adobe Illustrator 29.0.1, SVG Export Plug-In . SVG Version: 2.1.0 Build 192)  -->
  <defs>
    <style>
      .st0 {
        fill: #fff;
      }
    </style>
  </defs>
  <circle cx="125" cy="125" r="122.5"/>
  <g>
    <path class="st0" d="M194.2,121.1c.5,1.5,0,2.8-1.4,3.9-5.1,3.6-10.2,7.3-15.3,11.1-.4.3-.8.5-1.2.6-.1,0-.3,0-.4-.1-.4-.3-.7-.8-.8-1.2-3.9-12.2-12-37.2-24.3-75-.1-.5-.1-.9,0-1.4,0-.1.1-.2.3-.2.5-.2,1-.3,1.6-.2,6.1,0,12.6,0,19.7,0,1.4,0,1.9,1.1,2.3,2.3,6.8,21.1,13.3,41.2,19.6,60.4Z"/>
    <path class="st0" d="M68.9,80.6c2.6-7.9,4.8-14.8,6.7-20.8.3-.9,1-1.4,2.2-1.4,12.2,0,33.8,0,64.8,0,1,0,1.7.4,2.2,1.2,0,.1.3.9.7,2.2,1.7,5.3,3.6,11.3,5.8,17.8.1.4,0,.9-.4,1.2-.2.2-.6.2-1.1.2-20.8,0-47.7,0-80.7,0-.1,0-.2,0-.2-.2,0,0,0,0,0,0Z"/>
    <path class="st0" d="M46.6,149c6.9-21.1,13.4-41.1,19.6-60.4.5-1.5,1.6-2.3,3.4-2.3,6.3.1,12.6,0,18.9,0,.5,0,1,0,1.3.3.1,0,.2.2.2.3.1.5.1,1,0,1.5-4,12.2-12.1,37.2-24.3,75-.1.5-.4.8-.8,1.1-.1,0-.2,0-.4,0-.5-.1-1-.4-1.4-.7-4.9-3.6-10.2-7.5-16-11.6-1.1-.8-.9-2-.5-3.2Z"/>
    <path class="st0" d="M102.4,86.3c6,.1,12.4.1,19.2,0,2.3,0,2.9,1.2,3.5,3.2,2.2,7,4.3,13.3,6.2,19.1,0,0,0,.1,0,.2,0,0,0,0,0,0-13.9,0-27.4,0-40.3,0-1.2,0-1.5-.9-1.2-1.8,2.8-8.2,4.7-14,5.6-17.3.5-1.8,1.5-2.9,3.1-3.3.3,0,1.6,0,4.1,0Z"/>
    <path class="st0" d="M152.3,119.6c-3.5,2.5-6.2,4.5-8.1,5.9-.2.1-.5.2-.9.4-.1,0-.3,0-.4,0-.4-.3-.7-.7-.9-1.3-4-12.6-8-24.8-11.9-36.5-.1-.3-.1-.7-.1-1.1,0-.1,0-.3.2-.3.2-.2.6-.3,1-.3,7.2,0,13.4,0,18.7,0,2.3,0,3.8,1,4.4,3.1,3,9.4,5.4,16.5,6.9,21.3.4,1.2,0,2.2-1,3,0,0-2.8,2-8.1,5.9Z"/>
    <path class="st0" d="M94.5,152c-8-5.8-12.8-9.2-14.3-10.3-1-.6-1.2-1.5-.9-2.7,2-6,4.3-13.2,7-21.6.5-1.7.8-3.1,2.7-3,6.7,0,13.3,0,20,0,.4,0,.8,0,1.1.2.1,0,.2.1.3.3.1.4.2.8,0,1.1-3.7,11.2-7.8,24-12.4,38.3,0,0-.1.1-.2,0,0,0,0,0,0,0-.8-.6-1.9-1.4-3.3-2.4Z"/>
    <path class="st0" d="M133.1,145.4c-1.4-1-2.5-1.8-3.3-2.4,0,0,0-.1,0-.2,0,0,0,0,0,0,12.2-8.9,23-16.8,32.6-23.8.3-.2.7-.3,1.1-.3.1,0,.3,0,.4.2.3.3.5.7.6,1,2,6.4,4.1,12.7,6.3,19.1.6,1.8-.6,2.5-2,3.5-7.2,5.2-13.3,9.6-18.4,13.4-1,.7-1.9.7-2.8,0-1.5-1.2-6.3-4.7-14.3-10.4Z"/>
    <path class="st0" d="M129.8,177.3c33-24.1,52.3-38,64.4-46.9.3-.2.6-.4.9-.5,1.7-.8,2.2.3,2.6,1.7,1.8,6,3.8,12,5.8,17.9.4,1.1,0,2-.9,2.7-3.6,2.7-21.2,15.5-52.9,38.6-.5.4-1.2.4-1.7,0l-18.2-13.2c0,0,0-.1,0-.2,0,0,0,0,0,0Z"/>
    <path class="st0" d="M122,144.1c6.8,4.9,13.5,9.8,20.3,14.7.4.3.8.6,1,.8.3.3.3.8,0,1.1,0,0,0,0,0,0-5.6,4.1-11.3,8.2-17.1,12.5-.8.5-1.5.6-2.2,0-9.8-7.1-16.3-11.8-19.5-14.1-1.3-.9-1.8-2.1-1.3-3.4,2.6-7.6,4.6-13.9,6.1-18.7.1-.4.4-.7.8-1,.1,0,.2-.1.4-.1.4,0,.9.2,1.3.5.4.3,3.8,2.8,10.4,7.5Z"/>
    <path class="st0" d="M143.9,194.9c-6.7,4.9-12.6,9.2-17.7,12.9-.8.6-1.7.5-2.6-.1-9.8-7.2-27.3-19.9-52.5-38.1-.8-.6-1.2-1.3-1.1-2.2,0-.2.2-.9.7-2.2,1.8-5.3,3.7-11.3,5.8-17.8.1-.4.6-.7,1.1-.7.3,0,.6.2,1,.4,16.8,12.3,38.6,28.1,65.3,47.5,0,0,.1.2,0,.3,0,0,0,0,0,0Z"/>
  </g>
</svg>