<?xml version="1.0" encoding="UTF-8"?><svg id="Layer_1" xmlns="http://www.w3.org/2000/svg" width="128" height="128" viewBox="0 0 128 128"><defs><style>.cls-1{fill:#ff394a;fill-rule:evenodd;}.cls-2{fill:#fff;}</style></defs><circle class="cls-2" cx="64" cy="64" r="48.87"/><path class="cls-1" d="M128,64c0,35.35-28.65,64-64,64S0,99.35,0,64,28.65,0,64,0s64,28.65,64,64ZM83.48,63.73c1.15-1.99,4.02-1.99,5.17,0l12.27,21.26c1.15,1.99-.29,4.48-2.59,4.48h-24.55c-2.3,0-3.74-2.49-2.59-4.48l12.27-21.26ZM76.84,43.28c1.14,1.98,1.14,4.42,0,6.4l-21.13,36.59c-1.14,1.98-3.26,3.2-5.54,3.2h-20.51c-2.3,0-3.74-2.49-2.59-4.48L61.41,25.51c1.15-1.99,4.02-1.99,5.17,0l10.25,17.76Z"/></svg>