<?xml version="1.0" encoding="UTF-8"?>
<svg id="Layer_1" xmlns="http://www.w3.org/2000/svg" version="1.1" viewBox="0 0 250 250">
  <!-- Generator: Adobe Illustrator 29.0.1, SVG Export Plug-In . SVG Version: 2.1.0 Build 192)  -->
  <defs>
    <style>
      .st0 {
        fill-rule: evenodd;
      }

      .st1 {
        fill: #fff;
      }
    </style>
  </defs>
  <path class="st0" d="M105.8,4.1C23.5,16.9-22.1,107.3,16.3,181.8c45,87.5,172.3,87.5,217.4,0C279.5,92.4,205-11.3,105.8,4.1Z"/>
  <g>
    <path class="st1" d="M166.2,86.1c4.1,4,8.2,8,12.2,12-8.9,8.9-17.8,17.7-26.5,26.3,9.1,9.3,17.9,18.3,26.6,27.2-4.1,4.2-8.2,8.4-12.6,12.9-1.8-1.9-3.5-3.8-5.3-5.7-8.9-9-17.9-18-26.8-26.9-1.8-1.8-2.9-3.9-3-6.5,0-2.7,1-4.9,2.9-6.8,10.4-10.4,20.7-20.8,31.1-31.2.4-.4.8-.7,1.4-1.2Z"/>
    <path class="st1" d="M151.5,71.4c4.2,4.1,8.3,8.2,12.4,12.3-.3.3-.5.6-.8.9-10.4,10.5-20.9,20.9-31.3,31.4-2.5,2.5-5.4,3.9-8.9,3-1.5-.4-3.1-1.2-4.2-2.3-10.7-10.6-21.4-21.4-32-32.1-.2-.2-.4-.5-.7-.8,4.1-4.1,8.2-8.1,12.4-12.3.7.7,1.6,1.5,2.3,2.2,7.6,7.6,15.2,15.3,22.8,22.9,1.3,1.3,1.3,1.3,2.7,0,8.2-8.2,16.4-16.4,24.6-24.6.2-.2.5-.4.6-.5h0Z"/>
    <path class="st1" d="M83.6,164.2c-4-4.2-8-8.4-12.1-12.6,8.7-8.6,17.6-17.4,26.5-26.2-1.8-1.9-3.3-3.6-4.9-5.1-6.9-6.9-13.7-13.7-20.6-20.5-1.3-1.3-1.3-1.3,0-2.6,3.3-3.3,6.5-6.6,9.8-9.9.4-.4.9-.8,1.4-1.3,2.7,2.7,5.4,5.4,8.1,8.1,7.8,7.8,15.7,15.7,23.5,23.5.7.7,1.4,1.5,2.1,2.3,2.4,3.2,2.5,7,.1,10.3-.7.9-1.5,1.8-2.3,2.6-10.3,10.4-20.7,20.8-31,31.1,0,0-.2.1-.6.4h0Z"/>
    <path class="st1" d="M85.8,166.3c10.7-10.7,21.2-21.1,31.8-31.6,1.1-1,2.2-2.1,3.5-2.8,3.4-1.8,7-1.2,9.8,1.5,4.4,4.3,8.7,8.6,13.1,12.9,6.6,6.6,13.2,13.1,19.9,19.8-.6.6-1,1.2-1.5,1.7-3.4,3.4-6.7,6.7-10.1,10.2-.8.8-1.2.6-1.9,0-8.2-8.3-16.5-16.7-24.7-25-.2-.2-.5-.4-.8-.7-3.5,3.5-7,6.9-10.5,10.3-5.2,5.2-10.3,10.4-15.4,15.5-.2.2-1,.4-1.1.2-4-4-8-8-12.1-12.1h0Z"/>
  </g>
</svg>