<?xml version="1.0" encoding="UTF-8"?>
<svg id="Layer_1" xmlns="http://www.w3.org/2000/svg" version="1.1" viewBox="0 0 250 250">
  <!-- Generator: Adobe Illustrator 29.0.1, SVG Export Plug-In . SVG Version: 2.1.0 Build 192)  -->
  <defs>
    <style>
      .st0 {
        fill: #ef8c80;
      }

      .st1 {
        fill: #dedede;
      }

      .st2 {
        fill: #fda626;
      }

      .st3 {
        fill: #37241c;
      }

      .st4 {
        fill: #604138;
      }

      .st5 {
        fill: #fefefe;
      }

      .st6 {
        fill: #ffe971;
      }

      .st7 {
        fill: #ebc487;
      }

      .st8 {
        fill: #c74f01;
      }

      .st9 {
        fill: #de6d07;
      }
    </style>
  </defs>
  <circle class="st6" cx="125" cy="125" r="122.5"/>
  <g>
    <path class="st3" d="M162.7,59.6c.7.3,1.6.1,2.2-.4,3.2-2.7,5.5-4.6,6.9-5.7,5.7-4.4,11.5-7.8,17.6-10.3,1.7-.7,3.7-1.2,5.9-1.6,5.3-.9,9.3.8,12.3,5,2.7,4,4.7,8.4,5.8,13.1,4.4,18.3,4.2,36.4-.4,54.4-.2.9-.2,1.9.1,3,1.1,3.9,2.7,8,3.4,11.8,1.2,6.5,1.6,13.6,1,21.1-1.4,18-8.8,33.6-24.7,43-2.4,1.4-5,2.7-8,4-4.6,2-7.3,3.1-8.2,3.5-12.3,4.9-25.5,7.6-39.6,7.9-8.9.2-15,.2-18.5,0-15.4-.7-30-3.4-44-8-7.3-2.4-13.7-5.6-19.3-9.6-12.6-9.1-20-21.2-22.3-36.1-1.4-9.5-.4-19.6,1.8-29,.4-1.8,1.2-4.6,2.4-8.4.3-.9.3-1.9.1-2.8-.4-1.8-.9-4.2-1.5-7.3-3.6-18-2.7-35.4,2.6-52.1,1.5-4.8,3.9-8.6,7.1-11.5,5.4-4.8,16.1-.7,21.7,2.4,6.7,3.8,12.9,8.3,18.6,13.4.4.4,1,.5,1.5.3,2.7-1.1,5.1-2.1,7.2-2.8,21.3-7.3,42.2-7.1,62.7.5,3.4,1.3,5.3,2,5.7,2.1ZM67.4,57.4c1.5,2,3,3.8,4.6,5.5,1.4,1.5,2.3,2.6,2.8,3.2,1.1,1.5,3,4,2.2,5.5-.4.8-1,1.4-1.9,2.1-12.6,9.4-22.2,21.3-28.8,35.8-6,13.2-8.8,26.7-8.3,40.4,0,.7.3,2.3.9,5l.6,3.6c2.4,9.9,7.5,18.1,15.3,24.6,5.7,4.7,11.8,8.4,18.5,11,7.2,2.8,14.9,4.9,23,6.2,23.8,4,47.2,3.1,70.2-2.8,11.7-3,23.4-8.8,31.9-17.3,5.6-5.6,9.4-12.1,11.4-19.7l1.6-6.9c.7-6.2.8-11.3.3-15.2-3.3-26.8-15.6-48.3-36.7-64.5-1.9-1.4-2.9-2.6-1.5-4.9,2.5-4.1,5.7-7.4,8.8-10.9,3.8-3.5,7.8-6.7,12-9.5.6-.4.5-.6-.2-.5-.3,0-.8.1-1.5.3-2.8.8-5.6,2.2-8.7,4-5.8,3.5-11.4,7.7-16.7,12.6-.8.7-1.7,1.2-2.6,1.4-.7.1-1.6,0-2.7-.5-.8-.3-2.2-1-4.4-1.9-5.7-2.6-12.7-4.5-20.9-5.6-15-2.1-29.6-.3-43.6,5.4-1.4.6-3.1,1.3-4.9,2.1-2.1,1-3.5.8-5.1-.7-5.4-5-11.3-9.4-17.7-13.3-3-1.8-6.1-3.1-9.3-3.9-.9-.2-1,0-.3.5l11.6,8.9ZM48,93.9c.8-1.1,1.6-2.2,2.4-3.2,5.7-7.4,11.9-14,18.8-19.8.6-.5.7-1.3.2-1.9-4.7-6.2-10.4-11.3-16.9-15.2l-4.4-2.9c-.5-.4-1.3-.2-1.7.3,0,0,0,0,0,.1-2.3,4.7-4,9.7-5,15.1-2.2,11.2-2.2,23.3-1,34.8.2,1.5.5,3,.9,4.4,0,.1.1.2.2.1,0,0,0,0,.1,0l6.4-11.7ZM198.2,53.1c-6.9,4.4-12.9,9.8-17.9,16.3-.3.4-.2.7.1,1,3.8,3.2,7.5,6.5,11,10.1,2.9,2.9,7,8.1,12.2,15.7l4.7,9.1c.2.4.3.3.4,0,.9-3.6,1.5-7.1,1.7-10.6.5-7.7.2-15.8-1-24.3-.7-5.5-2.3-11.2-4.8-17.1-.4-1-.9-1.8-1.4-2.3-.3-.3-.7-.3-1-.1l-4,2.4Z"/>
    <path class="st7" d="M182.3,58c-.9-.8-1.9-.8-2.9,0-2.7,2.2-5.2,4.1-7.4,5.7-1.1.8-2.2,1.6-3.3,2.6-.6.6-1.7,1.4-3.2,2.6-1.1.9-2.1,1-3.3.5-6.7-3-13.6-5.3-20.7-7-1.9-.4-4.4-.8-7.4-1.1-11.7-1.1-23.2,0-34.4,3.2-1,.3-3.8,1.4-8.4,3.4-2.1.9-3.7,1.4-4.7,1.4-1.8,0-3.4-.7-4.8-2.1-3.4-3.4-7.1-6.4-11-9-1.2-.8-2.3-1-3.4-.8l-11.6-8.9c-.8-.6-.7-.8.3-.5,3.2.8,6.4,2.1,9.3,3.9,6.4,3.8,12.3,8.3,17.7,13.3,1.7,1.5,3,1.7,5.1.7,1.8-.8,3.4-1.5,4.9-2.1,14-5.7,28.5-7.5,43.6-5.4,8.2,1.1,15.1,3,20.9,5.6,2.2,1,3.6,1.6,4.4,1.9,1.2.5,2.1.6,2.7.5.9-.2,1.7-.7,2.6-1.4,5.3-4.8,10.9-9,16.7-12.6,3-1.8,5.9-3.2,8.7-4,.7-.2,1.1-.3,1.5-.3.7,0,.8.2.2.5-4.2,2.8-8.2,6-12,9.5Z"/>
    <path class="st9" d="M52.5,53.6c-1.8,3.1-3,6.1-3.7,8.8-.5,1.9-1.1,4.8-1.6,8.5-.4,2.6-.6,5.5-.7,8.6,0,4.8,0,9.2.1,13.1,0,.4.4.7.8.7,0,0,0,0,0,0,.3,0,.6.2.7.6l-6.4,11.7c0,0-.2.1-.3,0,0,0,0,0,0-.1-.5-1.4-.8-2.9-.9-4.4-1.2-11.5-1.2-23.6,1-34.8,1-5.4,2.7-10.4,5-15.1.3-.6,1-.8,1.6-.5,0,0,0,0,.1,0l4.4,2.9Z"/>
    <path class="st9" d="M203.6,96.2c1.3-12.1.4-23.8-2.6-35.1-.3-1.1-.7-2.4-1.3-4-.5-1.3-1-2.6-1.4-3.9l4-2.4c.3-.2.8-.2,1,.1.5.5,1,1.3,1.4,2.3,2.5,5.8,4.1,11.5,4.8,17.1,1.1,8.5,1.5,16.6,1,24.3-.2,3.5-.8,7-1.7,10.6-.1.4-.2.4-.4,0l-4.7-9.1Z"/>
    <path class="st8" d="M198.2,53.1c.5,1.3.9,2.6,1.4,3.9.6,1.6,1,2.9,1.3,4,3.1,11.3,3.9,23,2.6,35.1-5.2-7.5-9.2-12.8-12.2-15.7-3.5-3.6-7.2-6.9-11-10.1-.4-.3-.4-.6-.1-1,5-6.4,11-11.9,17.9-16.3Z"/>
    <path class="st8" d="M48,93.9c-.1-.4-.3-.6-.7-.6-.4,0-.8-.3-.8-.7,0,0,0,0,0,0-.2-3.9-.2-8.3-.1-13.1,0-3.1.3-6,.7-8.6.6-3.7,1.1-6.5,1.6-8.5.7-2.7,2-5.6,3.7-8.8,6.6,3.9,12.2,9,16.9,15.2.5.6.4,1.5-.2,1.9-6.9,5.8-13.1,12.4-18.8,19.8-.8,1.1-1.6,2.1-2.4,3.2Z"/>
    <path class="st2" d="M182.3,58c-3.2,3.5-6.3,6.9-8.8,10.9-1.4,2.2-.3,3.4,1.5,4.9,21.2,16.2,33.4,37.7,36.7,64.5.5,4,.4,9-.3,15.2-2.8,2.1-4.7,3.5-5.9,4.2-3.4,2-7,2.9-11.1,2.7-7.2-.3-13.5-2.5-18.8-6.4-3.4-2.5-6.3-5-8.8-7.5-6.6-6.5-12.1-11.6-16.7-15.5-3.8-3.2-6.6-5.2-8.3-6.1-8.8-4.9-18.1-5.7-27.9-2.6-6,1.9-10.7,5.7-15.6,9.9-4.8,4.2-10.2,9.2-16.2,15.1-2.5,2.4-5.2,4.7-8.1,6.7-4.4,3.1-9.3,5-14.7,5.7-7.6,1-14.2-.8-20-5.6-.1,0-.3,0-.4,0,0,0,0,0,0,0,0,.2,0,.3,0,.5-.6-2.6-.8-4.3-.9-5-.5-13.7,2.2-27.2,8.3-40.4,6.6-14.5,16.2-26.4,28.8-35.8.8-.6,1.4-1.3,1.9-2.1.8-1.5-1.2-4.1-2.2-5.5-.5-.6-1.4-1.7-2.8-3.2-1.6-1.7-3.2-3.6-4.6-5.5,1.1-.3,2.2,0,3.4.8,4,2.6,7.6,5.6,11,9,1.4,1.4,3,2.1,4.8,2.1,1.1,0,2.6-.5,4.7-1.4,4.6-2,7.4-3.1,8.4-3.4,11.2-3.2,22.7-4.3,34.4-3.2,3,.3,5.5.6,7.4,1.1,7.1,1.6,14,4,20.7,7,1.2.5,2.2.4,3.3-.5,1.5-1.2,2.6-2.1,3.2-2.6,1.1-.9,2.2-1.8,3.3-2.6,2.2-1.5,4.6-3.4,7.4-5.7,1-.8,1.9-.8,2.9,0ZM164.2,104.3c4.2-1.2,7.9-5.4,5.2-9.8-2.8-4.7-8.6-7.3-13.7-5.1-3.1,1.3-4.8,5.5-4.7,8.6,0,2.6,1.1,4.5,2.9,5.5,3.1,1.7,6.6,2,10.4.9ZM85.9,104.3c3.8,1.1,7.3.8,10.4-.9,1.8-1,2.8-2.8,2.9-5.5.1-3-1.6-7.3-4.7-8.6-5.1-2.1-11,.5-13.8,5.1-2.7,4.4,1,8.7,5.2,9.8ZM80.7,133.5c4.8-.6,10.2-2.3,11.6-7.2.7-2.5.4-5.3-1.1-8.3-2.4-4.8-7.8-7.7-13.3-7-5.5.7-10.1,4.8-11.2,10-.7,3.2-.4,6,1,8.3,2.6,4.4,8.2,4.8,13,4.2ZM169.4,133.5c4.8.6,10.4.3,13-4.1,1.3-2.3,1.7-5,1-8.3-1.1-5.3-5.6-9.4-11.1-10.1-5.5-.7-10.9,2.1-13.3,7-1.5,3-1.8,5.7-1.1,8.3,1.4,4.9,6.7,6.6,11.6,7.3Z"/>
    <path class="st5" d="M164.2,104.3c-3.8,1.1-7.3.8-10.4-.9-1.8-1-2.8-2.8-2.9-5.5-.1-3,1.6-7.3,4.7-8.6,5.1-2.1,10.9.5,13.7,5.1,2.7,4.4-1,8.6-5.2,9.8Z"/>
    <path class="st5" d="M85.9,104.3c-4.2-1.2-7.9-5.4-5.2-9.8,2.8-4.7,8.6-7.3,13.8-5.1,3.1,1.3,4.8,5.5,4.7,8.6-.1,2.6-1.1,4.5-2.9,5.5-3.1,1.7-6.6,2-10.4.9Z"/>
    <path class="st3" d="M80.7,133.5c-4.8.6-10.4.3-13-4.2-1.3-2.3-1.7-5-1-8.3,1.1-5.2,5.7-9.3,11.2-10,5.5-.7,10.9,2.2,13.3,7,1.5,3,1.8,5.7,1.1,8.3-1.4,4.9-6.8,6.6-11.6,7.2ZM85.3,119.4c0-2.3-1.8-4.1-4.1-4.1h0c-2.3,0-4.1,1.8-4.1,4.1h0c0,2.3,1.8,4.1,4.1,4.1h0c2.3,0,4.1-1.8,4.1-4.1h0Z"/>
    <path class="st3" d="M172.3,111c5.5.7,10.1,4.8,11.1,10.1.7,3.3.4,6-1,8.3-2.6,4.4-8.2,4.7-13,4.1-4.8-.6-10.2-2.3-11.6-7.3-.7-2.5-.3-5.3,1.1-8.3,2.4-4.8,7.8-7.7,13.3-7ZM169.2,123.7c2.2-.2,3.9-2.2,3.7-4.6h0c-.2-2.3-2.1-4.1-4.4-3.9h0c-2.2.2-3.9,2.2-3.7,4.6,0,0,0,0,0,0,.2,2.3,2.1,4.1,4.4,3.9h0Z"/>
    <ellipse class="st5" cx="168.9" cy="119.4" rx="4.1" ry="4.2" transform="translate(-9 13.9) rotate(-4.6)"/>
    <circle class="st5" cx="81.2" cy="119.4" r="4.1"/>
    <path class="st5" d="M211.4,153.5l-1.6,6.9c-.9,0-1.5.3-1.7.6-3.2,5.2-6.9,9.5-11,12.9-5.6,4.6-12.2,8.4-19.9,11.4-9.7,3.8-20.1,6.2-31,7.3-8.5.9-16.1,1.3-23.1,1.2-2.4,0-7.8-.3-16-.9-15.1-1.1-29.1-4.7-41.9-10.9-6.2-3-11.4-6.7-15.8-11.1-3-3-5.8-6.9-8.5-11.6-.2-.3-.4-.6-.6-.7-.3-.2-.6-.2-.8-.1l-.6-3.6c0-.2,0-.4,0-.5,0-.1.2-.2.4-.2,0,0,0,0,0,0,5.7,4.8,12.4,6.7,20,5.6,5.4-.7,10.3-2.7,14.7-5.7,2.9-2,5.6-4.3,8.1-6.7,6-5.9,11.4-10.9,16.2-15.1,4.9-4.2,9.6-8,15.6-9.9,9.7-3.1,19-2.3,27.9,2.6,1.7.9,4.5,3,8.3,6.1,4.6,3.8,10.2,9,16.7,15.5,2.5,2.5,5.4,4.9,8.8,7.5,5.3,4,11.6,6.1,18.8,6.4,4,.2,7.7-.7,11.1-2.7,1.1-.7,3.1-2.1,5.9-4.2ZM110,138.5c-1,1-1.3,2.1-1.1,3.4.9,4.5,4,8.2,9.1,11-4.1,2.7-7.6,2.6-10.4-.2-1.6-1.5-3.1-3.8-4.7-6.8-.8-1.6-2-2-3.5-1.2h-.2c-1.6,1-2,2.2-1.2,3.9,2.1,4.6,4.8,7.9,8,10,1.2.7,1.8,1.3,2,2.6,1.5,7.1,4.8,14.8,11.9,17.9,9.5,4.2,17.7-4,20.5-12.3.4-1.1.8-2.9,1.4-5.3.2-1,.7-1.8,1.3-2.1,4.4-2.6,7.6-6.4,9.3-11.4.5-1.4,0-2.4-1.3-3l-.5-.2c-1.5-.7-2.6-.3-3.3,1.1-1.6,3.1-3.9,6.8-6.8,8.3-3.2,1.6-5.9.1-8.8-1.4,3.6-1.5,6.3-3.8,8-6.9,1.7-3.3,1.9-6.3.6-9,.3-2.5-.6-4.5-2.7-6.1-1.1-.8-2.4-1.5-3.9-2-5.8-2-11.4-2-16.9,0-4.9,1.7-7.5,4.4-6.8,9.8Z"/>
    <path class="st3" d="M140.3,136.9c-1,5.5-3.7,9.5-8.3,11.9-1.2.6-2.3,1.2-3.5,1.6-.1,0-.2.2-.1.3,0,0,0,0,0,0,1.2,1,2.4,1.7,3.4,2,2.9,1.5,5.6,3,8.8,1.4,2.9-1.5,5.2-5.2,6.8-8.3.7-1.4,1.8-1.8,3.3-1.1l.5.2c1.4.6,1.8,1.6,1.3,3-1.8,5-4.9,8.8-9.3,11.4-.6.4-1.1,1.1-1.3,2.1-.6,2.5-1,4.3-1.4,5.3-2.8,8.3-11,16.5-20.5,12.3-7.1-3.1-10.4-10.8-11.9-17.9-.3-1.3-.9-1.8-2-2.6-3.2-2.1-5.8-5.4-8-10-.8-1.7-.4-3,1.2-3.8h.2c1.5-.9,2.7-.5,3.5,1.1,1.6,3,3.1,5.2,4.7,6.8,2.8,2.8,6.3,2.8,10.4.2.9-.1,2.1-.8,3.6-2.1.3-.2.2-.4,0-.5-5.7-2.3-9.7-5.8-11.5-11.8-.6-5.3,2-8.1,6.8-9.8,5.5-1.9,11.1-1.9,16.9,0,1.5.5,2.8,1.2,3.9,2,2.1,1.6,3,3.6,2.7,6.1ZM134.4,134.6c0-2.3-4.1-4.1-9.3-4.1-5.1,0-9.3,1.8-9.3,4,0,2.3,4.1,4.1,9.3,4.1s9.3-1.8,9.3-4ZM117.6,169.8c2.6,4.1,7.4,6.5,11.7,3,1.4-1.2,2.5-2.3,3.3-3.4.6-.6.8-1,.7-1.4-.1-.3-.3-.5-.6-.6-4.1-1.4-8.3-1.7-12.7-.7-1.3.3-2.4.7-3.2,1.1-.2.1-.3.3-.2.5.3.6.6,1.1,1.1,1.6Z"/>
    <ellipse class="st4" cx="125.1" cy="134.6" rx="4.1" ry="9.3" transform="translate(-10.2 258.9) rotate(-89.7)"/>
    <path class="st1" d="M131.8,152.7c-1-.3-2.1-1-3.4-2,0,0,0-.2,0-.3,0,0,0,0,0,0,1.2-.5,2.4-1,3.5-1.6,4.6-2.4,7.4-6.4,8.3-11.9,1.4,2.7,1.2,5.7-.6,9-1.7,3.2-4.3,5.5-8,6.9Z"/>
    <path class="st1" d="M110,138.5c1.8,6,5.9,9.5,11.5,11.8.3.1.4.3,0,.5-1.5,1.3-2.7,2-3.6,2.1-5.1-2.8-8.2-6.5-9.1-11-.3-1.3,0-2.5,1.1-3.4Z"/>
    <path class="st1" d="M209.9,160.4c-2,7.6-5.8,14.2-11.4,19.7-8.6,8.5-20.2,14.3-31.9,17.3-23,5.9-46.4,6.8-70.2,2.8-8.1-1.4-15.8-3.5-23-6.2-6.7-2.6-12.8-6.2-18.5-11-7.8-6.5-12.9-14.7-15.3-24.6.2-.1.5,0,.8.1.2.1.4.4.6.7,2.7,4.7,5.5,8.5,8.5,11.6,4.4,4.5,9.6,8.2,15.8,11.1,12.8,6.2,26.8,9.8,41.9,10.9,8.2.6,13.5.9,16,.9,6.9,0,14.6-.3,23.1-1.2,11-1.1,21.3-3.6,31-7.3,7.7-3,14.4-6.8,19.9-11.4,4.2-3.5,7.8-7.8,11-12.9.2-.3.8-.5,1.7-.6Z"/>
    <path class="st1" d="M132.6,169.4c-3.7-.7-7.1-1.1-10.2-.9-1.5,0-3,.5-4.8,1.4-.5-.4-.8-.9-1.1-1.6,0-.2,0-.4.2-.5.8-.4,1.8-.8,3.2-1.1,4.4-1,8.6-.8,12.7.7.3,0,.5.3.6.6.2.4,0,.9-.7,1.4Z"/>
    <path class="st0" d="M132.6,169.4c-.8,1.1-1.9,2.3-3.3,3.4-4.3,3.6-9.1,1.1-11.7-3,1.7-.9,3.3-1.3,4.8-1.4,3.1-.1,6.5.2,10.2.9Z"/>
  </g>
</svg>