<?xml version="1.0" encoding="UTF-8"?><svg id="Layer_1" xmlns="http://www.w3.org/2000/svg" width="128" height="128" viewBox="0 0 128 128"><defs><style>.cls-1{fill:#fff;}.cls-2{fill:#0ac18e;}</style></defs><circle class="cls-2" cx="64" cy="64" r="64"/><path id="symbol" class="cls-1" d="M83.96,42.51c-3.22-7.29-10.61-8.85-19.65-7.34l-2.91-11.27-6.85,1.77,2.86,11.24c-1.8.45-3.65.84-5.49,1.36l-2.86-11.18-6.85,1.77,2.91,11.27c-1.48.42-13.84,3.59-13.84,3.59l1.88,7.34s5.04-1.41,4.99-1.3c2.79-.73,4.11.67,4.73,1.98l7.99,30.9c.1.89-.06,2.42-1.98,2.94.11.06-4.99,1.28-4.99,1.28l.75,8.56s12.25-3.14,13.86-3.54l2.94,11.4,6.85-1.77-2.94-11.48c1.88-.44,3.72-.89,5.51-1.36l2.92,11.42,6.85-1.77-2.94-11.39c10.56-2.57,18.01-9.23,16.49-19.41-.97-6.14-7.68-11.18-13.25-11.74,3.43-3.04,5.17-7.47,3.04-13.27h0ZM80.67,69.39c1.36,10.09-12.65,11.32-17.28,12.54l-4.03-15.09c4.65-1.22,19.01-6.34,21.31,2.55ZM72.22,48.84c1.45,8.97-10.54,10.01-14.41,11l-3.67-13.69c3.88-.96,15.14-5.6,18.08,2.7Z"/></svg>