<?xml version="1.0" encoding="UTF-8"?><svg id="Layer_1" xmlns="http://www.w3.org/2000/svg" width="128" height="128" viewBox="0 0 128 128"><defs><style>.cls-1{fill:#fff;}.cls-2{fill:#f7931a;}</style></defs><circle class="cls-2" cx="64" cy="64" r="64"/><path class="cls-1" d="M92.21,56.06c1.27-8.52-5.21-13.09-14.08-16.15l2.88-11.54-7.02-1.75-2.8,11.23c-1.85-.46-3.74-.89-5.63-1.32l2.82-11.31-7.02-1.75-2.88,11.53c-1.53-.35-3.03-.69-4.48-1.05v-.04s-9.68-2.42-9.68-2.42l-1.87,7.5s5.21,1.19,5.1,1.27c2.84.71,3.36,2.59,3.27,4.08l-3.28,13.14c.2.05.45.12.73.23-.23-.06-.48-.12-.74-.18l-4.59,18.41c-.35.86-1.23,2.16-3.22,1.67.07.1-5.1-1.27-5.1-1.27l-3.49,8.04,9.14,2.28c1.7.43,3.37.87,5.01,1.29l-2.91,11.67,7.01,1.75,2.88-11.54c1.92.52,3.78,1,5.6,1.45l-2.87,11.49,7.02,1.75,2.91-11.65c11.97,2.27,20.98,1.35,24.77-9.48,3.05-8.72-.15-13.75-6.45-17.03,4.59-1.06,8.04-4.08,8.97-10.31h0ZM76.16,78.56c-2.17,8.72-16.85,4.01-21.61,2.82l3.86-15.46c4.76,1.19,20.02,3.54,17.76,12.63ZM78.34,55.93c-1.98,7.93-14.2,3.9-18.16,2.91l3.5-14.02c3.96.99,16.73,2.83,14.67,11.11Z"/></svg>