<?xml version="1.0" encoding="UTF-8"?>
<svg id="Layer_1" xmlns="http://www.w3.org/2000/svg" version="1.1" viewBox="0 0 128 128">
  <!-- Generator: Adobe Illustrator 29.4.0, SVG Export Plug-In . SVG Version: 2.1.0 Build 152)  -->
  <defs>
    <style>
      .st0 {
        fill: #fff;
      }

      .st1 {
        fill: #8a8a8a;
      }
    </style>
  </defs>
  <circle class="st1" cx="64" cy="64" r="64"/>
  <path class="st0" d="M92.2,56.1c1.3-8.5-5.2-13.1-14.1-16.1l2.9-11.5-7-1.8-2.8,11.2c-1.8-.5-3.7-.9-5.6-1.3l2.8-11.3-7-1.8-2.9,11.5c-1.5-.3-3-.7-4.5-1h0s-9.7-2.5-9.7-2.5l-1.9,7.5s5.2,1.2,5.1,1.3c2.8.7,3.4,2.6,3.3,4.1l-3.3,13.1c.2,0,.5.1.7.2-.2,0-.5-.1-.7-.2l-4.6,18.4c-.3.9-1.2,2.2-3.2,1.7,0,0-5.1-1.3-5.1-1.3l-3.5,8,9.1,2.3c1.7.4,3.4.9,5,1.3l-2.9,11.7,7,1.8,2.9-11.5c1.9.5,3.8,1,5.6,1.4l-2.9,11.5,7,1.8,2.9-11.7c12,2.3,21,1.3,24.8-9.5,3.1-8.7-.2-13.8-6.4-17,4.6-1.1,8-4.1,9-10.3h0ZM76.2,78.6c-2.2,8.7-16.8,4-21.6,2.8l3.9-15.5c4.8,1.2,20,3.5,17.8,12.6h0ZM78.3,55.9c-2,7.9-14.2,3.9-18.2,2.9l3.5-14c4,1,16.7,2.8,14.7,11.1h0Z"/>
</svg>