<?xml version="1.0" encoding="UTF-8"?>
<svg id="Layer_1" xmlns="http://www.w3.org/2000/svg" version="1.1" viewBox="0 0 250 250">
  <!-- Generator: Adobe Illustrator 29.0.1, SVG Export Plug-In . SVG Version: 2.1.0 Build 192)  -->
  <defs>
    <style>
      .st0 {
        fill: #fff;
      }
    </style>
  </defs>
  <path d="M125,2.5h0c67.7,0,122.5,54.8,122.5,122.5h0c0,67.7-54.8,122.5-122.5,122.5h0C57.3,247.5,2.5,192.7,2.5,125h0C2.5,57.3,57.3,2.5,125,2.5Z"/>
  <path class="st0" d="M145.3,169.6v-28.3c0-1.1.4-2.1,1.2-2.9.8-.8,1.8-1.2,2.9-1.2h28.4l24.4-16.2h-59.5c-7.6,0-13.7,7.2-13.7,14.7v53.1l16.4-19.3Z"/>
  <path class="st0" d="M148.5,81.3l-20.5,20c-.8.8-1.8,1.2-2.9,1.2s-2.1-.4-2.9-1.2l-20.5-20-29.4-5.7,42.9,41.9c5.4,5.4,15.1,4.6,20.6-.7l42.1-41.1-29.3,5.7Z"/>
  <path class="st0" d="M72.2,137.3h28.4c1.1,0,2.1.4,2.9,1.2.8.8,1.2,1.8,1.2,2.9v28.3l16.2,19.3v-54.2c0-7.5-7.2-13.7-14.8-13.7h-58.3l24.4,16.2Z"/>
</svg>