<?xml version="1.0" encoding="UTF-8"?><svg id="Layer_1" xmlns="http://www.w3.org/2000/svg" width="128" height="128" viewBox="0 0 128 128"><defs><style>.cls-1{fill:none;}.cls-2{fill:#e6c367;}.cls-2,.cls-3,.cls-4,.cls-5,.cls-6,.cls-7,.cls-8,.cls-9,.cls-10,.cls-11,.cls-12,.cls-13,.cls-14,.cls-15,.cls-16,.cls-17,.cls-18,.cls-19,.cls-20,.cls-21,.cls-22,.cls-23,.cls-24,.cls-25,.cls-26,.cls-27,.cls-28,.cls-29,.cls-30,.cls-31,.cls-32,.cls-33,.cls-34,.cls-35,.cls-36,.cls-37,.cls-38,.cls-39,.cls-40,.cls-41,.cls-42,.cls-43,.cls-44,.cls-45,.cls-46,.cls-47,.cls-48,.cls-49,.cls-50,.cls-51,.cls-52,.cls-53,.cls-54,.cls-55,.cls-56,.cls-57,.cls-58,.cls-59,.cls-60,.cls-61,.cls-62,.cls-63,.cls-64,.cls-65,.cls-66,.cls-67,.cls-68,.cls-69,.cls-70,.cls-71,.cls-72,.cls-73,.cls-74,.cls-75,.cls-76,.cls-77,.cls-78,.cls-79,.cls-80,.cls-81,.cls-82,.cls-83,.cls-84,.cls-85,.cls-86,.cls-87,.cls-88,.cls-89,.cls-90,.cls-91,.cls-92,.cls-93,.cls-94,.cls-95{fill-rule:evenodd;}.cls-3{fill:#e2c270;}.cls-4{fill:#a17c34;}.cls-5{fill:#e6bd62;}.cls-6{fill:#d4c38b;}.cls-7{fill:#806031;}.cls-8{fill:#d2b257;}.cls-9{fill:#d2b159;}.cls-10{fill:#e6db9d;}.cls-11{fill:#585136;}.cls-12{fill:#927d49;}.cls-13{fill:#e0cd81;}.cls-14{fill:#ecd592;}.cls-15{fill:#d6bc6f;}.cls-16{fill:#c2a44d;}.cls-17{fill:#e3c571;}.cls-18{fill:#6e6342;}.cls-19{fill:#eac970;}.cls-96{fill:#ba9f33;}.cls-20{fill:#f7f7e7;}.cls-21{fill:#d2c281;}.cls-22{fill:#d8c173;}.cls-97{fill:#7a6a2a;}.cls-23{fill:#2d2816;}.cls-24{fill:#e5cc7c;}.cls-25{fill:#d2ba6b;}.cls-26{fill:#cfb66c;}.cls-27{fill:#e9ce77;}.cls-28{fill:#f5eec0;}.cls-29{fill:#d5b457;}.cls-30{fill:#685026;}.cls-31{fill:#c99e3d;}.cls-32{fill:#e2cc85;}.cls-33{fill:#be9c44;}.cls-34{fill:#2d2815;}.cls-35{fill:#92723a;}.cls-36{fill:#dfc57c;}.cls-37{fill:#c49937;}.cls-38{fill:#c3b378;}.cls-39{fill:#252211;}.cls-40{fill:#e5cb7a;}.cls-41{fill:#b58634;}.cls-42{fill:#c4a859;}.cls-43{fill:#e6d89c;}.cls-44{fill:#e5c66b;}.cls-45{fill:#f1d789;}.cls-46{fill:#e3c677;}.cls-47{fill:#f4efc8;}.cls-48{fill:#cbaf59;}.cls-49{fill:#b6903c;}.cls-50{fill:#cca849;}.cls-51{fill:#a67a2e;}.cls-52{fill:#f8f6de;}.cls-53{fill:#b18e3e;}.cls-54{fill:#543e26;}.cls-55{fill:#3f3824;}.cls-56{fill:#ebcc73;}.cls-57{fill:#d8b65b;}.cls-58{fill:rgba(255,255,255,.8);}.cls-59{fill:#8c6228;}.cls-60{fill:#a88f33;}.cls-61{fill:#c39d3c;}.cls-62{fill:#d4b968;}.cls-63{fill:#d7bc6b;}.cls-64{fill:#f3e19d;}.cls-65{fill:#6f674d;}.cls-66{fill:#f4ecb4;}.cls-67{fill:#cbac5a;}.cls-68{fill:#84754b;}.cls-69{fill:#b6933f;}.cls-70{fill:#d2a83e;}.cls-71{fill:#ceb052;}.cls-72{fill:#574f35;}.cls-73{fill:#ac924c;}.cls-74{fill:#dec270;}.cls-75{fill:#cba94c;}.cls-98{fill:#988430;}.cls-76{fill:#e2d59d;}.cls-77{fill:#caa13e;}.cls-78{fill:#dcba5a;}.cls-79{fill:#c0993a;}.cls-80{fill:#453a25;}.cls-81{fill:#dfc677;}.cls-82{fill:#dfc068;}.cls-83{fill:#ccb360;}.cls-84{fill:#cdae50;}.cls-85{fill:#9f8e57;}.cls-86{fill:#ac8132;}.cls-87{fill:#c29637;}.cls-88{fill:#f2e8b0;}.cls-89{fill:#b59544;}.cls-90{fill:#cca847;}.cls-91{fill:#d3ae4d;}.cls-92{fill:#c89d3a;}.cls-93{fill:#292311;}.cls-94{fill:#39331f;}.cls-95{fill:#82764f;}</style></defs><g id="Layer_2"><g id="Layer_1-2"><g id="Layer_1-3"><circle class="cls-98" cx="64" cy="64" r="64"/><circle class="cls-97" cx="64" cy="64" r="61.95"/><circle class="cls-96" cx="64" cy="64" r="60.64"/><path class="cls-26" d="M27.98,57.17c-.36-.33-.75-.66-1.1-.99s-.71-.66-1.08-.99l-1.08-1.02c-.18-.18-.36-.33-.54-.51-.18-.15-.38-.33-.56-.49-1.43-1.36-2.87-2.71-4.28-4.07,1.46,1.34,2.89,2.66,4.35,4.02l.51.51c.18.18.36.33.54.51l1.08.99c.36.33.71.66,1.08,1.02s.71.69,1.08,1.02h0ZM9.01,56.96s5.2.54,7.74.9c2.35.33,9.7,1.46,9.7,1.46l-17.44-2.36ZM9.01,56.96c1.46.12,2.92.28,4.38.43.75.07,1.46.15,2.17.23l1.1.12c.36.05.71.1,1.08.15l4.35.69,2.17.36c.71.12,1.43.26,2.17.38-.71-.07-1.46-.18-2.17-.28l-2.17-.31-4.35-.64c-.36-.05-.71-.12-1.08-.18l-1.1-.13c-.71-.07-1.46-.18-2.17-.26-1.46-.18-2.92-.36-4.38-.59h0ZM25.93,60.68s-5.55,1.41-7.43,1.95c-1.84.51-7.43,2.21-7.43,2.21l14.85-4.15h0Z"/><path class="cls-26" d="M25.93,60.68c-1.23.36-2.46.71-3.71,1.05l-3.71.99c-1.23.36-2.46.71-3.69,1.08l-1.84.51c-.61.18-1.23.33-1.86.51.61-.2,1.23-.41,1.84-.59l1.84-.59c1.23-.38,2.46-.75,3.69-1.13,1.25-.31,2.49-.64,3.74-.94,1.19-.3,2.44-.6,3.7-.88h0ZM11.86,68.25c.61-.23,7.65-3.51,9.29-4.28.82-.38,3.2-1.23,3.2-1.23l-12.49,5.51Z"/><path class="cls-26" d="M11.86,68.25c.54-.2,1.05-.46,1.56-.69l1.53-.71,3.08-1.48c1.02-.49,2.02-1.02,3.08-1.48.54-.23,1.08-.41,1.62-.59l.82-.26c.28-.07.54-.16.82-.23-1.02.49-2.1.9-3.13,1.38-1.02.51-2.07.92-3.13,1.38l-3.13,1.38c-1.05.43-2.07.88-3.12,1.32h0ZM12.54,71.11s6.38-3.74,8.57-4.94c1.15-.64,4.87-2.49,4.87-2.49l-13.44,7.43Z"/><path class="cls-26" d="M12.54,71.11c1.08-.66,2.17-1.34,3.27-2.02l1.64-.99c.56-.33,1.1-.64,1.67-.97.56-.33,1.1-.66,1.67-.97.27-.17.56-.31.85-.43l.87-.43c1.15-.56,2.3-1.13,3.51-1.62-1.1.69-2.23,1.28-3.36,1.9-.56.31-1.13.59-1.69.9s-1.1.64-1.67.94c-.56.33-1.1.64-1.67.94l-1.69.92-3.41,1.84h0ZM25.93,64.51s-3.97,3.04-5.25,4.02-5.06,3.71-5.06,3.71l10.31-7.73Z"/><polygon class="cls-32" points="48.69 89.06 46.66 85.22 47.84 80.41 56.26 77.16 52.68 69.81 54.45 62.38 57.78 55.74 68.05 54.12 75.6 46.92 91.9 48.16 95.1 65.58 88.94 87.53 85.43 98.89 71.2 99.43 64.59 94.85 56.85 91.62 48.69 89.06"/><path class="cls-45" d="M73.65,88.94s-1.97.9-5.32.69c-.97-1.3-7.77-1.92-7.77-1.92,0,0-.85-.26-2.35.36-1.51.61-2.94.54-4.28.87s-2.66-1.41-3.69-1.77c-1.02-.38-2.38-1.3-2.38-1.3l-2.87-.28-5.76-2.43-9.15-9.11-2.49,3.89-.77,4.82,2.77,5.71,7.45,6.78,14.52,3.69,8.61-2.54,10.78-4.56,2.7-2.9h0Z"/><polygon class="cls-66" points="22.07 56.73 23.91 51.15 26.11 47.54 33.18 46.95 31.06 53.15 25.14 63.67 27.6 73.06 23.25 75.24 21.91 73.19 20.84 68.48 20.76 63.2 22.07 56.73"/><path class="cls-64" d="M30,88.55l-1.36-1.9s-.36-.9-.15-1.69c.2-.8.18-.85.07-1.15s-.97-1.34-.92-2.23c.05-.9-.07-1.2.59-1.92.69-.69.49-1.9.49-1.9l.9.56.2-.31s.33.26.33.66c.07-.56-.23-3.15.46-3.74s1.9,2.76,1.9,2.76l-.75-4.87-1.92-4.99-3.41-4.56-.2-5.02v-.43s-1.56,2.4-2,4.3c-.31,1.3.43,2.89.28,4.76-.12,1.86-.28,1.72.18,2.46.46.74,1.56,2.26,1.13,3.36-.38.94-1.69.28-1.69.28,0,0-.26.77-.61,1.05-.12-.46-.26-.75-.51-1.02-.02.18-.07.41-.07.41,0,0-.23-.71-.46-1.62-.31-1.2-.64-2.79-.94-3.63-.12.49-.43,1.97-.43,1.97l.18,2.28.85,3.13.82,2.05.8,2.51.69,1.68.56,1.28.49,2.89,2.35,2.48,1.25.56.91-.47h0Z"/><path class="cls-88" d="M23.3,52.17s-1.69,2.87-2.17,5.76-.92,5.94-.61,9.88c.31,3.97.9,6.4,1.38,8.14.82,2.89,2.94,6.91,2.94,6.91l.07-.16c-.36-.68-.64-1.39-.85-2.12-.28-1.1-.38-2.4-.64-2.99-.23-.59-.61-1.1-.8-1.82-.18-.69-.2-1.79-.75-2.61-.23-.33-.51-1.2-.59-2.07-.1-1.31.05-2.77-.07-3.97-.23-2-.38-3.36-.18-4.4s1.28-4.02,1.95-6.38c.43-1.51.18-2.79.97-4.1.8-1.3,1.28-2.45,1.46-3.25.2-.72-2.11,3.19-2.11,3.19h0Z"/><path class="cls-28" d="M31.31,51.02s-.87.26-1.28.71c-.41.43-.59.8-1.15,1.53s-.59,1.34-1.05,2.26c-.46.9-1.46,2.26-1.58,2.74s-.33,2.76-.59,3.84c-.23,1.08.26,2.4.26,2.4l.59-.12s0,.77.59,1.28c.59.51.69-1.72.69-1.72l2.21-7.45,3.32-2.26.36-1.82-2.37-1.41h0Z"/><path class="cls-10" d="M32.92,54.4s-1.56.1-2.33.66c-.31.23-.43.41-.77.69-.61.51-1.23.97-1.53,1.64-.33.66-.69,1.67-.94,3.56-.1.8-.1,1.53-.18,2.17-.1.87-.26,1.56-.18,2.05.1.99,1.13,1.51,1.23,2.64l2.12-1.08,2-7.88,4.25-2.66-2.4-2.69-1.27.89h0Z"/><path class="cls-40" d="M21.72,107.47c0-.08.02-.16.03-.24.31-2.66.36-4.68.59-5.94.33-1.79.56-2.46.51-3.13-.07-1.08-.15-1.86-.05-2.69.15-1.1,1.23-2.4,1.2-3.3-.02-.71-.38-1.18-.69-1.62s-.56-.8-.56-.8c0,0,2.12-1.46,2.1-7.34.04.01.09.03.12.05l1.05,2.97.71.87,2.74,5.12,3.53,3.43,5.22,3.51,3.27,3.56.33,9.5-4.28,5.55-.7,1.27c-5.56-2.79-10.67-6.42-15.13-10.77h0Z"/><path class="cls-22" d="M34.79,116.56s.07-1.18,1.05-1.95c.16.26.26.51.23.69.18-.31,1.41-2.3,4.19-2.82,2.79-.51,3.46-2.54,3.46-2.54l5.91-5.37,6.76-6.22,8.22-2.89,3.84-.94s.07.28-.07.9c.71-.05,2.3-.41,3.95-.99.66-.26,1.28-.36,1.62-.02.49.46.56,1.53.59,2.17.8-.18,1.72-.94,2.46-.87,1.18.12,2.23,1.51,3.43,1.51,1.58,0,2.3-.97,3.41-1.74.66-.46,1.62-1.02,2.15-1.41,1.28-.94,14.87-5.1,14.87-5.1l4.76.31.77,5.12-.41,13.37c-.05.05-.1.1-.15.15l-21.66,11.31-30.02,4.6c-6.73-1.1-13.22-3.33-19.19-6.6l-.15-.68h0Z"/><path class="cls-45" d="M23.54,109.17c.43-.89.81-1.64.88-1.91.05.54.15,1.72.35,2.97-.41-.35-.82-.71-1.23-1.07h0Z"/><path class="cls-13" d="M45.47,121.76l3.88-1.08.33.1s.18.1.18.46c.49-.28.9-.23,1.2-.41.15.33.31,1.43.99,1.56.71.16,1.48-.31,2.26-.9.77-.61,1.64-1.38,2.3-1.69.24.45.46.91.64,1.38.87-.69,2.38-3.51,4.54-3.46.62-1.47,1.66-2.73,2.99-3.61,2-1.36,3.25-1.46,4.82-1.34.62-.81,1.39-1.49,2.26-2.02.26.1.97.54,1.86.12.9-.41,1.92-2.02,3.25-2.23.72-.1,1.45.05,2.07.43,0,0,3.89-3.86,6.58-5.15-.1-.31-.31-1.48,2.84-4.07.18.16.05.59.18.61.05,0,.82-.33,1.79-1.08,1.2-.9,2.64-1.84,3.51-2.1,1.64-.49,3.38.51,3.38.51.15-.1.31-.18.49-.23.41-.07.71-.12.94-.2-.02.54.28,1.46,0,2.26.32.18.67.33,1.02.43-.18.38-.56,1.36-1.2,1.82.54.26.61.56,1.38.82-.31.43-.82,1.18-1.05,1.64-.23.49-1.05,2.51-1.41,3.27-.38.77-.9,2.17-1.15,2.46s-1.15,1.48-1.84,2.07c.61-.23,3.13-.99,4.19-1.28-.32.47-1.93,2.85-3.47,5.15-14.98,8.98-33.11,11.08-49.75,5.76h0Z"/><path class="cls-36" d="M33.18,54.12s-.9,0-1.08.12.9.38,1.23.51,1.05.69,1.23,1.15c.18.43,6.47,2.97,6.47,2.97l4.45-.23,1.54-2.12-2.92-2.56,2.05-6.04-2.71.43-6.52,3.89-3.27,1.25-.47.61h0Z"/><path class="cls-24" d="M42.96,56.12c.13.21.37.34.61.33.92,0,1.77.23,2.12.69.59.75,2.23,3.13,2.23,3.13l3.91,1.41.25-4.61-4.28-2.97-4.87,1.79v.23h.01Z"/><path class="cls-21" d="M42.19,57.83s.71.05,1.62-.28,2.38-1.05,3.02-.77c.9.38.71,1.58,1.69,2.66.59.66,1.67.64,2.28,1.36s2.71.38,2.71.38l.8,4.3-3.2,4.1-1.05,5.09h-4.33l-3.95-1.57-1.95-4.71.97-4.76,1.38-5.81h0Z"/><path class="cls-3" d="M50.56,58.03c.11.03.22.05.33.05-.12.1-.38.33-.28.92s.43,1.34.16,1.79c.22.24.39.53.49.85.18.51.23.97,1.38,1.05-.17.1-.32.22-.46.36,0,0,.8.69,1.2,1.34.41-.02,1.51-.36,1.51-.36l.23.16.49-.2s-.46-.18-.12-1.28c.31-.97.59-.92.61-.99s.23-1.1.23-1.51c.15-.54.28-2.17.28-2.17l-.33-3.61-1.86-1.13-1.52-1.46-1.43,2.69-.94.94-.07,2.33.11.26h0Z"/><path class="cls-83" d="M55.04,55.01s.33.94.46,1.67c.04-.14.07-.29.07-.43,0,0,.26,1.43.31,2.02.1-.02.2-.05.23.05s.26,1.25.2,1.9c.43-.71,1.03-1.31,1.74-1.74.41-.26.9-.54,1.41-.56.8-.02,1.38.51,2.33.51,2.3,0,4.38-1.69,5.91-2.21,1.13-.38,2.1-.66,2.79-1.28.33-.28.92-.9,1.46-1.82.71-1.23,1.46-2.3,2.21-2.43-.34.06-.68.09-1.02.07,0,0,.23-.23.61-.54s.85-.69,1.51-.69c1.18,0,1.77.18,2.43.18.66-.02,1.05-.18,1.05-.18,0,0,.69.49,2.26.49,1.56.02,2.61.15,3.43.23s3.56-.23,4.35-.2c.51.02,1.02.14,1.48.36l-2.54-7.37-9.11-7.97-5.43,3.84-8.35,8.35-8.08,2.99-1.69,1.9v2.89h-.02Z"/><path class="cls-29" d="M73.17,50.79s.23-.23.61-.54.85-.69,1.51-.69c1.18,0,1.77.18,2.43.18.66-.02,1.05-.18,1.05-.18,0,0,.69.49,2.26.49,1.56.02,2.61.15,3.43.23s3.56-.23,4.35-.2c.51.02,1.02.14,1.48.36l-1.15-3.32-1.34-2.54-3.81-4.17s-4.57-2.69-4.61-2.71c-.02-.02-1.58-.43-1.58-.43l-4.14,2.51-3.76,9.72-.07,2.05,2.43,1.15c.61-1.02,1.28-1.84,1.92-1.95-.57.06-1,.06-1,.06h0Z"/><path class="cls-8" d="M73.11,51.48c-.36.02-.66-.05-.75-.31-.31-.87-.56-.99-.82-.99s-.61.56-.82.61-.46-.64-.46-.64l-.23-.1s-1.34.87-2.28,1.9-2.49,2.77-3.18,3.08-3.08.41-3.89.59-1.72.77-1.84.9.36.28.44.41c.07.12-.8.07-.87.2-.05.1.2.69.33.99.22-.11.47-.17.71-.18.8-.02,1.38.51,2.33.51,2.3,0,4.38-1.69,5.91-2.21,1.13-.38,2.1-.66,2.79-1.28.33-.28.92-.9,1.46-1.82.39-.63.78-1.22,1.16-1.66h0Z"/><path class="cls-9" d="M40.14,102.73s-.2-.77-2.1-2.74c-.54-.56-.87-1.02-1.23-1.36-.9-.85-1.43-1.08-2.07-1.56-1.41-1.05-2.94-1.05-4.12-2.33s-2.56-3.74-3.51-6.25c-.94-2.51-1.2-3.3-1.2-3.38s.26-.56.59-.49.33.71.41.87c.16.25.35.49.56.71.49.56,1.18,1.23,1.53,2.23-.07-.85-.36-1.79-.36-1.79,0,0,1.82,1.15,3.38,2.35,1.56,1.2,2.21,1.62,2.66,2.38s1.53,2.79,2.05,3.38,7.58,2.82,7.58,2.82l3.36,2.5,1.67,3.66-1.31,2.05-2.51.54-4.07-1.82-1.3-1.77h0Z"/><path class="cls-16" d="M31.1,90.14s.85,1.36,2.92,2.64c1.86,1.13,4.82,2.15,7.45,2.77,1.51.36,3.02.64,4.38.66,3.66.05,6.17-.99,9.29-1.34,1.69-.18,3.76-.31,5.91-.82,2.76-.66,4.4-1.41,6.63-2.46,1.62-.75,3.1-1.3,4.3-2.02,1.69-.99,2.92-2.1,4.35-2.43-.18.49-.36,1.36-1.77,2.26.75-.02,1.77-.07,1.77-.07,0,0-.99.59-2.74,1.92-1.08.82-2.51,2.21-3.97,3.13-.94.59-1.97,1.02-2.64,1.38-1.64.9-2.3,1.36-3.38,2.46.38-.02.41,0,.41,0,0,0-1.36.18-2.33.69-.2,0-.56-.07-1.18.1-.49.15-1.13.51-1.79.69-.94.28-1.25.16-1.25.16l.15.31s-1.23-.02-1.64.02c.07.02.05.05.05.05-.07.01-.14.04-.2.07-.2.13-.41.22-.64.28-.12.02-.23.02-.38.05.05.12.46.82.64,1.23-.15.1-2.49,1.86-2.49,1.86.07.11.13.24.18.36.07.23.1.56.18.71.18.31.28.36.28.36,0,0-.28.05-.77.18-.41.1-.92.28-1.64.38-.22.03-.44.05-.66.05.1.23.56,1.1-.28,2.1s-1.1,1.15-1.36,1.79c-.13-.1-.27-.19-.41-.26-.28-.12-.66-.31-.8-.56-.08.33-.18.66-.31.97-.26.69-.64,1.38-.71,1.9-.28-.31-.8-.92-1.51-.8s-1.28,1.1-1.41,1.38c0-.18-.12-.31-.15-.1-.02.23-.41,2.61-2.61,4.54-.02-.49-.02-1.56-.07-1.92-.2.2-.46.51-1.95,1.15-1.46.64-1.23,1.28-1.23,1.28,0,0-.12-1.02.66-2.1.8-1.08,1.28-1.58,1.28-1.67-.01-.08-.05-.16-.1-.23-.1-.1-.31-.23-.31-.31.12-.05,1.36-.64,1.28-1.86-.07-1.1-.54-1.67-.87-2.07-.05-.05.49-.43.41-.56-.05-.07-.71-.56-.8-.82.02-.15.05-.31.1-.46.07-.23.12-.38.1-.54-.05-.26-.33-.97-.41-1.05.07.02.59,0,.59,0,0,0-.41-.66-.49-.97s-.23-1.13-.31-1.28c.18.02.61.05.61,0,.02-.16-.38-.41-.2-.61.12.02.36.12.59.41-.12-.33-.33-.97-.77-1.23.2-.07.9-.26,1.51.1s.82.87.82.87c0,0,.36.28.92.69.64.51,1.46,1.23,2.76,1.74.28.16.99.16,1.51.05.23-.05.44-.14.64-.26.07-.04.15-.08.23-.1-.11-.22-.24-.44-.38-.64.18,0,.38.02.38.02,0,0,.12-.28-.43-.82.12-.12.28-.2.28-.41-.18-.02-.49-.28-.56-.38.1-.07.26-.31.43-.38-.16-.12-.54-.64-.71-.69.17-.06.33-.14.49-.23,0,0-.87-.23-1.15-.41-.28-.2-.69-.56-.94-.66-.26-.1-.71-.15-.9-.36.18.05.46,0,.66,0,.15,0,.23.02.28.02-.02-.07-.02-.23.38-.28.19-.03.38-.09.56-.18,0,0-.38-.02-.82-.43s-.8-.75-1.05-.8c-.26-.05-.75.18-1.05.15-.41-.05-.59-.26-.59-.26,0,0-1.38.12-4.43-1.74-2.64-1.62-3.79-3.04-3.79-3.04-.25-.09-.49-.2-.71-.33-.99-.52-2.37-1.59-2.33-3h0Z"/><path class="cls-77" d="M69.2,27.98c.24.08.45.22.61.41.49.56.8,1.62-.31,2.74.43.15.61.2.99.15-.38.46-1.25,1.43-1.3,2.28-.05.69.38.9.38.9,0,0-.66.77-.69,2.05.31-.35.66-.68,1.02-.97.77-.61,1.82-1.3,2.54-1.74,0,.18.01.36.07.54,0,0,1.34-1.1,2.46-.61.51.23.28.94.28.94,0,0,.69-.26,1.18.23s1.17,1.74,1.53,2.23c.15.23.56.66.97,1.34.57.94,1.04,1.94,1.41,2.97.02-.54.15-1.38,1.69-.85,1.53.54,3.27,1.67,4.73,3.89s1.82,4.73,2.56,5.69c.75.92,1.51,2.45,1.56,3.1s-.23,2.71,1.3,8.32c.43-1.74,1.1-5.6,1.1-5.6l.36-3.41.41-10.54-11.01-9.15-8.61-6.25-5.6.54.35.8h0Z"/><path class="cls-89" d="M89.65,43.67s-.16-1.02-2.74-2.76c-2.59-1.72-4.61-1.72-6.47-3.18-1.43-1.15-2.92-3.79-3.89-4.66-.94-.86-1.1-3.35-1.1-3.35l3.18-2.66,4.73-6.83,4-4.4,1.92,2.66,2.66,3.13,1.48,6.28.54,9.19-4.3,6.6h0Z"/><path class="cls-92" d="M92.85,54.68c.08-1.39-.09-2.79-.51-4.12-.68-2.12-2.17-5.89-2.87-7.3-.28-1.56-.07-1.69.23-1.86s1.43-.82,2.05-3.08,2.54-2.33,2.54-2.33l1.18-.87,1.79,4.48,1.56,4.05.49,3.1.36,2.64-.85,5.58-4.19,3.79-1.78-4.08h0Z"/><path class="cls-71" d="M34.33,116.9v-.11c.09-.05.16-.12.23-.2.07-.1.12-.23.18-.26.1-.05.59-.2.85-.16s.94.33,1.31.31c.75-.02,1.62-.59,2.99-.33,2.07.38,2.56,1.79,3.76,2.59.82.56,1.67.31,1.79.31h.28c.05,0,.43-.43.64-.41.41.02.46.36.71.38.61.07,1.79-.31,2.38-.15.36.11.63.39.75.74.12.38.02.87-.28,1.15-.64.59-1.25,1.15-1.38,1.64.16.12.31.25.45.39-5.12-1.31-10.05-3.28-14.66-5.87h0Z"/><path class="cls-90" d="M89.48,96.21s1.62-2.15,2.17-3.22c.56-1.1-1.77-15.03-1.77-15.03l4.68-15.34-.12-4.99s.23-4.61.77-6.61c.64,1.15,2.64,2.54,3.08,3.27.2-1.41.9-4.38.8-7.55.38.59,1.3,6.52,1.3,6.52l.92,4,1.2,4.25,1.34,4.48.8,3.1.46.75.38,1.3.36,1.41,1.05,3.3.61,2.71.49,4.92c.11.38.18.76.23,1.15.02.54-.07.85-.07.94s.18,1.18.1,2c-.1.82-.1,1.46-.75,2.05s-1.05,4.1-1.05,4.1l-1.15-.77s.23-1.05-.31-2-1.58-1.15-2.17-.99c-.59.12-1.77.31-2.15.64-.36.33-1.25,1.36-2.07,1.82-1.02.61-2.69.66-3.58.87-.9.2-1.9.82-2.94,1.53-.82.53-1.69.99-2.59,1.37h0Z"/><path class="cls-61" d="M89.48,118.84s.07.04.2.12c7.36-3.45,13.95-8.33,19.39-14.37-.06-2.1-.14-4.24-.22-5.04-.18-1.69-.05-3.41-.1-4.4s-.61-5.04-.87-6.09c-.28-1.05-.82-1.56-.9-1.56-.07.02-.51,1.97-.51,2.46s-.1,1.67-.1,1.97c-.07-.02-.1-.2-.1-.28-.1.26-.23.71-.28.77s.07-.43,0-.54-.2-.05-.18-.31c.01-.15.04-.31.07-.46,0,0-.31.46-.54,1.62-.23,1.15-.23,1.18-.31,1.28-.07.12-.49.54-.51.69-.02.28.38.56.41.71.02.26-.36,1.46-.49,2.05s-.07,1.74-.2,2.33c-.1.54-.2.85-.56,1.08.26.05.51.12.51.12,0,0,.36,1.53-.56,2.84-.33.46-.41.66-.77,1.08-.69.77-1.23,1.64-1.28,2.21-.04-.17-.06-.34-.07-.51,0,0-1.08,1.25-1.53,1.97-.59.92-1.41.87-1.64,1.1s-.28.64-.2.97c-.2.05-.59.12-.85.92-.12.41-.43.82-.92,1.1s-1.08.36-1.38.43c.26.07.36.07.49.15-.15.26-.87.66-1.67,1.18-.8.49-1.18,1.2-1.38,1.67-.2.43-.51.71-.99.77.2.12.51.41.66.51-.23.05-.61.05-1.3.64-.72.6-.97.78-1.31.83h0Z"/><path class="cls-25" d="M75.07,123.63c.4-.28.83-.51,1.28-.68,1.62-.64,3.32-.77,4-.97.64-.2,1.15-.49,1.95-.64-.02.18-.04.35-.06.51-2.35.74-4.74,1.33-7.17,1.78h0Z"/><path class="cls-79" d="M104.86,81.15s-.33,1.79-.92,2.92-1.23,2.69-1.23,2.69c0-.35.05-.7.12-1.05-.75.43-2.56,1.48-3.07,1.95-.49.43-1.31,1.2-1.51,1.56.49-1.43.99-2.71,1.08-3.3-.75.54-4.23,3.41-6.04,5.3l-5.64,4.57c-.65.35-1.32.67-2.01.94-.97.41-2.12.77-2.97,1.1.23-.61.59-1.15,1.1-1.67.54-.51,2.15-2.26,2.4-3.07.23-.85.28-1.36-.02-2.07-.28.07-.92.1-1.36.23s-.9.59-.9.59c0,0,.33-1.9,1.05-3.69-.54.02-1.46.18-1.46.18,0,0,1.28-2.15,3.48-3.65-.67.14-1.33.35-1.97.61-1.28.54-2.69,1.34-3.74,1.77.59-.82,4.73-6.73,7.2-12.24,2.46-5.5,3.38-6.91,3.91-9.86.28-1.46.2-3.62.28-5.55.07-1.92.31-3.64.16-4.78.64.8,3.04,3.04,3.13,8.07.07,5.02-2.3,11.81-4.82,15.46.61.18,2.21.38,3.84-2.46s1.62-3.63,2.21-4.82c.07.59.05.8.05.8,0,0,2.38-2.89,3.51-6.52.23,1.56.9,2.94-.16,5.81-.94,2.59-2.17,3.22-2.17,3.22,0,0,.61-.1,1.51-.64.16.38.12.82.38.97s.61.41.66.66c.28-.41.71-.94.85-1.34-.1.82-.18,4.4.2,6.22.8-.07,1.62-.12,2.17-1.56-.38,1.41-.38,2.26-.12,3.46.42-.29.81-.81.81-.81h0Z"/><path class="cls-60" d="M77.95,24.07s-.8.33-2.15.33c-1.18,0-.85-.46-2.69-.46-2.84,0-12.75,1.64-14.49,1.62-1.13-.02,3.81.49,3.81.49l12.62.18,2.54-.2.94-1.92-.58-.03Z"/><path class="cls-17" d="M45.21,48.75s-1.62,1.23-2.3,2.17-1.05,1.56-1.82,2.33c.18,0,.36-.02.54-.07,0,0,0,.2-.12.26.22-.02.43.05.59.2-.23.12-.85.75-.36,1.48.36.56,1.13.61,1.13.61,0,0-.18.51.56.46,1.58-.07,3.36-.77,4.17-.59.82.2,1.28.28,1.86,1.28.61.99,1.15,1.15,1.15,1.15,0,0,.36-.92.28-2.3.3-.74.46-1.53.49-2.33l-.54-3.97-2.35-2.97-3.04,1.69-.23.59h0Z"/><path class="cls-57" d="M48.1,48.16s.23.54,1.18.59c-.1.23-.1.26-.07.43.02.18.05.43.05.43.1-.05.2-.12.28-.2.05.23-.05.59,0,.85.03.16.08.31.15.46.02-.04.03-.07.05-.1.02-.05.2.56.71,1.02,0-.07.02-.14.05-.2,0,.13.05.26.12.36-.04-.02-.07-.04-.1-.07,0,0,.05,1.64.33,2.49.05-.05.09-.11.12-.18,0-.05-.02.46-.07.82-.07.36-.02.87-.02.87.19-.15.39-.27.61-.36.31-.12.82-.51,1.13-1.36.18-.48.32-.98.41-1.48.1.19.17.4.2.61.02.26.51.12.51.12l.1-1.13.61-2.56.56-1.58,2.69-4.19,4.86-3.75,4.25.97,3.58-4.87-6.17-3.71-5.84.61-5.3,7.34-4.25,6.66-.77,1.1h0Z"/><path class="cls-91" d="M78.7,37.53s-.36.07-1.41.61-1.77.71-2.17,1.51-.43,1.43-.43,1.43c0,0,.71-.31,1.13-.41.43-.1.92-.07.87.1-.05.12-.12.23-.2.33,0,0,.82-.02.8.38s-.15.85-.31,1.05c-.16.2-.8.51-.87.75-.18.49.07.51-.02.9-.07.38-.41,1.13-1.53,2.43-1.15,1.31-1.64,2.23-1.64,2.23,0,0-.56-1.05-.85-1.95-.2.1-1.3.71-1.3.71l-2.55-8.87.05-.59s.23-.28.28-.8c-.38-.12-.43-.23-.94-.71s-.92-1.08-1.77-1.48c-.12-.23-.28-.54-.9-.66s-.99-.23-.99-.23c0,0,.33-.12.49-.38-.38.05-.69.18-1.53.16-.85-.02-.94-.05-1.41.02s-1.02.28-1.23-.43c-.23-.18-.71-.02-1.13.59s-.56,1.1-1.36,1.34c-.06.35-.18.69-.36.99-.23.38-.59.77-1.08,1.34-.77.9-.64,2.38-1.86,3.51-1.23,1.13.2-3.13.2-3.13l1.97-4.71,5.6-5.48,8.7-.59.85,4.51,4.25,1.46,2.68,4.09h0Z"/><path class="cls-77" d="M80.07,38.52l-3.66-5.27-2.56-1.97s-1.82-3.35-1.95-3.46c-.1-.07-1.82-.26-2.92-.33l.2.51c.24.08.45.22.61.41.49.56.8,1.62-.31,2.74.43.15.61.2.99.15-.38.46-1.25,1.43-1.3,2.28-.05.69.38.9.38.9,0,0-.66.77-.69,2.05.31-.35.66-.68,1.02-.97.77-.61,1.82-1.31,2.54-1.74,0,.18.01.37.07.54,0,0,1.34-1.1,2.46-.61.51.23.28.94.28.94,0,0,.69-.26,1.18.23.49.49,1.18,1.74,1.53,2.23.15.23.56.66.97,1.34.57.94,1.04,1.94,1.41,2.97.02-.41.1-.99.82-.99l-1.09-1.95h0Z"/><path class="cls-47" d="M25.27,53.5s-.26-.64,0-1.9.66-1.84.8-3.69,1.34-4.14,1.34-4.14l3.32-1.51,2.35.64.69,3.15-2.97,1.64s-.15.69-.99,1.25-2,.99-2.28,1.56c-.17.35-.29.72-.36,1.1,0,0-.85-.18-1.36.38-.54.57-.52,1.08-.54,1.51h0Z"/><path class="cls-56" d="M31.98,52.66s-.28.18-.49.61c-.2-.33-.69-2.3-.71-4.07s-.13-2.21.28-2.82,2.02-1.25,1.79-2.35c-.23-1.05-1.18-1.48-2.35-1.18-.82.2-1.43,1.95-2.28,2.82-.64.66-1.41.56-1.62.92-.28.49-.02.97-.1,1.28-.02.1-.28.66-.75,1.34-.94,1.36-2.54,3.27-2.74,4.99.07-.97.02-.99.28-2.07l-.16-.26,1.02-3.36.66-2.76,1.48-4.63,2.61-4.73,2.54-2.84,2.64.18.31,3.97,1.51,7.45,3.18,3.91-5.1,3.43-2.02.18h0Z"/><path class="cls-44" d="M33.56,54.07s-.43.1-.59.02-.31-.18-.26-.28.33-.28.33-.36c.01-.16-.1-.29-.26-.31-.24-.03-.31.12-.31.12,0,0-.23-.18-.41-.2.11-.01.22-.02.33-.02-.29-.13-.59-.22-.9-.26.26-.15.77-.61,1.1-.61s.54-.05.49-.23-.31-.43-.59-.54c.1-.12.18-.31-.07-.82-.26-.51-.16-.85-.07-.97.07-.16.33-.43.46-.61s.23-.41.43-.54c.1-.07.43-.2.77-.33.36-.12.66-.28.87-.12.23.15.12.36.12.36,0,0,.71-.26,1.36.07.64.31,2.21.51,2.21.51l.56,1.13-3.71,3.18-1.53.77-.31.05h0Z"/><path class="cls-5" d="M38.71,48.87s-1.15.77-1.41,1.05c.15.02.41.12.31.28-.12.15-.87.69-1.28,1.2-.43.51-.85,1.15-.99,1.46-.15.28-1.34,1.1-1.74,1.2.85,0,2.56-1.05,3.2-1.05-.02.31.18.66.54.69s1.41.23,2.82-.64c1.41-.85.94-1.48,1.53-1.9,1.13-.75,1.58-1.41,2.21-1.82s.94-.51.94-.51c0,0,.02-.31.2-.28.1.01.19.08.23.18,0,0,1.08-.77,2.46-.97-.03-.01-.06-.04-.07-.07,0,0,.1-.05.12-.1,0,0,.07-.1.12-.05s.12.43.23.59c.23-.1.66-1.08.66-1.08l1.05-2.99v-2.73l-.82.16-6.14,2.61-3.73,3.86-.43.92h0Z"/><path class="cls-69" d="M56.4,35.46c.33-.08.65-.21.95-.38-.12.33-.12.69-.66,1.48s-.56.9-.99,1.72c-.43.85-.49,2.07-.9,2.61.19-.09.38-.15.59-.18,0,0-.41.36-.59.75s-.49,1.18-1.25,1.67-1.74.8-2.79,1.95c-1.05,1.13-2.12,2.56-2.66,3.07.28-.49.66-1.46.77-2.1s-.02-1.41.15-2.26.18-1.46,1.02-2.94,2.3-6.63,2.3-6.63l3.13-.99.94,2.24h0Z"/><path class="cls-37" d="M54.14,33.56s-.94,1.36-1.2,2.56c-.26,1.2-.02,1.1-.18,1.69-.09.36-.09.74,0,1.1.33-.53.77-.97,1.3-1.28.89-.54,1.62-.92,2.05-1.38.43-.49.8-1.28,1.74-1.9-.38-.05-.92-.23-1.02-.2.38-.43,1.53-1.1,2.69-1.9,1.15-.82,1.08-1.15,2.94-1.97-.61.1-.9-.05-1.41,0,.2-.43.92-.64,1.64-1.36s-.46-1.77-.46-1.77l-5.46,3.3-2.64,3.11h0Z"/><polygon class="cls-82" points="39.32 31.1 39.45 30.1 41.01 27.6 42.65 23.2 42.65 17.18 42.52 13.7 42.78 11.42 42.98 10.7 43.18 10.42 44.52 11.11 46.36 13.62 46.54 18.45 44.75 26.09 39.63 31.67 39.32 31.1"/><path class="cls-60" d="M43.39,10.14s-.82.02-.99,3.43-.26,5.2-.38,6.89-.41,2.71-.56,3.71-.23,2.35-.69,3.18c-.2.38-.64,1.58-1.67,2.49-1.15.99-2.87,1.69-3.13,1.74-.46.1-2.77.33-3.71.85-.33.18-.9.38-1.53.97-1.25,1.13-2.92,3.15-4.12,5.58-1.84,3.64-3.69,13.9-3.69,13.9l.41-.69s.05-.92.97-2.54c.9-1.62.64-3.43,1.9-6.52.49-1.18,1.1-2.71,1.84-4.02,1.18-2.12,2.61-3.95,4.05-4.94,2.35-1.62,4.94-1.97,4.94-1.97l2.79-1.84s.49-.94,1.13-2.02c.9-1.51,2.05-3.2,2.3-5.65.38-3.64-.54-6.02-.49-8.17s.07-3.74.51-4.12.12-.24.12-.24h0Z"/><path class="cls-31" d="M43.39,26.4s1.23-3.02,1.79-5.71c.1-.54.31-1.08.36-1.51.26-2.54.33-3.58,0-4.97-.26-1.02-1.25-1.95-1.77-2.66-.51-.75-.75-1.02-.64-1.18s.51-.41.9-.38c.84.02,1.64.39,2.21,1.02.8.92,1.43,4.05,1.43,4.05l.66,4.13,1.69,5.2-6.63,2.02h0Z"/><path class="cls-41" d="M54.94,23.25s-.23.1-.64,0c.04.34-.12.68-.41.87-.43-.18-4.51.18-4.51.18,0,0-1.9-.33-2.49-2.84-.41-1.67.31-3.97.07-5.48-.36-2.23-.87-2.66-.92-3.36s-.1-.87-.1-1.3c-.23-.05-.36-.12-.59-.12-.05-.2.05-.38-.18-.75.12.05.97.16,1.97,1.1.82.77.82,1.05.94,1.2.15.15,1.41,1.23,1.95,2.3s1.58,4.48,1.82,5.04c.07.23.23.46.61.97.6.75,1.48,1.98,2.47,2.18h0Z"/><path class="cls-60" d="M48.23,12.8c.63,1.01,1.19,2.06,1.69,3.15.61,1.38.97,2.51,1.74,3.43-.41-1.2-1.15-3.56-1.58-4.4-.49-.89-1.48-1.84-1.84-2.17h0Z"/><path class="cls-2" d="M41.19,29.83s-1.05.26-2.99,1.28c-.64.33-1.25.61-1.84.87-1.53.69-3.18,1.33-4.48,1.69.1.12.15.18.15.18,0,0,0,.51.28.8-.15.16-2.23,1.56-1.62,6.28.41-.15.9-.36.97-.36.12.02.16.36.31.36s.66-.2,1.2-.9c-.02.28-.33,3.1,1.34,4.99.31-.36,1.1-1.56,1.1-1.56l.02-.38s.07-1.34.51-2.56,1.28-2.12,1.28-2.12l4.43-6.33-.66-2.23h0Z"/><path class="cls-78" d="M37.04,39.12c-.2.14-.43.26-.66.33-.07-.26-.18-1.15.43-2.02.71-1.05,2.28-2.4,2.71-3.48.28-.69.16-2.43,2.64-4.66s3.46-2.99,3.46-2.99l4.02-2.02,4.94,1.95-2.45,9.62-1.91,4.51-7.58-1.43-5.61.2h0Z"/><path class="cls-27" d="M39.94,36.5l.94-1.18v-.84s1.05-.28,2.17-1.43,2.69-3.36,4.07-3.22c1.38.16,1.51,2.99,1.56,3.79s.23,2.61.51,3.58c.31.97-3.36,4.66-3.36,4.66l-2.49,1.9-3.41-7.26h0Z"/><path class="cls-84" d="M42.85,46.33s.77-1.2.2-1.46c.33-.75.94-1.53.94-1.53,0,0,.43-1.08,1.84-2.4s2.28-2.21,2.51-3.1c.14-.58.22-1.17.23-1.77.15.12.32.24.49.33.23.1,1.3.99,1.15,2.79s-.82,2.54-.82,2.54c0,0-.64.64-1.1.97-.49.33-.66.71-1.48.75.08-.07.18-.12.28-.16,0,0-.85-.1-1.31.31s-1.43,1.69-1.91,2.07c-.49.31-1.02.66-1.02.66h0Z"/><path class="cls-70" d="M77.29,26.19c-1.22-.45-2.51-.7-3.81-.75-2.17-.07-5.35.05-8.47.07-3.36.02-6.4-1.15-10.63-1.36-.69-.41-2.46-2.23-7.96,1.62.33-.02,4-.85,5.27.75,1.28,1.58.92,4.28.75,4.92-.33,1.43-1.41,3.51-1.84,4.97s-.33,2.23-.64,3.25-.99,1.53-.59,2.71c.54-.33.82-.33,1.72-2.35s.71-3.46,2.21-5.17c1.46-1.72,3.89-4.07,4.82-4.66s8.26-4.4,15.95-.77c1.85-.2,3.24-3.24,3.24-3.24h0Z"/><path class="cls-87" d="M49.51,24.78c0-.08-.02-.15-.05-.23-.07-.15-.17-.29-.28-.41,0,0-1.82-.33-2.74-.23-1.62.18-3.08,2.17-3.76,3.2s-1.53,2.61-2.45,3.43c.01-.08,0-.16-.05-.23,0,0,.05.07-.05.18s-.1.15-.05.2l.16.15c.05,0,1.48-.64,3.43-2.46,2.07-1.9,3.66-2.87,4.48-3.2.44-.19.9-.32,1.38-.41h0Z"/><path class="cls-86" d="M84.87,16.99s-.33.41-.75.87c-.92.97-2.12,2.07-3.15,3.2-.97,1.08-2.07,1.92-3.3,3.32s-2.66,2.97-3.02,3.43c-.33.46-.59,1.2-.59,1.58-.18-.12-.38-.26-.38-.26.09.16.19.32.31.46.26.36.66.82.87,1.1.25.35.44.76.54,1.18.12.02.92.18,1.92-1.46s2.3-3.43,2.3-3.43l2.07-3.08,1.31-2.61,1.64-2.92.25-1.39h0Z"/><path class="cls-60" d="M86.99,14.9s-1.25,1.02-1.74,1.64-1.64,2.23-1.64,2.23l.41-.05,2.1-1.86.82-1.46.04-.49h0Z"/><path class="cls-51" d="M86.61,97.2s-.02-.85.46-1.36c.49-.51,1.72-1.25,2.92-4.05s1.34-3.43,1.34-3.43c0,0-2.15,1.84-3.48,2.28.31-.64.49-1.1.64-1.43-.18-.15-.92-.33-.99-.41.41-.41.64-1.43,1.48-2.1,1.08-.82,3.04-2.23,4.57-3.48s4.54-4.17,4.92-5.02c.23.33.28.54.28.54,0,0-1.51,1.97-2.3,3.22-.69,1.08-.64,1.69-.64,1.69l1.43-.61s.41,1.53-1.46,3.86c.82-.31,1.15-.12,1.62-.38-.77.49-1.82,1.15-2.82,2.97-.97,1.82-2.3,3.95-4.54,5.27-2.17,1.4-3.43,2.44-3.43,2.44h0Z"/><path class="cls-59" d="M80.99,27.27s-.85,1.77-.97,3.15c-.02.33-.1.59-.1.97-.02,1.23.07,2.61-.2,3.25-.1-.26-.16-.43-.26-.54-.15.43-.43,1.79-.66,2.3-.1-.33-.33-1.48-.31-2.84s.05-1.62.05-1.9c-.05.41-.33.97-.43,1.3-.15-.28-.33-.64-.54-.94-.12.2-.28.51-.41.66-.02-.12-.07-.46-.1-.92-.02-.54-.05-1.23-.02-1.38.05-.28.49-1.38,1.41-2.38,1.1-1.2,2.23-3.51,2.56-4.23s1.74-3.69,1.74-3.69h1.08l-1.56,3.56s-.94,1.95-1.43,2.66-1.51,2.77-1.97,3.56c.33-.43.61-.66.94-1.08.32-.29,1.21-1.54,1.21-1.54h0Z"/><path class="cls-75" d="M87.01,14.77c-.18.54-.45,1.04-.82,1.48-.64.77-2.02,1.79-2.69,2.61-.61.8-1.84,2.97-1.28,5.55.2-.56.59-1.67,1.62-2.92s2.12-2.69,2.66-3.81c.54-1.13.61-2.02.61-2.02l.2-.26-.12-.59-.18-.04h0Z"/><path class="cls-60" d="M107.98,83.46s-.41-1.13-.54-2.15.2-1.23-.18-2.4c-.23-.71-.64-.61-.75-.71s-.18-1.18-.16-1.77-.02-1.36-.12-1.69c-.15-.12-.26-.23-.49-.99-.26-.77-.38-1.15-.51-1.38s-.49-.43-.49-.66c0-.46.41-.69.41-.82-.02-.26-.33-.05-.41-.12-.1-.12.26-.87.12-.97-.05-.05-.41.38-.51.26-.1-.12-.23-1.36-.41-2.17-.18-.8-.36-1.38-.38-1.62-.02-.23-1.43-4.25-1.77-5.22-.28-.82-.51-1.66-.69-2.51-.1-.49-.18-1.48-.23-1.38s-.02.61-.1.59c-.07-.02-.33-1.79-.41-2.07-.07-.28-.51-1.23-.61-1.92-.1-.69-.33-2.51-.49-3.74s-.23-1.74-.23-2.05c.03-.75-.02-1.51-.12-2.26-.2-1.31-.61-2.89-.97-3.81-.69-1.74-2.54-6.19-2.87-7.3,0-.28.36-.12.36-.12,0,0,.9,2.26,1.56,4,.64,1.74,1.25,3.27,1.41,3.43.12.15,1.1,1.86,1.53,4.66s.59,5.37.85,7.09c.12.82.23,1.69.49,2.56.28.94.71,1.92,1.28,3.41.49,1.25.85,2.3,1.05,3.2.23,1.15.23,2.02.36,2.59.12.49.31,1.46.75,2.87s1.08,3.22,1.51,4.35c.85,2.26,1.23,4.14,1.36,5.15.11,1.04.5,4.62.39,5.7h0Z"/><path class="cls-33" d="M87.06,14.64l-.05.12s.15.05.12.26c0,.28-.02.57-.05.85-.05.36-.15.64-.18.87,0,.49.07,1.05-.61,2.43-.2.38-.33.71-.43.94-.26.56-.31.64-.54.9.36-.2,1.67-1.02,2.33-.9-.46.26-1.15.77-1.58,1.43.1.02.54.1,1.23,0,1.15-.18,2.43-.59,3.56-.51,1.23.07.75-1.48.75-1.48l-1.42-3.13-2.69-1.89-.42.1h0Z"/><path class="cls-4" d="M94.08,38.07s-1.2-1.2-1.69-5.32c-.49-4.14-.38-10.24-.38-10.24l-.97-2.38s-.2-1.58-.71-2.17-1.51-1.58-1.97-2.07-.97-1.15-1.28-1.25c.15-.26.85-1.72,3.51-1.74s3.48,1.46,3.76,2,1.53,2.87,2,7.3c.43,4.43.46,4.76.38,6.3-.05.85-.33,2.82-.82,4.92-.45,1.78-.93,3.77-1.82,4.67h0Z"/><path class="cls-59" d="M90.32,41.6c.4.03.8-.06,1.15-.26.38-.02,1.77.16,2.84-1.2.07.31.26,1.15-.23,1.9.26-.26.64-.36.69-.43.02.38.38,1.56-1.15,4.43.41-.46.9-.43,1.34-.49.02.54.31,2.35-.46,3.32-.51.66-1.34.46-1.34.46.01-.14.01-.29,0-.43-.02-.28-.12-.56-.05-.75-.4-.18-.77-.44-1.08-.75-.9-.85-2.07-2.3-2.15-3.38-.1-1.2.97-1.46.97-1.46-.09-.08-.17-.18-.23-.28-.05-.18-.1-.46-.31-.68h0Z"/><path class="cls-35" d="M82.33,28.57s-.05-.07-.33.26c.05-.33.1-.64.12-.94.13-.28.3-.54.51-.77-.16.31-.26.59-.26.59,0,0,.38-.71.94-1.15.38-.31.87-.46,1.08-.75.23-.31.18-.36.23-.41,0,0,.51-.33,1.28-1.31.1-.12.26-.26.36-.38.18-.07.59-.26,1.08-.51.51-.28,1.08-.66,1.43-.82.69-.31,1.43-.28,1.77-.77.26-.07.54-.85.49-1.51.38.15,2.35,1.38,3.02,4.05.49,1.9-.38,4.82-.75,6.22s-.41,2.45-.92,3.1c-.64.85-2.71,2.05-3.22,2.64-.43.49-1.74,1.72-1.69,2.61.05.66.87,1.02,1.05,1.15s.18.28.51.2.46-.23.59-.23c.15.02.15.05.23.05.05,0,.1,0,.16-.02,0,0-.05.94-2.26,1.23-.16.02-.31.07-.51.1.26-.12.41-.12.69-.51-.31-.05-1.2-.1-1.43-.18.07-.12.31-.46.51-.61.18-.15-.02-.2-.18-.12-.27.18-.52.38-.77.59-.26.23-.49.54-.9.82-.12-.41-.1-1.2.38-1.77-.12.02-.36.38-.59.31-.04-.38-.02-.76.07-1.13.12-.47.8-1.28.8-1.28l3.25-5.81.69-4.4-7.45,1.45h0Z"/><path class="cls-53" d="M82.15,28.82s-.18.12.18.36c-.05.07-.18.33-.33.51-.18.2-.36.33-.43.51-.15.36-.28.61-.28.77s-.05,1.15-.49,1.79c-.16.23-.33.61-.46.87-.26.46-.49.82-.54,1.02-.1.36-.18,1.36-.18,1.36,0,0,.23-.28.31-.38-.12.26-.26.54-.46.75.12-.1.49-.36,1.1-.9.85-.71,2.17-1.92,3.79-2.87-.49.18-.9.18-1.23.23.26-.26,2.59-2.99,3.81-3.25.07-.09.11-.21.1-.33l-1.05-.1-2.12.46-.31-1.64-1.42.86h0Z"/><path class="cls-54" d="M85.53,38.14s-.28.28-.54.97c-.2-.21-.37-.44-.51-.69-.38-.64-.97-1.46-2.35-.99-.02-.43-.05-.66,0-.97.23-.05.92-.61,1.62-1.43.49-.56.94-1.2,1.25-2.02.2-.16.56-.41,1.02-.71.66-.46,1.46-1.08,1.58-1.77-.31.12-.97.43-1.97.38.38-.18.97-.36.9-1.13.16-.1.28-.18.28-.18-.12-.04-.24-.06-.36-.05-.02-.07-.05-.18-.23-.12s-.2.05-.23.12c-.07.02-.31,0-.49.12s-.66.54-.85.61c.07-.12.18-.31.18-.31,0,0-.51.05-.87.2-.66.23-1.43.64-2.21,1.05.07-.12.1-.2.15-.23s.18-.05.18-.07-.05-.2-.02-.28c.23-.49.51-.96.82-1.41.36-.49.43-1.18.43-1.18l1.58-.8,4.45-1.02,2.89.18-.36,2-1.71,3.49-1.46,3.18-1.67,1.95-1.53,1.12h0Z"/><path class="cls-7" d="M92.75,29.49s-1.74,2.15-2.23,2.49c.31-.66,2.23-4.61,2.92-5.71-.15-.12-.36-.12.12-2.05-.41.97-.56,1.48-.9,1.74s-.38.18-.61.18c.04-.08.06-.17.05-.26,0,0-1.46-.18-2.46-.18s-2.97.54-4.07.97c-.87.36-1.36.36-1.67.59-.31.26-.49.54-.64.61-.12.07-.71.26-.85.46-.12.2-.33.43-.33.49s-.05.12.1.07c.05-.02.43-.23.87-.49.59-.33,1.3-.71,1.82-.94,1.48-.59,1.95-.49,2.61-.61.69-.12,1.69-.41,2.35-.41.66-.02,1.92,0,2.21.05-.12.1-.23.23-.18.66,0,.12-.1.26-.2.56-.31.85-.9,2.26-1.23,2.97-.46.97-.97,1.79-1.23,2.3s-.82,1.84-1.38,2.56-.85,1.15-1.02,1.31-1.43,1.08-1.34,1.41c.23-.07,1.67-.61,2.71-1.79s1.25-1.9,2.07-2.54,1.46-1.72,1.84-2.61c.32-.83.25-1.09.65-1.82h0Z"/><path class="cls-49" d="M55.25,45.57s-.23.94-.75,1.41c-.51.46-1.41.85-1.51,1.62-.12.77.9,1.15.9,1.15,0,0-.56.92-.56,1.62s-.02.85.05,1.53c-.08.05-.15.12-.2.2,0,0,.05.66.56,1.08s.94.66,1.2.56c.04.08.07.17.1.26,0,0,.38-.97.64-1.82.26-.87.49-.75.59-1.92s1.23-3.18,1.23-3.18l.77-1.72-1.25-.97-1.77.19h0Z"/><path class="cls-30" d="M57.58,47.25c-.26.27-.5.55-.71.85-.33.46-.59.87-1.08,1.05s-.8.18-.77.66.49.69.75.94c.28.26.51.69.38,1.18.15-.07.43-.16.69-.71s2.07-3.97,2.07-3.97h-1.33Z"/><path class="cls-62" d="M64.72,39.39s.15-.41,0-.71c-.16-.31-1.1-.41-1.56-.77-.49-.36-1.08-.61-1.56-.46.07-.18.36-.56.12-.64-.23-.07-1.08.31-1.3.49s-.75.38-.85.51-.28.36-.38.26c-.1-.07-.15-.26-.33-.16s-1.02.8-1.18,1.2-.51,1.31-1.56,2.33-1.51,1.69-1.2,2.07.46.1.51.43c.04.33.02.65-.05.97-.12.54-.33,1.05-.05,1.15.71.23,1.41-.2,1.56-.07.31.28-.18,1.28.56,1.48.75.2,1.48-.18,1.48-.18l2.71-1.46,2.61-1.38,1.34-2.64-.72-2.21-.14-.23h0Z"/><path class="cls-50" d="M62.16,45.7s-.46-.69.1-1.31,1.36-.87,1.67-1.25c-.06-.07-.14-.13-.23-.15.21-.37.52-.67.9-.85-.15-.15-.36-.28-.59-.28-.51,0-.82.31-1.28.31s-.51-.23-.51-.23c0,0,.77-.07.69-.41-.07-.36-.2-.36-.2-.36,0,0,1.48-.61,1.74-.94s.23-.71.28-.87c.18,0,1.2-.54,1.62-.31s.12.85.12.85c0,0,1.25-.94,1.89-1.87.56.05.82-.38,1.23-.38.51,0,1.31.69,1.46,2.17.1.85.26,1.34.1,2.84-.07.85-.05,2.66.2,3.56.18.71.59.64.59.64-.06.22-.19.41-.36.56-.28.26-.31.94-.28,1.2.04.19.09.38.16.56,0,0-.33.38-.41.64-.07.26-.41.43-.66.43s-.12-.02-.46,0-.43.07-.64,0-.36-.16-.28-.82c.07-.66-2.56-2.21-2.56-2.21l-4.3-1.53h0Z"/><path class="cls-11" d="M57.22,52.25s.94,1.25,4.82,1.25c1.84,0,2.49-.18,2.87-.28.41-.1,1.97-.71,3.53-2.56,1.41-1.67,1.1-2.35,1.1-2.35l-.82-.12-2.66.36-7.88,3.36-.96.34h0Z"/><path class="cls-39" d="M60.11,52.56s-3.36.75-3.36-1.38,2.07-4.25,2.59-4.63c.54-.38,1.82-.82,1.82-.82h3.1l.59,1.56-.26,3.38-4.48,1.88h0Z"/><path class="cls-38" d="M63.2,46.36s-.64-.59-2.1.2-2.64,2.46-2.71,3.97c-.07,1.34,1.1,2.33,2.92,2.38,1.36.05,2.17-.1,2.59-.2-.1-.12-.64-.8-.64-.8l-.05-5.55h0Z"/><path class="cls-43" d="M62.57,46.69s-.15-.12-.61.12c-.38.2-.94.75-1.38,1.13-.28.23-.46.33-.61.51-.64.77-1.18,2.02-.87,2.64s1.34,1.34,3.95.85l-.48-5.25h0Z"/><path class="cls-39" d="M61.72,47.98s-.41.64-.41,1.67.59,2.71,2.77,2.84c1.67.1,2.79-2.4,4-3.38.92-.75,1.48-.77,1.48-.77,0,0-.94-1.02-3.46-2.35-2.49-1.34-5.27-1.51-6.78.54.71-.05,3.02-.64,3.02-.64l1.13.36-1.74,1.73h0Z"/><path class="cls-65" d="M64.97,49.34c-.07-.15-.12-.36.18-.41s.43-.02.54.2.2.41.05.51c-.15.08-.56,0-.77-.3h0ZM64.49,47.88s-.1.07-.05-.07c.02-.18.16-.49.49-.41s.26.43.2.54-.33.28-.54.2c-.09-.02-.15-.12-.12-.21,0-.02.01-.03.02-.05h0Z"/><path class="cls-73" d="M36.45,48.54s.82.61,1.77.59c.94-.02,2.15-.99,2.71-1.62.33-.36.61-.75.92-1.05.26-.26.43-.38.56-.56.18-.2.36-.59.46-.71-.23.18-.56.49-.9.69-.33.2-1.05.59-1.34.69-.28.1-3.18,1.64-3.18,1.64l-1,.32h0Z"/><path class="cls-85" d="M37.71,40.89s.46-.31,1.34-.51c.85-.2,2.56-.36,2.56-.36l1.41.61.56,2.12-1.02,2.21-1.3.82-1.48-2.38-2.05-2.51h0Z"/><path class="cls-19" d="M35.86,42.78l-.49.36s.12-.23.23-.92.64-2.38,1.43-3.36.77-.92.77-.92c-.15-.03-.3.01-.41.1.1-.23.77-1.05,1.43-1.46s.92-.54,1.62-.2.87.51,1.38.49.94-.56.94-.56c0,0,.1.33-.28,1.1s-1.9,2.33-1.9,2.33l-3.15,2.15-1.56.89h0Z"/><path class="cls-63" d="M38.19,40.63s2.28.31,2.97-.33c.02.07.1.07.1.12,0,.04-.02.08-.05.1.08-.01.15-.02.23-.02.09.03.19.04.28.05.08,0,.15,0,.23-.02-.01.1-.07.2-.16.26.1,0,.2.02.2.1s.02.33-.1.38c-.1.03-.21.02-.31-.02,0,.2.06.39.16.56.2.38.64.82,1.23.69,0,0,.31.75-.99,2.4-.18.23-.36.54-.59.8-.09.2-.16.4-.2.61,0,0,2.21-.85,2.84-2.79.64-1.95.77-3.86.64-5.65-.02-.51-.1-.87-.23-1.13-.31-.64-1.18-.54-1.53-.18-.51.51-1.36,1.77-2.54,2.64-1.2.87-1.25,1.02-2.17,1.41h0Z"/><path class="cls-11" d="M35.46,43.42s-.43.26-.66,1.23c-.23.99.2,2.21.46,2.59s.82,1.43,2,1.48c.29,0,.58-.06.85-.18.41-.19.8-.43,1.15-.71.51-.38.92-.71.87-.75-.12-.05-3.13-2.54-3.13-2.54l-1.13-1.26-.4.14h0Z"/><path class="cls-80" d="M38.3,47.54s.61-.05.97-.28-2.12-2.69-2.12-2.69l.18,2.66.97.31Z"/><path class="cls-68" d="M35.66,43.24s-.31.59-.31.75c-.05.51.1,2.1.23,2.61.12.54.8,1.36,1.67,1.36.54,0,1.28-.33,1.28-.41,0-.1-.77-.2-.97-.59-.12-.2-.18-.71-.2-1.23-.02-.33-.02-.69.1-.82.28-.31.33-1.2.33-1.2l.99-1.85h-1.31l-1.56.97-.25.42Z"/><path class="cls-39" d="M35.27,43.81s1.02-1.36,1.95-1.67,1.34-.12,1.34-.12l-.54,1.38-.77.85.05.43s-.12,1.15.64,1.95,1.34.77,1.67.77,1.28-.28,1.77-1.43c.43-1.08.8-2.46-.07-3.84-.85-1.38-2.35-1.43-2.64-1.43s-2.57.11-3.4,3.12h0Z"/><path class="cls-20" d="M61.57,48.41c-.38-.18-.02-1.25.36-1.58s.87-.71,1.72-.77c.31-.02.61.18.56.38-.07.38-.61.92-1.1,1.3-.67.53-1.11.86-1.54.66Z"/><path class="cls-52" d="M40.85,42.54c.28-.02.64.2.71.51.07.33-.18.99-.71.99-.43,0-.66-.54-.66-.69,0-.13.04-.25.1-.36.02-.03.07-.39.56-.45Z"/><path class="cls-6" d="M36.82,42.78s-.71.33-1.05,1.02c-.24.51-.31,1.08-.2,1.64.05.26.31.9.49,1.13s.41.38.59.36.54-.49.54-.77.02-1.46.36-2.1c.3-.64-.72-1.28-.72-1.28h0Z"/><path class="cls-76" d="M36.92,42.73c-.12.07-.33.18-.28.31.05.12.49.2.64.51.18.31.18.64.12.8.14-.06.26-.15.36-.26.23-.26.51-.61.75-.61.16,0,.31.07.46.07.23,0,.46-.07.49-.31.05-.31-.43-.59-.71-.54.05-.2.12-.51-.1-.71s-.94.16-1.1.26-.62.49-.62.49h0Z"/><path class="cls-67" d="M53.37,64.49l1.53-.45.43.31s.31.66.8.75c-.16.33-.56.61-.54.85s.23.41.23.41c0,0-1.38,2.28,1.34,4.57-.64.26-1.46.61-1.9.82.31.07.97.2,1.25.46s.28.33.54.49.41.36.36.46c-.18-.1-.77-.41-.87-.12s-2.56.18-2.56.18l-4.14.8s.15-.41-.28-.8c-.51-.46-1.13.02-1.79-.49-.87-.66-.9-1.43-1.18-1.72.28-.18.85-.43,2.21-.61-.05-.1-.23-.41-.12-.69.12-.36.64-.59.49-1.02.23-.05.33-.05.9-.77.54-.71.87-.87,1.28-.92s.66,0,1.43-.71c.54-.51.36-.94.36-.94,0,0,.35-.11.23-.83h0Z"/><path class="cls-15" d="M48.85,64.72c.02-.1.1-.16.66-.1s4.1-.33,5.06-.38c.97-.07,4.4-.02,6.07.33s3.36.77,4.17.97c.82.23,1.08.31,1.05.41-.02.1-.2.2-.31.18-.1-.02-2.82-.85-3.65-1.02s-3.74-.64-5.32-.61c-1.48.02-2.07-.02-3.32.12-1.25.16-3.32.36-3.95.28-.61-.07-.49-.07-.46-.18h0Z"/><path class="cls-81" d="M57.19,72.83s2.12,1.15,2.89,2.56c.56,1.05-.33,1.56-.33,1.56,0,0,1.2,0,1.05.66-.07.41-2.07,1.53-3.41,2.12-1.36.59-1.3.56-1.97.66-.64.1-2.4-.2-2.77.31s-.2,1.05-.1,1.13c.1.07.94.18.94.18,0,0-.18.49-1.92.54s-2.17.18-2.28.36c-.1.18.33.07,1.13.2.8.12,1.92.2,1.92.2,0,0-.36.31-1.3.56-1.08.28-2.77.54-3.27.85.26.18.64.43.82.46-.43.1-1.05.33-1.15.41.15.1.36.23.36.23,0,0-.87,1.05-1.38,1.31s-3.43,1.62-4.43,1.36c-2.51-.66-2.82-3.41-3.43-3.61-.92-.31-1.36.31-2.17-.12.36-.26.56-.41.94-.59-.41-.2-2.56-1.56-2.56-1.56-.22-.49-.47-.97-.75-1.43-.41-.71-1.02-1.67-1.48-2.51-.99-1.84-1.05-2.69-1.95-3.74.16-.2.69-.18.69-.18l7.55,2.49,13.39.39,3.48-4.97,1.48.18h0Z"/><path class="cls-42" d="M37.35,80.41c.08.09.17.17.28.23.26.18.64.38.9.69.1-.15.36-.43.82,0s1.02.12,1.38.23c.36.12.38.18.38.18,0,0,.2-.18.66-.36.28-.1.61-.18.97-.28.33-.07.69-.18.94-.18.23.15,1.05,1.02,4.33-.26,3.1-1.2,3.81-1.34,4.33-1.15.05-.12.1-.36.9-.33,0-.33-.66-1.46-.66-1.46l-3.66-1.25h-2l-6,1.1-3.32,1.9-.26.96h0Z"/><path class="cls-12" d="M35.36,78.31s.07.56.9,1.15c.82.59,1.08.94,1.08.94,0,0,.16-.2.28-.41.12-.23.23-.49.43-.56.41-.18,1.36.15,1.56.1.18-.05.12-.41.31-.41.43-.02.71.28.87.28s.54-.02.59-.1.07-.94.66-1.36c.64-.46,1.43-.26,1.64-.15,0,.15.02.54.43.56s.46-.05.82.07.8-.02.99.59c.18-.05.59-.1.49-.69.2-.15.38-.26.82-.87.1-.15.28-.33.41-.56.36,0,.8-.07,1.38.43-.18.12-.28.2-.33.33.15.15.29.31.41.49.16.2.26.46.46.51.43.12,1.15-.05,1.95,0,.77.05,1.41.33,1.69.51.1-.05.1-.07.36-.02s.46.07.18-.26c.15.07.33.23.49.07s.28-.38.71-.43.59.02.77-.43c.23-.56-.56-.56-.56-.56,0,0,.36-.33.77-.77.49-.46,1.05-1.05,1.18-1.77.23-1.34-1.08-1.51-1.08-1.51l-6.33,1.95-7.74-.38-6.6,3.28h0Z"/><path class="cls-18" d="M29.67,60.03s-.2.26-.33.87-.07.54-.18.97-1.38,4.76-.9,6.22,1.31,2,1.82,3.18c.1.26.2.41.26.64.18.77.02,1.36.23,2.12.07.26.26.56.54.87.61.64,1.62,1.25,2.05,1.69.61.64,1.48,1.95,2.59,2.07.59.07,1.43-.18,2.12-.59.61-.38.99-.92,1.64-1.23.46-.23.94-.31,1.38-.41.9-.18,1.72-.2,2.21-.1.75.16,2.51.69,3.48.69.76-.01,1.52-.12,2.26-.31,1.48-.43,3.27-1.18,4.45-1.51.69-.2,1.25-.26,1.82-.38.97-.23,1.79-.54,2.26-1.13-.31-.36-.69-.92-2.77-.9-2.35.05-5.06,1.36-6.4,1.56s-1.92.38-3.41-.16c-1.46-.54-1.51-.9-1.51-.9,0,0-1.54-1.07-2.18-3.81s0-4.73,1.67-6.63c.43-.49.33-.92.33-.92,0,0,1.1-1.48.8-2.87-.33-1.38-2.45-1.1-2.45-1.1l-11.77,2.06h0Z"/><path class="cls-94" d="M31.44,64.64c-.09.17-.13.36-.12.56.02.28.1.64.94,1.46.71.71.56,1.51.56,1.51,0,0,.36.07,1.34-.38.77-.36,1.02.28,1.02.28.22-.12.47-.19.71-.23.23-.02.45-.09.64-.2,0,0,.9.92,1.69,1.36.71.38,1.13.64,1.48.38.33-.23.33-.69.31-.9-.08-.19-.19-.37-.31-.54-.23-.33-.59-.71-.61-1.02-.05-.71.54-1.56.41-1.77s-.59-.26-1.74.16c-1.19.39-6.33-.65-6.33-.65h0Z"/><path class="cls-93" d="M34.15,69.27s-.59-.56-.38-3.27c.25,0,.5.02.75.07,0,0,.32,2.1-.36,3.2Z"/><path class="cls-39" d="M29.95,57.96c.08-.06.16-.13.23-.2-.2.38-1.15,1.92-.38,4.33.77,2.4,2.69,4.19,5.06,4.28s3.62-1.08,5.04-2.82c.56-.69,1.2-1.56,1.77-2.15.85-.92,1.51-1.18,1.51-2.07,0-1.82-1.86-2.64-4.61-3.46s-5.22-.72-6.5-.16c-1.25.61-1.79,1.25-2.12,2.26h0Z"/><path class="cls-55" d="M38.76,70.09l.2-.1s.05-.82.38-.8c.33.05.49.49.46.64-.02.15-.1.41-.43.38-.43.01-.61-.12-.61-.12h0Z"/><path class="cls-34" d="M37.84,66.61s.2-.07.46.18c.2,0,1.1-.1,1.38.07s.36.33.36.33c0,0-1.05.23-1.62,0-.58-.2-.58-.58-.58-.58Z"/><path class="cls-95" d="M42.45,66.76c0-.05-.56-.43-1.15-.56-.1-.02-.12.05-.2.05-.05-.02-.07-.18-.07-.18l-.34.18s-.05.07.12.2c.15.12.41.23.49.43s.07.28.1.31c.02.02.38,0,.56-.1s.51-.27.49-.34h0Z"/><path class="cls-23" d="M37.22,68.87s.1-.71.8-.75c.71-.05.85.64.85.64l-.41.41s-.31-.45-1.23-.31h0Z"/><path class="cls-72" d="M41.72,65.79s-.38.41-1.23.54c-.07-.1-.23-.31,0-.64s.49-.43.75-.33c.23.04.42.21.49.43Z"/><path class="cls-95" d="M43.29,66.3c.02-.1-.05-.12,0-.18s.33-.15.38-.1c.02.02,0,.1,0,.2s0,.2-.05.28c-.07.1-.28.16-.38.12s-.12-.18-.12-.2c.05-.02.18-.07.18-.12ZM45.06,65.18c0-.05.18-.16.28-.16.15,0,.15.12.18.16.05.02.05-.02.1.07s.12.26.07.36-.26.18-.31.15c-.07-.05-.3-.52-.32-.59Z"/><path class="cls-18" d="M41.5,66.54s.23.05.54.31c-.1.07-.26.15-.26.15,0,0-.02-.24-.28-.47h0Z"/><path class="cls-11" d="M40.99,64.26c-.05-.05.15-.18.28-.15s.18.1.31.12.16-.05.2-.1.23-.02.26,0c.02.02.04.05.05.07,0-.08.04-.15.1-.2.08-.06.18-.08.28-.05.02.07.12.33.1.38s-.33.12-.38.07c.05.12.28.38.31.43s-.23.18-.33.16c-.14-.01-1.04-.53-1.19-.72h0ZM42.35,62.54c-.02-.05-.06-.1-.1-.12-.07-.02-.31,0-.31.12s.2.82.43,1.18c.26.36.43.66.61.75.11.05.25,0,.31-.1.02-.05.07-.43.05-1.34s-.05-1.77-.1-1.82-.26-.05-.33.05-.54,1.13-.56,1.28h0Z"/><path class="cls-72" d="M41.42,67.84s-.36-.23-.71-.07c-.33.16-.31.77-.31.77.15.06.32.04.46-.05.23-.15.52-.41.57-.64h0Z"/><path class="cls-95" d="M42.11,68.66c-.02-.2-.2-.2-.2-.31.03-.1.12-.18.23-.18.1,0,.2.12.33.2.12.07.31.2.33.36s-.2.59-.46.59-.18-.47-.23-.67h0ZM44.11,68.38s-.41.12-.38,0,.12-.15.26-.15c.07-.07.16-.12.26-.12.06,0,.11.02.15.05,0,0,.28-.12.36-.05s.02.07.07.16c.07.09.11.2.12.31,0,.08-.31.26-.56.23-.29-.06-.24-.36-.29-.41ZM46.52,67.91s.12.07.02.16c-.07.07-.43.2-.75.23-.31,0-.59.05-.59-.05s.26-.31.41-.36c.06-.08.16-.12.26-.12.12,0,.61-.05.75-.07.12-.02.23.05.15.15-.03.07-.26.07-.26.07h0ZM47.23,64.72s-.16.33-.33.33c-.18-.02-.18-.07-.18-.12,0-.07.18-.26.15-.31-.05,0-.18,0-.15-.12,0-.1.18-.23.33-.2.12-.1.26-.15.41-.15.18,0,.33.05.33.15s-.2.33-.28.38c-.08.08-.19.14-.29.05h0ZM44.87,70.84s-.2.02-.2.12c0,.05.05.05.12.02.04,0,.08,0,.12-.02.02.02.02.12.18.12.13-.02.25-.06.36-.12.12-.05.23-.1.23-.2-.05-.18-.16-.26-.31-.26-.08,0-.16.01-.23.05,0,0-.05-.1-.23,0s-.16.1-.1.16c.09.08.06.14.06.14h0ZM43.7,71.91c0-.05.26-.16.33-.12.07.02.28.41.28.46,0,.05-.26.18-.36.18s-.28-.18-.28-.2c0-.02.12-.05.12-.07.03-.05-.09-.18-.09-.23h0ZM42.88,70.4c.05-.02.05-.07.12-.12.05-.03.1-.04.16-.02.04-.07.1-.11.18-.12.12-.02.23,0,.2.05,0,.16.1.26.1.38s-.07.28-.33.38c-.26.07-.61.07-.66.05s-.1-.23-.05-.33.2-.22.28-.27h0Z"/><path class="cls-18" d="M43.21,70.47s-.18.1-.18.16c-.02.05-.02.1-.02.15,0,.03.23-.02.26-.05.01-.02-.06-.2-.06-.26Z"/><path class="cls-11" d="M41.67,69.99c.1.02.28,0,.41.05.1.05.18.16.07.28s-.2.31-.43.28c-.26-.02-.51-.15-.51-.26,0-.13.04-.26.12-.36.1-.08.15-.03.33.01h0Z"/><path class="cls-72" d="M41.55,70.09s-.33.26-.41.38c-.1.12-.61.77-.77.9.05-.09.11-.18.18-.26-.2.13-.36.33-.43.56-.12.38.69.59,1.23.75s.75.2.75.2c-.2-.3-.37-.61-.51-.94-.2-.49-.31-.54-.18-.77.1-.23.26-.38.26-.56-.06-.16-.11-.27-.11-.27Z"/><path class="cls-39" d="M29.74,70.91c.08.01.15.01.23,0,.15-.02,1.77-.61,3.46-.51,1.26.08,2.52.28,3.74.61,2.12.56,4.76,1.67,6.47,2.3.46.18.9.49,1.23.61,1.31.51,1.36.51,2.12.64.9.12,1.82-.18,2.79-.38,1.18-.26,3.2-.38,4.97-.64.57-.08,1.14-.21,1.69-.38,0,0-1.41,1.41-4.78,1.92-1.36.21-2.75.22-4.12.05-1.08-.1-1.79-.26-2.33-.41-.61-.18-1.86-.64-3.41-1.02-1.08-.28-2.28-.49-3.66-.75-3.4-.62-7.08-1.34-8.4-2.03h0Z"/><line class="cls-1" x1="27.98" y1="57.78" x2="19.35" y2="49.72"/><path class="cls-26" d="M25.93,64.51c-.82.69-1.69,1.36-2.54,2l-2.56,1.97c-.87.64-1.72,1.3-2.59,1.95s-1.74,1.25-2.66,1.84c.82-.69,1.69-1.34,2.56-1.97.87-.63,1.77-1.25,2.61-1.89l2.56-1.97c.88-.64,1.73-1.3,2.62-1.93h0ZM21.41,71.76s.92-.77,2.07-1.84c1.43-1.34,3.18-3.04,3.74-3.35l-5.81,5.2h0Z"/><path class="cls-26" d="M21.41,71.76c.46-.46.94-.9,1.43-1.34l.75-.64c.23-.2.49-.43.71-.66.46-.46.9-.94,1.36-1.41.23-.23.46-.46.71-.66.13-.11.26-.2.41-.28.12-.07.26-.2.43-.23-.1.16-.23.23-.33.36-.12.1-.23.23-.33.33-.23.23-.49.43-.71.64-.49.41-.99.82-1.48,1.25s-.94.9-1.43,1.34c-.53.45-1.01.88-1.52,1.3h0ZM27.6,67.61s-3.38,3.3-4.07,3.84l4.07-3.84Z"/><path class="cls-26" d="M27.6,67.61c-.3.35-.63.68-.97.99l-1.02.97c-.33.33-.64.66-.99.99-.36.31-.69.61-1.08.9l.99-.97c.33-.33.69-.61,1.05-.94l.99-.97c.34-.34.67-.67,1.04-.97ZM27.75,69.41c-.31.87-.68,1.72-1.1,2.54-.87,1.74-2.17,3.91-2.74,5.02l3.84-7.56h0Z"/><path class="cls-26" d="M27.75,69.41c0,.38-.1.71-.23,1.05-.12.33-.26.66-.41.97-.16.31-.33.64-.51.94s-.38.61-.54.92l-1.05,1.84c-.36.61-.71,1.23-1.1,1.82.26-.66.61-1.28.94-1.9.36-.61.69-1.23,1.02-1.86.16-.32.31-.64.43-.97.15-.33.31-.64.43-.94.15-.33.28-.64.43-.94.18-.32.32-.63.56-.93h0Z"/><path class="cls-74" d="M31.44,77.9s-1.02,1.36-.92,3.08c.28-.9.63-2.28.92-3.08ZM32.41,79.26s-.36,3.69-.66,5.5c.42-2.1.51-1.92.66-5.5ZM39.2,84.97s-1.53,4.51-1.56,5.76c.33-1.29.97-3.92,1.56-5.76h0Z"/><path class="cls-48" d="M42.78,77.62s2.49,4.1,4.35,7.6c-.5-1.76-1.67-4.99-4.35-7.6Z"/><path class="cls-46" d="M49.46,83.66c1.36,2.41,2.6,4.9,3.69,7.45-.21-1.76-.77-4.77-3.69-7.45Z"/><path class="cls-14" d="M69.1,89.7c.41-.26,1.23-1.67,1.95-2.02.71-.36,1.25-.43,1.9-1.15.64-.75.82-1.2,2.23-1.79,1.97-.85.61-1.95.61-1.95.22-.21.45-.41.69-.59.51-.38,1.1-.85,1.05-1.67-.07-1.38-.33-3.38-1.46-4.54,1.1-.23,3.2-.38,4.51-.71,1.51-.38,2.21-.92,2.21-.92,0,0-.87-1.48.54-2.97s2.56-2.38,3.41-4.05c-.97-.12-2.46-.64-6.25.8.2.1.4.21.59.33,0,0-2.33.64-3.18,1.36-1.48,1.25-1.67,2.28-3.27,3.04s-3.22.56-4.56,1.18-1.53,1.15-2.02,1.38c.1.12-.02.33.18.51-.12.18-.85,1.36-1.58,1.36.07.28.69.49.69.49,0,0-.46.33-1.62.41.59.61,1.15,1.28,2.69,2.26-.12.26-.64.64-.43,1.13.23.49.82,1.15,3.18,1.69-1.2.05-2.61.33-4.51.07-1.9-.23-2.21-.36-3.38-.07.12.12.46.12.75.46-.31.02-2.26-.23-2.92.64-.69.9-.99,2.38-.94,3.38-.36.18-.71.49-.54,1.13s1.1.85,1.69,1.25c.59.43.64.59,1.2.49.59-.12,1.46-.71,1.97-.71s.87.38.87.38c0,0,1.38-.66,1.51-.54.12.12.02.92.15,1.05.14.09,1.69-.83,2.1-1.09h0Z"/><path class="cls-58" d="M99.2,48.26c-6.47-16.71-22.47-19.81-22.47-19.81H31.08l.18,17.03h9.09v38.02h-9.27v16.99h44.39c10.7,0,19.27-10.75,19.27-10.75,13.73-19.49,4.46-41.48,4.46-41.48h0ZM75.7,78.28s-3.48,5.02-7.27,5.02h-7.58l-.18-37.79h9.72s4.51.94,7.65,9.86c0,0,4.17,12.77-2.35,22.91Z"/></g></g></g></svg>