<?xml version="1.0" encoding="UTF-8"?>
<svg id="Layer_1" xmlns="http://www.w3.org/2000/svg" version="1.1" viewBox="0 0 250 250">
  <!-- Generator: Adobe Illustrator 29.0.1, SVG Export Plug-In . SVG Version: 2.1.0 Build 192)  -->
  <defs>
    <style>
      .st0 {
        fill: #0080bc;
      }

      .st1 {
        fill: #f6f6f6;
      }
    </style>
  </defs>
  <path class="st0" d="M125,2.5h0c67.7,0,122.5,54.8,122.5,122.5h0c0,67.7-54.8,122.5-122.5,122.5h0C57.3,247.5,2.5,192.7,2.5,125h0C2.5,57.3,57.3,2.5,125,2.5Z"/>
  <path class="st1" d="M123.1,45.2l-45.1,73.9c-.4.6-1.2.6-1.6,0-4-4.7-18.8-24.7-.5-42.9,16.7-16.6,38-28.5,45.9-32.6.9-.5,1.8.5,1.3,1.4h0Z"/>
  <path class="st1" d="M120.6,206.1c.9.6,2-.4,1.4-1.4-10.1-15.3-43.6-66.1-48.2-73.7-4.6-7.5-13.5-20-14.3-30.7,0-1.1-1.6-1.3-1.9-.3-.6,1.6-1.2,3.6-1.8,5.8-7.5,27.9,3.4,57.4,27.1,74l37.7,26.3h0Z"/>
  <path class="st1" d="M126.8,204.8l45.1-73.9c.4-.6,1.2-.6,1.6-.1,4,4.7,18.8,24.7.5,42.9-16.7,16.6-38,28.5-45.9,32.6-.9.5-1.8-.5-1.3-1.4h0Z"/>
  <path class="st1" d="M129.4,43.8c-.9-.6-2,.4-1.4,1.4,10.1,15.3,43.6,66.1,48.2,73.7,4.6,7.5,13.5,20,14.3,30.7,0,1.1,1.6,1.3,1.9.3.6-1.6,1.2-3.6,1.8-5.8,7.5-27.9-3.4-57.4-27.1-74,0,0-37.7-26.3-37.7-26.3Z"/>
</svg>