<?xml version="1.0" encoding="UTF-8"?>
<svg id="CIRCLE_OUTLINE_BLACK" xmlns="http://www.w3.org/2000/svg" xmlns:xlink="http://www.w3.org/1999/xlink" version="1.1" viewBox="0 0 250 250">
  <!-- Generator: Adobe Illustrator 29.0.1, SVG Export Plug-In . SVG Version: 2.1.0 Build 192)  -->
  <defs>
    <style>
      .st0 {
        fill: url(#linear-gradient);
      }
    </style>
    <linearGradient id="linear-gradient" x1="76.5" y1="384" x2="173.8" y2="286.7" gradientTransform="translate(0 -210.2)" gradientUnits="userSpaceOnUse">
      <stop offset="0" stop-color="#34a3ed"/>
      <stop offset="1" stop-color="#8165f5"/>
    </linearGradient>
  </defs>
  <circle cx="125" cy="125" r="122.5"/>
  <path class="st0" d="M212.6,137.6s0,0,0,0c0,0,0-.1,0-.1,0-.1,0-.3,0-.5v-.2c0-.1,0-.3,0-.4h0c0,0-6.2-26.1-6.2-26.1-.2-1-1-1.7-1.9-1.9l-25.7-6.2h-.1c-.1,0-.2,0-.4,0h-.2c-.1,0-.3,0-.5,0h-.2c-.2,0-.3.1-.5.2,0,0,0,0,0,0-.1,0-.3.2-.4.3h0s-31.2,30.3-31.2,30.3c-.3,0-.6.3-.8.5s-.4.5-.5.8l-11.1,10.9-6.2-21.4s0-.1,0-.2c0,0,0-.1,0-.2-.1-.3-.3-.5-.5-.7h0c-.2-.2-.5-.3-.8-.5,0,0-.1,0-.2,0,0,0-.1,0-.2,0l-20.8-5,44-43.8-6.7-29.3-28.4-6.4L37.3,112.6l6.4,28.3,25.8,6.7,6.3,24.9c.2,1,1,1.7,2,1.9l23.9,4.8,7,25.1s0,0,0,.2c0,0,0,.1,0,.2.1.2.3.5.5.7h0c.2.2.5.4.8.5,0,0,.1,0,.2,0,0,0,.1,0,.2,0l25.3,6.5c.2,0,.4,0,.6,0h0c.2,0,.4,0,.6,0h0s0,0,0,0c0,0,.2,0,.2,0,0,0,.1,0,.2,0,0,0,.1,0,.2-.1,0,0,.1,0,.2-.1h0c0,0,73.6-73.3,73.6-73.3h0c0-.1.2-.3.3-.4,0,0,0,0,0,0,.2-.3.3-.5.3-.7h0ZM179.1,164l-4.9-19.8,12.2-12.2,19,5.9-26.2,26.1h0ZM137.7,205.2l-5.5-18.9,22.2-22.2,18.6,6.1-35.3,35h0ZM107.4,180.7l17.5,5.4-12.5,12.5-5-17.8h0ZM144.9,140.5l5.3,20.4-21.2,21.2-20.5-6.3,36.4-35.3ZM176.9,109.4l5.7,19-12,12-19.4-6.1,25.6-24.9ZM174.1,165.1l-15.7-5.1,11.5-11.5,4.2,16.7ZM154.4,156.7l-4.5-17.5,16.7,5.3-12.2,12.2ZM128,190.3l4.7,16.1-16.6-4.2,11.9-11.9h0ZM206.6,133l-18.9-5.9-5.7-19,19.9,4.8,4.8,20.1h0ZM105.1,172l-4.6-19.1,7.1-7.4,19.2,5.5-21.6,21ZM108,137.6l-5.1-15.6,16.3,3.9-11.2,11.7h0ZM111.6,141.3l11.2-11.8,4.8,16.4-16-4.5ZM103.9,141.8l-7.1,7.4-20.2-5.2,21.2-21.1,6.2,18.8h0ZM80.2,77.1l5.4,17.9-22.3,22.4-18.3-5.4,35.2-35h0ZM117.1,63.3l-11.7,11.8-18.9-4.3,25.8-25.6,4.8,18.1ZM114.5,99.1l-5-20.9,11.1-11.1,19.6,6.5-25.7,25.6h0ZM89.7,90.9l-4.5-15.1,15.9,3.6-11.4,11.5ZM105.3,82.5l4.1,17.2-15.9-5.2,11.9-12h0ZM62.8,125.3l5,16.5-17-4.4,12-12.1h0ZM66.9,121.2l22.4-22.6,19.4,6.3-35.9,35.7-5.9-19.4h0ZM141.5,68.5l-19.5-6.4-4.9-18.4,19.7,4.5,4.7,20.4h0ZM43.6,117.1l15.6,4.6-11.9,12-3.7-16.6ZM80.4,169.6l-5.2-20.6,20.4,5.2,4.7,19.4-19.9-4h0Z"/>
</svg>