<?xml version="1.0" encoding="UTF-8"?>
<svg id="Cube" xmlns="http://www.w3.org/2000/svg" xmlns:xlink="http://www.w3.org/1999/xlink" xmlns:svg="http://www.w3.org/2000/svg" xmlns:rdf="http://www.w3.org/1999/02/22-rdf-syntax-ns#" xmlns:dc="http://purl.org/dc/elements/1.1/" xmlns:cc="http://creativecommons.org/ns#" version="1.1" viewBox="0 0 256 256">
  <!-- Generator: Adobe Illustrator 29.3.1, SVG Export Plug-In . SVG Version: 2.1.0 Build 151)  -->
  <defs>
    <style>
      .st0 {
        fill: #efefef;
      }

      .st0, .st1 {
        fill-rule: evenodd;
      }

      .st1, .st2 {
        fill: #fff;
      }

      .st3, .st2 {
        isolation: isolate;
      }

      .st4 {
        fill: none;
        stroke: #fff;
        stroke-width: 5.2px;
      }

      .st5 {
        fill: #b0b0b0;
      }

      .st2 {
        font-family: ArialMT, Arial;
        font-size: 24px;
      }
    </style>
  </defs>
  <circle id="ellipse1808" class="st5" cx="128" cy="127.8" r="122.5"/>
  <path id="Full-4-8" class="st4" d="M19.4,128.3c0,60.1,48.9,108.9,108.9,108.9s108.9-48.9,108.9-108.9S188.4,19.4,128.3,19.4,19.4,68.3,19.4,128.3Z"/>
  <g id="use19">
    <path id="Shape1" class="st1" d="M129,57.6l-14.1,23.4,14.1-6.4v-17Z"/>
  </g>
  <g id="use20">
    <path id="Shape2" class="st1" d="M129,57.6l14.1,23.4-14.1-6.4v-17Z"/>
  </g>
  <g id="use21">
    <path id="Shape3" class="st0" d="M114.9,80.9l14.1-6.4v14.8l-14.1-8.4Z"/>
  </g>
  <g id="use22">
    <path id="Shape4" class="st0" d="M143.1,80.9l-14.1-6.4v14.8l14.1-8.4Z"/>
  </g>
  <g id="use23">
    <path id="Shape5" class="st1" d="M114.9,83.7l14.1,8.3v11.6l-14.1-19.9Z"/>
  </g>
  <g id="use24">
    <path id="Shape6" class="st1" d="M143.1,83.7l-14.1,8.3v11.6l14.1-19.9Z"/>
  </g>
  <g class="st3">
    <g class="st3">
      <g class="st3">
        <g class="st3">
          <text class="st2" transform="translate(89.3 142.2)"><tspan x="0" y="0">Testnet</tspan></text>
        </g>
      </g>
    </g>
    <g class="st3">
      <g class="st3">
        <g class="st3">
          <text class="st2" transform="translate(52.8 171)"><tspan x="0" y="0">Sepolia Token</tspan></text>
        </g>
      </g>
    </g>
  </g>
</svg>