<?xml version="1.0" encoding="UTF-8"?><svg id="Layer_1" xmlns="http://www.w3.org/2000/svg" width="128" height="128" viewBox="0 0 128 128"><defs><style>.cls-1{fill:#1b63ef;}.cls-2{fill:#fff;}</style></defs><path class="cls-1" d="M64,128c35.35,0,64-28.65,64-64S99.35,0,64,0,0,28.65,0,64s28.65,64,64,64Z"/><path class="cls-2" d="M99.01,61.82v22.39l-3.76,2.18-7.9,4.56h0l-7.72,4.46h0s-15.44-8.91-15.44-8.91l-3.95-2.28v-22.4l19.38-11.19h0l15.44,8.91h0s3.95,2.28,3.95,2.28Z"/><path class="cls-2" d="M71.71,99.98l-7.71,4.45-3.76-2.17-7.91-4.57-3.76-2.17,3.76-2.18,3.95-2.28,3.96,2.28,11.48,6.63Z"/><path class="cls-2" d="M48.56,68.56l3.76,2.17v13.48l-3.95,2.28h0l-7.71,4.45h0l-11.67-6.74v-13.48l3.94-2.27h0l7.72-4.46h0s7.9,4.57,7.9,4.57h0Z"/><path class="cls-2" d="M99.01,43.79v8.91l-11.49-6.63-7.9-4.56h0l-7.91,4.56-11.48,6.63-7.91,4.56v4.35l-3.77-2.18-7.91-4.56-7.9,4.56-3.76,2.17v-17.82l19.39-11.2,7.91-4.56,3.95-2.29,3.76-2.17,15.43,8.91,7.91,4.56h0s7.91,4.57,7.91,4.57l3.77,2.18Z"/></svg>