<?xml version="1.0" encoding="UTF-8"?>
<svg id="Layer_1" xmlns="http://www.w3.org/2000/svg" version="1.1" viewBox="0 0 128 128">
  <!-- Generator: Adobe Illustrator 29.4.0, SVG Export Plug-In . SVG Version: 2.1.0 Build 152)  -->
  <defs>
    <style>
      .st0 {
        fill: #fff;
      }

      .st1 {
        fill: #8a8a8a;
      }
    </style>
  </defs>
  <path class="st1" d="M64,128c35.3,0,64-28.7,64-64S99.3,0,64,0,0,28.6,0,64s28.6,64,64,64Z"/>
  <path class="st0" d="M99,61.8v22.4l-3.8,2.2-7.9,4.6h0l-7.7,4.5h0l-15.4-8.9-4-2.3v-22.4l19.4-11.2h0l15.4,8.9h0s3.9,2.3,4,2.3Z"/>
  <path class="st0" d="M71.7,100l-7.7,4.4-3.8-2.2-7.9-4.6-3.8-2.2,3.8-2.2,4-2.3,4,2.3,11.5,6.6h0Z"/>
  <path class="st0" d="M48.6,68.6l3.8,2.2v13.5l-4,2.3h0l-7.7,4.4h0l-11.7-6.7v-13.5l3.9-2.3h0l7.7-4.5h0l7.9,4.6h0Z"/>
  <path class="st0" d="M99,43.8v8.9l-11.5-6.6-7.9-4.6h0l-7.9,4.6-11.5,6.6-7.9,4.6v4.3l-3.8-2.2-7.9-4.6-7.9,4.6-3.8,2.2v-17.8l19.4-11.2,7.9-4.6,4-2.3,3.8-2.2,15.4,8.9,7.9,4.6h0l7.9,4.6,3.8,2.2h0Z"/>
</svg>