<?xml version="1.0" encoding="UTF-8"?>
<svg version="1.1" viewBox="0 0 900 900" width="225" height="225" xmlns="http://www.w3.org/2000/svg">
<path transform="translate(0)" d="m0 0h900v900h-900z" fill="#020100"/>
<path transform="translate(430,215)" d="m0 0h30l31 4 25 6 17 6 25 12 14 9 12 8 11 9 12 11v2l5-1 20-14 36-24 7-1 6 4 2 8-3 6-9 6-21 12-16 9-48 28-18 10-24 14-22 13-18 10-25 15-16 9-2-1 16-12 11-7 12-8 15-11 18-12 2-3-6-2-10-7-23-11-22-6-12-2h-30l-15 2-21 6-20 9-16 11-10 9-8 7-8 9-9 13-8 16-6 14-5 22-2 20 1 22 7 28 7 18 5-1 29-17 17-11 24-14 22-14 17-10 15-9 26-16 20-12 22-13 19-12 28-17 17-10 16-10 40-24 21-13 40-24 16-10 19-12 10-5 8-1 8 4 4 5 2 5-1 9-5 6-10 6-24 13-18 10-30 16-13 8-12 6-22 12-17 9-17 10-20 11-12 6-22 12-14 8-24 13-16 9-12 6-14 8-18 10-28 15-16 9-22 12-24 13-23 13-3 1 1 4 9 12 11 12 13 11 20 12 20 9 21 5 19 2h11l17-2 21-5 15-6 15-8 17-12 13-12 10-12 9-14 7-14 2-12-4-10-9-6-6-2h-25l-17 3-37 10-31 11-2-1 5-4 11-6 15-9 22-12 15-9 21-12 23-13 22-13 26-15 23-13 15-9 25-14 27-16 15-9 5 1 2 4-1 5-14 9-8 7-9 12-6 13-3 12-1 47-2 22-4 25-7 24-8 19-7 14-8 14-10 14-9 11-9 10-12 12-11 9-16 12-15 9-15 8-16 7-12 4h-3v2l-12 4-27 4-11 1-27 1-24-2v2l7 2 15 2 5 1v2h11l7 3 20-1 6 1 2 4 7 2 2 6 6 4 1 3 7 1 4 5 6 2 5 5 1 3 6 2 3 3 5 2 5 5 8 5 5 4 8 4 4 5 15 8 10 9 12 7 5 3 7 5 10 5 9 5 7 5 2 5 12 3 3 3-1 4 2 2-5-1-5-3-5-4-4-4h-2l5 5 4 3 6 3 1 4 15 5 2 4 5 2 3 5 5 3 6 7 6 4 4 4v2l4 2 5 5 9 4v2l8 1 4 5 7 2 2 5 7 2 4 6 5 4 1 6-1 1h-757v-487h7l7 3 4 4 7 3 6 3 5 1-1-1-3-2 6 1 11 5 4 4 7 2 4 2-5-4-10-7-15-8 3-2 5 4 8 4 6 4 8 4 5 4 7 4 7 6 8 4 3 3 7 4 18 6 7 6 6 2 3 5v2l6 2 10 4v2l6 2 6 4 5 3v2l5 1 6 3v2l7 3 1 5 3-1 10 7v4l6 4 8 4 4 4 4 2 8 9 2 7 5 10 5-3h2l-13-30-7-21-5-21-3-23v-37l3-24 6-25 7-20 8-18 9-15 12-18 8-10 11-12 14-14 14-11 10-7 18-11 16-8 15-6 21-6 26-5z" fill="#78411E"/>
<path transform="translate(430,215)" d="m0 0h30l31 4 25 6 17 6 25 12 14 9 12 8 11 9 12 11v2l5-1 20-14 36-24 7-1 6 4 2 8-3 6-9 6-21 12-16 9-48 28-18 10-24 14-22 13-18 10-25 15-16 9-2-1 16-12 11-7 12-8 15-11 18-12 2-3-6-2-10-7-23-11-22-6-12-2h-30l-15 2-21 6-20 9-16 11-10 9-8 7-8 9-9 13-8 16-6 14-5 22-2 20 1 22 7 28 7 18 5-1 29-17 17-11 24-14 22-14 17-10 15-9 26-16 20-12 22-13 19-12 28-17 17-10 16-10 40-24 21-13 40-24 16-10 19-12 10-5 8-1 8 4 4 5 2 5-1 9-5 6-10 6-24 13-18 10-30 16-13 8-12 6-22 12-17 9-17 10-20 11-12 6-22 12-14 8-24 13-16 9-12 6-14 8-18 10-28 15-16 9-22 12-24 13-23 13-3 1 1 4 9 12 11 12 13 11 20 12 20 9 21 5 19 2h11l17-2 21-5 15-6 15-8 17-12 13-12 10-12 9-14 7-14 2-12-4-10-9-6-6-2h-25l-17 3-37 10-31 11-2-1 5-4 11-6 15-9 22-12 15-9 21-12 23-13 22-13 26-15 23-13 15-9 25-14 27-16 15-9 5 1 2 4-1 5-14 9-8 7-9 12-6 13-3 12-1 47-2 22-4 25-7 24-8 19-7 14-8 14-10 14-9 11-9 10-12 12-11 9-16 12-15 9-15 8-16 7-21 7-26 5-21 2h-31l-17-2-23-4-30-10-25-12-20-12-14-11-12-11-17-17-13-17-9-14v-2l-18 10-17 9-15 9-16 8-19 11-15 8-1 2-4-1 13-8 19-12 40-24 21-13 5-3h2l-13-30-7-21-5-21-3-23v-37l3-24 6-25 7-20 8-18 9-15 12-18 8-10 11-12 14-14 14-11 10-7 18-11 16-8 15-6 21-6 26-5z" fill="#FDFDFC"/>
<path transform="translate(0,576)" d="m0 0h7l5 3 6 4 6-1 1 2 9 1 6 4 5 2 9 2 7 6v2l4 1 10 6 7 8 10 6 7 6 12 8 9 2 5 5 10 8 9 6 4 3 1-3 2 1 8 1 5 5 6 3 1 2 7 4 3 2h2v2h2v2l5 2 2 2 2-1 5 5 4 3 1 4 6 3v2h2v2l5 1 7 4 6 1v2l3-1v2l4-1 5 5v2h6l1 5h2l1 4 5 1 2-1 3 6 2 2 9 1 4 6 7 3 8 2 16 8 20 15 5 3v2l4 2 6 4 5 4 9 4 5 5 8 3 4 5 5 3 7 1 4 6 17 9 6 4 5 3 8 7h3l1 2 1 3 5 2 4 2 3 3 2 1v2l6 1 2 2v3l10 2 3 6 9 4 1 5h3v2l9 2 2 4 5 1 2 1v2l7 1 2 4h2l1 2v10h-509z" fill="#A05525"/>
<path transform="translate(659,564)" d="m0 0 8 1 8 5-1 2 10 5h5l11 8 7 4 5 5 15 14 9 8 10 7 12 7 16 8 19 10 11 8 18 12 5 3 5 4 10 5 8 6 10 3 3 5h8l1 3 3 1v2l3 1 6 6 1-2h8l5 4 2 1v190h-143l-1-7-6-5-3-5-7-2-2-5-7-2-3-4-8-2v-2l-9-3-1-3-4-2-5-5-7-6-6-5-4-5-4-2-2-4-5-3-4-4-9-2-8-8-6-3-6-5-1-3 5 1 5 6 6 3 3 1 1-5-3-2-7-1-4-2-4-6-8-5-10-5-12-7-3-3-8-4-9-6-9-8-14-7-5-6-10-5-6-5-8-5-1-3-6-2v-2l-6-2-8-7v-2l-7-2-3-4-7-2-5-5-3-2-1-5-8-3-1-4h-11l-15 1-7-3-11-1v-2l-9-1-11-1-7-3-1-3 26 2 26-1 27-3 18-4 5-1v-2l18-6 23-11 17-10 11-8 13-10 15-14 9-9 11-14 10-14 1 2 6-1z" fill="#391E0E"/>
<path transform="translate(0,151)" d="m0 0h6l3 3v2l9 2 19 10 20 12 16 10 18 10 11 6 14 9 12 8v2l4 1 4 3v2l4 2 18 12 13 8 9 5 17 10 12 6 5 3 8 5 1 7 7 2 4 9 8 5 3 6-1 8-5 12v2h3l5-8h3l-9 15-10 23-8 26-4 21-2 17v37l4 28 5 19 6 18 12 27v3l-7 4-3-1v-4l-3-6-3-8-7-8-6-2-1-3-13-7-3-4h2v-2l-5-2-5-4h-3l-2-5-7-2v-3l-10-4v-2l-6-2-9-6-2-1v-2l-10-3-6-3-3-5v-2l-6-1-9-7-7-2-10-4-9-5v-2l-5-2-5-3-9-7-7-4-6-4-8-4-6-4-7-4h-2l13 7 10 7 6 5-3 1-3-3-7-2-4-4-10-4h-1l-1 2-9-3-5-3-7-3-1-3-14-3z" fill="#391E0E"/>
<path transform="translate(0,686)" d="m0 0h7l1 1h7l4 2 9 1 3 2 13 4 8 6 8 2 3 4v2l10 3 12 9 18 12 5 3 7 1 8 7 3 3 8 1 5 6 18 9v2h2v2l10 3 3 2v2l3 1v2l7 2 13 7 5 4 9 6 11 7 4 3 8 1 4 8 8 4 5 4 3 2v2l5 1 8 5 1 2 7 2 5 7 11 6 6 8 9 2 5 7 6 4 2 4 1 6h7l3 3v3l4 2v8l-2 2h-330z" fill="#C96A30"/>
<path transform="translate(459,447)" d="m0 0 2 1-5 5 7 1 17-2 3 2-1 5-4 6-4 4-1 8 3 1-18 11-10 6 42-14 31-8 13-2h25l10 4 6 5 4 10-2 12-11 21-10 13-11 12-12 10-15 10-17 9-14 5-24 5-11 1h-11l-19-2-21-5-20-9-20-12-15-13-7-7-10-13-3-4 1-4 16-8 23-13 30-16 23-13 28-15z" fill="#3B1F0E"/>
<path transform="translate(340,363)" d="m0 0h10l3 3 3 5 6 1 6 3 7 4 1 4h8l4 3v3h8l9 4 3 2 1 3 6 3 3 4v8l-1 6 3 3h6l4-1 6 1-1 6-4 6-7 6-7 9-5 5 2 1-20 13-24 14-19 12-27 16-5 1-4-8-6-18-5-21-1-22 2-20 5-22 9-21 4-7 1 2-2 5 7-3 5-8z" fill="#3A1E0E"/>
<path transform="translate(534,471)" d="m0 0h25l10 4 6 5 4 10-2 12-11 21-7 9-5 3-5 1 1-8 4-8 2-12-1-3-6-2-8-1-3-4v-6l3-4-1-3h-11l-16 1h-10l-1-1-7 1-4 2-1-5 5-1 7-2v-2l19-5z" fill="#070301"/>
<path transform="translate(247,563)" d="m0 0h2l9 15 11 14 11 12 16 16 14 11 7 5-2 1-6-2-4-4-2-1v-2l-6-2-2-4h-2v-2l-6-1v-2l-4-2-3-6-3-3-5-7-6-3v-2l-3-1-4-5-1-4-2-1v-2h-4l-2-5h-2l-2-6-3-3z" fill="#492611"/>
<path transform="translate(319,639)" d="m0 0 5 1 18 10 17 8 20 7v2l5 1-4 2-4-1-13-4-15-6-2-3-6-1-1-2-4-1-8-6-2-4-4 1z" fill="#4D2812"/>
<path transform="translate(274,600)" d="m0 0 4 2 18 18 14 11 7 5-2 1-6-2-4-4-2-1v-2l-6-2-2-4h-2v-2l-6-1v-2l-4-2-3-6-3-3-3-4z" fill="#552C14"/>
<path transform="translate(400,460)" d="m0 0m-1 1 1 3-11 7-4-1 4-1 1-4z" fill="#201107"/>
</svg>
