<?xml version="1.0" encoding="UTF-8"?>
<svg id="Gmt--Streamline-Cryptocurrency.svg" xmlns="http://www.w3.org/2000/svg" version="1.1" viewBox="0 0 250 250">
  <!-- Generator: Adobe Illustrator 29.0.1, SVG Export Plug-In . SVG Version: 2.1.0 Build 192)  -->
  <defs>
    <style>
      .st0 {
        fill: #e6bc7b;
      }
    </style>
  </defs>
  <path class="st0" d="M125,247.5c67.7,0,122.5-54.8,122.5-122.5S192.7,2.5,125,2.5,2.5,57.3,2.5,125s54.8,122.5,122.5,122.5Z"/>
  <g>
    <path d="M174.7,83.9c1.4,0,2.7.5,3.7,1.5,1,1,1.6,2.3,1.6,3.7s-.5,2.7-1.5,3.7-2.3,1.6-3.7,1.6h-94.3v61.2h88.9v-26.3h-59.7c-1.4,0-2.7-.5-3.7-1.5-1-1-1.6-2.3-1.6-3.6h0c0-3,2.3-5.3,5.1-5.4h65.2c2.9,0,5.2,2.3,5.3,5.1v36.9c0,2.9-2.3,5.2-5.1,5.3h-99.6c-1.4,0-2.7-.5-3.7-1.5-1-1-1.6-2.3-1.6-3.6v-71.9c0-2.9,2.3-5.2,5.1-5.3h99.6Z"/>
    <path d="M125,20.7c-57.6,0-104.3,46.7-104.3,104.3s46.7,104.3,104.3,104.3,104.3-46.7,104.3-104.3S182.6,20.7,125,20.7ZM125,31.2c51.8,0,93.8,42,93.8,93.8s-42,93.8-93.8,93.8S31.2,176.8,31.2,125,73.2,31.2,125,31.2Z"/>
    <path d="M140.3,53c2.9,0,5.2,2.3,5.3,5.1v31c0,2.9-2.3,5.2-5.1,5.3h-30.7c-1.4,0-2.7-.5-3.7-1.5-1-1-1.6-2.3-1.6-3.6v-31c0-1.4.5-2.7,1.5-3.7s2.3-1.6,3.7-1.6,2.7.5,3.7,1.5c1,1,1.6,2.3,1.6,3.7v25.8h20v-25.6c0-2.9,2.3-5.2,5.1-5.3,0,0,.1,0,.1,0ZM140.3,155.6c2.9,0,5.2,2.3,5.3,5.1v31c0,1.4-.5,2.7-1.5,3.7-.5.5-1.1.9-1.7,1.2-.6.3-1.3.4-2,.4-.7,0-1.4-.1-2-.4s-1.2-.6-1.7-1.1c-1-1-1.6-2.3-1.6-3.7v-25.8h-20v25.6c0,1.4-.5,2.7-1.5,3.7-1,1-2.3,1.6-3.6,1.6h-.1c-1.4,0-2.7-.5-3.7-1.5-1-1-1.6-2.3-1.6-3.6v-31c0-2.9,2.3-5.2,5.1-5.3,0,0,30.7,0,30.7,0Z"/>
  </g>
</svg>