<?xml version="1.0" encoding="UTF-8"?>
<svg id="Layer_1" xmlns="http://www.w3.org/2000/svg" xmlns:xodm="http://www.corel.com/coreldraw/odm/2003" version="1.1" viewBox="0 0 250 250">
  <!-- Generator: Adobe Illustrator 29.0.1, SVG Export Plug-In . SVG Version: 2.1.0 Build 192)  -->
  <defs>
    <style>
      .st0, .st1 {
        fill-rule: evenodd;
      }

      .st1 {
        fill: #1eefa4;
      }
    </style>
  </defs>
  <g id="Layer_x5F_1">
    <g id="_2250709451472">
      <path class="st1" d="M125,2.5h0c67.4,0,122.5,55.2,122.5,122.5h0c0,67.4-55.2,122.5-122.5,122.5h0C57.6,247.5,2.5,192.3,2.5,125h0C2.5,57.6,57.7,2.5,125,2.5Z"/>
      <g>
        <path d="M138.1,152.4c0-6.6,5.3-12,12-12h4.8c6.6,0,11.9,5.3,11.9,12v4.8c0,6.6-5.3,12-12,12h-4.8c-6.6,0-11.9-5.3-11.9-12v-4.8h0ZM150.1,97.7h0c-6.6,0-11.9,5.3-11.9,12v4.8c0,6.6,5.3,12,12,12h4.8c6.6,0,11.9-5.3,11.9-12v-4.8c0-6.6-5.3-12-12-12h-4.8Z"/>
        <path class="st0" d="M95.2,47.6c-26.4,0-47.6,21.4-47.6,47.6v59.6c0,26.4,21.4,47.6,47.6,47.6h59.6c26.4,0,47.6-21.4,47.6-47.6v-59.6c0-26.4-21.4-47.6-47.6-47.6h-59.6ZM154.8,66.6h-59.6c-15.8,0-28.6,12.8-28.6,28.6v59.6c0,15.8,12.8,28.6,28.6,28.6h59.6c15.8,0,28.6-12.8,28.6-28.6v-59.6c0-15.8-12.8-28.6-28.6-28.6h0Z"/>
      </g>
    </g>
  </g>
</svg>