<?xml version="1.0" encoding="UTF-8"?>
<svg id="Layer_1" xmlns="http://www.w3.org/2000/svg" version="1.1" viewBox="0 0 250 250">
  <!-- Generator: Adobe Illustrator 29.0.1, SVG Export Plug-In . SVG Version: 2.1.0 Build 192)  -->
  <path d="M125,2.5C57.3,2.5,2.5,57.3,2.5,125s54.8,122.5,122.5,122.5,122.5-54.8,122.5-122.5S192.7,2.5,125,2.5ZM119.7,52c3.4-1.7,7-1.6,10.3.3,11.4,6.5,22.8,13.1,34.2,19.7,3.7,2.1,5.5,5.6,5.5,9.8,0,14.8,0,29.6,0,44.4,0,.6-.4,1.3-.8,1.6-4.4,2.6-8.9,5.2-13.7,7.9v-2.3c0-15.2,0-30.4,0-45.7,0-2.9-1-4.8-3.6-6.3-13.3-7.5-26.5-15.2-39.7-22.9-.6-.3-1.1-.7-2-1.2,3.4-1.9,6.5-3.9,9.7-5.5ZM117.3,203.5c-.7-.4-1.3-.6-1.8-1-17.5-10.1-35-20.3-52.6-30.3-4.9-2.8-7.2-6.8-7.1-12.4,0-12,0-23.9,0-35.9,0-5.4,2.2-9.3,6.9-12,12.3-7,24.6-14.1,36.9-21.3,1.1-.6,1.8-.7,2.9,0,4.2,2.5,8.5,5,13.1,7.6-.9.5-1.5.9-2.2,1.3-13.3,7.7-26.6,15.4-39.9,23-2.2,1.3-3.2,2.9-3.2,5.4,0,9.4,0,18.9,0,28.3,0,2.6,1,4.3,3.3,5.5,14.1,8,28.1,16.2,42.1,24.2,1.2.7,1.7,1.4,1.7,2.8-.1,4.8,0,9.7,0,14.8ZM117.3,176.5c-1.2-.7-2.1-1.2-3-1.7-11.1-6.4-22.3-12.9-33.4-19.3-1.2-.7-1.7-1.4-1.6-2.8,0-7.3,0-14.5,0-21.8,0-1,.1-1.7,1.1-2.2,4.1-2.3,8.2-4.7,12.2-7,.3-.2.6-.3,1.2-.6v8.1c0,4.4,0,8.8,0,13.2,0,2.5.9,4.2,3.1,5.5,6.3,3.6,12.5,7.3,18.9,10.8,1.2.7,1.6,1.5,1.6,2.8,0,4.8,0,9.7,0,14.9ZM104.4,81.3c-2.4-1.4-4.4-1.4-6.7,0-13.2,7.7-26.5,15.4-39.8,23-.6.3-1.1.6-2.1,1.2.4-5-.7-9.8,1-14.4.9-2.5,2.7-4.4,5-5.8,11.1-6.4,22.2-12.8,33.3-19.2,4.1-2.3,8.2-2.3,12.2,0,12.6,7.3,25.2,14.5,37.8,21.8.5.3,1.2,1,1.2,1.5,0,5.2,0,10.4,0,15.9-4.6-2.6-8.8-5.1-13-7.5-9.6-5.6-19.3-11.1-28.8-16.7ZM193,162.8c-.3,4.1-2.7,7-6.2,9-13.5,7.8-27,15.6-40.5,23.4-4.2,2.4-8.5,4.9-12.7,7.3-.5.3-1,.6-1.7.9,0-.7-.1-1.2-.1-1.7,0-4.5,0-8.9,0-13.4,0-1,.2-1.6,1.2-2.2,19.7-11.3,39.3-22.7,59-34,.3-.2.6-.3,1.2-.6,0,4,.2,7.7,0,11.3ZM193.1,134.6c0,4.6-2.5,7.9-6.5,10.2-15.4,8.8-30.8,17.7-46.1,26.6-2.8,1.6-5.6,3.2-8.6,5,0-.8-.1-1.3-.1-1.8,0-4.4,0-8.8,0-13.2,0-1.3.4-1.9,1.5-2.5,14-8,27.9-16.1,41.9-24.1,2.5-1.4,3.6-3.2,3.6-6.1-.1-15.2,0-30.5,0-45.7v-2.7c3.7,2.2,7.1,4,10.2,6.2,2.9,2,4.3,5.1,4.3,8.6,0,13.2,0,26.3,0,39.5Z"/>
</svg>