<?xml version="1.0" encoding="UTF-8"?>
<svg id="Layer_1" xmlns="http://www.w3.org/2000/svg" version="1.1" viewBox="0 0 250 250">
  <!-- Generator: Adobe Illustrator 29.0.1, SVG Export Plug-In . SVG Version: 2.1.0 Build 192)  -->
  <defs>
    <style>
      .st0 {
        fill: #fff;
        fill-rule: evenodd;
      }

      .st1 {
        fill: #1c68f3;
      }
    </style>
  </defs>
  <path class="st1" d="M125,247.5c67.7,0,122.5-54.9,122.5-122.8C247,57.4,192.2,2.5,125,2.5S2.5,57.4,2.5,125.3s54.8,122.2,122.5,122.2Z"/>
  <path class="st0" d="M198.7,95.2v40.8H69.7c5.4,24.7,27.9,43,54.8,43s41.4-12.4,50.5-30.6h24.2v33.8c0,8.1-6.4,14.5-15,14.5h-119.3c-8.1,0-15-6.4-15-14.5v-87h148.8ZM160.5,147.8c-8.1,11.3-21,18.8-36,18.8s-28.5-7.5-36-18.8h72ZM92.8,104.9c-11.8,0-21.5,8.6-23.1,19.3h12.9c1.6-4.3,5.4-7.5,10.2-7.5s8.6,3.2,10.2,7.5h12.4c-1.6-11.3-11.3-19.3-22.6-19.3ZM156.2,104.9c-11.8,0-21.5,8.6-23.1,19.3h12.9c1.6-4.3,5.4-7.5,10.2-7.5s8.6,3.2,10.2,7.5h12.9c-2.1-11.3-11.8-19.3-23.1-19.3ZM183.6,50c8.1,0,15,6.4,15,14.5v17.7H49.8v-17.7c0-8.1,6.4-14.5,15-14.5h118.7Z"/>
</svg>