<?xml version="1.0" encoding="UTF-8"?>
<svg id="Layer_1" xmlns="http://www.w3.org/2000/svg" version="1.1" viewBox="0 0 250 250">
  <!-- Generator: Adobe Illustrator 29.0.1, SVG Export Plug-In . SVG Version: 2.1.0 Build 192)  -->
  <defs>
    <style>
      .st0 {
        fill: #ffe752;
      }

      .st1 {
        fill: #451933;
      }

      .st2 {
        fill: #a04828;
      }

      .st3 {
        fill: #e49401;
      }
    </style>
  </defs>
  <circle cx="125" cy="125" r="122.5"/>
  <g>
    <path class="st1" d="M192.7,192.7c0,0,0,.1-.1.2,0,0,0,.2,0,.3v13.7c0,.4-.3.6-.6.6h-13.8c-.3,0-.5.2-.5.5v13.9c0,.3-.2.5-.5.5h-103.7c-.5,0-.9-.4-.9-.9h0v-13.1c0-.5-.4-.9-.9-.9h-13.3c-.4,0-.8-.4-.8-.8h0v-13.2c0-.7-.4-1.1-1.1-1.1h-13.2c-.4,0-.7-.3-.7-.7v-13.4c0-.4-.4-.8-.8-.8h-13.3c-.5,0-.9-.4-.9-.9h0v-103.7c0-.4.2-.5.5-.5h13.4c.7,0,1-.3,1-1v-13.7c0-.2.2-.4.4-.4,0,0,0,0,0,0,4.7.2,9.3.2,14,0,0,0,0,0,.2-.2.1-.1.2-.2.2-.2.3-4.7.3-9.3,0-14,0-.2.1-.4.3-.4,0,0,0,0,0,0h13.7c.7,0,1-.3,1-1v-13.4c0-.4.2-.5.5-.5h103.7c.5,0,.9.4.9.9h0v13.3c0,.4.4.8.8.8h13.4c.4,0,.7.3.7.7v13.2c0,.7.3,1.1,1.1,1.1h13.2c.4,0,.8.4.8.8,0,0,0,0,0,0v13.3c0,.5.4.9.9.9h13.1c.5,0,.9.4.9.9v103.7c0,.3-.3.5-.6.5h-13.9c-.3,0-.5.2-.5.5v13.8c0,.4-.3.6-.7.6h-13.7c-.1,0-.2,0-.3,0,0,0-.1,0-.2.1ZM87.5,207.4h89.3c.4,0,.6-.2.6-.6v-13.9c0-.3.2-.5.5-.5h14c.3,0,.5-.2.5-.5h0v-14.1c0-.2.1-.4.4-.4h14c.3,0,.6-.3.6-.6v-103.8c0-.3-.3-.6-.6-.6h-14c-.2,0-.4-.2-.4-.4v-14.2c0-.2-.2-.4-.4-.4h-14.2c-.2,0-.4-.2-.4-.4v-14.1c0-.3-.2-.5-.5-.5h-89.4s-14.1,0-14.1,0c-.5,0-.9.4-.9.9v13.4c0,.3-.3.6-.6.6h-13.8c-.3,0-.6.3-.6.6v13.9c0,.3-.2.5-.5.5h-13.5c-.7,0-1,.3-1,1v102.8c0,.8.4,1.2,1.2,1.2h13.4c.3,0,.4.1.4.4v13.9c0,.3.3.6.6.6h14c.2,0,.4.2.4.4h0v13.5c0,.6.5,1.1,1,1.1h14Z"/>
    <path class="st2" d="M87.6,42.6v14.9c0,0-.1,0-.1.2h-14.4c-.3,0-.4.2-.4.4v14.4c0,0-.1.1-.2.2h-14.7c-.1,0-.2,0-.2.2v104.3c0,.2,0,.3.3.3h14.6s0,0,0,.1v14.4c0,.3.1.4.4.4h14.5c0,0,0,15.1,0,15.1h-14c-.6,0-1-.5-1-1.1v-13.5c0-.2-.2-.4-.4-.4h-14c-.3,0-.6-.3-.6-.6v-13.9c0-.3-.1-.4-.4-.4h-13.4c-.8,0-1.2-.4-1.2-1.2v-102.8c0-.7.3-1,1-1h13.5c.3,0,.5-.2.5-.5h0v-13.9c0-.3.3-.6.6-.6h13.8c.3,0,.6-.3.6-.6h0v-13.4c0-.5.4-.9.9-.9h14.1Z"/>
    <path class="st0" d="M87.5,207.4v-15.1s74.7.1,74.7.1h14.8c.2,0,.4-.2.4-.5h0v-14c0-.3.2-.5.5-.5h14c.2,0,.4-.2.4-.4v-104.2c0-.2-.2-.4-.4-.4h-14c-.3,0-.5-.2-.5-.5v-14c0-.2-.2-.4-.4-.4h-14.7s-74.8,0-74.8,0v-14.9s89.4,0,89.4,0c.3,0,.5.2.5.5v14.1c0,.2.2.4.4.4h14.2c.2,0,.4.2.4.4v14.2c0,.2.2.4.4.4h14c.3,0,.6.3.6.6h0v103.8c0,.3-.3.6-.6.6h-14c-.3,0-.4.1-.4.4v14.1c0,.3-.2.5-.5.5h-14c-.3,0-.5.2-.5.5v13.9c0,.4-.2.6-.6.6h-89.3Z"/>
    <path class="st3" d="M162.4,57.5v14.4c.1.4.4.7.8.7h13c.7,0,1.2.5,1.2,1.2h0v103c0,.4-.2.6-.6.6h-13.7c-.4,0-.7.3-.7.7l-.2,14.4h-74.7c0-.1,0-14.6,0-14.6,0-.3-.1-.4-.4-.4h-14.4c0,0,0,0,0-.1v-104.8c0,0,0-.1.1-.2h14.4c.3,0,.4-.2.4-.4v-14.4c0-.1,0-.2.1-.2h74.8ZM125,147.5c2.4,0,4.7,0,7-.1.3,0,.5-.3.5-.6v-14c0-.2.2-.4.4-.4h14.2c.2,0,.4.2.4.4v28.8c0,.4.3.7.7.7h13.5c.4,0,.7-.3.7-.7h0v-73.5c0-.4-.3-.7-.7-.7h-28.5c-.5,0-.8.3-.8.8v13.7c0,.2-.2.4-.4.4-1,0-3.4,0-7.1,0s-6.1,0-7.1,0c-.2,0-.4-.2-.4-.4v-13.7c0-.5-.3-.8-.8-.8h-28.5c-.4,0-.7.3-.7.7h0v73.5c0,.4.3.7.7.7h13.5c.4,0,.7-.3.7-.7h0s0-28.8,0-28.8c0-.2.2-.4.4-.4h14.2c.2,0,.4.2.4.4v14c0,.3.2.6.5.6,2.3,0,4.6.1,7,.1Z"/>
    <path class="st0" d="M87.4,57.7v14.4c0,.3-.1.4-.4.4h-14.4s0-14.3,0-14.3c0-.3.1-.4.4-.4h14.4Z"/>
    <path class="st2" d="M162.2,192.5l.2-14.4c0-.4.3-.7.7-.7h13.7c.4,0,.6-.2.6-.6v-103c0-.7-.5-1.2-1.2-1.2h-13c-.4,0-.7-.3-.7-.7v-14.4c-.1,0,14.6,0,14.6,0,.2,0,.4.2.4.4h0v14c0,.3.2.5.5.5h14c.2,0,.4.2.4.4v104.2c0,.2-.2.4-.4.4h-14c-.3,0-.5.2-.5.5v14c0,.2-.2.4-.4.4h-14.8Z"/>
    <path class="st0" d="M72.5,72.6v104.8h-14.6c-.2,0-.3,0-.3-.3v-104.3c0-.1,0-.2.2-.2h14.7Z"/>
    <path class="st2" d="M125,102.5c3.7,0,6,0,7.1,0,.2,0,.4-.2.4-.4v-13.7c0-.5.3-.8.8-.8h28.5c.4,0,.7.3.7.7h0v73.5c0,.4-.3.7-.7.7h-13.5c-.4,0-.7-.3-.7-.7v-28.8c0-.2-.2-.4-.4-.4h-14.2c-.2,0-.4.2-.4.4v14c0,.3-.2.5-.5.6-2.3,0-4.6.1-7,.1-2.4,0-4.7,0-7-.1-.3,0-.5-.3-.5-.6v-14c0-.2-.2-.4-.4-.4h-14.2c-.2,0-.4.2-.4.4v28.8c0,.4-.3.7-.7.7h-13.5c-.4,0-.7-.3-.7-.7v-73.5c0-.4.3-.7.7-.7h28.5c.5,0,.8.2.8.7v13.7c0,.2.2.4.4.4,1,0,3.4,0,7.1,0Z"/>
    <path class="st0" d="M87.5,192.4h-14.5c-.3,0-.4-.2-.4-.5v-14.4h14.4c.3,0,.4.1.4.4v14.4Z"/>
  </g>
</svg>