<?xml version="1.0" encoding="UTF-8"?>
<svg id="Layer_1" xmlns="http://www.w3.org/2000/svg" version="1.1" viewBox="0 0 250 250">
  <!-- Generator: Adobe Illustrator 29.0.1, SVG Export Plug-In . SVG Version: 2.1.0 Build 192)  -->
  <defs>
    <style>
      .st0 {
        fill: #fff;
        fill-rule: evenodd;
      }
    </style>
  </defs>
  <circle cx="125" cy="125" r="122.5"/>
  <path class="st0" d="M134.8,62.7l4.9-31.3c-4.8-.7-9.7-1.1-14.6-1.1h0v64h0c2.7,0,5.4.3,7.9,1l8.3-31.2c-2.1-.6-4.3-1-6.4-1.3h0ZM109.6,98.3l-15.9-27.4h0c-1.9,1.1-3.7,2.3-5.5,3.6l-19-26c4-2.9,8.3-5.5,12.7-7.8l14.5,28.2c2.9-1.5,6-2.8,9.1-3.8l-9.8-30.2c4.7-1.5,9.6-2.7,14.5-3.5l5.1,31.8c-2.1.3-4.3.8-6.4,1.4l8.2,30.6c-2.6.7-5.1,1.7-7.4,3.1ZM40.5,82.1l28.7,14.6c-1.5,2.9-2.7,6-3.7,9.1l-30.7-9.9c1.5-4.7,3.4-9.3,5.7-13.8ZM179.1,93.6l-27.4,15.9c1.4,2.3,2.4,4.8,3.1,7.4l30.6-8.2c.6,2.1,1,4.2,1.4,6.4l31.8-5.1c-.8-4.9-2-9.8-3.5-14.5l-30.2,9.9c-1-3.1-2.3-6.2-3.8-9.1l28.2-14.5c-2.3-4.4-4.9-8.6-7.8-12.6l-26,19c1.3,1.7,2.5,3.6,3.5,5.5h0ZM167.9,40.5h0s0,0,0,0h0ZM154.1,34.8c4.7,1.5,9.3,3.4,13.8,5.7l-14.6,28.7c-2.9-1.5-6-2.7-9.1-3.7l9.9-30.7ZM156.4,70.4l-16.1,27.9c2.3,1.3,4.5,3,6.4,4.9l45.1-45.3c-3.5-3.5-7.3-6.7-11.3-9.6l-18.6,25.7c-1.8-1.3-3.6-2.5-5.5-3.6ZM98.3,109.6l-27.9-16.1h0c1.1-1.9,2.3-3.7,3.6-5.5l-25.7-18.6c2.9-4,6.1-7.8,9.6-11.3l45.3,45.2c-1.9,1.9-3.6,4.1-4.9,6.4ZM64.1,108.8l31.2,8.3h0c-.7,2.6-1,5.2-1,7.9H30.3c0-4.9.4-9.9,1.1-14.7l31.3,4.9c.3-2.2.8-4.3,1.3-6.4ZM180.7,153.3l28.7,14.6c2.2-4.4,4.2-9,5.7-13.8l-30.7-9.9c-1,3.1-2.3,6.1-3.7,9.1ZM140.4,151.7l15.9,27.4h0c1.9-1.1,3.7-2.3,5.5-3.5l19,26c-4,2.9-8.3,5.5-12.7,7.8l-14.5-28.2c-2.9,1.5-6,2.8-9.1,3.8l9.8,30.2c-4.7,1.5-9.6,2.7-14.5,3.5l-5.1-31.8c2.1-.3,4.3-.8,6.4-1.4l-8.2-30.6c2.6-.7,5.1-1.7,7.4-3.1ZM70.9,156.4l27.4-15.9c-1.4-2.3-2.4-4.8-3.1-7.4l-30.6,8.2c-.6-2.1-1-4.2-1.4-6.4l-31.8,5.1c.8,4.9,2,9.8,3.5,14.5l30.2-9.9c1,3.1,2.3,6.2,3.8,9.1l-28.2,14.5c2.3,4.4,4.9,8.6,7.8,12.6l26-19c-1.3-1.7-2.5-3.6-3.6-5.5h0ZM82.1,209.5h0s0,0,0,0h0ZM82.1,209.5c4.4,2.2,9,4.2,13.8,5.7l9.9-30.7c-3.1-1-6.1-2.3-9.1-3.7l-14.6,28.7ZM93.6,179.6h0s0,0,0,0h0ZM93.6,179.6l16.1-27.9c-2.3-1.3-4.5-3-6.4-4.9l-45.1,45.3c3.5,3.5,7.3,6.7,11.3,9.6l18.6-25.7c1.8,1.3,3.6,2.5,5.5,3.6ZM151.7,140.4l27.9,16.1h0c-1.1,1.9-2.3,3.7-3.6,5.5l25.7,18.6c-2.9,4-6.1,7.8-9.6,11.3l-45.3-45.2c1.9-1.9,3.6-4.1,4.9-6.4ZM117.1,154.8h0s0,0,0,0h0ZM117.1,154.8l-8.3,31.2c2.1.6,4.3,1,6.4,1.3l-4.9,31.3c4.8.7,9.7,1.1,14.6,1.1h0v-64h0c-2.7,0-5.4-.3-7.9-1ZM154.8,132.9c.7-2.6,1-5.2,1-7.9h64c0,4.9-.4,9.9-1.1,14.7l-31.3-4.9c-.3,2.2-.8,4.3-1.3,6.4l-31.2-8.3Z"/>
</svg>