<?xml version="1.0" encoding="UTF-8" standalone="no"?>
<svg
   width="undefined"
   height="undefined"
   viewBox="0 0 24 24"
   version="1.1"
   id="svg920"
   sodipodi:docname="mog.svg"
   inkscape:version="1.1.1 (c3084ef, 2021-09-22)"
   xmlns:inkscape="http://www.inkscape.org/namespaces/inkscape"
   xmlns:sodipodi="http://sodipodi.sourceforge.net/DTD/sodipodi-0.dtd"
   xmlns="http://www.w3.org/2000/svg"
   xmlns:svg="http://www.w3.org/2000/svg">
  <defs
     id="defs924" />
  <sodipodi:namedview
     id="namedview922"
     pagecolor="#ffffff"
     bordercolor="#666666"
     borderopacity="1.0"
     inkscape:pageshadow="2"
     inkscape:pageopacity="0.0"
     inkscape:pagecheckerboard="0"
     showgrid="false"
     inkscape:zoom="29.958333"
     inkscape:cx="5.4242003"
     inkscape:cy="12.400556"
     inkscape:window-width="1800"
     inkscape:window-height="1097"
     inkscape:window-x="0"
     inkscape:window-y="44"
     inkscape:window-maximized="1"
     inkscape:current-layer="svg920" />
  <g
     fill="none"
     id="g918"
     transform="matrix(1.3779348,0,0,1.3779348,-4.2512763,-4.2510549)">
    <path
       fill="#fcaf1e"
       d="m 10.457,7.059 -0.6,0.098 A 18,18 0 0 0 7.508,5.816 0.9,0.9 0 0 0 7.23,5.722 0.15,0.15 0 0 0 7.118,5.752 0.15,0.15 0 0 0 7.062,5.85 12,12 0 0 0 7.015,8.949 l 0.223,0.96 -0.244,0.257 a 0.13,0.13 0 0 0 -0.099,0.043 c -0.085,0.03 -0.128,0.068 -0.128,0.128 q -0.054,0.039 -0.095,0 C 6.437,10.324 6.21,10.44 6.222,10.693 q 0.022,0.31 -0.008,0.617 l 0.021,0.043 q 0.066,0.066 0.202,0.047 0.095,0.579 0.017,1.183 L 5.747,12.797 Q 5.689,12.817 5.695,12.754 A 8.7,8.7 0 0 1 6.124,10.697 Q 6.343,10.01 6.638,9.527 A 0.14,0.14 0 0 0 6.66,9.429 11.2,11.2 0 0 1 6.527,6.617 Q 6.573,5.943 6.741,5.302 A 0.21,0.21 0 0 1 6.917,5.145 0.2,0.2 0 0 1 7.002,5.152 c 0.172,0.051 0.34,0.111 0.51,0.188 a 15.6,15.6 0 0 1 2.949,1.714 z m 6.964,5.477 0.004,-1.089 q 0.349,-0.092 0.24,-0.814 a 0.27,0.27 0 0 0 -0.171,-0.227 2,2 0 0 0 -0.322,-0.112 h -0.038 a 0.4,0.4 0 0 0 -0.159,-0.085 l -0.107,-0.15 c 0.03,-0.245 0.112,-0.416 0.236,-0.51 a 0.09,0.09 0 0 0 0.038,-0.082 0.6,0.6 0 0 0 -0.21,-0.403 c 0.095,-1.05 0.133,-2.147 -0.042,-3.18 a 0.16,0.16 0 0 0 -0.086,-0.115 0.16,0.16 0 0 0 -0.146,0 C 15.754,6.184 14.901,6.656 14.112,7.17 l -0.6,-0.141 q 0.977,-0.715 2.04,-1.295 a 8,8 0 0 1 1.372,-0.582 0.21,0.21 0 0 1 0.223,0.064 0.2,0.2 0 0 1 0.043,0.073 q 0.104,0.34 0.15,0.673 a 11,11 0 0 1 -0.073,3.535 0.17,0.17 0 0 0 0.021,0.12 c 0.54,0.927 0.85,1.971 0.9,3.043 q 0,0.045 -0.051,0.039 z"
       id="path824" />
    <path
       fill="#c27627"
       d="M 9.857,7.157 C 9.445,7.247 9.085,7.376 8.768,7.543 A 4.2,4.2 0 0 0 7.414,8.503 Q 7.118,8.844 7.015,8.949 C 6.895,7.929 6.912,6.896 7.058,5.85 A 0.156,0.156 0 0 1 7.23,5.722 1,1 0 0 1 7.508,5.816 18,18 0 0 1 9.857,7.157 m 7.076,1.907 -0.626,-0.728 a 5.06,5.06 0 0 0 -2.194,-1.166 21,21 0 0 1 2.545,-1.406 0.163,0.163 0 0 1 0.227,0.12 c 0.18,1.029 0.142,2.13 0.047,3.18"
       id="path826" />
    <path
       fill="#ffde41"
       d="m 13.517,7.029 0.596,0.141 a 5.06,5.06 0 0 1 2.194,1.162 9,9 0 0 0 -1.299,-0.438 1.14,1.14 0 0 0 -0.561,-0.012 0.08,0.08 0 0 0 -0.052,0.042 0.08,0.08 0 0 0 0,0.065 l 0.579,1.281 q -0.098,0.079 -0.009,0.189 c 0.022,0.025 0.086,0.077 0.193,0.145 A 1.76,1.76 0 0 1 14.37,9.617 L 13.958,9.592 Q 14.004,9.155 13.941,8.996 13.836,8.736 13.435,8.182 A 1.12,1.12 0 0 0 12.467,7.68 16,16 0 0 0 10.864,7.693 Q 10.529,7.718 10.208,7.822 9.978,7.886 9.934,8.164 A 4.8,4.8 0 0 0 9.874,9.596 L 9.09,9.673 c -0.039,0 -0.052,0.026 -0.043,0.06 l 0.077,0.489 -0.039,1.191 a 0.3,0.3 0 0 0 0.017,0.099 q 0.034,0.115 0.035,0.222 c -0.009,0.395 -0.009,0.772 -0.009,1.123 0,0.159 -0.056,0.309 -0.004,0.455 a 0.14,0.14 0 0 1 -0.013,0.102 0.16,0.16 0 0 1 -0.073,0.06 Q 9.018,13.481 9.025,13.5 c 0.005,0.013 0.013,0.017 0.022,0.022 q 0.056,0.014 0.055,0.072 v 0.888 q 0,0.051 -0.051,0.077 L 8.948,14.602 8.558,14.52 8.635,11.786 q 0,-0.072 -0.077,-0.086 c -0.043,0 -0.081,0 -0.12,0.013 Q 8.373,11.733 8.365,11.662 8.274,11.038 8.318,10.633 C 8.335,10.44 8.271,10.329 8.112,10.303 a 0.08,0.08 0 0 1 -0.064,-0.056 0.62,0.62 0 0 1 0,-0.394 L 8.374,9.78 C 8.631,9.729 8.798,9.617 8.987,9.463 A 0.116,0.116 0 0 0 8.957,9.266 0.72,0.72 0 0 0 8.301,9.274 L 8.768,7.547 Q 9.238,7.29 9.857,7.162 l 0.6,-0.103 a 20.6,20.6 0 0 1 2.953,0.008 q 0.03,0.002 0.055,-0.008 z"
       id="path828" />
    <path
       fill="#fdc90e"
       d="M 8.768,7.543 8.301,9.274 A 2.3,2.3 0 0 0 7.238,9.909 L 7.015,8.949 C 7.084,8.88 7.217,8.734 7.414,8.503 7.797,8.097 8.258,7.773 8.768,7.547 Z"
       id="path830" />
    <path
       fill="#fff073"
       d="m 13.958,9.592 -0.33,0.025 A 0.32,0.32 0 0 0 13.44,9.549 47,47 0 0 0 10.32,9.549 0.3,0.3 0 0 0 10.178,9.6 L 9.878,9.596 Q 9.787,8.984 9.934,8.164 C 9.964,7.98 10.058,7.864 10.208,7.822 10.422,7.749 10.637,7.71 10.864,7.693 A 16,16 0 0 1 12.467,7.68 c 0.433,0.017 0.715,0.154 0.968,0.502 0.266,0.368 0.438,0.642 0.506,0.814 0.043,0.107 0.047,0.304 0.017,0.6 z"
       id="path832" />
    <path
       fill="#fdc90e"
       d="m 16.307,8.332 0.626,0.732 c 0.128,0.12 0.197,0.258 0.21,0.403 a 0.09,0.09 0 0 1 -0.04,0.086 q -0.191,0.134 -0.235,0.506 C 16.457,9.596 15.638,9.034 14.974,9.27 L 14.39,7.99 a 0.08,0.08 0 0 1 0,-0.065 0.08,0.08 0 0 1 0.056,-0.042 1.1,1.1 0 0 1 0.557,0.012 c 0.428,0.108 0.857,0.253 1.303,0.438"
       id="path834" />
    <path
       fill="#343228"
       d="M 8.048,9.857 A 0.9,0.9 0 0 0 7.667,9.96 0.7,0.7 0 0 0 7.401,10.024 L 6.994,10.166 7.234,9.909 A 2.33,2.33 0 0 1 8.305,9.274 C 8.507,9.167 8.725,9.167 8.957,9.266 A 0.116,0.116 0 0 1 8.982,9.463 C 8.798,9.617 8.632,9.729 8.374,9.78 L 8.048,9.853 Z m 8.82,0.202 0.107,0.15 q -0.031,0.033 -0.103,-0.005 C 16.744,10.063 16.525,10.033 16.388,9.986 A 1.4,1.4 0 0 0 16.127,9.926 L 15.801,9.849 A 0.6,0.6 0 0 0 15.578,9.806 1.2,1.2 0 0 1 15.158,9.604 1,1 0 0 1 14.965,9.459 Q 14.877,9.349 14.974,9.27 c 0.664,-0.236 1.483,0.326 1.894,0.789"
       id="path836" />
    <path
       fill="#fe0246"
       d="m 13.628,9.617 -0.103,0.489 -0.068,0.068 q -0.154,0.031 -0.339,0.03 -1.31,-0.01 -2.623,0.005 -0.101,0.001 -0.145,-0.043 A 1,1 0 0 1 10.247,10.037 Q 10.267,9.883 10.178,9.6 a 0.3,0.3 0 0 1 0.142,-0.047 42,42 0 0 1 3.12,-0.004 0.3,0.3 0 0 1 0.188,0.068"
       id="path838" />
    <path
       fill="#f88e05"
       d="m 9.874,9.596 h 0.3 q 0.094,0.288 0.073,0.441 a 2,2 0 0 0 -0.146,0.87 0.11,0.11 0 0 1 -0.073,0.107 0.1,0.1 0 0 1 -0.047,0 c -0.103,-0.012 -0.154,0.026 -0.159,0.129 -0.004,0.184 -0.047,0.523 0.13,0.643 a 0.15,0.15 0 0 1 0.068,0.12 l 0.043,2.181 c 0,0.035 -0.013,0.06 -0.035,0.086 A 0.7,0.7 0 0 1 9.78,14.344 0.3,0.3 0 0 1 9.737,14.216 29,29 0 0 1 9.72,12.193 c 0,-0.154 -0.013,-0.304 -0.052,-0.446 A 1.5,1.5 0 0 1 9.677,10.942 C 9.75,10.71 9.72,10.47 9.72,10.23 9.72,10.192 9.698,10.17 9.664,10.166 a 1,1 0 0 0 -0.54,0.056 L 9.042,9.733 Q 9.035,9.681 9.09,9.673 Z"
       id="path840" />
    <path
       fill="#f76d04"
       d="m 13.958,9.592 0.407,0.025 -0.025,0.463 c 0,0.034 -0.022,0.052 -0.052,0.052 h -0.381 l -0.382,-0.026 0.103,-0.489 z"
       id="path842" />
    <path
       fill="#fcaf1e"
       d="m 15.158,9.604 c 0.125,0.095 0.262,0.163 0.42,0.202 a 0.7,0.7 0 0 1 0.056,0.437 c -0.009,0.034 -0.043,0.051 -0.103,0.06 l -0.253,-0.047 -0.651,-0.077 c -0.043,0 -0.056,0.013 -0.047,0.055 0.051,0.215 0.064,0.429 0.03,0.63 a 0.2,0.2 0 0 0 0.013,0.103 0.82,0.82 0 0 1 -0.043,0.755 0.2,0.2 0 0 0 -0.026,0.094 l 0.043,2.708 a 1,1 0 0 1 -0.583,-0.27 121,121 0 0 1 0,-2.16 q 0.002,-0.238 0.056,-0.445 0.063,-0.246 0.043,-0.532 c -0.005,-0.09 -0.06,-0.137 -0.12,-0.197 A 0.14,0.14 0 0 1 13.95,10.826 l -0.043,-0.69 0.381,-0.004 q 0.045,0 0.052,-0.052 l 0.03,-0.463 c 0.257,0.056 0.523,0.052 0.788,-0.013"
       id="path844" />
    <path
       fill="#d3d743"
       d="m 15.578,9.806 a 0.6,0.6 0 0 1 0.223,0.043 q 0.008,0.3 -0.03,0.595 a 5,5 0 0 0 -0.051,0.592 c 0,0.861 -0.035,1.723 -0.086,2.584 -0.013,0.107 0.017,0.369 0.077,0.78 l -0.244,0.112 -0.056,-0.009 a 36,36 0 0 0 -0.034,-1.191 q -0.008,-0.251 0.03,-0.489 0.051,-0.322 0.051,-0.484 c 0.013,-0.686 0.034,-1.363 0.073,-2.036 0.06,-0.009 0.094,-0.026 0.103,-0.06 A 0.73,0.73 0 0 0 15.578,9.806"
       id="path846" />
    <path
       fill="#e8da26"
       d="m 8.048,9.857 a 0.6,0.6 0 0 0 0,0.39 q 0.013,0.051 0.064,0.056 c 0.16,0.026 0.223,0.137 0.206,0.33 -0.03,0.27 -0.013,0.613 0.043,1.029 0.009,0.042 0.034,0.064 0.077,0.051 a 0.25,0.25 0 0 1 0.124,-0.009 q 0.072,0.008 0.073,0.086 L 8.558,14.52 8.545,14.533 8.202,14.422 8.014,14.319 A 0.08,0.08 0 0 0 7.988,14.25 0.16,0.16 0 0 1 7.941,14.164 3.8,3.8 0 0 1 7.834,13.333 c 0,-0.21 0.111,-0.287 0.248,-0.407 L 8.087,12.917 A 0.02,0.02 0 0 0 8.08,12.899 L 8.074,12.896 8.061,12.9 Q 7.912,12.995 7.808,12.943 A 0.09,0.09 0 0 1 7.757,12.857 Q 7.726,12.211 7.637,11.572 C 7.615,11.439 7.658,11.357 7.765,11.28 A 0.12,0.12 0 0 0 7.808,11.182 L 7.735,10.526 A 0.15,0.15 0 0 0 7.71,10.457 0.53,0.53 0 0 1 7.667,9.96 0.95,0.95 0 0 1 8.048,9.853 Z"
       id="path848" />
    <path
       fill="#bdd467"
       d="m 15.801,9.849 0.326,0.077 q 0.009,0.811 -0.086,1.616 -0.024,0.19 0.017,0.625 c 0.035,0.369 0,1.093 -0.107,2.182 l -0.159,0.034 -0.081,0.017 q -0.09,-0.618 -0.081,-0.78 c 0.055,-0.857 0.085,-1.723 0.085,-2.584 0,-0.146 0.022,-0.343 0.056,-0.592 q 0.038,-0.294 0.03,-0.595"
       id="path850" />
    <path
       fill="#89be9b"
       d="m 16.127,9.926 c 0.085,0.013 0.171,0.03 0.257,0.06 0.141,0.043 0.356,0.077 0.488,0.214 a 0.9,0.9 0 0 0 -0.068,0.433 q 0.102,1.324 0.017,2.649 -0.033,0.308 0.009,0.612 l -0.879,0.455 c 0.107,-1.089 0.142,-1.813 0.107,-2.186 a 3.4,3.4 0 0 1 -0.021,-0.621 12,12 0 0 0 0.085,-1.616 z"
       id="path852" />
    <path
       fill="#d3d743"
       d="m 7.671,9.96 q -0.104,0.278 0.043,0.497 l 0.021,0.069 0.069,0.656 A 0.1,0.1 0 0 1 7.761,11.28 c -0.103,0.077 -0.146,0.159 -0.129,0.292 0.065,0.437 0.103,0.865 0.13,1.285 0,0.039 0.016,0.065 0.046,0.086 Q 7.912,12.995 8.061,12.9 h 0.021 v 0.026 c -0.137,0.12 -0.252,0.197 -0.248,0.407 0,0.283 0.038,0.557 0.107,0.836 0.004,0.03 0.021,0.06 0.043,0.081 a 0.07,0.07 0 0 1 0.03,0.069 L 7.375,14.01 7.384,13.594 c 0,-0.128 -0.004,-0.265 -0.022,-0.398 a 6.4,6.4 0 0 1 -0.03,-1.123 q 0.025,-0.507 0.03,-1.02 c 0,-0.339 0.013,-0.686 0.039,-1.029 A 0.7,0.7 0 0 1 7.667,9.96 Z"
       id="path854" />
    <path
       fill="#bdd467"
       d="m 7.401,10.024 c -0.026,0.343 -0.039,0.69 -0.043,1.029 0,0.343 -0.008,0.686 -0.03,1.02 q -0.03,0.565 0.034,1.123 0.027,0.2 0.022,0.398 L 7.375,14.01 7.178,13.924 A 2,2 0 0 0 7.122,13.384 1.4,1.4 0 0 1 7.071,12.939 q 0.027,-0.44 0.004,-0.879 l 0.022,-1.324 c 0,-0.176 0,-0.334 -0.017,-0.472 0,-0.034 -0.022,-0.055 -0.056,-0.06 -0.043,0 -0.086,0 -0.129,0.009 a 0.13,0.13 0 0 1 0.099,-0.047 z"
       id="path856" />
    <path
       fill="#f76d04"
       d="m 10.243,10.037 0.107,0.129 q 0.044,0.044 0.145,0.043 1.312,-0.015 2.623,-0.005 0.184,0.002 0.343,-0.03 l 0.026,1.706 a 0.077,0.077 0 0 1 -0.073,0.077 0.12,0.12 0 0 0 -0.086,0.035 0.09,0.09 0 0 0 -0.03,0.077 q 0.072,0.54 -0.068,1.063 l -0.322,-0.635 a 0.1,0.1 0 0 0 -0.017,-0.025 l -0.159,-0.159 a 0.06,0.06 0 0 1 0.03,-0.099 L 12.9,12.176 q 0.083,-0.018 0.038,-0.094 a 4,4 0 0 1 -0.248,-0.42 0.844,0.844 0 0 0 -1.436,-0.086 c -0.111,0.158 -0.214,0.33 -0.3,0.514 q -0.032,0.063 0.034,0.094 l 0.095,0.043 c 0.042,0.022 0.05,0.047 0.03,0.086 l -0.63,1.226 a 4,4 0 0 1 -0.232,0.497 1.5,1.5 0 0 1 -0.304,0.351 2.5,2.5 0 0 0 -0.335,0.335 L 8.991,14.623 C 9.278,14.584 9.54,14.494 9.78,14.344 a 0.7,0.7 0 0 0 0.248,-0.171 0.12,0.12 0 0 0 0.03,-0.086 L 10.015,11.906 A 0.15,0.15 0 0 0 9.951,11.786 C 9.775,11.666 9.818,11.327 9.822,11.143 9.827,11.04 9.878,11.002 9.977,11.014 a 0.106,0.106 0 0 0 0.128,-0.107 c -0.019,-0.297 0.03,-0.594 0.142,-0.87 z"
       id="path858" />
    <path
       fill="#f88e05"
       d="m 13.525,10.106 0.386,0.03 0.039,0.686 c 0,0.042 0.017,0.072 0.043,0.098 0.06,0.06 0.115,0.107 0.12,0.197 q 0.02,0.285 -0.043,0.532 a 2,2 0 0 0 -0.056,0.445 121,121 0 0 0 0,2.16 0.45,0.45 0 0 1 -0.257,-0.192 4.5,4.5 0 0 1 -0.3,-0.566 L 13.23,13.132 a 2.7,2.7 0 0 0 0.068,-1.063 0.09,0.09 0 0 1 0.026,-0.077 0.12,0.12 0 0 1 0.086,-0.035 0.077,0.077 0 0 0 0.077,-0.077 l -0.03,-1.706 z"
       id="path860" />
    <path
       fill="#fcaf1e"
       d="m 9.78,14.344 c -0.24,0.15 -0.502,0.24 -0.789,0.279 L 8.948,14.602 9.051,14.559 Q 9.102,14.533 9.102,14.482 V 13.594 Q 9.103,13.536 9.047,13.522 9.033,13.521 9.025,13.5 c 0,-0.013 0,-0.021 0.013,-0.026 a 0.16,0.16 0 0 0 0.073,-0.06 0.11,0.11 0 0 0 0.013,-0.102 c -0.052,-0.146 0.008,-0.3 0.008,-0.455 Q 9.128,12.329 9.137,11.734 A 0.8,0.8 0 0 0 9.102,11.512 0.3,0.3 0 0 1 9.085,11.413 l 0.043,-1.191 a 1,1 0 0 1 0.536,-0.056 c 0.034,0.004 0.056,0.026 0.056,0.064 0,0.24 0.03,0.48 -0.043,0.712 a 1.5,1.5 0 0 0 -0.009,0.805 q 0.058,0.214 0.052,0.446 -0.026,0.978 0.012,2.027 c 0,0.026 0.018,0.069 0.043,0.124 z"
       id="path862" />
    <path
       fill="#ffde41"
       d="m 15.278,10.256 c 0.039,0.296 0.005,0.574 -0.098,0.844 -0.035,0.086 -0.022,0.244 0.034,0.484 0.043,0.159 0.051,0.322 0.034,0.485 a 6,6 0 0 0 -0.008,0.728 q 0.016,0.342 0.008,0.716 c -0.008,0.253 0,0.523 0.035,0.81 a 1,1 0 0 0 0.038,0.201 l -0.283,0.06 -0.437,-0.06 -0.047,-2.708 a 0.2,0.2 0 0 1 0.021,-0.094 0.8,0.8 0 0 0 0.043,-0.755 0.2,0.2 0 0 1 -0.008,-0.103 1.6,1.6 0 0 0 -0.03,-0.63 q -0.015,-0.063 0.047,-0.055 z"
       id="path864" />
    <path
       fill="#aad182"
       d="m 6.895,10.209 a 0.4,0.4 0 0 1 0.129,0 c 0.034,0 0.056,0.021 0.056,0.055 0.012,0.138 0.021,0.296 0.017,0.472 q -0.006,0.77 -0.022,1.543 a 7,7 0 0 1 -0.004,0.66 c -0.009,0.128 0.009,0.283 0.051,0.445 0.043,0.18 0.06,0.365 0.056,0.545 L 7.092,13.92 A 0.77,0.77 0 0 0 6.72,13.727 0.22,0.22 0 0 0 6.578,13.612 0.2,0.2 0 0 0 6.587,13.547 c 0.043,0.017 0.073,0.005 0.081,-0.03 A 0.8,0.8 0 0 0 6.69,13.26 11,11 0 0 1 6.732,11.302 c 0.1,-0.296 0.108,-0.618 0.035,-0.969 0,-0.056 0.043,-0.094 0.128,-0.124"
       id="path866" />
    <path
       fill="#5879ae"
       d="m 16.873,10.2 c 0.042,0.03 0.08,0.03 0.102,0.009 q 0.102,0.033 0.159,0.085 c -0.103,0.223 -0.052,0.6 -0.056,0.845 0,0.047 0.009,0.09 0.035,0.12 q 0.05,0.075 0.115,0.073 0.147,-0.007 0.197,0.115 v 1.089 c 0.013,0.038 0.026,0.073 0.026,0.107 a 1.1,1.1 0 0 0 -0.013,0.369 0.13,0.13 0 0 0 -0.034,0.098 0.7,0.7 0 0 1 -0.013,0.322 q -0.066,0.063 -0.068,0.128 a 0.2,0.2 0 0 0 -0.078,0.103 q -0.017,0.052 0.03,0.086 l 0.065,0.047 a 0.7,0.7 0 0 0 -0.343,0.193 q -0.095,-0.102 -0.172,-0.095 a 2.6,2.6 0 0 1 0,-0.612 q 0.076,-1.325 -0.021,-2.649 a 0.9,0.9 0 0 1 0.069,-0.429 z"
       id="path868" />
    <path
       fill="#e8da26"
       d="m 15.278,10.256 0.257,0.043 a 46,46 0 0 0 -0.077,2.04 q 0,0.162 -0.051,0.484 a 2.6,2.6 0 0 0 -0.03,0.489 q 0.027,0.592 0.034,1.191 a 0.12,0.12 0 0 1 -0.09,0.021 1,1 0 0 1 -0.038,-0.201 6,6 0 0 1 -0.035,-0.814 c 0.009,-0.245 0,-0.485 -0.008,-0.716 a 6,6 0 0 1 0.008,-0.724 1.4,1.4 0 0 0 -0.034,-0.485 Q 15.129,11.224 15.18,11.1 c 0.103,-0.27 0.137,-0.548 0.098,-0.844"
       id="path870" />
    <path
       fill="#fe0246"
       d="m 17.173,10.294 q 0.146,0.034 0.325,0.112 0.144,0.065 0.172,0.227 0.102,0.722 -0.245,0.814 -0.05,-0.122 -0.197,-0.115 c -0.098,-0.3 -0.116,-0.643 -0.056,-1.038 m -10.5,0.048 -0.013,0.025 a 0.06,0.06 0 0 0 0,0.043 q 0.16,0.501 -0.065,0.926 L 6.44,11.4 c -0.094,0.013 -0.163,0 -0.206,-0.051 a 0.11,0.11 0 0 1 -0.025,-0.086 4,4 0 0 0 0.012,-0.57 c -0.012,-0.257 0.215,-0.369 0.45,-0.351"
       id="path872" />
    <path
       fill="#2e241c"
       d="m 6.668,10.342 c 0.03,0.021 0.064,0.021 0.099,-0.009 q 0.112,0.526 -0.035,0.969 a 0.3,0.3 0 0 0 -0.137,0.034 c 0.15,-0.287 0.172,-0.592 0.06,-0.926 a 0.06,0.06 0 0 1 0,-0.043 z"
       id="path874" />
    <path
       fill="#000000"
       d="m 13.23,13.132 0.227,0.364 -0.12,0.068 c -0.073,0.06 -0.12,0.069 -0.15,0.026 l -0.296,-0.506 q -0.046,-0.032 -0.034,-0.06 c 0.107,-0.3 0.034,-0.518 -0.223,-0.668 A 0.5,0.5 0 0 0 12.463,12.3 q -0.155,-0.032 -0.155,-0.103 h 0.065 q 0.07,-0.007 0.025,-0.06 C 12.252,11.953 12.107,11.546 11.777,11.743 11.64,11.824 11.597,12 11.498,12.12 q -0.047,0.052 0.022,0.073 a 0.3,0.3 0 0 0 0.137,-0.009 C 11.648,12.27 11.58,12.3 11.443,12.279 a 0.17,0.17 0 0 0 -0.1,0.013 q -0.507,0.251 -0.282,0.78 -0.006,0.03 -0.038,0.03 -0.02,-0.002 -0.04,0.008 -0.135,0.244 -0.278,0.484 -0.026,0.053 -0.077,0.022 l -0.146,-0.077 0.63,-1.226 c 0.022,-0.039 0.009,-0.064 -0.03,-0.086 l -0.094,-0.043 q -0.066,-0.03 -0.034,-0.094 0.13,-0.276 0.3,-0.514 a 0.845,0.845 0 0 1 1.436,0.086 c 0.077,0.15 0.162,0.287 0.248,0.42 q 0.046,0.072 -0.043,0.094 l -0.133,0.038 a 0.1,0.1 0 0 0 -0.026,0.015 0.06,0.06 0 0 0 -0.017,0.058 0.1,0.1 0 0 0 0.014,0.026 l 0.158,0.159 q 0.012,0.006 0.017,0.025 z"
       id="path876" />
    <path
       fill="#89be9b"
       d="M 6.728,11.302 A 10.6,10.6 0 0 0 6.69,13.256 0.8,0.8 0 0 1 6.668,13.513 C 6.655,13.556 6.63,13.564 6.587,13.547 Q 6.533,13.483 6.467,13.496 l -0.043,-0.3 c 0.017,0 0.026,-0.034 0.03,-0.116 a 1,1 0 0 0 0.004,-0.381 c 0.026,-0.039 0.022,-0.077 0,-0.116 A 4.2,4.2 0 0 0 6.437,11.4 l 0.158,-0.064 a 0.3,0.3 0 0 1 0.137,-0.034 z"
       id="path878" />
    <path
       fill="#ffde41"
       d="m 12.308,12.197 a 1.1,1.1 0 0 0 -0.651,-0.013 0.3,0.3 0 0 1 -0.137,0.009 q -0.066,-0.02 -0.022,-0.073 c 0.099,-0.12 0.142,-0.3 0.279,-0.377 0.33,-0.197 0.471,0.21 0.621,0.394 q 0.045,0.054 -0.025,0.056 z"
       id="path880" />
    <path
       fill="#836042"
       d="m 12.308,12.197 c 0,0.047 0.052,0.086 0.159,0.103 a 0.6,0.6 0 0 1 0.171,0.056 c 0.257,0.15 0.326,0.373 0.219,0.668 -0.086,0.052 -0.082,0.116 -0.142,0.185 q -0.064,0.066 -0.128,-0.005 a 0.125,0.125 0 0 0 -0.155,-0.017 0.1,0.1 0 0 0 -0.038,0.035 0.9,0.9 0 0 0 -0.137,0.3 c -0.073,0.257 -0.463,0.291 -0.575,0.038 a 2,2 0 0 0 -0.137,-0.27 q -0.096,-0.16 -0.257,-0.064 -0.046,0.03 -0.085,-0.009 l -0.142,-0.145 q -0.225,-0.529 0.283,-0.78 a 0.17,0.17 0 0 1 0.099,-0.013 c 0.137,0.021 0.205,-0.013 0.214,-0.095 0.213,-0.062 0.44,-0.057 0.651,0.013"
       id="path882" />
    <path
       fill="#fcaf1e"
       d="m 17.451,12.643 0.699,0.159 c 0.034,0.008 0.055,0.03 0.055,0.068 l 0.022,0.279 q 0.007,0.046 -0.043,0.034 l -0.746,-0.171 a 1.1,1.1 0 0 1 0.013,-0.369 M 6.458,12.699 A 0.9,0.9 0 0 1 6.454,13.08 Q 6.447,13.043 6.42,13.05 a 10,10 0 0 0 -0.712,0.227 c -0.026,0.009 -0.034,0 -0.034,-0.021 l 0.008,-0.33 q 10e-4,-0.02 0.022,-0.022 z"
       id="path884" />
    <path
       fill="#f8c137"
       d="m 11.023,13.102 c 0.214,0.312 0.728,0.865 1.178,0.617 0.276,-0.156 0.512,-0.373 0.69,-0.635 l 0.3,0.506 q 0.038,0.064 0.146,-0.026 c 0.081,0.21 0.171,0.412 0.278,0.605 q 0.161,0.29 0.643,0.548 a 15,15 0 0 1 -4.646,0.005 c 0.1,-0.116 0.215,-0.228 0.335,-0.335 0.137,-0.124 0.24,-0.24 0.3,-0.351 q 0.14,-0.245 0.236,-0.497 l 0.145,0.077 c 0.034,0.017 0.06,0.013 0.077,-0.022 q 0.143,-0.24 0.279,-0.484 a 0.1,0.1 0 0 1 0.043,-0.008 z"
       id="path886" />
    <path
       fill="#fcaf1e"
       d="m 17.4,13.11 0.741,0.18 c 0.064,0.013 0.094,0.056 0.09,0.12 l -0.004,0.159 c -0.005,0.06 -0.035,0.085 -0.095,0.064 l -0.74,-0.201 A 0.7,0.7 0 0 0 17.404,13.11 Z M 6.424,13.2 6.467,13.496 5.738,13.744 c -0.043,0.013 -0.06,0 -0.06,-0.042 L 5.67,13.457 q 0,-0.064 0.06,-0.077 l 0.694,-0.184 z"
       id="path888" />
    <path
       fill="#e69a22"
       d="m 13.457,13.496 c 0.085,0.193 0.188,0.381 0.3,0.566 a 0.45,0.45 0 0 0 0.257,0.192 1,1 0 0 0 0.587,0.27 l 0.437,0.06 -0.784,0.133 a 1.53,1.53 0 0 1 -0.639,-0.548 5,5 0 0 1 -0.278,-0.605 z"
       id="path890" />
    <path
       fill="#fcaf1e"
       d="m 17.323,13.564 0.797,0.215 c 0.034,0.013 0.055,0.034 0.055,0.073 q 0.015,0.262 -0.098,0.557 L 17.34,13.796 17.275,13.749 q -0.047,-0.034 -0.03,-0.086 a 0.2,0.2 0 0 1 0.078,-0.099 M 6.578,13.612 q 0.09,0.019 0.142,0.115 L 5.845,14.473 A 1.5,1.5 0 0 1 5.717,13.937 c 0,-0.034 0.021,-0.06 0.055,-0.068 z"
       id="path892" />
    <path
       fill="#0193cf"
       d="m 6.72,13.727 q 0.218,0.046 0.372,0.193 a 7,7 0 0 0 -0.797,0.75 3,3 0 0 0 -0.3,0.45 1.73,1.73 0 0 0 0.099,1.166 q 0.16,0.359 0.411,0.416 c 0.27,0.064 0.699,0.068 0.823,-0.258 A 0.15,0.15 0 0 1 7.392,16.363 C 7.68,16.192 7.791,16.162 7.915,15.746 L 8.194,14.512 A 0.05,0.05 0 0 0 8.181,14.46 C 8.16,14.434 8.164,14.422 8.202,14.422 l 0.343,0.111 -0.124,1.264 A 2.16,2.16 0 0 1 7.954,16.984 C 7.885,17.074 7.847,17.113 7.83,17.1 Q 7.443,17.098 7.075,17.173 a 2.3,2.3 0 0 1 -0.373,0.06 c -0.171,0 -0.3,-0.017 -0.381,-0.06 A 1.87,1.87 0 0 1 5.292,15.776 Q 5.265,15.629 5.155,15.72 c 0.026,-0.124 0.026,-0.248 0.077,-0.36 q 0.223,-0.482 0.613,-0.887 z m 10.62,0.069 0.737,0.613 q 0.366,0.373 0.514,0.6 0.255,0.384 0.266,0.878 c -0.095,0.065 -0.184,0.197 -0.279,0.386 -0.15,0.326 -0.574,0.793 -0.981,0.879 a 2.6,2.6 0 0 1 -0.515,0.06 c -0.068,0 -0.205,-0.026 -0.415,-0.086 a 0.96,0.96 0 0 0 -0.493,0 L 16.003,16.954 A 2.5,2.5 0 0 1 15.561,15.72 4,4 0 0 1 15.467,14.512 l 0.244,-0.112 0.086,-0.017 q 0.065,0.783 0.33,1.47 a 0.7,0.7 0 0 0 0.137,0.291 c 0.274,0.279 0.651,0.352 1.024,0.429 A 0.43,0.43 0 0 0 17.631,16.5 c 0.052,-0.034 0.107,-0.128 0.171,-0.27 a 4,4 0 0 1 0.185,-0.373 c 0.116,-0.205 0.116,-0.445 -0.009,-0.728 a 1.7,1.7 0 0 0 -0.386,-0.566 9,9 0 0 0 -0.6,-0.574 0.7,0.7 0 0 1 0.343,-0.193 z"
       id="path894" />
    <path
       fill="#c9ebf4"
       d="m 16.825,13.894 q 0.077,-0.007 0.172,0.095 0.31,0.274 0.6,0.574 0.258,0.27 0.381,0.566 l -0.484,0.437 c -0.394,0.347 -0.892,0.244 -1.372,0.287 a 5.6,5.6 0 0 1 -0.33,-1.47 l 0.159,-0.034 z m -9.733,0.026 0.086,0.009 0.197,0.081 0.643,0.309 0.184,0.103 c -0.038,0 -0.042,0.012 -0.02,0.042 Q 8.2,14.48 8.194,14.507 L 7.915,15.746 C 7.501,15.844 7.065,15.808 6.672,15.643 A 1.7,1.7 0 0 1 6.334,15.382 1.8,1.8 0 0 0 5.991,15.12 C 6.12,14.906 6.218,14.756 6.295,14.67 q 0.37,-0.406 0.797,-0.75"
       id="path896" />
    <path
       fill="#1d140e"
       d="m 15.411,14.503 0.056,0.009 q -0.046,0.603 0.094,1.208 c -0.159,0.107 -0.27,0.214 -0.326,0.33 l -0.638,0.442 a 4.53,4.53 0 0 1 -4.569,0.441 C 9.771,16.817 9.355,16.56 8.794,16.153 L 8.421,15.797 8.55,14.533 8.554,14.52 8.948,14.606 a 0.1,0.1 0 0 1 0.043,0.017 l 0.621,0.099 a 15.2,15.2 0 0 0 4.642,0 l 0.784,-0.138 0.283,-0.06 q 0.046,0.009 0.086,-0.021 z"
       id="path898" />
    <path
       fill="#d7c8ae"
       d="m 14.323,15.459 c 0,-0.189 0.025,-0.347 0.08,-0.485 l 0.494,-0.064 q 0.072,-0.011 0.056,0.06 a 4.5,4.5 0 0 1 -0.326,0.969 c -0.069,0.137 -0.112,0.128 -0.137,-0.017 A 1.3,1.3 0 0 0 14.322,15.459 M 9.539,14.983 q 0.48,0.224 0.21,0.493 c -0.133,-0.039 -0.232,0.03 -0.288,0.206 a 1.6,1.6 0 0 0 -0.072,0.3 q -0.02,0.135 -0.086,0.012 A 3.3,3.3 0 0 1 8.96,14.979 Q 8.947,14.916 9.011,14.923 Z"
       id="path900" />
    <path
       fill="#f3ecd9"
       d="m 9.54,14.983 a 23,23 0 0 0 4.864,-0.009 1.2,1.2 0 0 0 -0.082,0.485 c -1.53,0.145 -3.055,0.154 -4.572,0.017 0.18,-0.18 0.111,-0.343 -0.215,-0.493 z"
       id="path902" />
    <path
       fill="#04baea"
       d="m 5.991,15.12 q 0.194,0.116 0.343,0.257 c 0.154,0.146 0.266,0.232 0.334,0.266 0.393,0.165 0.828,0.2 1.243,0.103 -0.12,0.416 -0.231,0.446 -0.514,0.617 A 0.15,0.15 0 0 0 7.328,16.444 C 7.204,16.77 6.775,16.766 6.505,16.702 6.334,16.659 6.201,16.526 6.094,16.286 A 1.74,1.74 0 0 1 5.991,15.12 m 11.987,0.009 c 0.12,0.283 0.129,0.523 0.009,0.728 -0.086,0.15 -0.146,0.275 -0.189,0.373 q -0.09,0.219 -0.163,0.27 a 0.43,0.43 0 0 1 -0.347,0.073 c -0.373,-0.077 -0.75,-0.15 -1.024,-0.429 a 0.66,0.66 0 0 1 -0.137,-0.291 c 0.476,-0.043 0.973,0.06 1.367,-0.287 z"
       id="path904" />
    <path
       fill="#2e241c"
       d="m 13.29,15.677 c 0.313,-0.013 0.617,-0.013 0.921,0 0.034,0 0.06,0.017 0.086,0.043 0.115,0.129 0.171,0.279 0.055,0.442 a 1.3,1.3 0 0 1 -0.698,0.505 c -0.669,0.206 -1.436,0.377 -2.13,0.27 A 11,11 0 0 1 10.453,16.723 1.68,1.68 0 0 1 9.54,16.17 0.13,0.13 0 0 1 9.51,16.084 q 0.02,-0.455 0.445,-0.428 c 0.532,0.034 1.072,0.073 1.616,0.064 0.591,-0.008 1.166,-0.026 1.719,-0.043"
       id="path906" />
    <path
       fill="#04baea"
       d="m 7.83,17.1 q -0.809,0.798 -1.753,0.36 -1.043,-0.48 -0.922,-1.74 0.11,-0.091 0.137,0.056 c 0.13,0.656 0.472,1.118 1.029,1.397 0.086,0.043 0.214,0.06 0.381,0.06 q 0.123,0 0.373,-0.06 0.373,-0.08 0.755,-0.073"
       id="path908" />
    <path
       fill="#e69a22"
       d="m 15.561,15.72 c 0.039,0.45 0.184,0.857 0.442,1.23 a 16,16 0 0 1 -2.692,1.487 6.5,6.5 0 0 1 -1.003,0.343 c -0.043,0.004 -0.06,-0.013 -0.064,-0.051 0,-0.009 0,-0.022 0.008,-0.03 l 0.022,-0.017 1.714,-0.759 a 0.09,0.09 0 0 0 0.052,-0.06 0.1,0.1 0 0 0 -0.022,-0.073 q -0.102,-0.114 -0.236,-0.056 a 0.05,0.05 0 0 1 -0.034,0 0.05,0.05 0 0 1 -0.03,-0.017 0.44,0.44 0 0 0 -0.514,-0.171 c -0.806,0.214 -1.586,0.227 -2.323,0.026 a 1.2,1.2 0 0 0 -0.463,-0.035 q -0.45,0.064 -0.514,0.579 a 13.6,13.6 0 0 1 -1.95,-1.132 q 0.406,-0.5 0.471,-1.187 l 0.369,0.356 a 4.7,4.7 0 0 0 1.213,0.866 4.2,4.2 0 0 0 4.114,-0.12 q 0.631,-0.354 1.114,-0.849 c 0.056,-0.111 0.168,-0.223 0.326,-0.33"
       id="path910" />
    <path
       fill="#04baea"
       d="m 18.857,15.887 q 0.019,0.855 -0.514,1.299 -1.062,0.886 -2.17,-0.06 a 0.96,0.96 0 0 1 0.494,0 c 0.21,0.06 0.347,0.086 0.42,0.086 q 0.25,-0.002 0.514,-0.06 c 0.403,-0.086 0.827,-0.553 0.977,-0.875 0.095,-0.193 0.184,-0.325 0.279,-0.385 z"
       id="path912" />
    <path
       fill="#fff073"
       d="m 15.235,16.05 q -0.483,0.495 -1.114,0.849 a 4.2,4.2 0 0 1 -4.114,0.12 4.6,4.6 0 0 1 -1.209,-0.866 c 0.557,0.407 0.969,0.664 1.23,0.78 a 4.53,4.53 0 0 0 4.569,-0.441 z"
       id="path914" />
    <path
       fill="#d98d24"
       d="m 12.308,18.776 c -0.18,0.073 -0.325,0.094 -0.441,0.073 A 6.7,6.7 0 0 1 9.904,18.116 q 0.064,-0.515 0.514,-0.579 0.219,-0.03 0.463,0.035 c 0.742,0.201 1.517,0.188 2.327,-0.03 q 0.321,-0.086 0.515,0.175 c 0,0.009 0.012,0.017 0.025,0.022 h 0.035 q 0.136,-0.064 0.235,0.051 a 0.085,0.085 0 0 1 0.004,0.108 0.1,0.1 0 0 1 -0.03,0.025 l -1.714,0.759 a 0.05,0.05 0 0 0 -0.03,0.047 c 0,0.043 0.022,0.055 0.06,0.047"
       id="path916" />
  </g>
</svg>
