<?xml version="1.0" encoding="UTF-8"?>
<svg id="Layer_1" xmlns="http://www.w3.org/2000/svg" version="1.1" viewBox="0 0 250 250">
  <!-- Generator: Adobe Illustrator 29.0.1, SVG Export Plug-In . SVG Version: 2.1.0 Build 192)  -->
  <defs>
    <style>
      .st0 {
        fill: #111118;
      }

      .st1 {
        fill: #e9edf1;
      }
    </style>
  </defs>
  <circle id="_椭圆形" data-name="椭圆形" class="st1" cx="125" cy="125" r="112.9"/>
  <g id="_椭圆形备份" data-name="椭圆形备份">
    <path class="st1" d="M125,7.9c31.3,0,60.7,12.2,82.8,34.3,22.1,22.1,34.3,51.5,34.3,82.8s-12.2,60.7-34.3,82.8c-22.1,22.1-51.5,34.3-82.8,34.3s-60.7-12.2-82.8-34.3C20.1,185.7,7.9,156.3,7.9,125s12.2-60.7,34.3-82.8C64.3,20.1,93.7,7.9,125,7.9M125,2.5C57.3,2.5,2.5,57.3,2.5,125s54.8,122.5,122.5,122.5,122.5-54.8,122.5-122.5S192.7,2.5,125,2.5h0Z"/>
  </g>
  <g id="_编组-7备份" data-name="编组-7备份">
    <path id="_形状结合" data-name="形状结合" class="st0" d="M125,50.1c14.5,0,28.2,5.7,38.5,16,10.3,10.3,15.9,24,15.9,38.5v88.5h-108.9v-88.5c0-14.5,5.7-28.2,15.9-38.5,10.3-10.3,24-16,38.5-16ZM125,52.8c-13.9,0-26.9,5.4-36.7,15.2-9.8,9.8-15.1,22.7-15.1,36.6v85.8h103.6v-85.8c0-13.8-5.4-26.8-15.1-36.6-9.8-9.8-22.8-15.2-36.7-15.2ZM125,59.6c10.9,0,21.3,4,29.4,11.2.9.8,1.7,1.6,2.5,2.4,8.5,8.8,13.2,20.5,13.3,32.9v77.3h-90.5v-77.4c0-12.4,4.7-24.1,13.2-32.9,8.5-8.8,19.9-13.6,32-13.6ZM99.6,168.3v9.9h15.2c-5.6-2.1-10.8-5.5-15.2-9.9ZM99.2,79.7c-6.5,7.6-10.1,17.3-10.1,27.5v29.1c0,8.9,2.7,17.5,7.8,24.6.8,1.2,1.7,2.3,2.7,3.4.4.5.9,1,1.4,1.5,7.7,7.9,17.9,12.3,28.7,12.3s9.2-.8,13.4-2.4v-56.8c0-26.4-26.8-38.4-43.9-39.3ZM125.2,104.5c6.7,0,12.1,5.6,12.1,12.4s-.7,1.6-1.5,1.6-1.5-.7-1.5-1.6c0-5.1-4.1-9.3-9-9.3s-9,4.2-9,9.3v23.9c2-.7,3.5-2.6,3.5-4.9s.7-1.6,1.5-1.6,1.5.7,1.5,1.6c0,4.3-3.2,7.8-7.2,8.2h-.8c-4.4,0-8-3.7-8-8.2s.7-1.6,1.5-1.6,1.5.7,1.5,1.6c0,2.3,1.5,4.2,3.4,4.9v-23.1c0-.2,0-.3,0-.5,0-.3,0-6.6-4.2-6.6s-1.5-.7-1.5-1.5.7-1.5,1.5-1.5c2.9,0,4.7,1.6,5.8,3.6,2-3.9,6-6.6,10.6-6.6ZM98,114.5l6.7,6.9v-4.1c0-.9.7-1.6,1.5-1.6s1.5.7,1.5,1.6v7.9c0,.6-.4,1.2-.9,1.5-.2,0-.4.1-.6.1-.4,0-.8-.2-1.1-.5l-6.7-6.9v5.8c0,.9-.7,1.6-1.5,1.6s-1.5-.7-1.5-1.6v-9.6c0-.6.4-1.2.9-1.5s1.2-.1,1.7.3ZM125.2,116.5c3.3,0,6,2.8,6,6.2,0,.9-.7,1.6-1.5,1.6s-1.5-.7-1.5-1.6c0-1.7-1.3-3.1-3-3.1s-3,1.4-3,3.1-.7,1.6-1.5,1.6-1.5-.7-1.5-1.6c0-3.4,2.7-6.2,6-6.2Z"/>
  </g>
</svg>