<?xml version="1.0" encoding="UTF-8"?>
<svg id="Layer_1" xmlns="http://www.w3.org/2000/svg" version="1.1" viewBox="0 0 250 250">
  <!-- Generator: Adobe Illustrator 29.0.1, SVG Export Plug-In . SVG Version: 2.1.0 Build 192)  -->
  <defs>
    <style>
      .st0 {
        fill: #fff;
      }

      .st1 {
        fill: #05070a;
      }
    </style>
  </defs>
  <circle class="st1" cx="125" cy="125" r="122.5"/>
  <g>
    <path class="st0" d="M132.3,227.8h-7.3c-56.8,0-102.8-46-102.8-102.8S68.2,22.2,125,22.2s102.8,46,102.8,102.8-.4,10.1-1.1,15h-14.4c.8-4.9,1.3-9.9,1.3-15,0-48.9-39.6-88.6-88.6-88.6S36.4,76.1,36.4,125s39.6,88.6,88.6,88.6h52.7c-13.5,8-28.9,13.1-45.4,14.2Z"/>
    <path class="st0" d="M197.4,198.3h-72.4c-40.5,0-73.3-32.8-73.3-73.3S84.5,51.7,125,51.7s73.3,32.8,73.3,73.3-.5,10.1-1.5,15h-14.6c1.2-4.8,1.9-9.8,1.9-15,0-32.7-26.5-59.1-59.1-59.1s-59.1,26.5-59.1,59.1,26.5,59.1,59.1,59.1h84.4c-3.6,5.1-7.6,9.9-12,14.2Z"/>
    <path class="st0" d="M218.2,168.9h-93.2c-24.2,0-43.9-19.7-43.9-43.9s19.7-43.9,43.9-43.9,43.9,19.7,43.9,43.9-.9,10.3-2.6,15h-15.6c2.6-4.4,4-9.5,4-15,0-16.4-13.3-29.7-29.7-29.7s-29.7,13.3-29.7,29.7,13.3,29.7,29.7,29.7h98.7c-1.5,4.9-3.3,9.6-5.5,14.2Z"/>
  </g>
</svg>