<?xml version="1.0" encoding="UTF-8"?>
<svg id="Layer_1" xmlns="http://www.w3.org/2000/svg" xmlns:xlink="http://www.w3.org/1999/xlink" version="1.1" viewBox="0 0 250 250">
  <!-- Generator: Adobe Illustrator 29.0.1, SVG Export Plug-In . SVG Version: 2.1.0 Build 192)  -->
  <defs>
    <style>
      .st0 {
        fill: url(#linear-gradient2);
      }

      .st1 {
        fill: url(#linear-gradient5);
      }

      .st2 {
        fill: url(#radial-gradient);
      }

      .st3 {
        fill: #1d1140;
      }

      .st4, .st5, .st6 {
        fill: #fff;
      }

      .st7 {
        fill: url(#linear-gradient11);
      }

      .st7, .st8, .st9, .st10, .st11, .st12, .st13, .st14, .st15, .st16, .st17, .st18 {
        opacity: .6;
      }

      .st7, .st8, .st9, .st11, .st12, .st19, .st13, .st14, .st15, .st16, .st17, .st18, .st5, .st6 {
        isolation: isolate;
      }

      .st8 {
        fill: url(#linear-gradient12);
      }

      .st9 {
        fill: url(#linear-gradient10);
      }

      .st20, .st19 {
        opacity: .7;
      }

      .st21 {
        opacity: .4;
      }

      .st22 {
        fill: url(#radial-gradient1);
      }

      .st11 {
        fill: #a98798;
      }

      .st23 {
        fill: #602f92;
      }

      .st12 {
        fill: url(#linear-gradient);
      }

      .st19 {
        fill: url(#linear-gradient4);
      }

      .st13 {
        fill: url(#linear-gradient1);
      }

      .st14 {
        fill: url(#linear-gradient9);
      }

      .st15 {
        fill: url(#linear-gradient3);
      }

      .st16 {
        fill: url(#linear-gradient7);
      }

      .st17 {
        fill: url(#linear-gradient8);
      }

      .st18 {
        fill: url(#linear-gradient6);
      }

      .st5 {
        opacity: .3;
      }

      .st6 {
        opacity: .2;
      }
    </style>
    <radialGradient id="radial-gradient" cx="561.7" cy="-1209.5" fx="561.7" fy="-1209.5" r="2.8" gradientTransform="translate(-9114.8 20463.7) scale(16.6 16.9)" gradientUnits="userSpaceOnUse">
      <stop offset="0" stop-color="#fbeaf3" stop-opacity=".6"/>
      <stop offset=".7" stop-color="#a087bf"/>
      <stop offset="1" stop-color="#17102e"/>
    </radialGradient>
    <radialGradient id="radial-gradient1" cx="574.5" cy="-1194.7" fx="574.5" fy="-1194.7" r="2.8" gradientTransform="translate(-23111.3 49372.6) scale(40.5 41.2)" xlink:href="#radial-gradient"/>
    <linearGradient id="linear-gradient" x1="111.3" y1="-1587.6" x2="130.7" y2="-1704.7" gradientTransform="translate(0 1780.1)" gradientUnits="userSpaceOnUse">
      <stop offset="0" stop-color="#9ad9e5"/>
      <stop offset=".6" stop-color="#fff" stop-opacity="0"/>
    </linearGradient>
    <linearGradient id="linear-gradient1" x1="162.6" y1="-1685.9" x2="113.6" y2="-1641.8" gradientTransform="translate(0 1780.1)" gradientUnits="userSpaceOnUse">
      <stop offset=".3" stop-color="#fff"/>
      <stop offset=".8" stop-color="#fff" stop-opacity="0"/>
    </linearGradient>
    <linearGradient id="linear-gradient2" x1="65.5" y1="-1618.5" x2="176.4" y2="-1618.5" gradientTransform="translate(0 1780.1)" gradientUnits="userSpaceOnUse">
      <stop offset="0" stop-color="#384ea2"/>
      <stop offset="1" stop-color="#d54799"/>
    </linearGradient>
    <linearGradient id="linear-gradient3" x1="181.9" y1="-1641.4" x2="120.6" y2="-1584.5" xlink:href="#linear-gradient1"/>
    <linearGradient id="linear-gradient4" x1="65.5" y1="-1618.5" x2="124.8" y2="-1618.5" gradientTransform="translate(0 1780.1)" gradientUnits="userSpaceOnUse">
      <stop offset="0" stop-color="#2b2f82"/>
      <stop offset="1" stop-color="#72439a"/>
    </linearGradient>
    <linearGradient id="linear-gradient5" x1="65.6" y1="-1641.5" x2="176.3" y2="-1641.5" gradientTransform="translate(0 1780.1)" gradientUnits="userSpaceOnUse">
      <stop offset="0" stop-color="#2b2f82"/>
      <stop offset="1" stop-color="#a14298"/>
    </linearGradient>
    <linearGradient id="linear-gradient6" x1="174.6" y1="-1701.8" x2="166.4" y2="-1688.8" xlink:href="#linear-gradient1"/>
    <linearGradient id="linear-gradient7" x1="114.2" y1="-1604.8" x2="118.6" y2="-1604.8" xlink:href="#linear-gradient1"/>
    <linearGradient id="linear-gradient8" x1="129.4" y1="-1606.3" x2="133.8" y2="-1606.3" xlink:href="#linear-gradient1"/>
    <linearGradient id="linear-gradient9" x1="122.7" y1="-1598.7" x2="126" y2="-1598.7" xlink:href="#linear-gradient1"/>
    <linearGradient id="linear-gradient10" x1="136.1" y1="-1600.2" x2="139.4" y2="-1600.2" xlink:href="#linear-gradient1"/>
    <linearGradient id="linear-gradient11" x1="99.9" y1="-1607.7" x2="107.1" y2="-1607.7" xlink:href="#linear-gradient1"/>
    <linearGradient id="linear-gradient12" x1="142.7" y1="-1619.7" x2="150" y2="-1619.7" xlink:href="#linear-gradient1"/>
  </defs>
  <circle class="st3" cx="125" cy="125" r="122.5"/>
  <g>
    <path class="st23" d="M190.4,78.6c-1.5-5.6-6.2-11.3-14.6-17.5-6.8-5-14-7.9-19.7-7.9s-2.2.1-3.2.3c-2.6.5-4.9,2.4-6.4,5.3-1.8,3.4-2.2,8-1,10.7.4.9.9,1.9,1.6,2.9-5.5,3.4-8.7,4.4-9.1,4.5,14.4,4.9,26.4,15.1,33.9,28.4v-1.3c.4-3.5,1.5-7.5,2.9-11.7,1.5.4,2.9.6,4.4.6,3.9,0,7.2-1.6,9.3-4.5,2.1-2.9,2.9-6.7,2-9.9Z"/>
    <path class="st2" d="M175.3,89.2c9.5,2.7,13.3-4.8,12.1-9.8-1.4-5-5.7-10.1-13.5-15.8-7.7-5.7-15.5-8.1-20.5-7-5,1.1-6.5,8.8-5.2,11.8.5,1.2,1.7,2.9,3.2,4.8-2,1.4-3.9,2.4-5.4,3.4,9.6,4.4,17.9,11.2,24.2,19.6.7-2.9,1.8-5.4,2.7-7.6.7,0,1.6.3,2.4.6Z"/>
    <path class="st22" d="M121,193.3c32.2,0,58.3-26.6,58.3-59.4s-26.1-59.4-58.3-59.4-58.3,26.6-58.3,59.4,26.1,59.4,58.3,59.4Z"/>
    <path class="st11" d="M182.6,74.6c-7.9-8.5-14.6-10.7-22.6-12.5-6.3-1.5-4.6-5.1,3-4.4-3.7-1.3-7.1-1.6-9.6-1.1-5,1.1-6.5,8.8-5.2,11.8.5,1.2,1.7,2.9,3.2,4.8-2.8,1.9-5.2,3.3-7.2,4.4.9.4,2.1,1,3.4,1.7,3.5,1.9,7.4,5.1,7.4,5.1-5.8-5.1-4.6-7.4,3.4-13.2,2.5-1.8,7.1-1.6,11.4.6,4.3,2.2,9.3,7.9,9.3,7.9l-4.8,9.3c.3.1.6.2.9.3,3,.9,5.4.6,7.3-.1,2.2-1.4,7.9-6.1,0-14.7Z"/>
    <path class="st23" d="M159.9,67.1c2.1.9,4.8,2.3,8.1,4.6,4,2.7,7.4,5.6,9.6,8-3.7,4.9-6,11.6-7.5,16.2.7,1.1,1.6,2.1,2.3,3.2.7-2.7,2-6.6,3.7-10.5.4.1.9.1,1.5.1,1.3,0,2.7-.2,3.9-1.2.8-.6,1.8-1.8,1.7-3.9,0-2-1.6-4.6-4.8-7.6-2.3-2.2-5.4-4.7-8.6-6.9-9-6.1-15.2-7.8-18-4.9-1.9,1.9-1.7,4.3-1,6-3.3,2.2-6.2,3.8-8,4.9,1.3.4,2.4,1,3.7,1.5,3.3-1.8,8.1-4.9,13.6-9.4ZM179.6,82.3c.3.5.4,1.1.4,1.4,0,1-.3,1.3-.5,1.5-.4.3-1.3.5-2,.5.6-1.3,1.4-2.3,2.1-3.4ZM153.9,66.5c.3-.3,1.1-.5,2.5-.3-1,.9-2.1,1.6-3.1,2.3-.1-.7,0-1.5.6-2Z"/>
    <path class="st23" d="M121,71c-34.1,0-61.7,28.1-61.7,62.9s27.6,62.9,61.7,62.9,61.7-28.1,61.7-62.9-27.7-62.9-61.7-62.9ZM121,193.3c-32.2,0-58.3-26.6-58.3-59.4s26.1-59.4,58.3-59.4,58.3,26.6,58.3,59.4c0,32.8-26.2,59.4-58.3,59.4Z"/>
    <path class="st12" d="M121,193.3c32.2,0,58.3-26.6,58.3-59.4s-26.1-59.4-58.3-59.4-58.3,26.6-58.3,59.4,26.1,59.4,58.3,59.4Z"/>
    <path class="st11" d="M120.6,186.1c-31.8-5.2-53.4-35.7-48.2-68.1,2.3-14.3,9.4-26.6,19.4-35.4-14.6,8.6-25.4,23.6-28.4,41.9-5.1,32.4,16.5,62.9,48.2,68.1,17.7,3,34.8-2.7,47.5-13.7-11.2,6.6-24.7,9.4-38.5,7.2Z"/>
    <path class="st13" d="M130.3,75.4c-14.7-2.4-29,1-40.7,8.5-.2.2-.4.4-.4.4,4.5-2.8,11.1-5.2,11.1-5.2-16.9,10-22.1,21.3-22.1,21.3,6.6-13,25.9-22.1,41-22.7,15.1-.6,25,3.9,37.1,13.8,12.1,10,19.4,30.4,18.7,46.5-.6,16.1-9,29.2-9,29.2,5.7-7.5,9.2-13.1,11.4-18.7.4-1.7.8-3.4,1-5.2,5.2-32.3-16.3-62.8-48.1-68Z"/>
    <path class="st0" d="M176.4,133.4c0,31.1-24.8,56.4-55.4,56.4s-55.5-25.3-55.5-56.4h110.9Z"/>
    <g class="st10">
      <path class="st15" d="M172,133.4c0,30.4-23.6,55.2-53.2,56.4h2.2c30.6,0,55.4-25.3,55.4-56.4h-4.4Z"/>
    </g>
    <g class="st20">
      <path class="st19" d="M73.3,133.4h-7.8c0,31.1,24.8,56.4,55.4,56.4s2.6,0,3.9-.1c-28.7-2.1-51.4-26.6-51.4-56.3Z"/>
    </g>
    <path class="st1" d="M176.3,133.9c0-6.5-11.1-10.2-25.8-11.5-10.6-.9-21.4.2-33.7,4-10.6,3.2-20.2,2.7-27.2,1.8-15.5-1.8-24.1-2-24.1,5.6,0,11,22.1,24.9,55.3,20.1,16.8-2.4,25.4-7.4,35.4-10.8,10.7-3.6,20.1-3.5,20.1-9.2Z"/>
    <path class="st4" d="M139.1,107.2c5.2,0,9.4-4.3,9.4-9.6s-4.2-9.6-9.4-9.6-9.4,4.3-9.4,9.6,4.2,9.6,9.4,9.6Z"/>
    <path class="st4" d="M154.5,114.3c2.2,0,4-1.8,4-4s-1.8-4-4-4-4,1.8-4,4,1.8,4,4,4Z"/>
    <g class="st10">
      <path class="st18" d="M168.7,90h-.2c-.6-.1-1-.7-.9-1.5.9-4.9,4.9-9.6,5.1-9.8.4-.5,1.3-.5,1.7-.1.5.4.5,1.3.1,1.7-.1.1-3.8,4.5-4.6,8.7-.1.6-.6,1-1.2,1Z"/>
    </g>
    <path class="st6" d="M117.1,178.2c1.6,0,2.9-1.3,2.9-3s-1.3-3-2.9-3-2.9,1.3-2.9,3,1.3,3,2.9,3Z"/>
    <g class="st21">
      <path class="st16" d="M115.5,177.1c-1.1-1.2-1.1-3.1,0-4.3.2-.2.4-.3.6-.5-.4.1-.7.3-1,.6-1.1,1.2-1.1,3.1,0,4.3.9,1,2.4,1.2,3.5.5-1,.4-2.3.2-3.1-.6Z"/>
    </g>
    <path class="st5" d="M118.2,174.4c.3,0,.6-.3.6-.6s-.3-.6-.6-.6-.6.3-.6.6.3.6.6.6Z"/>
    <path class="st6" d="M132.4,176.7c1.6,0,2.9-1.3,2.9-3s-1.3-3-2.9-3-2.9,1.3-2.9,3,1.3,3,2.9,3Z"/>
    <g class="st21">
      <path class="st17" d="M130.7,175.7c-1.1-1.2-1.1-3.1,0-4.3.2-.2.4-.3.6-.5-.4.1-.7.3-1,.6-1.1,1.2-1.1,3.1,0,4.3.9,1,2.4,1.2,3.5.5-1,.4-2.3.2-3.1-.6Z"/>
    </g>
    <path class="st5" d="M133.4,172.9c.3,0,.6-.3.6-.6s-.3-.6-.6-.6-.6.3-.6.6.3.6.6.6Z"/>
    <path class="st6" d="M124.9,183.6c1.2,0,2.2-1,2.2-2.2s-1-2.2-2.2-2.2-2.2,1-2.2,2.2,1,2.2,2.2,2.2Z"/>
    <g class="st21">
      <path class="st14" d="M123.6,182.8c-.8-.9-.8-2.3,0-3.2.1-.1.3-.2.4-.3-.3.1-.5.3-.7.5-.8.9-.8,2.3,0,3.2.7.7,1.8.9,2.7.3-.8.3-1.8.1-2.4-.5Z"/>
    </g>
    <path class="st5" d="M125.6,180.6c.2,0,.4-.2.4-.4s-.2-.4-.4-.4-.4.2-.4.4.2.4.4.4Z"/>
    <path class="st6" d="M138.3,182c1.2,0,2.2-1,2.2-2.2s-1-2.2-2.2-2.2-2.2,1-2.2,2.2,1,2.2,2.2,2.2Z"/>
    <g class="st21">
      <path class="st9" d="M137.1,181.2c-.8-.9-.8-2.3,0-3.2.1-.1.3-.2.4-.3-.3.1-.5.3-.7.5-.8.9-.8,2.3,0,3.2.7.7,1.8.9,2.7.3-.8.3-1.8.1-2.4-.5Z"/>
    </g>
    <path class="st5" d="M139,179.1c.2,0,.4-.2.4-.4s-.2-.4-.4-.4-.4.2-.4.4c0,.2.2.4.4.4Z"/>
    <path class="st6" d="M104.7,177.1c2.6,0,4.8-2.2,4.8-4.9s-2.1-4.9-4.8-4.9-4.8,2.2-4.8,4.9,2.1,4.9,4.8,4.9Z"/>
    <g class="st21">
      <path class="st7" d="M102,175.3c-1.9-1.9-1.9-5,0-6.9.3-.3.6-.5,1-.7-.6.2-1.1.6-1.7,1.1-1.9,1.9-1.9,5,0,6.9,1.6,1.6,4,1.9,5.8.7-1.8.7-3.9.4-5.2-1.1Z"/>
    </g>
    <path class="st5" d="M106.4,170.8c.6,0,1-.5,1-1.1s-.5-1.1-1-1.1-1,.5-1,1.1.5,1.1,1,1.1Z"/>
    <path class="st6" d="M147.6,165.1c2.6,0,4.8-2.2,4.8-4.9s-2.1-4.9-4.8-4.9-4.8,2.2-4.8,4.9,2.1,4.9,4.8,4.9Z"/>
    <g class="st21">
      <path class="st8" d="M144.8,163.3c-1.9-1.9-1.9-5,0-6.9.3-.3.6-.5,1-.7-.6.2-1.1.6-1.7,1.1-1.9,1.9-1.9,5,0,6.9,1.6,1.6,4,1.9,5.8.7-1.8.7-3.8.4-5.2-1.1Z"/>
    </g>
    <path class="st5" d="M149.3,158.8c.6,0,1-.5,1-1.1s-.5-1.1-1-1.1-1,.5-1,1.1.5,1.1,1,1.1Z"/>
  </g>
</svg>