<?xml version="1.0" encoding="UTF-8"?><svg id="Layer_1" xmlns="http://www.w3.org/2000/svg" width="128" height="128" viewBox="0 0 128 128"><defs><style>.cls-1{fill:#6c00f6;}.cls-2{fill:#fff;}</style></defs><path class="cls-1" d="M64,0h0c35.35,0,64,28.65,64,64h0c0,35.35-28.65,64-64,64h0C28.65,128,0,99.35,0,64h0C0,28.65,28.65,0,64,0Z"/><path class="cls-2" d="M77.8,35.41l-17.86,10.26v32.01l-9.85,5.71-9.92-5.72v-11.43l9.92-5.66,6.38,3.7v-9.25l-6.43-3.65-17.86,10.37v20.52l17.92,10.32,17.86-10.32v-32.01l9.92-5.72,9.91,5.72v11.38l-9.91,5.77-6.43-3.73v9.2l6.37,3.67,18.03-10.26v-20.64l-18.03-10.26Z"/></svg>