<?xml version="1.0" encoding="UTF-8" standalone="no"?>
<svg
   width="245"
   height="245"
   viewBox="0 0 245 245"
   version="1.1"
   id="svg828"
   sodipodi:docname="pol.svg"
   inkscape:version="1.1.1 (c3084ef, 2021-09-22)"
   xmlns:inkscape="http://www.inkscape.org/namespaces/inkscape"
   xmlns:sodipodi="http://sodipodi.sourceforge.net/DTD/sodipodi-0.dtd"
   xmlns="http://www.w3.org/2000/svg"
   xmlns:svg="http://www.w3.org/2000/svg">
  <defs
     id="defs832" />
  <sodipodi:namedview
     id="namedview830"
     pagecolor="#ffffff"
     bordercolor="#666666"
     borderopacity="1.0"
     inkscape:pageshadow="2"
     inkscape:pageopacity="0.0"
     inkscape:pagecheckerboard="0"
     showgrid="false"
     inkscape:zoom="2.9346939"
     inkscape:cx="120.45549"
     inkscape:cy="126.58901"
     inkscape:window-width="1312"
     inkscape:window-height="969"
     inkscape:window-x="0"
     inkscape:window-y="44"
     inkscape:window-maximized="0"
     inkscape:current-layer="Polygon_matic_logo" />
  <g
     id="Polygon_matic_logo"
     transform="translate(-771 -289)">
    <circle
       id="path1530"
       cx="122.5"
       cy="122.5"
       r="122.5"
       transform="translate(771 289)"
       fill="#8247e5" />
    <g
       id="polygon-matic-logo"
       transform="matrix(-1,0,0,1,971.58048,343)">
      <path
         id="Path_27"
         data-name="Path 27"
         d="m 118.561,42.01 a 10.417,10.417 0 0 0 -9.812,0 L 85.855,55.5 70.319,64.087 47.833,77.578 a 10.417,10.417 0 0 1 -9.812,0 L 20.441,66.948 A 9.965,9.965 0 0 1 15.535,58.363 V 37.921 a 10.084,10.084 0 0 1 4.906,-8.585 l 17.58,-10.221 a 10.417,10.417 0 0 1 9.812,0 l 17.58,10.63 a 9.965,9.965 0 0 1 4.906,8.585 v 13.492 l 15.536,-8.994 v -13.9 A 10.084,10.084 0 0 0 80.949,20.343 L 48.242,1.126 a 10.417,10.417 0 0 0 -9.812,0 L 4.906,20.75 A 8.993,8.993 0 0 0 0,28.927 v 38.43 a 10.084,10.084 0 0 0 4.906,8.585 l 33.115,19.216 a 10.417,10.417 0 0 0 9.812,0 L 70.319,82.075 85.855,73.081 108.341,60 a 10.417,10.417 0 0 1 9.812,0 l 17.58,10.221 a 9.965,9.965 0 0 1 4.906,8.585 v 20.44 a 10.084,10.084 0 0 1 -4.906,8.585 l -17.171,10.221 a 10.417,10.417 0 0 1 -9.812,0 L 91.17,107.832 A 9.965,9.965 0 0 1 86.264,99.247 V 86.163 l -15.536,8.995 v 13.491 a 10.084,10.084 0 0 0 4.906,8.585 l 33.115,19.215 a 10.417,10.417 0 0 0 9.812,0 l 33.115,-19.215 a 9.965,9.965 0 0 0 4.906,-8.585 V 69.81 a 10.084,10.084 0 0 0 -4.906,-8.585 z"
         transform="translate(0,0.1)"
         fill="#ffffff" />
    </g>
  </g>
</svg>
