<?xml version="1.0" encoding="UTF-8"?>
<svg id="Cube" xmlns="http://www.w3.org/2000/svg" xmlns:xlink="http://www.w3.org/1999/xlink" xmlns:svg="http://www.w3.org/2000/svg" xmlns:rdf="http://www.w3.org/1999/02/22-rdf-syntax-ns#" xmlns:dc="http://purl.org/dc/elements/1.1/" xmlns:cc="http://creativecommons.org/ns#" version="1.1" viewBox="0 0 256 256">
  <!-- Generator: Adobe Illustrator 29.3.1, SVG Export Plug-In . SVG Version: 2.1.0 Build 151)  -->
  <defs>
    <style>
      .st0, .st1 {
        isolation: isolate;
      }

      .st2 {
        fill: none;
        stroke: #fff;
        stroke-width: 5.2px;
      }

      .st3 {
        fill: #8247e5;
      }

      .st4, .st1 {
        fill: #fff;
      }

      .st1 {
        font-family: ArialMT, Arial;
        font-size: 24px;
      }
    </style>
  </defs>
  <circle id="ellipse1808" class="st3" cx="128" cy="128" r="122.5"/>
  <path id="Full-4-8" class="st2" d="M19.1,128c0,60.1,48.9,108.9,108.9,108.9s108.9-48.9,108.9-108.9S188.1,19.1,128,19.1,19.1,67.9,19.1,128Z"/>
  <g class="st0">
    <g class="st0">
      <g class="st0">
        <g class="st0">
          <text class="st1" transform="translate(89.3 142.2)"><tspan x="0" y="0">Testnet</tspan></text>
        </g>
      </g>
    </g>
    <g class="st0">
      <g class="st0">
        <g class="st0">
          <text class="st1" transform="translate(62.2 171)"><tspan x="0" y="0">Amoy Token</tspan></text>
        </g>
      </g>
    </g>
  </g>
  <g id="polygon-matic-logo">
    <path id="Path_27" class="st4" d="M114.5,71.7c1-.5,2.3-.5,3.3,0l7.6,4.5,5.2,2.9,7.5,4.5c1,.5,2.3.5,3.3,0l5.9-3.5c1-.6,1.6-1.7,1.6-2.9v-6.8c0-1.2-.6-2.3-1.6-2.9l-5.9-3.4c-1-.5-2.3-.5-3.3,0l-5.9,3.5c-1,.6-1.6,1.7-1.6,2.9v4.5l-5.2-3v-4.6c0-1.2.6-2.3,1.6-2.9l10.9-6.4c1-.5,2.3-.5,3.3,0l11.2,6.5c1,.5,1.7,1.6,1.6,2.7v12.8c0,1.2-.6,2.3-1.6,2.9l-11,6.4c-1,.5-2.3.5-3.3,0l-7.5-4.4-5.2-3-7.5-4.4c-1-.5-2.3-.5-3.3,0l-5.9,3.4c-1,.6-1.6,1.7-1.6,2.9v6.8c0,1.2.6,2.3,1.6,2.9l5.7,3.4c1,.5,2.3.5,3.3,0l5.9-3.4c1-.6,1.6-1.7,1.6-2.9v-4.4l5.2,3v4.5c0,1.2-.6,2.3-1.6,2.9l-11,6.4c-1,.5-2.3.5-3.3,0l-11-6.4c-1-.6-1.6-1.7-1.6-2.9v-13c0-1.2.6-2.3,1.6-2.9l11-6.4s0,.2,0,.2Z"/>
  </g>
</svg>