<?xml version="1.0" encoding="UTF-8"?>
<svg id="Layer_1" xmlns="http://www.w3.org/2000/svg" version="1.1" viewBox="0 0 250 250">
  <!-- Generator: Adobe Illustrator 29.0.1, SVG Export Plug-In . SVG Version: 2.1.0 Build 192)  -->
  <defs>
    <style>
      .st0 {
        fill: #def140;
      }
    </style>
  </defs>
  <circle cx="125" cy="125" r="122.5"/>
  <g>
    <path class="st0" d="M159.1,63.3c-.1,0-.2,0-.3.1L25.6,196.1c0,0-.2,0-.3,0,0,0,0,0,0,0-2.4-3.4-4.3-6.3-5.7-8.7C4.8,161.9-.4,134.6,4,105.6c2-13.1,6.3-25.8,12.9-38.3,1.4-2.7,2.9-5.2,4.4-7.6,14.3-22.2,33.5-38.3,57.6-48.2C105.5.5,136.1-.4,163.6,8.8c14.2,4.7,27.1,11.8,38.7,21.2,11.5,9.3,20.9,20.4,28.4,33.1,0,.1,0,.2,0,.2h-71.5Z"/>
    <path class="st0" d="M172,96.2l-124.2,123.7c-.1.1-.3.1-.5,0l-9.1-8.2c-.2-.1-.2-.3,0-.5L166.9,83.2c.2-.2.4-.3.7-.3h72.2c.2,0,.3,0,.3.2,1.5,4,2.7,8.1,3.8,12.5,0,.2,0,.3-.2.4,0,0,0,0,0,0h-71.1c-.2,0-.4,0-.5.2Z"/>
    <path class="st0" d="M186.4,128.9c-1.2,0-2,1.1-2.8,1.9-4,4-27.2,27.1-69.5,69.1,0,0-12.5,12.5-37.3,37.3-.2.2-.4.2-.6.1-4-1.7-7.9-3.7-11.7-5.8-.1,0-.2-.2,0-.3,0,0,0,0,0,0l115.7-115.2c.2-.2.4-.3.7-.3h66c.2,0,.3.1.3.3l.3,12.7c0,.1-.1.2-.2.2,0,0,0,0,0,0-17.5,0-37.7,0-60.8,0Z"/>
    <path class="st0" d="M97.8,244.1l95.7-95.3c.2-.2.4-.3.6-.3h50.8c.1,0,.2,0,.2.2,0,0,0,0,0,0-3.9,19.5-12,37-24.3,52.5-17.9,22.5-43.4,38.2-71.6,43.8-17.2,3.4-34.3,3.2-51.3-.6-.1,0-.2-.1-.1-.2,0,0,0,0,0,0Z"/>
  </g>
</svg>