<?xml version="1.0" encoding="UTF-8"?>
<svg id="Layer_1" xmlns="http://www.w3.org/2000/svg" xmlns:xlink="http://www.w3.org/1999/xlink" version="1.1" viewBox="0 0 250 250">
  <!-- Generator: Adobe Illustrator 29.0.1, SVG Export Plug-In . SVG Version: 2.1.0 Build 192)  -->
  <defs>
    <style>
      .st0, .st1, .st2, .st3, .st4, .st5, .st6, .st7, .st8, .st9, .st10, .st11, .st12, .st13, .st14, .st15, .st16, .st17, .st18, .st19, .st20, .st21, .st22, .st23, .st24, .st25, .st26, .st27, .st28, .st29, .st30, .st31, .st32, .st33, .st34, .st35, .st36, .st37, .st38, .st39, .st40, .st41, .st42, .st43, .st44, .st45, .st46, .st47, .st48, .st49, .st50, .st51, .st52, .st53, .st54, .st55, .st56, .st57, .st58, .st59, .st60, .st61, .st62, .st63, .st64, .st65, .st66, .st67, .st68, .st69, .st70, .st71, .st72, .st73, .st74, .st75, .st76, .st77, .st78, .st79, .st80, .st81, .st82, .st83, .st84, .st85, .st86, .st87, .st88, .st89, .st90, .st91, .st92, .st93, .st94, .st95, .st96, .st97, .st98, .st99, .st100, .st101, .st102, .st103, .st104, .st105, .st106, .st107, .st108, .st109, .st110, .st111, .st112, .st113, .st114, .st115, .st116, .st117 {
        fill: none;
      }

      .st118 {
        mask: url(#mask);
      }

      .st1 {
        stroke: #ff9d59;
      }

      .st1, .st2, .st3, .st4, .st5, .st6, .st7, .st8, .st9, .st10, .st11, .st12, .st13, .st14, .st15, .st16, .st17, .st18, .st19, .st20, .st21, .st22, .st23, .st24, .st25, .st26, .st27, .st28, .st29, .st30, .st31, .st32, .st33, .st34, .st35, .st36, .st37, .st38, .st39, .st40, .st41, .st42, .st43, .st44, .st45, .st46, .st47, .st48, .st49, .st50, .st51, .st52, .st53, .st54, .st55, .st56, .st57, .st58, .st59, .st60, .st61, .st62, .st63, .st64, .st65, .st66, .st67, .st68, .st69, .st70, .st71, .st72, .st73, .st74, .st75, .st76, .st77, .st78, .st79, .st80, .st81, .st82, .st83, .st84, .st85, .st86, .st87, .st88, .st89, .st90, .st91, .st92, .st93, .st94, .st95, .st96, .st97, .st98, .st99, .st100, .st101, .st102, .st103, .st104, .st105, .st106, .st107, .st108, .st109, .st110, .st111, .st112, .st113, .st114, .st115, .st116, .st117 {
        stroke-width: 1.4px;
      }

      .st2 {
        stroke: #ffa544;
      }

      .st119 {
        fill: #ffd58f;
      }

      .st3 {
        stroke: #ffa362;
      }

      .st4 {
        stroke: #ff8564;
      }

      .st5 {
        stroke: #ff7f2f;
      }

      .st6 {
        stroke: #ffba75;
      }

      .st120 {
        fill: #ffb66f;
      }

      .st120, .st121, .st122, .st123 {
        isolation: isolate;
        opacity: .4;
      }

      .st7 {
        stroke: #ff7c4e;
      }

      .st8 {
        stroke: #ffba97;
      }

      .st9 {
        stroke: #ffa06b;
      }

      .st121 {
        fill: #ffb87b;
      }

      .st124 {
        fill: #ff6b2d;
      }

      .st10 {
        stroke: #ff8162;
      }

      .st11 {
        stroke: #ff8659;
      }

      .st12 {
        stroke: #ff9a31;
      }

      .st13 {
        stroke: #ff8b53;
      }

      .st14 {
        stroke: #ff8856;
      }

      .st15 {
        stroke: #ff7332;
      }

      .st16 {
        stroke: #ffa862;
      }

      .st17 {
        stroke: #ff5126;
      }

      .st18 {
        stroke: #ffb976;
      }

      .st19 {
        stroke: #ffcab8;
      }

      .st125 {
        fill: #ff7c63;
      }

      .st20 {
        stroke: #ff562b;
      }

      .st126 {
        fill: #ffa855;
      }

      .st127 {
        fill: #ff5c41;
      }

      .st21 {
        stroke: #ffaf74;
      }

      .st22 {
        stroke: #ffb195;
      }

      .st23 {
        stroke: #ffaf76;
      }

      .st24 {
        stroke: #ff7750;
      }

      .st128 {
        fill: #ffbd7a;
      }

      .st25 {
        stroke: #ff6b29;
      }

      .st26 {
        stroke: #ffa55f;
      }

      .st27 {
        stroke: #ff7a41;
      }

      .st28 {
        stroke: #ffd4aa;
      }

      .st129 {
        fill: #ff752f;
      }

      .st29 {
        stroke: #ffa975;
      }

      .st30 {
        stroke: #ff673b;
      }

      .st31 {
        stroke: #ff6227;
      }

      .st130 {
        fill: #ff7d40;
      }

      .st32 {
        stroke: #ffa476;
      }

      .st131 {
        fill: url(#linear-gradient);
      }

      .st132 {
        fill: #ff7e4e;
      }

      .st133 {
        fill: #ffa970;
      }

      .st33 {
        stroke: #ff9b59;
      }

      .st34 {
        stroke: #ff5f36;
      }

      .st35 {
        stroke: #ff472e;
      }

      .st134 {
        fill: #ff8c28;
      }

      .st135 {
        fill: #ff942a;
      }

      .st136 {
        fill: #ff9a62;
      }

      .st36 {
        stroke: #ff7c3e;
      }

      .st137 {
        fill: #ff6c53;
      }

      .st37 {
        stroke: #ff9c5d;
      }

      .st38 {
        stroke: #ffd0a5;
      }

      .st138 {
        fill: #ff4d34;
      }

      .st39 {
        stroke: #ff4f35;
      }

      .st40 {
        stroke: #ffdbb7;
      }

      .st41 {
        stroke: #ffd5a8;
      }

      .st139 {
        fill: #ff7135;
      }

      .st140 {
        fill: #ff935a;
      }

      .st42 {
        stroke: #ffb267;
      }

      .st43 {
        stroke: #ff945b;
      }

      .st44 {
        stroke: #ffa06c;
      }

      .st45 {
        stroke: #ff926e;
      }

      .st46 {
        stroke: #ffb767;
      }

      .st47 {
        stroke: #ff8c5f;
      }

      .st141 {
        fill: #ffa14b;
      }

      .st48 {
        stroke: #ff7d5c;
      }

      .st122 {
        fill: #ffbb7c;
      }

      .st142 {
        fill: #ff993e;
      }

      .st49 {
        stroke: #ff773d;
      }

      .st50 {
        stroke: #ff852d;
      }

      .st51 {
        stroke: #ff8935;
      }

      .st52 {
        stroke: #ff692c;
      }

      .st53 {
        stroke: #ffd6af;
      }

      .st54 {
        stroke: #ffc694;
      }

      .st143 {
        fill: #fe9f73;
      }

      .st55 {
        stroke: #ff9061;
      }

      .st56 {
        stroke: #ffa550;
      }

      .st57 {
        stroke: #ffa466;
      }

      .st58 {
        stroke: #ff904d;
      }

      .st144 {
        fill: #fff;
      }

      .st59 {
        stroke: #ffe5d4;
      }

      .st60 {
        stroke: #ff9f75;
      }

      .st61 {
        stroke: #ffb276;
      }

      .st62 {
        stroke: #ff8c46;
      }

      .st63 {
        stroke: #ff964f;
      }

      .st145 {
        fill: #ff824c;
      }

      .st64 {
        stroke: #ff9d45;
      }

      .st65 {
        stroke: #ffbc84;
      }

      .st66 {
        stroke: #ff6f47;
      }

      .st67 {
        stroke: #ffca95;
      }

      .st146 {
        fill: #ff925d;
      }

      .st68 {
        stroke: #ff9a72;
      }

      .st69 {
        stroke: #ff896a;
      }

      .st70 {
        stroke: #ff6f44;
      }

      .st147 {
        fill: #ff8d64;
      }

      .st71 {
        stroke: #ffc67f;
      }

      .st72 {
        stroke: #ff6a30;
      }

      .st73 {
        stroke: #ff864a;
      }

      .st74 {
        stroke: #ff9460;
      }

      .st75 {
        stroke: #ff9333;
      }

      .st76 {
        stroke: #ffd2ba;
      }

      .st77 {
        stroke: #ff9147;
      }

      .st78 {
        stroke: #ff8849;
      }

      .st79 {
        stroke: #ff8242;
      }

      .st80 {
        stroke: #ff572c;
      }

      .st148 {
        fill: #ff6123;
      }

      .st81 {
        stroke: #ff9e67;
      }

      .st82 {
        stroke: #ffae72;
      }

      .st149 {
        fill: #ffad5f;
      }

      .st83 {
        stroke: #ff8b5c;
      }

      .st84 {
        stroke: #ff9d73;
      }

      .st150 {
        fill: #ffcba9;
      }

      .st85 {
        stroke: #ff5830;
      }

      .st86 {
        stroke: #ff7551;
      }

      .st87 {
        stroke: #ffb55d;
      }

      .st88 {
        stroke: #ffeac7;
      }

      .st89 {
        stroke: #ffb060;
      }

      .st90 {
        stroke: #ff6628;
      }

      .st151 {
        fill: #ff9f37;
      }

      .st152 {
        fill: #ff9571;
      }

      .st91 {
        stroke: #ff913f;
      }

      .st92 {
        stroke: #ffab5a;
      }

      .st93 {
        stroke: #ff975e;
      }

      .st94 {
        stroke: #ffa05e;
      }

      .st95 {
        stroke: #ffcc9f;
      }

      .st96 {
        stroke: #ff7238;
      }

      .st97 {
        stroke: #ff853a;
      }

      .st98 {
        stroke: #ff7842;
      }

      .st99 {
        stroke: #ff9c52;
      }

      .st100 {
        stroke: #ffaf78;
      }

      .st153 {
        fill: #ff8e54;
      }

      .st101 {
        stroke: #ffa670;
      }

      .st102 {
        stroke: #ff553b;
      }

      .st103 {
        stroke: #ffb15c;
      }

      .st104 {
        stroke: #ff7938;
      }

      .st154 {
        fill: #ff4128;
      }

      .st105 {
        stroke: #ff9f3d;
      }

      .st106 {
        stroke: #ff9d6b;
      }

      .st107 {
        stroke: #ff745b;
      }

      .st123 {
        fill: #ffa879;
      }

      .st108 {
        stroke: #ffa259;
      }

      .st109 {
        stroke: #ffb070;
      }

      .st155 {
        fill: #ff622b;
      }

      .st110 {
        stroke: #ffa857;
      }

      .st111 {
        stroke: #ff9c67;
      }

      .st156 {
        fill: #ffb878;
      }

      .st157 {
        clip-path: url(#clippath);
      }

      .st112 {
        stroke: #ff9b6f;
      }

      .st113 {
        stroke: #ffcf9b;
      }

      .st114 {
        stroke: #ffb27b;
      }

      .st115 {
        stroke: #ff644a;
      }

      .st116 {
        stroke: #ff8e57;
      }

      .st117 {
        stroke: #ff6437;
      }
    </style>
    <clipPath id="clippath">
      <rect class="st0" x="2.5" y="2.5" width="245" height="245"/>
    </clipPath>
    <mask id="mask" x="2.5" y="2.5" width="245" height="245" maskUnits="userSpaceOnUse">
      <g id="mask0_75_8">
        <path class="st144" d="M2.5,2.5h245v245H2.5V2.5Z"/>
      </g>
    </mask>
    <linearGradient id="linear-gradient" x1="207.4" y1="206.2" x2="35" y2="38.4" gradientTransform="translate(0 251) scale(1 -1)" gradientUnits="userSpaceOnUse">
      <stop offset="0" stop-color="#ff9270"/>
      <stop offset="1" stop-color="#ffa970"/>
    </linearGradient>
  </defs>
  <g class="st157">
    <g>
      <g class="st118">
        <g>
          <path class="st33" d="M116.7,13.7c-25.2,2-47.3,11.3-66.1,28"/>
          <path class="st26" d="M50.6,41.6c-7.3,6.5-13.7,13.9-19,22.1"/>
          <path class="st87" d="M31.6,63.7c-15.7,24.6-21.3,51.2-16.8,79.7.8,4.8,1.8,9.5,3.2,14,3.9,12.8,9.9,24.6,18,35.3.2.3.5.4.8.5"/>
          <path class="st88" d="M36.8,193.3c.8,1.4,1.8,2.7,3.1,3.8"/>
          <path class="st71" d="M39.9,197.1c.7,1.5,1.7,2.7,3,3.6"/>
          <path class="st88" d="M42.9,200.6c.9,1.4,2.1,2.6,3.6,3.4"/>
          <path class="st46" d="M46.5,204c.6,1.3,1.6,2.4,2.9,3.1"/>
          <path class="st88" d="M49.4,207.1c1.1,1.2,2.3,2.2,3.8,3.1"/>
          <path class="st103" d="M53.2,210.2c0,.3,0,.6.3.8,24.6,19.9,52.8,28.2,84.7,25.1,6.3-.6,13.3-2.2,21-4.7"/>
          <path class="st3" d="M159.2,231.3c11.5-3.6,22.1-9,31.8-16.1"/>
          <path class="st37" d="M190.9,215.2c6.1-4.4,11.6-9.3,16.5-14.9"/>
          <path class="st33" d="M207.4,200.3c11.5-12.5,19.7-26.9,24.6-43.1"/>
          <path class="st83" d="M232,157.2c4.6-15.4,5.8-30.8,3.8-46.3-2.9-22.5-12-42.4-27.1-59.7-18.7-21.3-42.5-33.7-71.5-37.1"/>
          <path class="st94" d="M137.2,14c-6.8-.9-13.6-1-20.5-.4"/>
          <path class="st20" d="M137.2,14c-.5,1.1-.6,2.2-.3,3.4"/>
          <path class="st117" d="M136.9,17.4v1.3"/>
          <path class="st49" d="M136.8,18.7c-2.1-.6-4-.9-5.9-.9-5.8,0-12.1,0-19,.3"/>
          <path class="st90" d="M111.9,18.1c1.1-1.4,2.4-2.5,3.9-3.4,0,0,.2,0,.6-.2.4-.1.5-.4.4-.9"/>
          <path class="st96" d="M111.9,18.1l-.4.2"/>
          <path class="st52" d="M111.5,18.3c-3-.4-5.9-.2-8.8.7-1.7.5-3.4.8-5.1.9-.6,0-1.1.1-1.5.3-.5.2-1,.3-1.5.5-.7.3-1.5.5-2.2.7-4.3,1.2-8.5,2.8-12.6,4.8-.9.5-1.8.8-2.6,1.1-.9.3-1.8.6-2.7.9,0,0-.1,0-.2,0,0,0,0,0-.1,0,0,0,0-.1,0-.2"/>
          <path class="st25" d="M74.3,28c1.9-1.7,1.9-2-.2-1.1-.2,0-.4.2-.6.4-2.3,1.6-4.8,3.1-7.3,4.5-1,.6-2,1.1-2.9,1.7-.9.6-1.9,1.2-2.9,1.8-1,.6-2,1.4-3.1,2.4-.9.9-2,1.8-3,2.6,0,0-.4.4-1.1,1.2-.6.6-1.5.7-2.5.2"/>
          <path class="st17" d="M232,157.2c-.7.5-1,.2-.9-.7,0-.6.3-1.5.8-2.6.3-.8.6-1.7.7-2.6.1-1,.3-2.4.6-4.2,1.4-7.9,1.7-16.4,1-25.5"/>
          <path class="st35" d="M234.2,121.6c-.4-11.5-2.7-22.6-7.1-33.2-.1-.3-.5-.9-1-1.7-.4-.5-.7-1.1-.9-1.8-1.6-4.8-3.9-9.3-6.7-13.8-.2-.3-.8-1-2-2.3-.9-.9-1.5-2.1-1.7-3.5,0-.2-.1-.5-.3-.7-.8-1.1-1.6-2.3-2.3-3.5-.5-.9-1.3-1.8-2.2-2.8-1.2-1.2-2.1-2.6-2.8-4.2-.4-1-1-1.7-1.6-2.3-3-2.7-6-5.4-8.9-8.1,0,0-.3-.4-.9-1.1-.5-.7-1.3-.9-2.4-.7"/>
          <path class="st39" d="M193.4,41.9c-1.7,0-3.3-.7-5-2.2-2.8-2.7-6.7-5.3-11.7-8-.3-.2-.6-.4-.9-.7-.3-.3-.6-.6-.9-.8-.3-.3-.9-.5-1.6-.6-1.1-.2-2-.7-2.9-1.3-1.1-.9-1.7-1.3-1.7-1.3-1.2-.7-2.4-1.3-3.7-1.8-1.6-.6-3.3-1.3-4.8-2-1.2-.5-2.6-1-4.3-1.5-1.2-.3-2.6-.8-4.4-1.3-3.1-1-7.7-1.8-13.8-2.3-.3,0-.5-.2-.7-.5"/>
          <path class="st102" d="M193.4,41.9c.4,0,.8.2,1,.5.2.3.4.5.4.6,3.8,3.8,7.7,7.5,11.7,11,.2.1.3.3.4.6.9,2.5,2.2,4.9,4.2,7.1.6.7,1.3,1.6,2,2.6.5.7,1,1.7,1.3,2.9.4,1.2.8,2.4,1.4,3.5,0,.2.3.4.5.5,1.3.8,2.2,1.8,2.9,3.1.9,1.8,1.4,2.7,1.4,2.7,1.9,3.1,3.6,6.4,5,9.9.2.4.6,1.3,1.3,2.6.4.7.8,1.7,1.2,2.7,3.6,10.4,5.5,20.8,5.6,31.1"/>
          <path class="st34" d="M233.5,123.2c-.1,1-.2.8-.2-.5,0-.7,0-1.3-.1-1.9,0-.3,0-.3,0,0,0,2.8,0,5.6-.2,8.4,0,.2,0,.2,0,0,0-3.6-.1-7.1-.6-10.7,0-.2,0-.2,0,0,.2,7.8,0,15.5-.7,23.3,0,.5-.2,1-.3,1.4"/>
          <path class="st30" d="M231.3,143.1c-.4,1.7-.8,3.4-1.1,5.1-.3,1.4-.4,1.3-.3-.2"/>
          <path class="st115" d="M229.9,148c1.6-7.8,2.3-15.6,2.1-23.5-.1-4.4-.6-9.1-1.5-14-.8-4.2-1.8-8.8-3.1-13.8-.6-2.4-1.4-4.4-2.4-5.9,0,0-.1-.2-.2-.2,0,0-.2,0-.3,0h-.5c0,.1-.2.1-.3,0,0,0-.1-.1-.2-.2-.9-2.9-1.5-4.6-1.9-5.2-1.2-1.7-2.1-3.6-2.6-5.6,0-.2-.2-.4-.4-.6l-3.8-3.7c-.2-.2-.3-.4-.3-.6-.3-1.6-1-2.9-2.1-4-.2-.2-.3-.4-.3-.6-.3-2.8-1.5-5.2-3.7-7.2-.5-.5-.9-1.1-1.1-1.8-.2-1.1-.8-2.2-1.5-3.3-.8-1.1-1.5-2-2.2-2.9-1.3-1.6-2.9-2.7-5-3.4-.2,0-.4-.2-.6-.4-2.5-3-4.1-4.7-4.8-5.2-.9-.6-1.7-1.2-2.5-2-1-1-1.8-1.6-2.5-1.8-.9-.3-1.8-.4-2.8-.4-.1,0-.2,0-.3,0-.1,0-.2-.1-.3-.2-.3-.4-.6-.8-.9-1.2-.4-.4-.8-.8-1.4-1.2-1.3-.8-3.1-1.9-5.3-3.5-1.9-1.3-4.4-2.5-7.4-3.4"/>
          <path class="st66" d="M170.1,32.3c.2-1,0-1.6-.7-2-2.8-1.5-5.9-2.9-9.4-4.1,0,0-1.3-.5-3.9-1.5-1.8-.7-4.1-1.4-6.9-2.1-4.5-1.1-8.2-1.8-11.1-2-.6,0-1-.2-1.2-.5-.2-.4-.3-.9-.1-1.5"/>
          <path class="st24" d="M170.1,32.3v2"/>
          <path class="st47" d="M170.1,34.3c-5.4-2.6-8.7-4-9.9-4.3-2.8-.8-5.5-1.6-8.2-2.6-1.1-.4-2.3-.8-3.6-1-1.2-.3-2.5-.6-3.7-1-1.3-.4-2.6-.7-3.9-.8-1.3-.2-2.6-.3-3.9-.5"/>
          <path class="st74" d="M136.9,24.1v-1.1c0,0-.1-.2-.2-.2,0,0-.2-.1-.3-.1-9.2-.8-18.6-.7-28.4.1-.5,0-.9.3-1.3.6l-4.3,4.2"/>
          <path class="st13" d="M102.4,27.5c-2.4-.1-5.4.5-9,1.7-9.1,3.2-16.9,6.7-23.2,10.6-.2.1-.4.2-.7.2-.4,0-.7.2-1.1.4,0,0-.2.2-.7.7-.3.3-.6.4-1.1.2"/>
          <path class="st116" d="M66.7,41.3v-3.1"/>
          <path class="st36" d="M66.7,38.2v-2.5"/>
          <path class="st27" d="M66.6,35.7c.1.7.5.9,1.1.5,2.2-1.5,4.4-2.7,6.4-3.7.9-.5,3.2-1.5,6.7-3,7.4-3.2,15-5.5,22.9-6.9,0,0,.9,0,2.4,0,1,0,1.9-.4,2.5-1.2.5-.5.7-.8.7-.8.7-.7,1.5-1.5,2.2-2.2"/>
          <path class="st78" d="M66.7,38.2c0-.4-.2-.6-.6-.5-1,.2-1.8.8-2.5,1.7-.1.2-.3.3-.5.4-1,.3-1.8,1-2.2,2"/>
          <path class="st79" d="M60.9,41.8h-1.1"/>
          <path class="st104" d="M59.8,41.9h-3.6c-.2.1-.4.2-.6.4-2.3,2.2-4.7,4.3-7.1,6.4-2.4,2.1-5.1,5.1-8.1,9.1-.7.9-1.9,2.3-3.5,4.1-1.2,1.4-2.3,2.8-3.3,4.3-.4.6-.9,1.2-1.6,1.7"/>
          <path class="st50" d="M32,67.9c.1-1.4,0-2.8-.4-4.2"/>
          <path class="st15" d="M66.6,35.7l7.7-7.7"/>
          <path class="st80" d="M234.2,121.6l-.5,8.3"/>
          <path class="st85" d="M233.7,129.8l-.2-6.6"/>
          <path class="st5" d="M159.2,231.3v-2.9"/>
          <path class="st97" d="M159.1,228.5v-1.8"/>
          <path class="st31" d="M233.7,129.8c0,2.5-.2,4.9-.5,7.3-.2,1.1-.3,2.5-.3,4.2,0,1.4-.2,2.8-.5,4.2-.4,2-.8,4-1,6.1-.6,6.2-2.3,12-5.2,17.4-.5.9-1.1,2.3-1.8,4.1-.7,1.8-1.7,3.5-2.9,5.1-1.2,1.4-2.2,3-3,4.7-.6,1.2-1.3,2.2-2.1,3.2-.9,1.1-1.8,2.3-2.5,3.6-1.5,2.7-3.2,5.3-5,7.8,0,0-.3.3-.8.9-.5.6-.7,1.2-.6,2"/>
          <path class="st72" d="M190.9,215.2c-.4,0-.7,0-1-.2,0,0-.1-.2-.1-.3,0-.1,0-.2,0-.3.5-.7,1.1-1.2,1.7-1.6,1-.6,1.7-1.1,1.9-1.3,3.9-3.5,7.6-7.2,11.1-11.2.4-.4.4-.6.2-.7,0,0-.2,0-.3,0,0,0-.2.1-.3.2-1.3,1.5-2.6,2.9-4.1,4.2-.2.2-.2.1,0,0,2.4-2.9,4.8-5.8,7.2-8.7,2.1-2.6,3.7-4.7,4.7-6.2.3-.5.8-1,1.4-1.7.5-.6.9-1.2,1.3-1.9.5-1.1,1-2,1.5-2.6,1.1-1.4,2.3-3.4,3.7-6,0-.1.1-.2.3-.3,1.1-.8,1.9-1.8,2.4-3,.4-1.1.7-1.6.7-1.6,1.8-3.7,3.3-7.5,4.6-11.5.3-1,.8-2.9,1.4-5.6.4-1.6.9-3.5,1.4-5.6.5-1.9.7-4,.6-6.3"/>
          <path class="st70" d="M229.9,148c-.7,3.1-1.3,5.3-1.8,6.6-.2.6-.7,1.3-1.4,2.3"/>
          <path class="st86" d="M226.7,156.9c1.7-6.4,2.8-12.6,3.2-18.8.4-5.9.5-12,.1-18.1-.2-4.1-.8-8.4-1.8-12.8-.7-3.5-1.7-7.7-2.9-12.7-.7-3.2-2.1-3.6-4-1.3"/>
          <path class="st48" d="M221.5,93.2l-.5.4"/>
          <path class="st107" d="M220.9,93.6c-.4,0-.7-.3-.8-.6-.8-2.3-2-4.7-3.5-7.2,0,0,0,0-.1-.1s0,0-.1,0c0,0-.1,0-.2,0,0,0,0,0-.1,0-.3.3-.6.4-.9.3-.2,0-.4-.3-.5-.6-.8-1.8-1.7-3.5-2.9-5.1,0,0-.2-.3-.5-.8l-3.1-5.1c-.2-.3-.2-.5-.2-.8s.1-.5.3-.7c.6-.6,1.1-1.1,1.6-1.6.4-.4.6-.7.7-1.1.1-.5,0-.9-.4-1.3-.2-.2-.3-.4-.4-.6-.4-1-1-1.9-1.9-2.5-.2-.1-.3-.3-.4-.6-.2-.8-.4-1.6-.6-2.4-.2-.6-.7-1.3-1.4-1.9-.8-.7-1.5-1.5-2.1-2.3-.8-1.1-1.4-1.9-1.9-2.4-1.2-1.2-2.3-2.5-3.4-3.8-.2-.2-.4-.3-.6-.3l-1.6-.3c-.2,0-.5-.1-.6-.3-3-3.2-6.2-6.2-9.5-9-.2-.1-.4-.2-.6-.3-2-.2-4.1-.2-6.2-.2-.6,0-1.2,0-1.6-.3-.5-.3-1-.6-1.4-1-.8-.7-1.4-1.2-1.9-1.5-1.4-.7-2.7-1.4-4-2.2"/>
          <path class="st84" d="M136.9,24.1c0,3.2,0,6.4,0,9.5,0,0,0,.9,0,2.5,0,1.6-.2,3.1-.7,4.5-.3.8-.9,1.3-1.8,1.3h-6c-.5,0-.6.2-.1.5,1,.7,1.8.7,2.5,0,.9-.8,1.5-.7,1.9.2l1.1,2.8s0,0,0,.1c0,0,0,0,0,.1,0,0,0,0-.1,0,0,0,0,0-.1,0-1.6,0-2.1.6-1.6,1.8.2.4.5.9,1.1,1.6,1.8,2,3.5,4.2,5,6.6.4.6,1,1.4,1.9,2.5.6.7,1.2,1.5,1.9,2.5,1.2,1.8,2.7,3.8,4.6,5.9,1.2,1.4,2.3,2.7,3.2,4,1,1.4,2,2.8,3,4.1.4.6.6,1.1.5,1.6-.2.7-.7,1-1.7,1.1-1.3,0-2.1.7-2.5,1.9,0,0,0,0,0,0,0,0,0,0,0,0,0,0,0,0,0,0,0,0,0,0,.1,0,.2,0,.4,0,.5.3"/>
          <path class="st76" d="M149.4,79.9c-15.3,7-28.3,17-39,30.1-.2.2-.4.3-.6.4l-13.1,3.2"/>
          <path class="st82" d="M96.8,113.5c-.9-.1-1-.2-.2-.4.1,0,.1,0,0-.2h-.1c-.2-.3-.4-.4-.6-.4l-6.4-.2c-.7,0-.8-.3-.3-.8l20-20.3c.4-.4.3-.6-.3-.6-7.8,0-15.6,0-23.2,0-1.1,0-1.9.1-2.5.3,0,0,0,0-.1,0,0,0,0,0-.1,0,0,0,0,0,0,0,0,0,0,0,0-.1-.1-.4-.4-.6-.7-.6-.3,0-.6.2-.9.5-17.7,17.7-35.4,35.4-53.2,53"/>
          <path class="st16" d="M28.2,143.7l-1.6.5c0,0-.2,0-.3,0,0,0-.2,0-.2-.2-.8-1.9-1.3-3.9-1.5-6,0,0,0-.2,0-.3,0-.1.1-.2.2-.3l.6-.7c.2-.3.2-.3-.1-.1-.8.6-1.3.3-1.4-.8-.2-1.8-.4-3.7-.7-5.6,0-.1,0-.2,0-.3,0-.1,0-.2.2-.3l2.7-2.9c0,0,.1-.2.1-.2,0,0,0-.2,0-.3,0-.4-.2-.4-.5.1-.4.7-.9.9-1.3.6,0,0-.2-.1-.2-.2,0-.1,0-.2-.1-.3l-.5-5.9c0-.2,0-.2-.2,0-.3.4-.7.8-1,1.3-.3.4-.5.4-.7.2,0,0-.2-.1-.2-.2,0,0-.2,0-.3,0h-.5c0,.1,0,.1-.1.1,0,0,0,0-.1,0,0,0,0,0,0-.1,0,0,0,0,0-.1-.4-2.2-.4-4.4,0-6.7,0-.2.1-.4.3-.6l3-3.4c0,0,0-.2,0-.3,0-.1,0-.2-.1-.3-.4-.6-.6-1.5-.5-2.6.2-2.2.4-4.4.8-6.5,0-.2.2-.4.3-.6,1.5-1.5,2.9-2.9,4.4-4.4.1-.1.2-.3.3-.4.3-.6.1-.8-.4-.4,0,0-.2.2-.4.3-.6.6-.9,0-.9-1.8,0-.6,0-1.2.2-1.8.6-2.5,1.5-4.9,2.7-7.2,0,0,.4-.6,1.3-1.7.5-.7.8-1.4.8-2.3"/>
          <path class="st9" d="M32.2,80.6c.6-.2,1.1-.5,1.6-.8.4-.3.8-.7,1.1-1.4,1.6-3.1,2.7-5.1,3.3-5.7.6-.8,1.1-1.5,1.4-2.1.8-1.3,1.2-2.1,1.3-2.2.6-.9,1.3-1.8,1.9-2.6.5-.7,1.3-1.5,2.2-2.4,1.4-1.4,3.1-3.2,5.2-5.6,3.2-3.6,7.8-7.7,13.6-12.1.3-.2.6-.3.9-.4.3,0,.7,0,1-.1,0,0,.2,0,.3,0s.1.1.2.2c.3.7.5.6.4-.4,0,0,0,0,0,0,0,0,0,0,0,0,0,0,0,0,0,0,0,0,0,0,0,0,0,0,.2,0,.2-.1"/>
          <path class="st111" d="M67,44.9l2.7.2"/>
          <path class="st9" d="M69.7,45h7.5c.9,0,1,.3.4,1l-9.2,9.2s-.1.2-.3.6l-.3.7c-.1.3,0,.4.2.1,3.4-3.2,6.8-6.6,10.1-10.1,1.3-1.4,2.8-1.8,4.7-1.4.2,0,.4.2.6.4.4.4.7.4,1.2,0,4.4-4.2,8.7-8.5,12.9-12.9"/>
          <path class="st111" d="M97.3,32.5l5-5"/>
          <path class="st93" d="M97.3,32.5c-.6,0-1.1,0-1.7,0-.6,0-1.1,0-1.6.2-3.3,1-6.5,2.3-9.7,3.7-.4.2-2,.8-4.7,1.8-1.6.6-3.1,1.4-4.4,2.4-.3.2-1,.9-2.2,2.3-.9,1-2,1.7-3.4,2.1"/>
          <path class="st93" d="M67,44.9l-.4-3.6"/>
          <path class="st108" d="M32.2,80.6c0-.1,0-.2,0-.4"/>
          <path class="st43" d="M32.2,80.3c1.1-1.1,1.8-2.4,1.9-4,0-.2.1-.5.2-.7.9-1.3,2.9-4.3,6.1-9,3.3-4.9,7.4-9.8,12.4-14.6.6-.6,1.7-1.5,3.1-2.6,1.1-.9,2.1-1.8,3-2.8.5-.6,1.2-1,1.9-1.2,1.9-.6,3.3-1.4,4.2-2.5,0,0,0,0,0-.1s0,0,0-.1,0,0,0-.1c0,0,0,0,0-.1-.6-.5-1.4-.7-2.2-.6-.7,0-1.3,0-2-.2"/>
          <path class="st10" d="M170.1,34.3v2.7"/>
          <path class="st69" d="M170.1,37v4.7c0,0,0,.1,0,.2,0,0,0,.1.1.2,0,0,.1,0,.2.1,0,0,.1,0,.2,0h5c0,0,.2,0,.3,0,.1,0,.2.1.3.2,3.6,2.9,5.8,4.6,6.5,5,1.7.9,3.1,2.3,4.4,4.1,0,0,.2.2.3.2.1,0,.2,0,.3,0,1.3-.2,2.6-.1,3.7,0,.9.2,1.8.7,2.5,1.5,4.2,4.6,8.4,9.7,12.6,15.2,0,.1.2.3.2.5,0,.2,0,.5.1.7l.3,3.2c0,.2,0,.3,0,.4,0,.1,0,.2,0,.3l-.2.3c-.1.2-.2.5-.2.7l.3,7.7"/>
          <path class="st60" d="M207.2,82.3v10.9c0,1,.4,1.1,1.1.4l4.5-4.5c0,0,.1-.1.2-.1,0,0,.2,0,.2,0,0,0,.2,0,.2,0,0,0,.1.1.2.2,1.3,2.2,2.4,4.5,3.2,6.9,0,0,0,.2.2.3,0,0,.2.1.3.2.4.1.4.3.1.6-12,12-24.1,24.1-36.4,36.2,0,0-.2.2-.3.2-.1,0-.3,0-.4,0s-.3,0-.4-.2c-.1,0-.2-.2-.3-.3l-.9-1.9c0-.2-.3-.3-.5-.5-.8-.5-.9-1.1-.3-1.8,1.2-1.6,2.7-3.2,4.3-4.8,2.7-2.7,4.2-4.2,4.5-4.5,1.7-1.8,3.5-3.6,5.2-5.4.2-.2.2-.3-.1-.3-.2,0-.4.1-.6.3-4,4.2-8.1,8.2-12.2,12.2,0,0-.4.5-1.1,1.3-.4.5-1,.9-1.6,1.2-.2.1-.4.3-.5.4-.9,1.2-1.9,1.3-2.9.3,0,0-.2-.1-.3-.1s-.2,0-.3.1l-43.6,43.6c-.2.2-.5.4-.8.5-.3.1-.6.2-1,.1l-2.9-.2"/>
          <path class="st68" d="M124.1,173.6c0-.4.4-.9.9-1.4,2.2-1.9,4.7-4.3,7.4-7,4.6-4.7,7-7.1,7.1-7.2,17.9-17.9,35.8-35.8,53.7-53.7.3-.3.5-.6.4-.9,0-.3-.2-.3-.4,0l-70,69.9"/>
          <path class="st60" d="M123.2,173.3c-.7.6-1.4.6-2.1,0-.7-.6-1-1.4-1.1-2.3-.1-1.2,0-2,.2-2.3.7-.8.7-1.3,0-1.4,0,0-.2,0-.2-.1,0,0-.1-.2-.1-.3l-.4-5.6"/>
          <path class="st101" d="M119.4,161.3c.5-.8.6-1.7.4-2.7"/>
          <path class="st19" d="M119.8,158.6c1.2,3.3,1.9,5.4,2.1,6.3.3,1.1.7,1.8,1.4,2.2"/>
          <path class="st7" d="M123.4,167.1c-.3.5-.2.9.2,1.1,0,0,.2,0,.3,0,.1,0,.2,0,.3-.1,4.8-3.8,9.3-7.9,13.6-12.3.2-.2.3-.4.3-.6l3.3-15.2c0-.2.2-.4.4-.6,9.5-7.9,17.7-17,24.4-27.3,4.1-6.2,7-12.3,8.8-18.3,1.7-5.5,2.5-10.9,2.5-16.2,0-1-.4-1.2-1.2-.7"/>
          <path class="st19" d="M176.4,76.9c.2-1-.2-1.6-1.2-1.7-3.8-.4-7.2-.3-10.3.2-5.3.9-10.5,2.4-15.4,4.5"/>
          <path class="st99" d="M32.2,80.3l-.2-6.5"/>
          <path class="st91" d="M31.9,73.8v-3.4"/>
          <path class="st105" d="M31.9,73.8c-.6.5-1.2,1.2-1.8,2.3-2.3,4.3-4.2,8.4-5.7,12.2-1.1,2.9-1.8,4.8-2.1,5.9-.5,2-.8,4.1-.7,6.3,0,1.6-.1,2.6-.5,3.2-1.4,2-2,4.3-1.7,6.8,0,.2,0,.4-.1.7-.5,1-.4,1.9.1,2.8,0,.1.1.2.1.3,0,.1,0,.2,0,.3-.2.7-.5,1.4-1,2"/>
          <path class="st12" d="M18.5,116.6c-.9.3-1.5.8-1.9,1.6,0,.2-.2.4-.4.5-.7.5-1.1,1.3-1.1,2.6,0,1.3,0,2.7.3,4,0,.2.1.4.3.6.7.8.7,1.6-.1,2.3,0,0-.2.2-.2.3,0,.1,0,.2,0,.3,0,2.6.2,5.1.8,7.6,0,.2,0,.5,0,.7-.4,1.1-.3,2.2.3,3.2.1.2.2.4.2.7,0,.8.3,1.8.9,3.1.1.3.2.7.2,1.1,0,2.1.4,4,1.1,5.7.4,1,.6,1.9.7,2.9.1,1,.3,2,.6,3,.2.7.7,1.7,1.6,3,1,1.6,1.6,3.4,1.7,5.4,0,.2,0,.5.2.6,1.4,1.9,2.5,3.9,3.2,6.2.2.6.8,1,1.8,1.2.2,0,.4.2.6.4.8,1,1.4,2.1,2,3.3.7,1.5,1.3,2.7,1.8,3.4,1.4,2.2,2.4,3.7,2.8,4.5,1,1.8,2.2,3.4,3.6,4.8,0,0,0,.1.1.2,0,.1,0,.2,0,.4v.8"/>
          <path class="st67" d="M39.5,190.8l-2.7,2.5"/>
          <path class="st73" d="M59.8,41.9c.5.7.7,1.5.4,2.3,0,0,0,.2-.2.3,0,0-.2.1-.3.1-.7.1-1.3.4-2,.7-.5.3-1.2.6-1.8.9-1.1.5-2.2,1.3-3.5,2.5-2.9,2.8-5.8,5.5-8.8,8.3-.6.6-1.2,1.2-1.8,1.9-.6.7-1.1,1.3-1.7,2-.8.9-1.6,2-2.3,3.1-1.6,2.5-3.4,4.9-5.2,7.2-.1.2-.2.1-.3,0,0-.3-.2-.5-.4-.7"/>
          <path class="st51" d="M32,70.4v-2.5"/>
          <path class="st75" d="M159.1,228.5c-3.4,1.2-6.6,1.9-9.7,2.2-5.6.5-10,.9-13.1,1.3-7.2.8-14.5.9-21.7.3-4.9-.4-9.8-1-14.7-1.7,0,0-.5,0-1.5-.1-1.2,0-2.2-.5-3.2-1.2-.5-.4-1.5-.7-3.1-1.1,0,0-.7,0-2-.1-1,0-1.6-.6-2-1.5,0-.1,0-.2-.2-.3,0,0-.2-.1-.3-.2-1.1-.5-2.3-.9-3.4-1.4-.7-.3-1.7-.8-3.3-1.7-1.2-.6-2.4-1.2-3.6-1.6-1.6-.6-2.8-1.1-3.6-1.5-6.1-3.4-11.6-7-16.2-10.9-.7-.6-1.3-1-1.7-1.1"/>
          <path class="st98" d="M226.7,156.9l-7.6,17.6c-.1.3-.3.6-.6.8-.3.2-.6.3-.9.4-.6,0-1.1.5-1.5,1.1,0,.1-.2.4-.3,1,0,.3-.2.6-.5.9-.9,1-1.6,2.2-2.2,3.3-1.1,2.2-1.7,3.3-1.8,3.5-1.1,1.8-2.4,3.4-3.8,4.9-.3.4-.6.7-.9,1.1-1.3,2.1-2.7,3.9-4.1,5.3-.3.3-1.2,1.4-2.8,3.2-.8.9-1.8,1.9-3.1,3.1-4.2,3.8-7.3,6.4-9.3,7.8-.2.1-.4.2-.7.2-.7,0-1,.4-.9,1.2,0,0,0,0,0,.1,0,0,0,0-.1,0-1.5.5-2.4.9-2.7,1.3-.6.8-1.2,1.4-2.1,1.9-7.1,4.3-14.2,7.6-21.1,9.8-.3.1-.6.4-.9.9"/>
          <path class="st62" d="M159.2,226.7v-1.3"/>
          <path class="st58" d="M159.1,225.4v-.9"/>
          <path class="st14" d="M159.1,224.5c1.7-.5,3.4-1.1,5-1.8.5-.2,2.1-.9,4.9-1.9,2.1-.8,4.1-1.9,6-3.2.4-.3,1.2-.7,2.3-1.2.9-.4,1.5-.9,2.1-1.7.7-1,1.3-1.7,1.7-2,1.4-1,2.8-1.9,4.4-2.6,0,0,0,0,.2,0,0,0,.1,0,.1,0,.1.1.2,0,.3-.1,0-.2.2-.3.3-.4.3-.2.7-.4,1-.5.4-.2.7-.4,1-.6,6.4-5.2,11.8-10.5,16-16,4.4-5.7,7.3-9.5,8.7-11.6.6-.9,1.3-2.4,1.9-4.3,0-.1,0-.2.2-.3,0,0,.2-.1.3-.2l1.7-.6c.2,0,.4-.2.6-.4.6-.9,1-1.8,1.3-2.7.5-1.5.8-2.5.9-2.8,1.8-4.3,3.4-8.6,4.8-13,.2-.7.5-2.1.8-4.2.2-1.3.5-2.8,1-4.6.7-2.6,1.2-6.9,1.4-13,0-.8,0-1.1-.1-.9,0,0-.1.3-.1.5,0,2-.3,3.9-.7,5.9"/>
          <path class="st11" d="M227.1,140.3c.9-10.8.9-19.9,0-27.5-.2-1.4-1-5-2.3-10.8,0,0-.2-1-.6-2.9-.4-1.9-1-3.8-1.9-5.6-.1-.3-.4-.4-.7-.4"/>
          <path class="st55" d="M227.1,140.3c-.1.9-.2,1.9-.4,2.8-.2,1.2-.4,2.1-.5,2.7-.7,4.3-1.8,8.4-3.4,12.4-.6,1.5-1.8,4.9-3.7,10.3,0,.2-.2.4-.4.6-.9.8-1.5,1.7-1.6,2.5-.2,1.1-.6,2.2-1.3,3.1-.8,1.1-1.8,1.5-2.9,1.1"/>
          <path class="st4" d="M220.9,93.6c-.2.3-.4.5-.7.7"/>
          <path class="st45" d="M220.2,94.3h-.5c-.1,0-.2,0-.3-.1,0,0-.1-.2-.2-.3-.8-2.5-1.7-4.9-3-7.2,0,0-.1-.2-.2-.2,0,0-.2,0-.3-.1,0,0-.2,0-.3,0,0,0-.2,0-.3.2l-2,1.9c0,0-.2.1-.3.2-.1,0-.2,0-.4,0-.1,0-.2,0-.3-.2,0,0-.2-.2-.2-.3-.8-1.9-2-3.6-3.4-5.1,0,0-.2-.1-.3-.1s-.2,0-.3,0c-.5.1-.8-.1-.9-.6"/>
          <path class="st22" d="M176.4,76.9c.3,7.6-1.3,15.1-4.7,22.5-3.8,8.2-8.3,15.5-13.5,21.8-4.8,5.8-10.3,11.3-16.5,16.5-.6.5-.9,1.1-1.1,1.8l-3.2,14.8c0,.2-.2.5-.3.6l-13.7,12.2"/>
          <path class="st40" d="M119.8,158.6l-2.3-7.2"/>
          <path class="st8" d="M117.5,151.4c0-.6-.2-.9-.7-.9-3.5.3-6.8,0-9.7-.8-.1,0-.2,0-.3,0-.1,0-.2,0-.3.2l-5.9,5.8c-.1.1-.3.2-.4.2s-.3,0-.4-.2l-4.3-4.3"/>
          <path class="st40" d="M95.4,151.4c-.5-.3-.7-.6-.8-1,0-.3.1-.6.4-1,1.6-1.8,3.3-3.7,4.8-5.5,0,0,.1-.2.1-.3s0-.3,0-.4c-1.3-2.6-2-5.2-1.9-7.8"/>
          <path class="st8" d="M98,135.4c.3-.6,0-1.1-.5-1.3-3.2-1.1-8.3-2.7-15.4-5"/>
          <path class="st40" d="M82.1,129.2c-.7-.4-.8-.9-.3-1.4,3.7-4,7.3-8.1,10.9-12.3.6-.6,1.2-1.1,1.9-1.3.8-.3,1.5-.5,2.3-.6"/>
          <path class="st63" d="M82.1,129.2c-.2.6,0,1.1.5,1.3,4.3,1.6,9.5,3.3,15.5,5"/>
          <path class="st63" d="M95.4,151.4c-.2.5,0,1,.3,1.3.4.3.6.5.6.5,1.2,1.3,2.4,2.5,3.7,3.6.2.1.4.2.6.2.2,0,.4-.1.6-.3l5.6-5.6c0,0,.2-.1.3-.2.1,0,.2,0,.3,0,3.2.9,6.5,1.2,9.8.7.2,0,.2-.1.2-.3"/>
          <path class="st18" d="M111.3,203.2l-14.2,14.3c-.6.6-.5,1,.4,1.1,3.9.6,7.7,1.2,11.6,1.8.1,0,.7,0,1.6,0,.6,0,1.1.2,1.6.7.2.2.4.3.6.3,5.6.9,10.2,1.2,13.7.8,4.2-.5,8.5-1,12.7-1.5,6.5-.8,12.7-2.4,18.7-4.8,0,0,.2,0,.2,0,0,0,.1,0,.2.1.2.3.4.5.6.4"/>
          <path class="st109" d="M159.1,216.4l.2,2.9"/>
          <path class="st57" d="M159.3,219.3l-.2,1.8"/>
          <path class="st42" d="M159.1,221.1c-8.9,2.8-15,4.4-18.4,4.9-7.6,1.1-12.4,1.6-14.4,1.6-9.5.1-18.9-1-28.1-3.5-.7-.2-1.3-.5-2-.9-.8-.5-1.4-.8-2-1-.6-.2-.9-.6-.9-1.1,0-.1,0-.3,0-.4,0-.1,0-.2-.1-.3-.6-.6-1.1-1-1.7-1.2-3.6-1.1-6.7-2.5-9.5-4-.2-.1-.6-.4-1.1-.9-.4-.4-.9-.6-1.4-.6-1.1,0-2-.4-2.6-.9-1.1-.9-1.7-1.4-1.8-1.4-.9-.5-1.9-1.1-2.7-1.7,0,0,0,0-.1,0,0,0-.1,0-.2,0-.4.2-.4.1-.2-.2,0,0,0,0,0,0,0,0,0,0,0,0,0,0,0,0,0,0,0,0,0,0,0,0-1.8-1.5-3.8-2.8-5.8-4-1-.6-1.9-1.2-2.6-2.1-.1-.1-.2-.3-.3-.6-.2-.6-.6-.6-1.3-.3"/>
          <path class="st40" d="M61.6,202.4l29.3-27.6c0,0,.1-.2.2-.3,0-.1,0-.2,0-.3-.3-1.2-1-2.1-2.2-2.8-.2-.1-.4-.2-.7-.2-.2,0-.5.1-.6.3l-32.3,30.1"/>
          <path class="st110" d="M55.3,201.5v-.9c0-.1,0-.2-.1-.3,0,0-.1-.2-.2-.2-.5-.4-.9-.9-1.2-1.5,0,0,0-.2-.2-.2,0,0-.2-.1-.3-.2h-.4"/>
          <path class="st40" d="M53,198.1l39.9-37.4c.2-.2.3-.4.4-.7,0-.3,0-.5-.1-.8-.6-1.2-1.3-1.9-2.1-2.2-.7-.2-1.5.1-2.3.9-15.2,14.2-30.5,28.5-45.8,42.7"/>
          <path class="st40" d="M39.9,197.1l37.3-34.9c.2-.2.3-.4.3-.6,0-.2,0-.4-.2-.6l-1.8-2.1c-.5-.6-1.2-.6-1.9,0l-28.7,26.7"/>
          <path class="st89" d="M28.2,143.7l-3.5,3.8c-.7.7-.4,1.8.9,3.1.6.7.9,1.5.8,2.3,0,0,0,.2,0,.3,0,0,.1.2.2.2.4.3.5.7.4,1.3-.4,1.2-.4,2.1,0,2.9l1.5,2.9c0,0,.1.2.2.2,0,0,.2.1.3.2.5.2.9.6,1,1.2.2.8.4,1.6.8,2.3.7,1.2,1.1,1.9,1.2,2.2.7,1.6,1.4,3.3,2.1,4.9.4,1,1.3,1.4,2.7,1.3.1,0,.2,0,.3,0,0,0,.2.1.2.2,2.3,4.3,4.9,8.4,7.7,12.3"/>
          <path class="st41" d="M44.9,185.6l-4.1,3.9"/>
          <path class="st2" d="M40.8,189.5c.2-.5,0-1-.4-1.6-3-3.6-5.8-8.1-8.7-13.7,0,0-.1-.3-.3-.8-.2-.6-.6-.9-1.2-1-.1,0-.2,0-.3-.1,0,0-.2-.1-.2-.2-1.6-2.7-2.5-4.7-2.8-6-.2-.9-.6-1.6-1-2.1-.2-.2-.3-.4-.3-.6-.1-1.1-.5-2.1-1-2.9-.8-1.3-1.2-2.7-1.1-4.1,0-.2,0-.5-.2-.6-.8-1.1-1.3-2.3-1.4-3.6-.2-2-.3-3-.3-3.1-.4-1.7-1-3.4-1.6-5.1,0-.2-.1-.4-.1-.7,0-.6,0-1.2-.2-1.7-.4-1.1-.7-1.7-.7-1.9-.3-1.8-.3-3.8,0-6,0-.2,0-.5,0-.7-.8-2.8-.8-5.4,0-7.9,0-.2,0-.5,0-.7-.5-2.6-.6-5.2-.3-7.9"/>
          <path class="st112" d="M220.2,94.3c-.9.4-1.1.8-.7,1.2.4.5.7.7.7.8.4.8.8,1.9,1.1,3.2,1.7,6.6,2.8,13.1,3.3,19.4.4,5,.5,9.7.3,14.4-.3,7-1.4,13.9-3.4,20.7-1.4,4.9-3.3,10.3-5.7,16.2-.4.9-.8,1.7-1.2,2.3-.5.7-.8,1.2-1,1.6-.2.6-.5,1.2-.7,1.8"/>
          <path class="st106" d="M212.8,175.8h-6.3"/>
          <path class="st29" d="M206.5,175.9h-46.3"/>
          <path class="st114" d="M160.2,175.8c-.2-2-1.3-3.1-3.1-3-3.5,0-7.1,0-10.6-.1-.4,0-.8,0-1.2.2-.4.2-.8.3-1.3.4-.2,0-.4,0-.7-.1-.9-.5-1.6-.3-2.3.4-.5.5-.9.9-1.4,1.4-9.4,9.4-18.9,18.8-28.3,28.3"/>
          <path class="st21" d="M111.3,203.2c-.8-.2-1.1-.9-.9-2,.2-1.2,0-2.5-.7-3.9-.1-.3-.4-.6-.7-.9-.4-.4-.7-.6-.8-.8-.4-1-.9-1.1-1.7-.3l-17,17.2c0,0-.1.2-.2.3s0,.2,0,.3c0,0,0,.2.1.3,0,0,.1.1.2.2l5,2.1c.3.1.4.3.5.4.5.7.7,1.5.7,2.3,0,.1,0,.2,0,.3,0,.1-.1.2-.2.3-.9.8-.9,1.6-.2,2.4s.1.1.1.2c0,0,0,.2,0,.2-.1.2-.3.2-.4,0-.1-.2-.3-.4-.4-.5-.4-.3-.5-.7-.3-1.2,0-.2,0-.4,0-.6,0-.2-.3-.4-.5-.4l-9.4-3.8c-.2,0-.4-.2-.5-.4-.5-.6-1.3-1-2.3-1,0,0-.2,0-.2,0,0,0-.1,0-.2-.1,0,0,0-.1-.1-.2,0,0,0-.2,0-.2,0-.3-.2-.5-.6-.7-2.3-1.3-4.8-2.6-7.3-4,0,0,0,0-.1,0,0,0,0,0,0-.1,0,0,0,0,0-.1,0,0,0,0,0-.1,7.3-7.3,14.6-14.6,21.8-22.1.3-.3.9-.9,2-2,10.8-11.1,18.3-18.6,22.4-22.5"/>
          <path class="st32" d="M123.2,173.3c.3.2.6.4.9.4"/>
          <path class="st113" d="M40.8,189.5l-1.3,1.3"/>
          <path class="st53" d="M61.6,202.4l-.9.9"/>
          <path class="st28" d="M60.7,203.3l-1.8,1.6"/>
          <path class="st38" d="M58.9,204.9l-1.3,1.3"/>
          <path class="st95" d="M57.6,206.2l-1.8,1.6"/>
          <path class="st54" d="M55.8,207.8l-2.7,2.4"/>
          <path class="st95" d="M49.4,207.1l5.9-5.6"/>
          <path class="st64" d="M159.1,225.4c-8.1,3.5-16.5,5.2-25.3,5.1-1.7,0-3.5,0-5.2.2-2.6.3-5.1.3-7.7.2-4.6-.3-6.9-.4-7-.4-4.9-.2-9.7-.8-14.5-1.9-1.9-.4-3.6-1.2-5.1-2.3-.2-.1-.4-.2-.7-.2-1.2,0-2.2-.3-3-1-1.4-1-2.1-1.5-2.2-1.6-1.5-.8-3.1-1.4-4.7-2-.8-.3-1.6-.6-2.3-1-.9-.5-1.6-.9-2.3-1.2-3.2-1.3-6-2.8-8.5-4.5-.2-.1-.6-.5-1.2-1.1-.4-.4-.9-.7-1.4-.9-1.3-.6-2-.9-2.1-.9-2.6-1.6-5.1-3.5-7.3-5.6-.2-.2-.4-.3-.6-.3h-.5"/>
          <path class="st1" d="M159.1,224.5v-2.2"/>
          <path class="st94" d="M159.1,222.4v-1.3"/>
          <path class="st81" d="M159.3,219.3c3.2-.9,6.1-2.3,8.9-4.1.6-.4.5-.5-.2-.4-.8.1-1.4,0-1.9,0-.8-.3-.8-.6,0-1,.8-.5,1.6-.9,2.3-1.4.8-.5,1.6-.9,2.3-1.3,5.1-2.6,9.8-5.7,14.3-9.3,0,0,.2,0,.3-.1.1,0,.2,0,.3,0,.2,0,.5,0,.7,0,.3-.2.5-.3.6-.4.8-.3,1.4-.8,2-1.4.6-.7.9-1,.9-1.1,1.4-1.4,2.7-2.8,4.1-4.1.3-.3.9-1,1.8-2.2.5-.7,1.1-1.4,2-2.1.6-.6,2.1-2.4,4.4-5.4.5-.7,1.1-1.7,1.8-3.2.5-1.1,1.2-2.1,2-3.1.3-.3.5-1.2.7-2.7"/>
          <path class="st56" d="M159.1,224.5c-2.4.6-4.7,1.3-7.1,2.1-2.6.8-5,1.4-7.1,1.8-6.3,1.1-10.1,1.7-11.5,1.8-4.8.3-12.4.2-22.6-.5-2.4-.2-4.2-.4-5.5-.6-.4,0-1-.3-1.8-.8-.6-.3-1.3-.5-2-.6-2.1-.3-4.1-.9-6-1.8-.4-.2-1.3-.5-2.6-.9-1-.3-1.9-.9-2.6-1.8-.2-.2-.3-.3-.5-.4-3.1-1.4-6.3-2.7-9.5-3.9-2.5-1-5.4-2.5-8.7-4.7-3.1-2.1-5.3-3.5-6.5-4.4-2.2-1.5-4.2-3.2-6.2-4.9"/>
          <path class="st95" d="M53,198.1l-6.5,6"/>
          <path class="st92" d="M159.1,222.4c-3.7,1.5-5.9,2.4-6.6,2.5-2.3.4-4.6,1-6.9,1.6-1.7.5-3.5.8-5.3.9-2.3.1-4.5.4-6.8.7-2.5.4-4.6.5-6.5.5-5.9-.2-11.7-.6-17.6-1.2-1.5-.2-3.3-.5-5.3-1-1.8-.5-3.5-.9-5.3-1.2-.8-.1-1.8-.5-3-1-1-.4-2-.7-3-.9,0,0-.2,0-.3-.1,0,0-.1-.2-.1-.3-.1-.9-.5-1.4-1.2-1.6-.9-.3-1.4-.5-1.5-.5-1.8-.9-3.6-1.6-5.4-2.3-2.3-.8-3.8-1.4-4.5-1.8-1.5-.9-2.8-1.9-3.9-3.1-.5-.6-1.1-1-1.6-1.4-.1,0-.7-.4-1.6-1-.5-.3-1.2-.6-2-.8-1.1-.3-2.1-.8-3.1-1.6-1.2-.9-2.1-1.6-2.8-2.1-1.5-.9-2.8-2.1-4-3.3"/>
          <path class="st61" d="M160.2,175.8h-15.5c-.2,0-.3.1-.4.3-.1.1-.2.3-.2.4v37.5c0,.2,0,.3.2.4.1.1.3.2.4.2h14.1c.1,0,.2,0,.3.2,0,0,.1.2.1.3v1.4"/>
          <path class="st100" d="M57.9,93.8c3.9-3.9,11.4-11.5,22.8-22.6.1-.1.3-.2.5-.3.5,0,.7,0,.5.4,0,.1-.2.3-.3.5-17.4,17.4-34.8,34.9-52.3,52.3,0,0-.3.2-.7.6-.9.8-1.2,1.8-.8,3.1.3,1.3.5,2.5.6,3.8,0,1.2.5,1.4,1.4.5l53.1-53.5c.2-.2.3-.4.3-.6.5-2.5.7-5,.5-7.6,0,0,0-1.5-.1-4.2,0-1.5-.3-3.1-.8-4.5,0,0,0,0,0,0s0,0-.1,0c0,0,0,0-.1,0,0,0,0,0,0,0-4.2,4.1-8.4,8.3-12.5,12.5-.9.9-1.6,1.7-2.2,2.3-1.1,1.2-1.8,2-2.2,2.3-6.4,6.1-12.7,12.4-19,18.7-7.2,7.3-11.9,12-14.2,14.2-1.7,1.6-2.9,3.1-3.8,4.5-.1.2-.2.4-.2.7l.2,5.2c0,1.1.4,1.2,1.1.5,9.6-9.5,19.1-19.1,28.5-28.7Z"/>
          <path class="st23" d="M31.8,139.4c14.8-14.9,29.7-29.8,44.5-44.8,2.6-2.6,4.6-4.5,6.1-5.8,0,0,.2-.2.2-.3,0-.1,0-.2,0-.3l.2-7.9c0-.2,0-.3-.3-.1-18.2,17.9-36.3,35.9-54.3,54,0,0-.4.3-1,.9-1.1,1-1.3,2.1-.5,3.5,0,0,.1.3.2.7l.7,3.1c.1.6.4.6.9.2,1.2-1.2,2.3-2.2,3.3-3.2Z"/>
          <path class="st59" d="M128.4,117.5c3.3,5,7.9,6.3,13.6,3.9.8-.3,1.5-.9,2.2-1.7"/>
          <path class="st53" d="M144.2,119.6c3.6-4.1,3.9-8.4.9-13"/>
          <path class="st8" d="M145.1,106.7c-2.5-2.9-5.4-4.2-8.6-3.9-3.1.3-5.5,1.7-7.4,4.1-2.2,2.9-2.4,6.4-.7,10.6"/>
          <path class="st77" d="M145.1,106.7c-.4.1-.8,0-1-.2-.3-.3-.5-.5-.5-.5-4.9-3.2-9.4-2.7-13.5,1.5-.4.4-.6,1-.8,1.7"/>
          <path class="st44" d="M129.3,109.2c-1.2,2.4-1.5,4.9-.7,7.6,0,.3,0,.5-.1.7"/>
          <path class="st65" d="M144.2,119.6c-.4-.2-.4-.5-.2-.7.2-.2.4-.4.4-.4,1.5-2.5,1.8-5,.8-7.5-.8-2-2-3.5-3.8-4.5-1.7-1-3.5-1.4-5.5-1.1-2.1.3-3.9,1.2-5.3,2.9-.4.5-.8.7-1.3.8"/>
          <path class="st6" d="M64.7,125.1c1.2-1.2,2.5-2.5,3.8-3.9.3-.3.4-.6.4-1v-6.6c0-.5-.2-.5-.5-.2l-36.2,36.2c0,0-.1.2-.2.3,0,.1,0,.2,0,.3l2.3,4.8s0,0,0,.1c0,0,0,0,.1,0,0,0,.1,0,.2,0,0,0,.1,0,.1,0,8.8-8.7,17.4-17.4,25.9-26,.4-.4,1.7-1.7,3.9-3.8Z"/>
        </g>
      </g>
      <path class="st119" d="M26.2,196.8c-7.7-10.4-13.5-21.8-17.3-34.2-1.4-4.6-2.7-9.3-3.6-13.9-3.5-16.8-3.2-34,1-51.6,2.8-11.6,6.7-21.9,11.6-30.9,10.1-18.4,24.1-33.2,41.7-44.5,7.9-5,16.3-9,25.1-12,4.5-1.5,9.1-2.8,13.8-3.9,18.1-4.2,36.6-4,55.5.6,22.6,5.5,41.8,16.2,57.5,32.2,14.3,14.5,24.4,31.4,30.2,50.5,2.5,8.3,4.3,17.4,5.3,27.3.7,6.7.5,13.9-.5,21.5-.6,4.7-1.4,9.4-2.5,14.2-3.5,15.9-10,30.5-19.5,43.9-10.5,14.7-23.7,26.6-39.4,35.5-8.3,4.7-17,8.3-26.1,10.8-4.6,1.3-9.3,2.3-14,3.2-12.7,2.4-25.5,2.4-38.2.3-4.7-.8-9.4-1.8-14-3-13.5-3.5-26.3-9.6-38.3-18.1-7.3-5.1-13.6-10.7-19-16.6-3.1-3.4-6.1-7.1-9.1-11.1ZM116.7,13.7c-25.2,2-47.3,11.3-66.1,28-7.3,6.5-13.7,13.9-19,22.1-15.7,24.6-21.3,51.2-16.8,79.7.8,4.8,1.8,9.5,3.2,14,3.9,12.8,9.9,24.6,18,35.3.2.3.5.4.8.5.8,1.4,1.8,2.7,3.1,3.8.7,1.5,1.7,2.7,3,3.6.9,1.4,2.1,2.6,3.6,3.4.6,1.3,1.6,2.4,2.9,3.1,1.1,1.2,2.3,2.2,3.8,3.1,0,.3,0,.6.3.8,24.6,19.9,52.8,28.2,84.7,25.1,6.3-.6,13.3-2.2,21-4.7,11.5-3.6,22.1-9,31.8-16.1,6.1-4.4,11.6-9.3,16.5-14.9,11.5-12.5,19.7-26.9,24.6-43.1,4.6-15.4,5.8-30.8,3.8-46.3-2.9-22.5-12-42.4-27.1-59.7-18.7-21.3-42.5-33.7-71.5-37.1-6.8-.9-13.6-1-20.5-.4Z"/>
      <path class="st124" d="M137.2,14c-.5,1.1-.6,2.2-.3,3.4v1.3c-2.1-.6-4.1-.9-6-.9-5.8,0-12.1,0-19,.3,1.1-1.4,2.4-2.5,3.9-3.4,0,0,.2,0,.6-.2.4-.1.5-.4.4-.9,6.8-.7,13.7-.6,20.5.4Z"/>
      <path class="st148" d="M116.7,13.7c.1.5,0,.7-.4.9-.3.1-.5.2-.6.2-1.5.9-2.8,2-3.9,3.4l-.4.2c-3-.4-5.9-.2-8.8.7-1.7.5-3.4.8-5.1.9-.6,0-1.1.1-1.5.3-.5.2-1,.3-1.5.5-.7.3-1.5.5-2.2.7-4.3,1.2-8.5,2.8-12.6,4.8-.9.5-1.8.8-2.6,1.1-.9.3-1.8.6-2.7.9,0,0-.1,0-.2,0,0,0,0,0-.1,0,0,0,0-.1,0-.2,1.9-1.7,1.9-2-.2-1.1-.2,0-.4.2-.6.4-2.3,1.6-4.8,3.1-7.3,4.5-1,.6-2,1.1-2.9,1.7-.9.6-1.9,1.2-2.9,1.8-1,.6-2,1.4-3.1,2.4-.9.9-2,1.8-3,2.6,0,0-.4.4-1.1,1.2-.6.6-1.5.7-2.5.2,18.8-16.7,40.9-26,66.1-28Z"/>
      <path class="st154" d="M137.2,14c29,3.4,52.8,15.8,71.5,37.1,15.1,17.2,24.1,37.1,27.1,59.7,2,15.5.7,30.9-3.8,46.3-.7.5-1,.2-.9-.7,0-.6.3-1.5.8-2.6.3-.8.6-1.7.7-2.6.1-1,.3-2.4.6-4.2,1.4-7.9,1.7-16.4,1-25.5-.4-11.5-2.7-22.6-7.1-33.2-.1-.3-.5-.9-1-1.7-.4-.5-.7-1.1-.9-1.8-1.6-4.8-3.9-9.3-6.7-13.8-.2-.3-.8-1-2-2.3-.9-.9-1.5-2.1-1.7-3.5,0-.2-.1-.5-.3-.7-.8-1.1-1.6-2.3-2.3-3.5-.5-.9-1.3-1.8-2.2-2.8-1.2-1.2-2.1-2.6-2.8-4.2-.4-1-1-1.7-1.6-2.3-3-2.7-6-5.4-8.9-8.1,0,0-.3-.4-.9-1.1-.5-.7-1.3-.9-2.4-.7-1.7,0-3.3-.7-5-2.2-2.8-2.7-6.7-5.3-11.7-8-.3-.2-.6-.4-.9-.7-.3-.3-.6-.6-.9-.8-.3-.3-.9-.5-1.6-.6-1.1-.2-2-.7-2.9-1.3-1.1-.9-1.7-1.3-1.7-1.3-1.2-.7-2.4-1.3-3.7-1.8-1.6-.6-3.3-1.3-4.8-2-1.2-.5-2.6-1-4.3-1.5-1.2-.3-2.6-.8-4.4-1.3-3.1-1-7.7-1.8-13.8-2.3-.3,0-.5-.2-.7-.5-.2-1.2-.1-2.3.3-3.4Z"/>
      <path class="st127" d="M136.9,17.4c.2.3.4.5.7.5,6.1.6,10.7,1.3,13.8,2.3,1.8.6,3.2,1,4.4,1.3,1.7.5,3.1,1,4.3,1.5,1.6.7,3.2,1.4,4.8,2,1.3.5,2.5,1.1,3.7,1.8,0,0,.6.4,1.7,1.3.9.7,1.8,1.1,2.9,1.3.7.2,1.3.4,1.6.6.3.2.6.5.9.8.3.3.6.6.9.7,5,2.6,8.9,5.3,11.7,8,1.6,1.6,3.3,2.3,5,2.2.4,0,.8.2,1,.5.2.3.4.5.4.6,3.8,3.8,7.7,7.5,11.7,11,.2.1.3.3.4.6.9,2.5,2.2,4.9,4.2,7.1.6.7,1.3,1.6,2,2.6.5.7,1,1.7,1.3,2.9.4,1.2.8,2.4,1.4,3.5,0,.2.3.4.5.5,1.3.8,2.2,1.8,2.9,3.1.9,1.8,1.4,2.7,1.4,2.7,1.9,3.1,3.6,6.4,5,9.9.2.4.6,1.3,1.3,2.6.4.7.8,1.7,1.2,2.7,3.6,10.4,5.5,20.8,5.6,31.1-.1,1-.2.8-.2-.5,0-.7,0-1.3-.1-1.9,0-.3,0-.3,0,0,0,2.8,0,5.6-.2,8.4,0,.2,0,.2,0,0,0-3.6-.1-7.1-.6-10.7,0-.2,0-.2,0,0,.2,7.8,0,15.5-.7,23.3,0,.5-.2,1-.3,1.4-.4,1.7-.8,3.4-1.1,5.1-.3,1.4-.4,1.3-.3-.2,1.6-7.8,2.3-15.6,2.1-23.5-.1-4.4-.6-9.1-1.5-14-.8-4.2-1.8-8.8-3.1-13.8-.6-2.4-1.4-4.4-2.4-5.9,0,0-.1-.2-.2-.2,0,0-.2,0-.3,0h-.5c0,.1-.2.1-.3,0,0,0-.1-.1-.2-.2-.9-2.9-1.5-4.6-1.9-5.2-1.2-1.7-2.1-3.6-2.6-5.6,0-.2-.2-.4-.4-.6l-3.8-3.7c-.2-.2-.3-.4-.3-.6-.3-1.6-1-2.9-2.1-4-.2-.2-.3-.4-.3-.6-.3-2.8-1.5-5.2-3.7-7.2-.5-.5-.9-1.1-1.1-1.8-.2-1.1-.8-2.2-1.5-3.3-.8-1.1-1.5-2-2.2-2.9-1.3-1.6-2.9-2.7-5-3.4-.2,0-.4-.2-.6-.4-2.5-3-4.1-4.7-4.8-5.2-.9-.6-1.7-1.2-2.5-2-1-1-1.8-1.6-2.5-1.8-.9-.3-1.8-.4-2.8-.4-.1,0-.2,0-.3,0-.1,0-.2-.1-.3-.2-.3-.4-.6-.8-.9-1.2-.4-.4-.8-.8-1.4-1.2-1.3-.8-3.1-1.9-5.3-3.5-1.9-1.3-4.4-2.5-7.4-3.4.2-1,0-1.6-.7-2-2.8-1.5-5.9-2.9-9.4-4.1,0,0-1.3-.5-3.9-1.5-1.8-.7-4.1-1.4-6.9-2.1-4.5-1.1-8.2-1.8-11.1-2-.6,0-1-.2-1.2-.5-.2-.4-.3-.9-.1-1.5v-1.3Z"/>
      <path class="st145" d="M136.8,18.7c-.2.6-.1,1.1.1,1.5.2.3.6.5,1.2.5,2.9.2,6.6.9,11.1,2,2.8.7,5.1,1.4,6.9,2.1,2.5,1,3.8,1.5,3.9,1.5,3.5,1.2,6.6,2.6,9.4,4.1.7.4.9,1,.7,2v2c-5.5-2.6-8.7-4-9.9-4.3-2.8-.8-5.5-1.6-8.2-2.6-1.1-.4-2.3-.8-3.6-1-1.2-.3-2.5-.6-3.7-1-1.3-.4-2.6-.7-3.9-.8-1.3-.2-2.6-.3-3.9-.5v-1.1c0,0-.1-.2-.2-.2,0,0-.2-.1-.3-.1-9.2-.8-18.6-.7-28.4.1-.5,0-.9.3-1.3.6l-4.3,4.2c-2.4-.1-5.4.5-9,1.7-9.1,3.2-16.9,6.7-23.2,10.6-.2.1-.4.2-.7.2-.4,0-.7.2-1.1.4,0,0-.2.2-.7.7-.3.3-.6.4-1.1.2v-5.6c0,.7.4.9,1,.5,2.2-1.5,4.4-2.7,6.4-3.7.9-.5,3.2-1.5,6.7-3,7.4-3.2,15-5.5,22.9-6.9,0,0,.9,0,2.4,0,1,0,1.9-.4,2.5-1.2.5-.5.7-.8.7-.8.7-.7,1.5-1.5,2.2-2.2l.4-.2c6.9-.3,13.3-.4,19-.3,1.9,0,3.8.3,5.9.9Z"/>
      <path class="st139" d="M111.5,18.3c-.7.8-1.4,1.5-2.2,2.2,0,0-.3.3-.7.8-.7.8-1.5,1.2-2.5,1.2-1.6,0-2.4,0-2.4,0-7.9,1.4-15.6,3.7-22.9,6.9-3.5,1.6-5.8,2.6-6.7,3-2,1-4.1,2.2-6.4,3.7-.6.4-.9.2-1.1-.5l7.7-7.7c0,0,0,.2,0,.2,0,0,0,0,.1,0,0,0,.1,0,.2,0,.9-.3,1.8-.6,2.7-.9.8-.3,1.6-.6,2.6-1.1,4-2,8.2-3.6,12.6-4.8.7-.2,1.5-.4,2.2-.7.5-.2,1-.4,1.5-.5.5-.2,1-.3,1.5-.3,1.7,0,3.4-.4,5.1-.9,2.9-.9,5.8-1.1,8.8-.7Z"/>
      <path class="st129" d="M74.3,28l-7.7,7.7v2.5c0-.4-.2-.6-.5-.5-1,.2-1.8.8-2.5,1.7-.1.2-.3.3-.5.4-1,.3-1.8,1-2.2,2h-1.1c0,0-3.6.2-3.6.2-.2,0-.4.1-.6.3-2.3,2.2-4.7,4.3-7.1,6.4-2.4,2.1-5.1,5.1-8.1,9.1-.7.9-1.9,2.3-3.5,4.1-1.2,1.4-2.3,2.8-3.3,4.3-.4.6-.9,1.2-1.6,1.7.1-1.4,0-2.8-.4-4.2,5.4-8.2,11.7-15.6,19-22.1,1.1.5,1.9.4,2.5-.2.7-.8,1.1-1.1,1.1-1.2,1.1-.8,2.1-1.6,3-2.6,1-1,2.1-1.8,3.1-2.4,1-.6,1.9-1.2,2.9-1.8.9-.6,1.9-1.2,2.9-1.7,2.5-1.4,4.9-2.9,7.3-4.5.2-.1.4-.3.6-.4,2.1-.9,2.2-.6.2,1.1Z"/>
      <path class="st140" d="M102.4,27.5l-5,5c-.6,0-1.1,0-1.7,0-.6,0-1.1,0-1.6.2-3.3,1-6.5,2.3-9.7,3.7-.4.2-2,.8-4.7,1.8-1.6.6-3.1,1.4-4.4,2.4-.3.2-1,.9-2.2,2.3-.9,1-2,1.7-3.4,2.1l-2.7-.2-.4-3.6c.5.2.8.1,1.1-.2.4-.5.6-.7.7-.7.3-.2.7-.3,1.1-.4.3,0,.5,0,.7-.2,6.3-3.9,14-7.5,23.2-10.6,3.6-1.3,6.6-1.8,9-1.7Z"/>
      <path class="st136" d="M97.3,32.5c-4.2,4.4-8.6,8.7-12.9,12.9-.4.4-.8.4-1.2,0-.2-.2-.4-.3-.6-.4-1.8-.4-3.4,0-4.7,1.4-3.3,3.5-6.6,6.8-10.1,10.1-.2.2-.3.2-.2-.1l.3-.7c.2-.4.3-.6.3-.6l9.2-9.2c.6-.6.5-.9-.4-.9h-7.5c1.4-.4,2.5-1.1,3.4-2.1,1.2-1.3,1.9-2.1,2.2-2.3,1.4-1,2.9-1.8,4.4-2.4,2.7-1,4.2-1.6,4.7-1.8,3.1-1.4,6.4-2.7,9.7-3.7.5-.2,1.1-.2,1.6-.2.6,0,1.1,0,1.7,0Z"/>
      <path class="st137" d="M170.1,32.3c3,.9,5.5,2,7.4,3.4,2.2,1.6,4,2.7,5.3,3.5.6.3,1,.7,1.4,1.2.3.4.6.8.9,1.2,0,0,.2.2.3.2.1,0,.2,0,.3,0,1,0,1.9,0,2.8.4.7.2,1.5.8,2.5,1.8.7.7,1.6,1.4,2.5,2,.7.4,2.2,2.1,4.8,5.2.1.2.3.3.6.4,2,.7,3.7,1.8,5,3.4.7.8,1.4,1.8,2.2,2.9.8,1.1,1.3,2.2,1.5,3.3.2.7.5,1.3,1.1,1.8,2.2,2,3.5,4.4,3.7,7.2,0,.2.1.4.3.6,1.1,1.1,1.8,2.5,2.1,4,0,.2.2.5.3.6l3.8,3.7c.2.2.3.4.4.6.5,2,1.4,3.9,2.6,5.6.4.5,1,2.3,1.9,5.2,0,0,0,.2.2.2,0,0,.2,0,.3,0h.5c0-.1.2-.1.3,0,0,0,.2.1.2.2,1,1.6,1.8,3.5,2.4,5.9,1.3,5,2.3,9.6,3.1,13.8.9,4.9,1.4,9.6,1.5,14,.2,7.9-.5,15.7-2.1,23.5-.7,3.1-1.3,5.3-1.8,6.6-.2.6-.7,1.3-1.4,2.3,1.7-6.4,2.8-12.6,3.2-18.8.4-5.9.5-12,.1-18.1-.2-4.1-.8-8.4-1.8-12.8-.7-3.5-1.7-7.7-2.9-12.7-.7-3.2-2.1-3.6-4-1.3l-.5.4c-.4,0-.7-.3-.8-.6-.8-2.3-2-4.7-3.5-7.2,0,0,0,0-.1-.1s0,0-.1,0c0,0-.1,0-.2,0,0,0,0,0-.1,0-.3.3-.6.4-.9.3-.2,0-.4-.3-.5-.6-.8-1.8-1.7-3.5-2.9-5.1,0,0-.2-.3-.5-.8l-3.1-5.1c-.2-.3-.2-.5-.2-.8s.1-.5.3-.7c.6-.6,1.1-1.1,1.6-1.6.4-.4.6-.7.7-1.1.1-.5,0-.9-.4-1.3-.2-.2-.3-.4-.4-.6-.4-1-1-1.9-1.9-2.5-.2-.1-.3-.3-.4-.6-.2-.8-.4-1.6-.6-2.4-.2-.6-.7-1.3-1.4-1.9-.8-.7-1.5-1.5-2.1-2.3-.8-1.1-1.4-1.9-1.9-2.4-1.2-1.2-2.3-2.5-3.4-3.8-.2-.2-.4-.3-.6-.3l-1.6-.3c-.2,0-.5-.1-.6-.3-3-3.2-6.2-6.2-9.5-9-.2-.1-.4-.2-.6-.3-2-.2-4.1-.2-6.2-.2-.6,0-1.2,0-1.6-.3-.5-.3-1-.6-1.4-1-.8-.7-1.4-1.2-1.9-1.5-1.4-.7-2.7-1.4-4-2.2v-2.7c0,0,0-2,0-2Z"/>
      <path class="st125" d="M170.1,37c1.3.8,2.7,1.5,4,2.2.5.3,1.1.8,1.9,1.5.4.4.9.7,1.4,1,.4.2,1,.3,1.6.3,2.1,0,4.1,0,6.2.2.2,0,.5.1.6.3,3.4,2.8,6.6,5.8,9.5,9,.1.2.4.3.6.3l1.6.3c.2,0,.4.2.6.3,1.1,1.3,2.3,2.5,3.4,3.8.5.5,1.1,1.3,1.9,2.4.6.9,1.3,1.6,2.1,2.3.7.6,1.2,1.3,1.4,1.9.3.8.5,1.6.6,2.4,0,.2.2.4.4.6.9.7,1.5,1.5,1.9,2.5,0,.2.2.4.4.6.4.4.5.8.4,1.3,0,.3-.3.7-.7,1.1-.5.5-1,1-1.6,1.6-.2.2-.3.4-.3.7s0,.6.2.8l3.1,5.1c.3.6.5.8.5.8,1.1,1.6,2.1,3.3,2.9,5.1.1.3.3.5.5.6.3,0,.6,0,.9-.3,0,0,0,0,.1,0,0,0,.1,0,.2,0,0,0,0,0,.1,0s0,0,.1.1c1.5,2.4,2.6,4.8,3.5,7.2.1.4.4.6.8.6-.2.3-.4.5-.7.7h-.5c-.1,0-.2,0-.3-.1,0,0-.1-.2-.2-.3-.8-2.5-1.7-4.9-3-7.2,0,0-.1-.2-.2-.2,0,0-.2,0-.3-.1,0,0-.2,0-.3,0,0,0-.2,0-.3.2l-2,1.9c0,0-.2.1-.3.2-.1,0-.2,0-.4,0-.1,0-.2,0-.3-.2,0,0-.2-.2-.2-.3-.8-1.9-2-3.6-3.4-5.1,0,0-.2-.1-.3-.1s-.2,0-.3,0c-.5.1-.8-.1-.9-.6l-.3-7.7c0-.2,0-.5.2-.7l.2-.3c0,0,0-.1,0-.3,0-.1,0-.3,0-.4l-.3-3.2c0-.3,0-.5-.1-.7,0-.2-.1-.4-.2-.5-4.3-5.5-8.5-10.6-12.6-15.2-.8-.9-1.6-1.4-2.5-1.5-1.2-.2-2.4-.3-3.7,0-.1,0-.2,0-.3,0-.1,0-.2-.1-.3-.2-1.2-1.8-2.7-3.2-4.4-4.1-.8-.4-2.9-2.1-6.5-5-.1,0-.2-.2-.3-.2-.1,0-.2,0-.3,0h-5c0,0-.2,0-.2,0,0,0-.1,0-.2-.1,0,0,0-.1-.1-.2,0,0,0-.1,0-.2v-4.7Z"/>
      <path class="st136" d="M66.7,38.2v3.1l.4,3.6c0,.1-.1.1-.2.1,0,0,0,0,0,0,0,0,0,0,0,0,0,0,0,0,0,0,0,0,0,0,0,0,0,.9,0,1.1-.4.4,0,0-.1-.1-.2-.2s-.2,0-.3,0c-.3,0-.7,0-1,.1-.3,0-.7.2-.9.4-5.8,4.4-10.4,8.4-13.6,12.1-2.1,2.4-3.8,4.2-5.2,5.6-.9.9-1.7,1.7-2.2,2.4-.7.9-1.3,1.7-1.9,2.6,0,.1-.5.8-1.3,2.2-.3.6-.8,1.3-1.4,2.1-.5.7-1.6,2.6-3.3,5.7-.3.6-.7,1.1-1.1,1.4-.5.3-1.1.6-1.6.8,0-.1,0-.2,0-.4,1.1-1.1,1.8-2.4,1.9-4,0-.2.1-.5.2-.7.9-1.3,2.9-4.3,6.1-9,3.3-4.9,7.4-9.8,12.4-14.6.6-.6,1.7-1.5,3.1-2.6,1.1-.9,2.1-1.8,3-2.8.5-.6,1.2-1,1.9-1.2,1.9-.6,3.3-1.4,4.2-2.5,0,0,0,0,0-.1,0,0,0,0,0-.1,0,0,0,0,0-.1,0,0,0,0,0-.1-.6-.5-1.4-.7-2.2-.6-.7,0-1.3,0-2-.2.4-1,1.1-1.7,2.2-2,.2,0,.4-.2.5-.4.7-.9,1.5-1.5,2.5-1.7.4,0,.5.1.6.5Z"/>
      <path class="st130" d="M59.8,41.9c.5.7.7,1.5.4,2.3,0,0,0,.2-.2.3,0,0-.2.1-.3.1-.7.1-1.3.4-2,.7-.5.3-1.2.6-1.8.9-1.1.5-2.2,1.3-3.5,2.5-2.9,2.8-5.8,5.5-8.8,8.3-.6.6-1.2,1.2-1.8,1.9-.6.7-1.1,1.3-1.7,2-.8.9-1.6,2-2.3,3.1-1.6,2.5-3.4,4.9-5.2,7.2-.1.2-.2.1-.3,0,0-.3-.2-.5-.4-.7v-2.5c.6-.5,1.1-1,1.6-1.7,1-1.5,2.1-3,3.3-4.3,1.6-1.8,2.8-3.2,3.5-4.1,3-3.9,5.8-7,8.1-9.1,2.4-2.1,4.7-4.3,7.1-6.4.2-.2.4-.3.6-.3h3.6Z"/>
      <path class="st153" d="M59.8,41.9h1.1c.6.1,1.3.2,2,.1.8-.1,1.6,0,2.2.6,0,0,0,0,0,.1s0,0,0,.1,0,0,0,.1,0,0,0,.1c-.9,1-2.3,1.9-4.2,2.5-.7.2-1.4.6-1.9,1.2-.9,1-1.9,1.9-3,2.8-1.5,1.1-2.5,2-3.1,2.6-4.9,4.8-9,9.6-12.4,14.6-3.2,4.7-5.2,7.7-6.1,9-.1.2-.2.4-.2.7-.2,1.6-.8,2.9-1.9,4l-.2-6.5v-3.4c.3.2.4.4.5.7,0,.2.1.2.3,0,1.8-2.3,3.6-4.7,5.2-7.2.8-1.2,1.5-2.2,2.3-3.1.6-.7,1.1-1.3,1.7-2,.6-.7,1.2-1.3,1.8-1.9,2.9-2.7,5.8-5.5,8.8-8.3,1.3-1.2,2.4-2.1,3.5-2.5.7-.3,1.3-.6,1.8-.9.6-.3,1.3-.6,2-.7.1,0,.2,0,.3-.1,0,0,.1-.2.2-.3.2-.8,0-1.6-.4-2.3Z"/>
      <path class="st138" d="M193.4,41.9c1-.2,1.8,0,2.4.7.6.7.9,1.1.9,1.1,2.9,2.8,5.9,5.5,8.9,8.1.6.6,1.2,1.3,1.6,2.3.7,1.6,1.7,3,2.8,4.2,1,1,1.7,1.9,2.2,2.8.7,1.2,1.5,2.4,2.3,3.5.1.2.2.4.3.7.2,1.4.8,2.6,1.7,3.5,1.2,1.2,1.8,2,2,2.3,2.9,4.4,5.1,9,6.7,13.8.2.7.5,1.3.9,1.8.5.8.9,1.4,1,1.7,4.3,10.6,6.7,21.7,7.1,33.2l-.5,8.3-.2-6.6c0-10.3-2-20.7-5.6-31.1-.4-1.1-.8-2-1.2-2.7-.7-1.3-1.2-2.2-1.3-2.6-1.4-3.4-3-6.7-5-9.9,0,0-.5-.9-1.4-2.7-.6-1.3-1.6-2.3-2.9-3.1-.2-.1-.4-.3-.5-.5-.5-1.1-1-2.3-1.4-3.5-.4-1.2-.8-2.2-1.3-2.9-.7-1-1.4-1.9-2-2.6-1.9-2.2-3.3-4.5-4.2-7.1,0-.2-.2-.4-.4-.6-4-3.5-7.9-7.2-11.7-11,0,0-.2-.2-.4-.6-.2-.3-.5-.5-1-.5Z"/>
      <path class="st135" d="M31.6,63.7c.4,1.4.5,2.7.4,4.2v5.9c-.7.5-1.3,1.2-1.9,2.3-2.3,4.3-4.2,8.4-5.7,12.2-1.1,2.9-1.8,4.8-2.1,5.9-.5,2-.8,4.1-.7,6.3,0,1.6-.1,2.6-.5,3.2-1.4,2-2,4.3-1.7,6.8,0,.2,0,.4-.1.7-.5,1-.4,1.9.1,2.8,0,.1.1.2.1.3,0,.1,0,.2,0,.3-.2.7-.5,1.4-1,2-.9.3-1.5.8-1.9,1.6,0,.2-.2.4-.4.5-.7.5-1.1,1.3-1.1,2.6,0,1.3,0,2.7.3,4,0,.2.1.4.3.6.7.8.7,1.6-.1,2.3,0,0-.2.2-.2.3,0,.1,0,.2,0,.3,0,2.6.2,5.1.8,7.6,0,.2,0,.5,0,.7-.4,1.1-.3,2.2.3,3.2.1.2.2.4.2.7,0,.8.3,1.8.9,3.1.1.3.2.7.2,1.1,0,2.1.4,4,1.1,5.7.4,1,.6,1.9.7,2.9.1,1,.3,2,.6,3,.2.7.7,1.7,1.6,3,1,1.6,1.6,3.4,1.7,5.4,0,.2,0,.5.2.6,1.4,1.9,2.5,3.9,3.2,6.2.2.6.8,1,1.8,1.2.2,0,.4.2.6.4.8,1,1.4,2.1,2,3.3.7,1.5,1.3,2.7,1.8,3.4,1.4,2.2,2.4,3.7,2.8,4.5,1,1.8,2.2,3.4,3.6,4.8,0,0,0,.1.1.2,0,.1,0,.2,0,.4v.8c0,0-2.7,2.5-2.7,2.5-.3,0-.6-.2-.8-.5-8.1-10.8-14.1-22.6-18-35.3-1.4-4.5-2.4-9.1-3.2-14-4.6-28.6,1-55.1,16.8-79.7Z"/>
      <path class="st155" d="M123.4,167.1l13.7-12.2c.2-.1.3-.4.3-.6l3.2-14.8c.2-.7.5-1.3,1.1-1.8,6.1-5.2,11.6-10.7,16.5-16.5,5.3-6.3,9.8-13.6,13.5-21.8,3.4-7.4,4.9-14.9,4.7-22.5.8-.5,1.2-.2,1.2.7,0,5.3-.8,10.7-2.5,16.2-1.8,6-4.8,12.1-8.8,18.3-6.8,10.3-14.9,19.4-24.4,27.3-.2.1-.3.4-.4.6l-3.3,15.2c0,.2-.2.4-.3.6-4.3,4.4-8.8,8.5-13.6,12.3,0,0-.2.1-.3.1-.1,0-.2,0-.3,0-.4-.2-.5-.6-.2-1.1Z"/>
      <path class="st156" d="M31.8,139.4c-1,1-2,2-3.3,3.2-.5.4-.8.4-.9-.2l-.7-3.1c0-.4-.1-.6-.2-.7-.8-1.4-.6-2.6.5-3.5.6-.5,1-.8,1-.9,18-18.1,36.1-36,54.3-54,.2-.2.3-.1.3.1l-.2,7.9c0,.1,0,.2,0,.3,0,0-.1.2-.2.3-1.5,1.3-3.5,3.2-6.1,5.8-14.8,14.9-29.7,29.8-44.5,44.8Z"/>
      <path class="st132" d="M226.7,156.9l-7.6,17.6c-.1.3-.3.6-.6.8-.3.2-.6.3-.9.4-.6,0-1.1.5-1.5,1.1,0,.1-.2.4-.3,1,0,.3-.2.6-.5.9-.9,1-1.6,2.2-2.2,3.3-1.1,2.2-1.7,3.3-1.8,3.5-1.1,1.8-2.4,3.4-3.8,4.9-.3.4-.6.7-.9,1.1-1.3,2.1-2.7,3.9-4.1,5.3-.3.3-1.2,1.4-2.8,3.2-.8.9-1.8,1.9-3.1,3.1-4.2,3.8-7.3,6.4-9.3,7.8-.2.1-.4.2-.7.2-.7,0-1,.4-.9,1.2,0,0,0,0,0,.1,0,0,0,0-.1,0-1.5.5-2.4.9-2.7,1.3-.6.8-1.2,1.4-2.1,1.9-7.1,4.3-14.2,7.6-21.1,9.8-.3.1-.6.4-.9.9v-1.3c0,0,0-.9,0-.9,1.7-.5,3.4-1.1,5-1.8.5-.2,2.1-.9,4.9-1.9,2.1-.8,4.1-1.9,6-3.2.4-.3,1.2-.7,2.3-1.2.9-.4,1.5-.9,2.1-1.7.7-1,1.3-1.7,1.7-2,1.4-1,2.8-1.9,4.4-2.6,0,0,0,0,.2,0,0,0,.1,0,.1,0,.1.1.2,0,.3-.1,0-.2.2-.3.3-.4.3-.2.7-.4,1-.5.4-.2.7-.4,1-.6,6.4-5.2,11.8-10.5,16-16,4.4-5.7,7.3-9.5,8.7-11.6.6-.9,1.3-2.4,1.9-4.3,0-.1,0-.2.2-.3,0,0,.2-.1.3-.2l1.7-.6c.2,0,.4-.2.6-.4.6-.9,1-1.8,1.3-2.7.5-1.5.8-2.5.9-2.8,1.8-4.3,3.4-8.6,4.8-13,.2-.7.5-2.1.8-4.2.2-1.3.5-2.8,1-4.6.7-2.6,1.2-6.9,1.4-13,0-.8,0-1.1-.1-.9,0,0-.1.3-.1.5,0,2-.3,3.9-.7,5.9.9-10.8.9-19.9,0-27.5-.2-1.4-1-5-2.3-10.8,0,0-.2-1-.6-2.9-.4-1.9-1-3.8-1.9-5.6-.1-.3-.4-.4-.7-.4,1.9-2.3,3.2-1.9,4,1.3,1.2,5,2.1,9.2,2.9,12.7.9,4.5,1.5,8.7,1.8,12.8.3,6.2.3,12.2-.1,18.1-.5,6.2-1.5,12.5-3.2,18.8Z"/>
      <path class="st147" d="M221.5,93.2c.4,0,.6,0,.7.4.8,1.8,1.5,3.7,1.9,5.6.4,1.9.6,2.8.6,2.9,1.4,5.8,2.2,9.4,2.3,10.8.9,7.6.9,16.7,0,27.5-.1.9-.2,1.9-.4,2.8-.2,1.2-.4,2.1-.5,2.7-.7,4.3-1.8,8.4-3.4,12.4-.6,1.5-1.8,4.9-3.7,10.3,0,.2-.2.4-.4.6-.9.8-1.5,1.7-1.6,2.5-.2,1.1-.6,2.2-1.3,3.1-.8,1.1-1.8,1.5-2.9,1.1.2-.6.5-1.2.7-1.8.2-.4.5-.9,1-1.6.5-.6.9-1.4,1.2-2.3,2.4-5.9,4.2-11.3,5.7-16.2,2-6.8,3.1-13.7,3.4-20.7.2-4.6,0-9.4-.3-14.4-.5-6.4-1.6-12.8-3.3-19.4-.3-1.3-.7-2.4-1.1-3.2,0,0-.3-.3-.7-.8-.4-.4-.1-.8.7-1.2.3-.2.5-.4.7-.7l.5-.4Z"/>
      <path class="st129" d="M145.1,106.7c-.4.1-.8,0-1-.2-.3-.3-.5-.5-.5-.5-4.9-3.2-9.4-2.7-13.5,1.5-.4.4-.6,1-.8,1.7-1.2,2.4-1.5,4.9-.7,7.6,0,.3,0,.5-.1.7-1.8-4.2-1.6-7.7.7-10.6,1.9-2.4,4.3-3.8,7.4-4.1,3.3-.3,6.1,1,8.6,3.9Z"/>
      <path class="st143" d="M124.1,173.6c-.3,0-.6-.1-.9-.4l70-69.9c.2-.2.4-.2.4,0,0,.2-.1.5-.4.9-17.9,17.9-35.7,35.9-53.7,53.7-.1.1-2.5,2.5-7.1,7.2-2.7,2.7-5.1,5.1-7.4,7-.5.5-.8.9-.9,1.4Z"/>
      <path class="st149" d="M145.1,106.7c3,4.6,2.7,8.9-.9,13-.4-.2-.4-.5-.2-.7.2-.2.4-.4.4-.4,1.5-2.5,1.8-5,.8-7.5-.8-2-2-3.5-3.8-4.5-1.7-1-3.5-1.4-5.5-1.1-2.1.3-3.9,1.2-5.3,2.9-.4.5-.8.7-1.3.8.1-.8.4-1.3.8-1.7,4.1-4.2,8.6-4.7,13.5-1.5,0,0,.2.2.5.5.3.3.6.3,1,.2Z"/>
      <path class="st150" d="M144.2,119.6c-.7.8-1.4,1.4-2.2,1.7-5.7,2.3-10.2,1-13.6-3.9.2-.2.2-.4.1-.7-.8-2.6-.5-5.2.7-7.6.5,0,.9-.4,1.3-.8,1.5-1.7,3.3-2.6,5.3-2.9,1.9-.3,3.7.1,5.5,1.1,1.8,1,3.1,2.5,3.8,4.5,1,2.5.7,5-.8,7.5,0,0-.2.2-.4.4-.2.2-.2.5.2.7Z"/>
      <path class="st128" d="M60.8,129c-8.5,8.6-17.1,17.3-25.9,26,0,0,0,0-.1,0,0,0-.1,0-.2,0,0,0-.1,0-.1,0,0,0,0,0,0-.1l-2.3-4.8c0,0,0-.2,0-.3,0-.1,0-.2.2-.3l36.2-36.2c.3-.3.5-.3.5.2v6.6c0,.4-.1.7-.4,1-1.3,1.4-2.6,2.8-3.8,3.9-2.2,2.1-3.5,3.4-3.9,3.8Z"/>
      <path class="st151" d="M18.5,116.6c-.3,2.6-.2,5.3.3,7.9,0,.2,0,.5,0,.7-.8,2.5-.8,5.2,0,7.9,0,.2,0,.5,0,.7-.3,2.2-.4,4.2,0,6,0,.1.2.7.7,1.9.2.5.3,1.1.2,1.7,0,.2,0,.5.1.7.7,1.7,1.2,3.4,1.6,5.1,0,0,.1,1.1.3,3.1.1,1.3.6,2.5,1.4,3.6.1.2.2.4.2.6,0,1.4.3,2.8,1.1,4.1.5.8.9,1.8,1,2.9,0,.2.1.4.3.6.5.5.8,1.2,1,2.1.3,1.3,1.3,3.3,2.8,6,0,0,.1.2.2.2,0,0,.2,0,.3.1.6,0,1,.4,1.2,1,.2.5.3.8.3.8,2.8,5.6,5.7,10.1,8.7,13.7.5.6.6,1.1.4,1.6l-1.3,1.3v-.8c0-.1,0-.3-.1-.4,0-.1,0-.2-.1-.2-1.5-1.4-2.7-3-3.6-4.8-.4-.8-1.3-2.3-2.8-4.5-.5-.7-1-1.8-1.8-3.4-.5-1.2-1.2-2.2-2-3.3-.1-.2-.3-.3-.6-.4-1-.2-1.6-.7-1.8-1.2-.7-2.2-1.8-4.3-3.2-6.2-.1-.2-.2-.4-.2-.6,0-2-.6-3.8-1.7-5.4-.9-1.3-1.4-2.3-1.6-3-.3-1-.5-2-.6-3-.1-1-.4-1.9-.7-2.9-.7-1.8-1.1-3.7-1.1-5.7,0-.4,0-.7-.2-1.1-.6-1.3-.9-2.3-.9-3.1,0-.2,0-.5-.2-.7-.5-1-.6-2.1-.3-3.2,0-.2,0-.5,0-.7-.6-2.5-.9-5-.8-7.6,0-.1,0-.2,0-.3,0-.1.1-.2.2-.3.8-.7.8-1.5.1-2.3-.2-.2-.3-.4-.3-.6-.2-1.3-.3-2.7-.3-4,0-1.2.4-2.1,1.1-2.6.2-.1.4-.3.4-.5.4-.8,1-1.3,1.9-1.6Z"/>
      <path class="st155" d="M233.5,123.2l.2,6.6c0,2.5-.2,4.9-.5,7.3-.2,1.1-.3,2.5-.3,4.2,0,1.4-.2,2.8-.5,4.2-.4,2-.8,4-1,6.1-.6,6.2-2.3,12-5.2,17.4-.5.9-1.1,2.3-1.8,4.1-.7,1.8-1.7,3.5-2.9,5.1-1.2,1.4-2.2,3-3,4.7-.6,1.2-1.3,2.2-2.1,3.2-.9,1.1-1.8,2.3-2.5,3.6-1.5,2.7-3.2,5.3-5,7.8,0,0-.3.3-.8.9-.5.6-.7,1.2-.6,2-5,5.6-10.5,10.6-16.5,14.9-.4,0-.7,0-1-.2,0,0-.1-.2-.1-.3,0-.1,0-.2,0-.3.5-.7,1.1-1.2,1.7-1.6,1-.6,1.7-1.1,1.9-1.3,3.9-3.5,7.6-7.2,11.1-11.2.4-.4.4-.6.2-.7,0,0-.2,0-.3,0,0,0-.2.1-.3.2-1.3,1.5-2.6,2.9-4.1,4.2-.2.2-.2.1,0,0,2.4-2.9,4.8-5.8,7.2-8.7,2.1-2.6,3.7-4.7,4.7-6.2.3-.5.8-1,1.4-1.7.5-.6.9-1.2,1.3-1.9.5-1.1,1-2,1.5-2.6,1.1-1.4,2.3-3.4,3.7-6,0-.1.1-.2.3-.3,1.1-.8,1.9-1.8,2.4-3,.4-1.1.7-1.6.7-1.6,1.8-3.7,3.3-7.5,4.6-11.5.3-1,.8-2.9,1.4-5.6.4-1.6.9-3.5,1.4-5.6.5-1.9.7-4,.6-6.3.2-.5.3-.9.3-1.4.7-7.8.9-15.5.7-23.3,0-.2,0-.2,0,0,.4,3.6.6,7.1.6,10.7,0,.2,0,.2,0,0,.1-2.8.2-5.6.2-8.4,0-.3,0-.3,0,0,.1.6.1,1.3.1,1.9,0,1.3,0,1.5.2.5Z"/>
      <path class="st148" d="M234.2,121.6c.7,9.1.4,17.6-1,25.5-.3,1.8-.5,3.2-.6,4.2,0,.9-.3,1.8-.7,2.6-.5,1.1-.7,1.9-.8,2.6-.1.9.2,1.2.9.7-4.9,16.3-13.1,30.6-24.6,43.1-.1-.8,0-1.5.6-2,.5-.5.8-.8.8-.9,1.8-2.5,3.5-5.1,5-7.8.7-1.3,1.6-2.5,2.5-3.6.8-1,1.5-2.1,2.1-3.2.8-1.7,1.8-3.2,3-4.7,1.3-1.5,2.2-3.2,2.9-5.1.7-1.8,1.3-3.2,1.8-4.1,2.9-5.4,4.6-11.2,5.2-17.4.2-2,.5-4.1,1-6.1.3-1.4.5-2.8.5-4.2,0-1.7.2-3.1.3-4.2.3-2.4.5-4.9.5-7.3l.5-8.3Z"/>
      <path class="st129" d="M82.1,129.2c7.1,2.3,12.3,3.9,15.4,5,.6.2.8.6.5,1.3-6-1.7-11.1-3.4-15.5-5-.6-.2-.7-.6-.5-1.3Z"/>
      <path class="st146" d="M159.1,224.5v-2.2s0-1.3,0-1.3l.2-1.8c3.2-.9,6.1-2.3,8.9-4.1.6-.4.5-.5-.2-.4-.8.1-1.4,0-1.9,0-.8-.3-.8-.6,0-1,.8-.5,1.6-.9,2.3-1.4.8-.5,1.6-.9,2.3-1.3,5.1-2.6,9.8-5.7,14.3-9.3,0,0,.2,0,.3-.1.1,0,.2,0,.3,0,.2,0,.5,0,.7,0,.3-.2.5-.3.6-.4.8-.3,1.4-.8,2-1.4.6-.7.9-1,.9-1.1,1.4-1.4,2.7-2.8,4.1-4.1.3-.3.9-1,1.8-2.2.5-.7,1.1-1.4,2-2.1.6-.6,2.1-2.4,4.4-5.4.5-.7,1.1-1.7,1.8-3.2.5-1.1,1.2-2.1,2-3.1.3-.3.5-1.2.7-2.7h6.3c1.1.3,2.1,0,2.9-1.2.7-.9,1.1-2,1.3-3.1.1-.9.7-1.7,1.6-2.5.2-.2.3-.4.4-.6,1.8-5.3,3.1-8.8,3.7-10.3,1.6-4,2.7-8.2,3.4-12.4.1-.7.3-1.6.5-2.7.2-.9.3-1.8.4-2.8.4-1.9.7-3.9.7-5.9,0-.2,0-.4.1-.5.1-.1.1.2.1.9-.2,6.1-.7,10.4-1.4,13-.5,1.8-.8,3.3-1,4.6-.3,2-.5,3.4-.8,4.2-1.4,4.4-3,8.7-4.8,13-.1.3-.5,1.3-.9,2.8-.3,1-.7,1.9-1.3,2.7-.1.2-.3.3-.6.4l-1.7.6c0,0-.2,0-.3.2,0,0-.1.2-.2.3-.6,1.9-1.2,3.4-1.9,4.3-1.4,2.1-4.3,5.9-8.7,11.6-4.3,5.5-9.6,10.8-16,16-.3.2-.6.4-1,.6-.3.2-.7.3-1,.5-.1,0-.2.2-.3.4,0,.2-.2.3-.3.1,0,0,0,0-.1,0,0,0-.1,0-.2,0-1.5.7-3,1.6-4.4,2.6-.4.3-1,.9-1.7,2-.5.7-1.2,1.3-2.1,1.7-1.1.5-1.9.9-2.3,1.2-1.9,1.3-3.9,2.4-6,3.2-2.7,1.1-4.4,1.7-4.9,1.9-1.6.7-3.3,1.3-5,1.8Z"/>
      <path class="st139" d="M231.3,143.1c0,2.3-.1,4.4-.6,6.3-.6,2.1-1,3.9-1.4,5.6-.6,2.7-1.1,4.6-1.4,5.6-1.2,3.9-2.8,7.8-4.6,11.5,0,0-.2.6-.7,1.6-.5,1.2-1.3,2.2-2.4,3-.1,0-.2.2-.3.3-1.4,2.5-2.6,4.5-3.7,6-.5.6-1,1.5-1.5,2.6-.3.7-.7,1.3-1.3,1.9-.6.7-1.1,1.3-1.4,1.7-1,1.5-2.5,3.6-4.7,6.2-2.4,2.9-4.8,5.8-7.2,8.7-.2.2-.1.2,0,0,1.5-1.3,2.8-2.7,4.1-4.2,0,0,.2-.2.3-.2,0,0,.2,0,.3,0,.2,0,.2.3-.2.7-3.5,4-7.2,7.7-11.1,11.2-.2.2-.9.6-1.9,1.3-.7.4-1.3,1-1.7,1.6,0,0,0,.2,0,.3,0,.1,0,.2.1.3.3.2.6.3,1,.2-9.7,7.1-20.3,12.5-31.8,16.1v-2.9c0,0,0-1.8,0-1.8.2-.5.5-.8.9-.9,6.9-2.2,14-5.5,21.1-9.8.8-.5,1.5-1.1,2.1-1.9.3-.4,1.2-.8,2.7-1.3,0,0,0,0,.1,0,0,0,0,0,0-.1-.1-.8.2-1.1.9-1.2.3,0,.5,0,.7-.2,2-1.4,5.1-4.1,9.3-7.8,1.3-1.1,2.3-2.2,3.1-3.1,1.6-1.9,2.6-3,2.8-3.2,1.4-1.5,2.7-3.3,4.1-5.3.3-.4.6-.8.9-1.1,1.4-1.5,2.6-3.2,3.8-4.9.1-.2.7-1.4,1.8-3.5.6-1.2,1.3-2.3,2.2-3.3.2-.3.4-.6.5-.9.1-.5.2-.9.3-1,.4-.6.9-1,1.5-1.1.3,0,.6-.2.9-.4.3-.2.5-.5.6-.8l7.6-17.6c.7-1,1.2-1.8,1.4-2.3.5-1.3,1.1-3.5,1.8-6.6,0,1.5,0,1.6.3.2.3-1.7.7-3.4,1.1-5.1Z"/>
      <path class="st129" d="M117.5,151.4c0,.2,0,.3-.2.3-3.3.5-6.6.3-9.8-.7-.1,0-.2,0-.3,0-.1,0-.2,0-.3.2l-5.6,5.6c-.2.2-.4.3-.6.3-.2,0-.4,0-.6-.2-1.3-1.1-2.5-2.4-3.7-3.6,0,0-.2-.2-.6-.5-.4-.3-.5-.7-.3-1.3l4.3,4.3c.1.1.3.2.4.2s.3,0,.4-.2l5.9-5.8c0,0,.2-.1.3-.2.1,0,.2,0,.3,0,2.9.9,6.2,1.1,9.7.8.5,0,.8.3.7.9Z"/>
      <path class="st133" d="M160.2,175.8h46.3c-.2,1.5-.4,2.4-.7,2.7-.8,1-1.5,2-2,3.1-.7,1.4-1.3,2.5-1.8,3.2-2.3,3-3.8,4.8-4.4,5.4-.8.8-1.5,1.5-2,2.1-.9,1.2-1.5,2-1.8,2.2-1.4,1.4-2.8,2.8-4.1,4.1,0,0-.3.4-.9,1.1-.5.6-1.2,1.1-2,1.4,0,0-.3.1-.6.4-.2.1-.4.2-.7,0-.1,0-.2,0-.3,0-.1,0-.2,0-.3.1-4.4,3.6-9.2,6.7-14.3,9.3-.8.4-1.6.8-2.3,1.3-.8.5-1.5.9-2.3,1.4-.7.4-.7.7,0,1,.5.2,1.1.2,1.9,0,.7,0,.8,0,.2.4-2.8,1.8-5.7,3.2-8.9,4.1l-.2-2.9v-1.4c0,0,0-.2-.1-.3,0,0-.2-.1-.3-.1h-14.1c-.2,0-.3-.1-.4-.2-.1-.1-.2-.3-.2-.4v-37.5c0-.2,0-.3.2-.4.1-.1.3-.2.4-.2h15.5Z"/>
      <path class="st142" d="M53,198.1h.4c.1.2.2.2.3.3,0,0,.1.1.2.2.2.6.6,1.1,1.2,1.5,0,0,.1.1.2.2,0,0,0,.2,0,.3v.9c0,0-5.9,5.6-5.9,5.6-1.3-.7-2.3-1.7-2.9-3.1l6.5-6Z"/>
      <path class="st149" d="M159.1,221.1v1.3c-3.7,1.5-5.9,2.4-6.6,2.5-2.3.4-4.6,1-6.9,1.6-1.7.5-3.5.8-5.3.9-2.3.1-4.5.4-6.8.7-2.5.4-4.6.5-6.5.5-5.9-.2-11.7-.6-17.6-1.2-1.5-.2-3.3-.5-5.3-1-1.8-.5-3.5-.9-5.3-1.2-.8-.1-1.8-.5-3-1-1-.4-2-.7-3-.9,0,0-.2,0-.3-.1,0,0-.1-.2-.1-.3-.1-.9-.5-1.4-1.2-1.6-.9-.3-1.4-.5-1.5-.5-1.8-.9-3.6-1.6-5.4-2.3-2.3-.8-3.8-1.4-4.5-1.8-1.5-.9-2.8-1.9-3.9-3.1-.5-.6-1.1-1-1.6-1.4-.1,0-.7-.4-1.6-1-.5-.3-1.2-.6-2-.8-1.1-.3-2.1-.8-3.1-1.6-1.2-.9-2.1-1.6-2.8-2.1-1.5-.9-2.8-2.1-4-3.3l.9-.9c.7-.4,1.1-.3,1.3.3.1.3.2.5.3.6.8.8,1.7,1.5,2.6,2.1,2,1.2,4,2.5,5.8,4,0,0,0,0,0,0,0,0,0,0,0,0,0,0,0,0,0,0,0,0,0,0,0,0-.3.3-.2.4.2.2,0,0,.1,0,.2,0,0,0,.1,0,.1,0,.9.6,1.8,1.2,2.7,1.7.1,0,.7.5,1.8,1.4.7.6,1.6.9,2.6.9.5,0,1,.2,1.4.6.5.5.9.8,1.1.9,2.8,1.5,6,2.9,9.5,4,.6.2,1.2.6,1.7,1.2,0,0,.1.2.1.3,0,.1,0,.2,0,.4,0,.5.3.9.9,1.1.5.2,1.2.5,2,1,.7.4,1.3.7,2,.9,9.2,2.4,18.6,3.6,28.1,3.5,1.9,0,6.7-.6,14.4-1.6,3.4-.5,9.5-2.1,18.4-4.9Z"/>
      <path class="st126" d="M60.7,203.3c1.2,1.3,2.6,2.4,4,3.3.7.4,1.6,1.1,2.8,2.1,1,.8,2,1.4,3.1,1.6.8.2,1.4.5,2,.8,1,.6,1.5,1,1.6,1,.6.3,1.1.8,1.6,1.4,1.1,1.2,2.4,2.2,3.9,3.1.7.4,2.3,1,4.5,1.8,1.9.6,3.7,1.4,5.4,2.3,0,0,.5.2,1.5.5.7.2,1.1.8,1.2,1.6,0,.1,0,.2.1.3,0,0,.2.1.3.1,1.1.2,2.1.5,3,.9,1.2.5,2.2.8,3,1,1.8.3,3.5.7,5.3,1.2,2,.5,3.8.9,5.3,1,5.9.6,11.7,1,17.6,1.2,1.9,0,4,0,6.5-.5,2.3-.3,4.5-.6,6.8-.7,1.8-.1,3.6-.4,5.3-.9,2.3-.6,4.6-1.1,6.9-1.6.7-.1,2.9-1,6.6-2.5v2.2c-2.4.6-4.7,1.3-7.1,2.1-2.6.8-5,1.4-7.1,1.8-6.3,1.1-10.1,1.7-11.5,1.8-4.8.3-12.4.2-22.6-.5-2.4-.2-4.2-.4-5.5-.6-.4,0-1-.3-1.8-.8-.6-.3-1.3-.5-2-.6-2.1-.3-4.1-.9-6-1.8-.4-.2-1.3-.5-2.6-.9-1-.3-1.9-.9-2.6-1.8-.2-.2-.3-.3-.5-.4-3.1-1.4-6.3-2.7-9.5-3.9-2.5-1-5.4-2.5-8.7-4.7-3.1-2.1-5.3-3.5-6.5-4.4-2.2-1.5-4.2-3.2-6.2-4.9l1.8-1.6Z"/>
      <path class="st141" d="M58.9,204.9c1.9,1.8,4,3.4,6.2,4.9,1.2.8,3.4,2.3,6.5,4.4,3.3,2.2,6.2,3.7,8.7,4.7,3.2,1.2,6.3,2.5,9.5,3.9.2,0,.4.2.5.4.7.9,1.6,1.5,2.6,1.8,1.3.4,2.2.7,2.6.9,1.9.9,3.9,1.5,6,1.8.7,0,1.4.3,2,.6.8.4,1.5.7,1.8.8,1.3.3,3.1.5,5.5.6,10.2.7,17.8.9,22.6.5,1.4-.1,5.2-.7,11.5-1.8,2.2-.4,4.6-1,7.1-1.8,2.3-.7,4.7-1.4,7.1-2.1v.9c-8.1,3.5-16.5,5.2-25.3,5.1-1.7,0-3.5,0-5.2.2-2.6.3-5.1.3-7.7.2-4.6-.3-6.9-.4-7-.4-4.9-.2-9.7-.8-14.5-1.9-1.9-.4-3.6-1.2-5.1-2.3-.2-.1-.4-.2-.7-.2-1.2,0-2.2-.3-3-1-1.4-1-2.1-1.5-2.2-1.6-1.5-.8-3.1-1.4-4.7-2-.8-.3-1.6-.6-2.3-1-.9-.5-1.6-.9-2.3-1.2-3.2-1.3-6-2.8-8.5-4.5-.2-.1-.6-.5-1.2-1.1-.4-.4-.9-.7-1.4-.9-1.3-.6-2-.9-2.1-.9-2.6-1.6-5.1-3.5-7.3-5.6-.2-.2-.4-.3-.6-.3h-.5s1.3-1.3,1.3-1.3Z"/>
      <path class="st142" d="M57.6,206.2h.5c.2,0,.4.1.6.3,2.2,2.1,4.7,3.9,7.3,5.6,0,0,.7.3,2.1.9.5.2,1,.5,1.4.9.6.6,1,1,1.2,1.1,2.5,1.7,5.4,3.3,8.5,4.5.7.3,1.4.7,2.3,1.2.7.4,1.5.8,2.3,1,1.6.5,3.2,1.2,4.7,2,0,0,.8.5,2.2,1.6.9.6,1.9,1,3,1,.2,0,.5,0,.7.2,1.5,1.1,3.3,1.9,5.1,2.3,4.8,1,9.6,1.7,14.5,1.9,0,0,2.4.1,7,.4,2.5.1,5.1,0,7.7-.2,1.7-.2,3.5-.3,5.2-.2,8.8,0,17.2-1.7,25.3-5.1v1.3c0,0,0,1.8,0,1.8-3.4,1.2-6.6,1.9-9.7,2.2-5.6.5-10,.9-13.1,1.3-7.2.8-14.5.9-21.7.3-4.9-.4-9.8-1-14.7-1.7,0,0-.5,0-1.5-.1-1.2,0-2.2-.5-3.2-1.2-.5-.4-1.5-.7-3.1-1.1,0,0-.7,0-2-.1-1,0-1.6-.6-2-1.5,0-.1,0-.2-.2-.3,0,0-.2-.1-.3-.2-1.1-.5-2.3-.9-3.4-1.4-.7-.3-1.7-.8-3.3-1.7-1.2-.6-2.4-1.2-3.6-1.6-1.6-.6-2.8-1.1-3.6-1.5-6.1-3.4-11.6-7-16.2-10.9-.7-.6-1.3-1-1.7-1.1l1.8-1.6Z"/>
      <path class="st134" d="M55.8,207.8c.4.1.9.5,1.7,1.1,4.7,3.9,10.1,7.5,16.2,10.9.8.5,2,1,3.6,1.5,1.2.4,2.4,1,3.6,1.6,1.5.8,2.6,1.4,3.3,1.7,1.1.5,2.3,1,3.4,1.4,0,0,.2.1.3.2,0,0,.1.2.2.3.3,1,1,1.5,2,1.5,1.3,0,2,0,2,.1,1.6.3,2.7.7,3.1,1.1.9.7,2,1.2,3.2,1.2,1,0,1.5.1,1.5.1,4.9.7,9.8,1.2,14.7,1.7,7.3.7,14.5.6,21.7-.3,3.1-.4,7.5-.8,13.1-1.3,3-.3,6.3-1,9.7-2.2v2.9c-7.7,2.5-14.7,4-21,4.7-31.9,3.2-60.1-5.2-84.7-25.1-.2-.2-.3-.5-.3-.8l2.7-2.4Z"/>
      <circle class="st131" cx="125" cy="125" r="111.7"/>
      <path class="st144" d="M176.4,76.9c.3,7.6-1.3,15.1-4.7,22.5-3.8,8.2-8.3,15.5-13.5,21.8-4.8,5.8-10.3,11.3-16.5,16.5-.6.5-.9,1.1-1.1,1.8l-3.2,14.8c0,.2-.2.5-.3.6l-13.7,12.2c-.7-.3-1.2-1.1-1.4-2.2-.2-.8-.9-2.9-2.1-6.3l-2.3-7.2c0-.6-.2-.9-.7-.9-3.5.3-6.8,0-9.7-.8-.1,0-.2,0-.3,0-.1,0-.2,0-.3.2l-5.9,5.8c-.1.1-.3.2-.4.2s-.3,0-.4-.2l-4.3-4.3c-.5-.3-.7-.6-.8-1,0-.3.1-.6.4-1,1.6-1.8,3.3-3.7,4.8-5.5,0,0,.1-.2.1-.3s0-.3,0-.4c-1.3-2.6-2-5.2-1.9-7.8.3-.6,0-1.1-.5-1.3-3.2-1.1-8.3-2.7-15.4-5-.7-.4-.8-.9-.3-1.4,3.7-4,7.3-8.1,10.9-12.3.6-.6,1.2-1.1,1.9-1.3.8-.3,1.5-.5,2.3-.6l13.1-3.2c.2,0,.4-.2.6-.4,10.6-13.1,23.6-23.1,39-30.1,5-2.1,10.1-3.6,15.4-4.5,3.1-.5,6.5-.6,10.3-.2,1,.1,1.4.7,1.2,1.7ZM128.4,117.5c3.3,5,7.9,6.3,13.6,3.9.8-.3,1.5-.9,2.2-1.7,3.6-4.1,3.9-8.4.9-13-2.5-2.9-5.4-4.2-8.6-3.9-3.1.3-5.5,1.7-7.4,4.1-2.2,2.9-2.4,6.4-.7,10.6Z"/>
      <path class="st144" d="M53,198.1l-6.5,6c-1.5-.9-2.7-2-3.6-3.4,15.3-14.2,30.5-28.4,45.8-42.7.9-.8,1.7-1.1,2.3-.9.8.2,1.5,1,2.1,2.2.1.2.2.5.1.8,0,.3-.2.5-.4.7l-39.9,37.4Z"/>
      <path class="st144" d="M39.9,197.1c-1.2-1.1-2.3-2.4-3.1-3.8l2.7-2.5,1.3-1.3,4.1-3.9,28.7-26.7c.7-.7,1.4-.7,1.9,0l1.8,2.1c.1.2.2.4.2.6,0,.2-.1.4-.3.6l-37.3,34.9Z"/>
      <path class="st144" d="M61.6,202.4l-.9.9-1.8,1.6-1.3,1.3-1.8,1.6-2.7,2.4c-1.4-.8-2.7-1.8-3.8-3.1l5.9-5.6,32.3-30.1c.2-.2.4-.3.6-.3.2,0,.5,0,.7.2,1.2.7,1.9,1.7,2.2,2.8,0,.1,0,.2,0,.3,0,.1,0,.2-.2.3l-29.3,27.6Z"/>
      <path class="st121" d="M57.9,93.8c-9.4,9.6-18.9,19.1-28.5,28.7-.7.7-1.1.6-1.1-.5l-.2-5.2c0-.3,0-.5.2-.7.9-1.4,2.1-2.9,3.8-4.5,2.3-2.2,7-6.9,14.2-14.2,6.2-6.3,12.6-12.5,19-18.7.3-.3,1-1.1,2.2-2.3.5-.6,1.3-1.3,2.2-2.3,4.1-4.2,8.3-8.4,12.5-12.5,0,0,0,0,0,0,0,0,0,0,.1,0,0,0,0,0,.1,0s0,0,0,0c.5,1.5.8,3,.8,4.5,0,2.7.1,4.1.1,4.2.2,2.5,0,5.1-.5,7.6,0,.2-.2.4-.3.6l-53.1,53.5c-.9.9-1.3.7-1.4-.5,0-1.3-.2-2.6-.6-3.8-.3-1.3,0-2.3.8-3.1.4-.4.7-.6.7-.6,17.4-17.4,34.9-34.8,52.3-52.3.2-.2.3-.3.3-.5.2-.4,0-.5-.5-.4-.2,0-.3.1-.5.3-11.3,11.1-18.9,18.7-22.8,22.6Z"/>
      <path class="st120" d="M96.8,113.5c-.8.2-1.6.4-2.3.6-.7.2-1.3.7-1.9,1.3-3.6,4.1-7.2,8.2-10.9,12.3-.5.6-.4,1,.3,1.4-.2.6,0,1.1.5,1.3,4.3,1.6,9.5,3.3,15.5,5,0,2.6.6,5.2,1.9,7.8,0,.1,0,.2,0,.4s0,.2-.1.3c-1.6,1.8-3.2,3.6-4.8,5.5-.3.4-.5.7-.4,1,0,.4.3.7.8,1-.2.5,0,1,.3,1.3.4.3.6.5.6.5,1.2,1.3,2.4,2.5,3.7,3.6.2.1.4.2.6.2.2,0,.4-.1.6-.3l5.6-5.6c0,0,.2-.1.3-.2.1,0,.2,0,.3,0,3.2.9,6.5,1.2,9.8.7.2,0,.2-.1.2-.3l2.3,7.2c.2,1,0,1.9-.4,2.7-4.1,3.9-11.5,11.4-22.4,22.5-1,1.1-1.7,1.7-2,2-7.2,7.5-14.5,14.9-21.8,22.1,0,0,0,0,0,.1,0,0,0,0,0,.1,0,0,0,0,0,.1,0,0,0,0,.1,0,2.5,1.3,4.9,2.6,7.3,4,.4.2.6.5.6.7,0,0,0,.2,0,.2,0,0,0,.1.1.2,0,0,.1.1.2.1,0,0,.2,0,.2,0,1,0,1.7.3,2.3,1,.2.2.4.4.5.4l9.4,3.8c.2,0,.4.2.5.4,0,.2.1.4,0,.6-.2.5,0,.9.3,1.2.1.1.3.3.4.5.1.2.3.2.4,0,0,0,0-.1,0-.2,0,0,0-.2-.1-.2-.8-.8-.7-1.6.2-2.4,0,0,.2-.2.2-.3,0-.1,0-.2,0-.3,0-.8-.2-1.6-.7-2.3,0-.2-.3-.3-.5-.4l-5-2.1c0,0-.2,0-.2-.2,0,0,0-.2-.1-.3,0,0,0-.2,0-.3,0,0,0-.2.2-.3l17-17.2c.7-.7,1.3-.6,1.7.3,0,.2.3.5.8.8.3.3.6.5.7.9.7,1.5.9,2.8.7,3.9-.2,1.1.1,1.8.9,2l-14.2,14.3c-.6.6-.5,1,.4,1.1,3.9.6,7.7,1.2,11.6,1.8.1,0,.7,0,1.6,0,.6,0,1.1.2,1.6.7.2.2.4.3.6.3,5.6.9,10.2,1.2,13.7.8,4.2-.5,8.5-1,12.7-1.5,6.5-.8,12.7-2.4,18.7-4.8,0,0,.2,0,.2,0,0,0,.1,0,.2.1.2.3.4.5.6.4l.2,2.9-.2,1.8c-8.9,2.8-15,4.4-18.4,4.9-7.6,1.1-12.4,1.6-14.4,1.6-9.5.1-18.9-1-28.1-3.5-.7-.2-1.3-.5-2-.9-.8-.5-1.4-.8-2-1-.6-.2-.9-.6-.9-1.1,0-.1,0-.3,0-.4,0-.1,0-.2-.1-.3-.6-.6-1.1-1-1.7-1.2-3.6-1.1-6.7-2.5-9.5-4-.2-.1-.6-.4-1.1-.9-.4-.4-.9-.6-1.4-.6-1.1,0-2-.4-2.6-.9-1.1-.9-1.7-1.4-1.8-1.4-.9-.5-1.9-1.1-2.7-1.7,0,0,0,0-.1,0,0,0-.1,0-.2,0-.4.2-.4.1-.2-.2,0,0,0,0,0,0,0,0,0,0,0,0,0,0,0,0,0,0,0,0,0,0,0,0-1.8-1.5-3.8-2.8-5.8-4-1-.6-1.9-1.2-2.6-2.1-.1-.1-.2-.3-.3-.6-.2-.6-.6-.6-1.3-.3l29.3-27.6c0,0,.1-.2.2-.3,0-.1,0-.2,0-.3-.3-1.2-1-2.1-2.2-2.8-.2-.1-.4-.2-.7-.2-.2,0-.5.1-.6.3l-32.3,30.1v-.9c0-.1,0-.2-.1-.3,0,0-.1-.2-.2-.2-.5-.4-.9-.9-1.2-1.5,0,0,0-.2-.2-.2,0,0-.2-.1-.3-.2h-.4c0-.1,39.9-37.6,39.9-37.6.2-.2.3-.4.4-.7,0-.3,0-.5-.1-.8-.6-1.2-1.3-1.9-2.1-2.2-.7-.2-1.5.1-2.3.9-15.2,14.2-30.5,28.5-45.8,42.7-1.3-.9-2.4-2.1-3-3.6l37.3-34.9c.2-.2.3-.4.3-.6,0-.2,0-.4-.2-.6l-1.8-2.1c-.5-.6-1.2-.6-1.9,0l-28.7,26.7c-2.9-3.9-5.4-8-7.7-12.3,0,0-.1-.2-.2-.2,0,0-.2,0-.3,0-1.4,0-2.2-.4-2.7-1.3-.7-1.6-1.4-3.3-2.1-4.9,0-.2-.5-.9-1.2-2.2-.4-.7-.7-1.5-.8-2.3-.1-.6-.5-1.1-1-1.2-.1,0-.2,0-.3-.2,0,0-.1-.2-.2-.2l-1.5-2.9c-.4-.7-.4-1.7,0-2.9.2-.5,0-1-.4-1.3,0,0-.2-.2-.2-.2,0,0,0-.2,0-.3.1-.9-.2-1.7-.8-2.3-1.3-1.4-1.6-2.4-.9-3.1l3.5-3.8c17.8-17.6,35.5-35.3,53.2-53,.3-.3.6-.5.9-.5.4,0,.6.2.7.6,0,0,0,0,0,.1,0,0,0,0,0,0,0,0,0,0,.1,0,0,0,0,0,.1,0,.6-.2,1.4-.3,2.5-.3,7.6,0,15.3,0,23.2,0,.6,0,.7.2.3.6l-20,20.3c-.5.5-.4.7.3.8l6.4.2c.2,0,.4,0,.6.2h.1c0,.2,0,.3,0,.3-.8.2-.7.3.2.4ZM64.7,125.1c1.2-1.2,2.5-2.5,3.8-3.9.3-.3.4-.6.4-1v-6.6c0-.5-.2-.5-.5-.2l-36.2,36.2c0,0-.1.2-.2.3,0,.1,0,.2,0,.3l2.3,4.8s0,0,0,.1c0,0,0,0,.1,0,0,0,.1,0,.2,0,0,0,.1,0,.1,0,8.8-8.7,17.4-17.4,25.9-26,.4-.4,1.7-1.7,3.9-3.8Z"/>
      <path class="st152" d="M136.9,24.1c1.3.2,2.6.3,3.9.5,1.2.1,2.5.4,3.9.8,1.2.4,2.4.7,3.7,1,1.3.3,2.5.6,3.6,1,2.7,1,5.5,1.9,8.2,2.6,1.2.3,4.5,1.8,9.9,4.3v2.7c0,0,0,4.7,0,4.7,0,0,0,.1,0,.2,0,0,0,.1.1.2,0,0,.1,0,.2.1,0,0,.1,0,.2,0h5c0,0,.2,0,.3,0,.1,0,.2.1.3.2,3.6,2.9,5.8,4.6,6.5,5,1.7.9,3.1,2.3,4.4,4.1,0,0,.2.2.3.2.1,0,.2,0,.3,0,1.3-.2,2.6-.1,3.7,0,.9.2,1.8.7,2.5,1.5,4.2,4.6,8.4,9.7,12.6,15.2,0,.1.2.3.2.5,0,.2,0,.5.1.7l.3,3.2c0,.2,0,.3,0,.4,0,.1,0,.2,0,.3l-.2.3c-.1.2-.2.5-.2.7l.3,7.7v10.9c0,1,.4,1.1,1.1.4l4.5-4.5c0,0,.1-.1.2-.1,0,0,.2,0,.2,0,0,0,.2,0,.2,0,0,0,.1.1.2.2,1.3,2.2,2.4,4.5,3.2,6.9,0,0,0,.2.2.3,0,0,.2.1.3.2.4.1.4.3.1.6-12,12-24.1,24.1-36.4,36.2,0,0-.2.2-.3.2-.1,0-.3,0-.4,0s-.3,0-.4-.2c-.1,0-.2-.2-.3-.3l-.9-1.9c0-.2-.3-.3-.5-.5-.8-.5-.9-1.1-.3-1.8,1.2-1.6,2.7-3.2,4.3-4.8,2.7-2.7,4.2-4.2,4.5-4.5,1.7-1.8,3.5-3.6,5.2-5.4.2-.2.2-.3-.1-.3-.2,0-.4.1-.6.3-4,4.2-8.1,8.2-12.2,12.2,0,0-.4.5-1.1,1.3-.4.5-1,.9-1.6,1.2-.2.1-.4.3-.5.4-.9,1.2-1.9,1.3-2.9.3,0,0-.2-.1-.3-.1s-.2,0-.3.1l-43.6,43.6c-.2.2-.5.4-.8.5-.3.1-.6.2-1,.1l-2.9-.2c0-.4.4-.9.9-1.4,2.2-1.9,4.7-4.3,7.4-7,4.6-4.7,7-7.1,7.1-7.2,17.9-17.9,35.8-35.8,53.7-53.7.3-.3.5-.6.4-.9,0-.3-.2-.3-.4,0l-70,69.9c-.7.6-1.4.6-2.1,0-.7-.6-1-1.4-1.1-2.3-.1-1.2,0-2,.2-2.3.7-.8.7-1.3,0-1.4,0,0-.2,0-.2-.1,0,0-.1-.2-.1-.3l-.4-5.6c.5-.8.6-1.7.4-2.7,1.2,3.3,1.9,5.4,2.1,6.3.3,1.1.7,1.8,1.4,2.2-.3.5-.2.9.2,1.1,0,0,.2,0,.3,0,.1,0,.2,0,.3-.1,4.8-3.8,9.3-7.9,13.6-12.3.2-.2.3-.4.3-.6l3.3-15.2c0-.2.2-.4.4-.6,9.5-7.9,17.7-17,24.4-27.3,4.1-6.2,7-12.3,8.8-18.3,1.7-5.5,2.5-10.9,2.5-16.2,0-1-.4-1.2-1.2-.7.2-1-.2-1.6-1.2-1.7-3.8-.4-7.2-.3-10.3.2-5.3.9-10.5,2.4-15.4,4.5-.1-.2-.3-.3-.5-.3,0,0,0,0-.1,0,0,0,0,0,0,0,0,0,0,0,0,0,0,0,0,0,0,0,.4-1.2,1.3-1.9,2.5-1.9,1,0,1.5-.4,1.7-1.1.1-.4,0-1-.5-1.6-1-1.4-2-2.7-3-4.1-.9-1.3-2-2.6-3.2-4-1.9-2.2-3.5-4.1-4.6-5.9-.7-1-1.3-1.9-1.9-2.5-.9-1.1-1.5-1.9-1.9-2.5-1.5-2.3-3.1-4.5-5-6.6-.6-.6-1-1.2-1.1-1.6-.5-1.2,0-1.8,1.6-1.8,0,0,0,0,.1,0,0,0,0,0,.1,0,0,0,0,0,0-.1,0,0,0,0,0-.1l-1.1-2.8c-.4-1-1-1.1-1.9-.2-.7.6-1.5.6-2.5,0-.4-.3-.4-.5.1-.5h6c.9,0,1.5-.5,1.8-1.3.5-1.4.8-2.9.7-4.5,0-1.6,0-2.4,0-2.5,0-3.2,0-6.4,0-9.5Z"/>
      <path class="st123" d="M207.2,82.3c.1.5.4.8.9.6.1,0,.2,0,.3,0s.2,0,.3.1c1.4,1.5,2.5,3.2,3.4,5.1,0,.1.1.2.2.3,0,0,.2.1.3.2.1,0,.2,0,.4,0,.1,0,.2,0,.3-.2l2-1.9c0,0,.2-.1.3-.2,0,0,.2,0,.3,0,0,0,.2,0,.3.1,0,0,.1.1.2.2,1.2,2.3,2.2,4.7,3,7.2,0,.1,0,.2.2.3,0,0,.2.1.3.1h.5c-.9.5-1.1.9-.7,1.3.4.5.7.7.7.8.4.8.8,1.9,1.1,3.2,1.7,6.6,2.8,13.1,3.3,19.4.4,5,.5,9.7.3,14.4-.3,7-1.4,13.9-3.4,20.7-1.4,4.9-3.3,10.3-5.7,16.2-.4.9-.8,1.7-1.2,2.3-.5.7-.8,1.2-1,1.6-.2.6-.5,1.2-.7,1.8h-6.3c0,0-46.3,0-46.3,0-.2-2-1.3-3.1-3.1-3-3.5,0-7.1,0-10.6-.1-.4,0-.8,0-1.2.2-.4.2-.8.3-1.3.4-.2,0-.4,0-.7-.1-.9-.5-1.6-.3-2.3.4-.5.5-.9.9-1.4,1.4-9.4,9.4-18.9,18.8-28.3,28.3-.8-.2-1.1-.9-.9-2,.2-1.2,0-2.5-.7-3.9-.1-.3-.4-.6-.7-.9-.4-.4-.7-.6-.8-.8-.4-1-.9-1.1-1.7-.3l-17,17.2c0,0-.1.2-.2.3s0,.2,0,.3c0,0,0,.2.1.3,0,0,.1.1.2.2l5,2.1c.3.1.4.3.5.4.5.7.7,1.5.7,2.3,0,.1,0,.2,0,.3,0,.1-.1.2-.2.3-.9.8-.9,1.6-.2,2.4s.1.1.1.2c0,0,0,.2,0,.2-.1.2-.3.2-.4,0-.1-.2-.3-.4-.4-.5-.4-.3-.5-.7-.3-1.2,0-.2,0-.4,0-.6,0-.2-.3-.4-.5-.4l-9.4-3.8c-.2,0-.4-.2-.5-.4-.5-.6-1.3-1-2.3-1,0,0-.2,0-.2,0,0,0-.1,0-.2-.1,0,0,0-.1-.1-.2,0,0,0-.2,0-.2,0-.3-.2-.5-.6-.7-2.3-1.3-4.8-2.6-7.3-4,0,0,0,0-.1,0,0,0,0,0,0-.1,0,0,0,0,0-.1,0,0,0,0,0-.1,7.3-7.3,14.6-14.6,21.8-22.1.3-.3.9-.9,2-2,10.8-11.1,18.3-18.6,22.4-22.5l.4,5.6c0,0,0,.2.1.3,0,0,.1.1.2.1.8.1.8.6,0,1.4-.3.3-.3,1.1-.2,2.3,0,.9.5,1.7,1.1,2.3.7.6,1.4.6,2.1,0,.3.2.6.4.9.4l2.9.2c.3,0,.7,0,1-.1.3-.1.6-.3.8-.5l43.6-43.6c0,0,.2-.1.3-.1s.2,0,.3.1c1.1,1,2,.9,2.9-.3.1-.2.3-.3.5-.4.6-.3,1.1-.7,1.6-1.2.7-.8,1.1-1.3,1.1-1.3,4.2-4,8.2-8.1,12.2-12.2.2-.2.4-.3.6-.3.3,0,.3,0,.1.3-1.7,1.8-3.5,3.6-5.2,5.4-.3.4-1.9,1.9-4.5,4.5-1.6,1.6-3.1,3.2-4.3,4.8-.6.7-.5,1.3.3,1.8.2.1.4.3.5.5l.9,1.9c0,.1.2.2.3.3.1,0,.2.2.4.2s.3,0,.4,0c.1,0,.2,0,.3-.2,12.3-12.1,24.4-24.2,36.4-36.2.3-.3.3-.5-.1-.6-.1,0-.2,0-.3-.2,0,0-.1-.2-.2-.3-.8-2.4-1.9-4.7-3.2-6.9,0,0-.1-.1-.2-.2,0,0-.2,0-.2,0,0,0-.2,0-.2,0,0,0-.2,0-.2.1l-4.5,4.5c-.7.7-1,.6-1-.4v-10.9Z"/>
      <path class="st122" d="M160.2,175.8h-15.5c-.2,0-.3.1-.4.3-.1.1-.2.3-.2.4v37.5c0,.2,0,.3.2.4.1.1.3.2.4.2h14.1c.1,0,.2,0,.3.2,0,0,.1.2.1.3v1.4c-.2.1-.4,0-.6-.4,0,0,0-.1-.2-.1,0,0-.2,0-.2,0-6,2.4-12.2,4-18.7,4.8-4.2.5-8.5,1-12.7,1.5-3.5.4-8.1.1-13.7-.8-.2,0-.4-.1-.6-.3-.5-.5-1-.7-1.6-.7-1,0-1.5,0-1.6,0-3.9-.6-7.7-1.2-11.6-1.8-.9-.1-1-.5-.4-1.1l14.2-14.3c9.4-9.4,18.9-18.9,28.3-28.3.5-.4.9-.9,1.4-1.4.7-.7,1.5-.9,2.3-.4.2.1.5.2.7.1.4,0,.8-.2,1.3-.4.4-.2.8-.3,1.2-.2,3.5.1,7.1.2,10.6.1,1.8,0,2.8,1,3.1,3Z"/>
    </g>
  </g>
</svg>