<?xml version="1.0" encoding="UTF-8"?><svg id="Layer_1" xmlns="http://www.w3.org/2000/svg" width="128" height="128" viewBox="0 0 128 128"><defs><style>.cls-1{fill:#f79534;}.cls-2{fill:#384182;}.cls-3{fill:#f0513a;}.cls-4{fill:#fff;}</style></defs><circle class="cls-4" cx="64" cy="64" r="64"/><path class="cls-2" d="M60.44,92.5l-23.28,16.71,14.78-68,8.5,51.29ZM60.91,92.34l14.18.18-22.6-51.06,8.42,50.87ZM76.42,91.22l10.85-40.23-4.11-5.02-6.75,45.25ZM71.19,28.16l-17.86,12.03,26.1-8.45-8.24-3.58ZM68.94,28.16l-11.09.37-1.62,4.63,12.71-5Z"/><path class="cls-1" d="M82.39,44.42l-28.59-3.92,25.76-8.11,2.82,12.03ZM75.61,29.31l1.57-4.26-8.24-3.58,6.67,7.85ZM77.99,24.62l1.86,6.7,10.99-2.9-12.84-3.79Z"/><path class="cls-3" d="M75.72,92.26l-22.91-51.26,29.87,4.18-6.96,47.08ZM70.33,28.16l-14.12,5.52-3.4,6.28,17.52-11.8ZM61.57,23.97l-3.53,3.9,11.72-.29-8.19-3.61ZM67.74,20.94l-5.6,2.59,12.76,5.62-7.17-8.21ZM74.12,20.6h-6.02l9.31,3.61-3.3-3.61ZM77.6,25.38l-1.44,4.29,2.88,1.39-1.44-5.68Z"/></svg>