<?xml version="1.0" encoding="UTF-8"?>
<svg id="Layer_2" xmlns="http://www.w3.org/2000/svg" xmlns:xlink="http://www.w3.org/1999/xlink" version="1.1" viewBox="0 0 250 250">
  <!-- Generator: Adobe Illustrator 29.0.1, SVG Export Plug-In . SVG Version: 2.1.0 Build 192)  -->
  <defs>
    <style>
      .st0 {
        fill: none;
      }

      .st1 {
        fill: url(#linear-gradient);
      }

      .st2 {
        fill: #121312;
      }

      .st3 {
        clip-path: url(#clippath);
      }
    </style>
    <clipPath id="clippath">
      <circle class="st0" cx="125" cy="125" r="122.5"/>
    </clipPath>
    <linearGradient id="linear-gradient" x1="-1.2" y1="23.4" x2="286.5" y2="268.8" gradientTransform="translate(0 250) scale(1 -1)" gradientUnits="userSpaceOnUse">
      <stop offset="0" stop-color="#12ff80"/>
      <stop offset=".1" stop-color="#15fd85"/>
      <stop offset=".3" stop-color="#1ff896"/>
      <stop offset=".5" stop-color="#30f1b2"/>
      <stop offset=".7" stop-color="#48e7d9"/>
      <stop offset=".9" stop-color="#5fddff"/>
    </linearGradient>
  </defs>
  <g id="Layer_1-2">
    <g class="st3">
      <rect class="st1" x="-9.3" y="-17.5" width="257.2" height="282.5"/>
    </g>
    <g>
      <path class="st2" d="M193.6,125h-16.7c-5,0-9,4.1-9,9v24.3c0,5-4.1,9-9,9h-66.6c-5,0-9,4.1-9,9v16.7c0,5,4.1,9,9,9h70.4c5,0,9-4.1,9-9v-13.4c0-5,4.1-8.5,9-8.5h12.9c5,0,9-4.1,9-9v-28.2c0-5-4.1-8.9-9-8.9h0Z"/>
      <path class="st2" d="M83.1,91.7c0-5,4.1-9,9-9h66.5c5,0,9-4.1,9-9v-16.7c0-5-4.1-9-9-9h-70.4c-5,0-9,4.1-9,9v12.9c0,5-4.1,9-9,9h-12.9c-5,0-9,4.1-9,9v28.2c0,5,4.1,8.8,9.1,8.8h16.7c5,0,9-4.1,9-9v-24.2s0,0,0,0Z"/>
      <path class="st2" d="M117.6,107.4h16.1c5.2,0,9.5,4.3,9.5,9.5v16.1c0,5.2-4.3,9.5-9.5,9.5h-16.1c-5.2,0-9.5-4.3-9.5-9.5v-16.1c0-5.2,4.3-9.5,9.5-9.5h0Z"/>
    </g>
  </g>
</svg>