<?xml version="1.0" encoding="UTF-8"?>
<svg id="Layer_1" xmlns="http://www.w3.org/2000/svg" version="1.1" viewBox="0 0 250 250">
  <!-- Generator: Adobe Illustrator 29.0.1, SVG Export Plug-In . SVG Version: 2.1.0 Build 192)  -->
  <defs>
    <style>
      .st0 {
        fill: #fff;
      }

      .st1 {
        fill: #4a21ef;
      }
    </style>
  </defs>
  <path class="st1" d="M125,2.5h0c67.7,0,122.5,54.8,122.5,122.5h0c0,67.7-54.8,122.5-122.5,122.5h0C57.3,247.5,2.5,192.7,2.5,125h0C2.5,57.3,57.3,2.5,125,2.5Z"/>
  <path class="st0" d="M116.5,56.4c-4.2,0-8.2,1.7-11.1,4.6l-46.4,46.4c-1.8,1.8-2.6,4.1-2.6,6.4s.9,4.6,2.6,6.4l30.4,30.4v-53.8c0-4,3.2-7.3,7.2-7.3h63.9l33-33h-77.1Z"/>
  <path class="st0" d="M89.4,160.6h63.9c4,0,7.3-3.3,7.3-7.3v-53.8l30.4,30.4c1.8,1.8,2.6,4.1,2.6,6.4s-.9,4.6-2.6,6.4l-46.4,46.4c-3,3-7,4.6-11.1,4.6H56.4s33-33,33-33Z"/>
</svg>