<?xml version="1.0" encoding="UTF-8"?>
<svg id="Layer_1" xmlns="http://www.w3.org/2000/svg" version="1.1" viewBox="0 0 250 250">
  <!-- Generator: Adobe Illustrator 29.0.1, SVG Export Plug-In . SVG Version: 2.1.0 Build 192)  -->
  <defs>
    <style>
      .st0 {
        fill: #fff;
      }

      .st1 {
        isolation: isolate;
        opacity: .6;
      }

      .st1, .st2 {
        fill: #2db1ff;
      }
    </style>
  </defs>
  <circle class="st0" cx="125" cy="125" r="122.5"/>
  <g>
    <path class="st1" d="M98.8,175.1l21.8-26.8c2.3-2.8,6.5-2.8,8.8,0l21.8,26.8c1.7,2.1,1.7,5.1,0,7.1l-21.8,26.8c-2.3,2.8-6.5,2.8-8.8,0l-21.8-26.8c-1.7-2.1-1.7-5.1,0-7.1Z"/>
    <path class="st2" d="M132.6,109.6l21.8-26.8c2.3-2.8,6.5-2.8,8.8,0l21.8,26.8c1.7,2.1,1.7,5.1,0,7.1l-21.8,26.8c-2.3,2.8-6.5,2.8-8.8,0l-21.8-26.8c-1.7-2.1-1.7-5.1,0-7.1Z"/>
    <path class="st2" d="M65,109.6l21.8-26.8c2.3-2.8,6.5-2.8,8.8,0l21.8,26.8c1.7,2.1,1.7,5.1,0,7.1l-21.8,26.8c-2.3,2.8-6.5,2.8-8.8,0l-21.8-26.8c-1.7-2.1-1.7-5.1,0-7.1Z"/>
    <path class="st2" d="M98.8,67.8l21.8-26.8c2.3-2.8,6.5-2.8,8.8,0l21.8,26.8c1.7,2.1,1.7,5.1,0,7.1l-21.8,26.8c-2.3,2.8-6.5,2.8-8.8,0l-21.8-26.8c-1.7-2.1-1.7-5.1,0-7.1Z"/>
  </g>
</svg>