<?xml version="1.0" encoding="UTF-8"?>
<svg id="Layer_1" xmlns="http://www.w3.org/2000/svg" version="1.1" viewBox="0 0 250 250">
  <!-- Generator: Adobe Illustrator 29.0.1, SVG Export Plug-In . SVG Version: 2.1.0 Build 192)  -->
  <defs>
    <style>
      .st0 {
        fill: #0c0c4f;
      }

      .st0, .st1, .st2 {
        fill-rule: evenodd;
      }

      .st1 {
        fill: #fafafa;
      }

      .st2 {
        fill: #ec796b;
      }
    </style>
  </defs>
  <path class="st0" d="M2.5,125c0,67.7,54.8,122.5,122.5,122.5s122.5-54.8,122.5-122.5S192.7,2.5,125,2.5,2.5,57.3,2.5,125Z"/>
  <path class="st1" d="M71,96.1l3-9.3c.6-1.9,2.1-3.4,4-4l9.4-2.9c1.3-.4,1.3-2.2,0-2.6l-9.3-3c-1.9-.6-3.4-2.1-4-4l-2.9-9.4c-.4-1.3-2.2-1.3-2.6,0l-3,9.3c-.6,1.9-2.1,3.4-4,4l-9.4,2.9c-1.3.4-1.3,2.2,0,2.6l9.3,3c1.9.6,3.4,2.1,4,4l2.9,9.4c.4,1.3,2.2,1.3,2.6,0Z"/>
  <path class="st2" d="M219.4,90.7c-3.9-4.3-9.9-6.8-15.8-7.8-5.9-1-12.1-.9-18,.2-11.8,2-22.6,6.9-31.9,12.9-4.9,3-9,6.4-13.3,9.9-2.1,1.8-4,3.6-5.9,5.5l-5.4,5.3c-5.8,6.1-11.6,11.7-17.2,16.3-5.6,4.6-10.8,8.1-16,10.5-5.1,2.4-10.7,3.9-17.8,4.1-7.1.3-15.5-1-24.5-3.2-9.1-2.1-18.6-5.1-29.2-7.7,3.7,10.3,9.3,19.4,16.5,27.7,7.3,8.2,16.3,15.6,27.9,20.5,11.5,5,25.9,6.8,39.3,4.1,13.5-2.6,25.4-8.8,34.9-16.1,9.6-7.3,17.4-15.6,23.9-24.3,1.8-2.4,2.8-3.7,4.1-5.6l3.6-5.4c2.5-3.3,4.8-7.1,7.3-10.4,4.9-6.9,9.7-13.7,15.3-20.1,2.8-3.2,5.8-6.3,9.3-9.2,1.7-1.4,3.6-2.8,5.7-4.1,2.1-1.4,4.4-2.4,7.1-3.3Z"/>
  <path class="st1" d="M219.4,90.7c-4.2-10.5-11.9-19.3-22.3-25.8-10.3-6.4-24.6-9.7-38.8-6.9-7,1.4-13.8,4-19.8,7.4-5.9,3.5-11.3,7.6-15.9,12.1-2.3,2.2-4.4,4.6-6.5,6.9l-5.4,6.8-8.3,11c-10.6,14.2-22,30.8-40.7,35.7-18.3,4.8-26.3.6-37.5-1.2,2,5.3,4.6,10.4,8,14.9,3.4,4.6,7.4,8.9,12.3,12.6,2.5,1.8,5.1,3.5,8.1,5,2.9,1.4,6.1,2.7,9.4,3.7,6.7,1.8,14.2,2.5,21.5,1.5,7.3-1,14.3-3.3,20.4-6.4,6.1-3,11.5-6.7,16.3-10.7,9.5-7.9,16.9-16.6,23.1-25.4,3.1-4.4,6-8.9,8.6-13.4l3.1-5.3c.9-1.6,1.9-3.1,2.9-4.6,3.9-5.9,7.8-10.6,12.4-14.1,4.6-3.6,11-6.3,19.6-6.9,8.5-.6,18.4.5,29.2,3Z"/>
  <path class="st2" d="M173.2,177.9c0,7.7,6.3,14,14,14s13.9-6.2,13.9-14-6.2-14-13.9-14-14,6.3-14,14Z"/>
</svg>