<?xml version="1.0" encoding="UTF-8"?>
<svg id="Cube" xmlns="http://www.w3.org/2000/svg" xmlns:svg="http://www.w3.org/2000/svg" xmlns:rdf="http://www.w3.org/1999/02/22-rdf-syntax-ns#" xmlns:dc="http://purl.org/dc/elements/1.1/" xmlns:cc="http://creativecommons.org/ns#" version="1.1" viewBox="0 0 256 256">
  <!-- Generator: Adobe Illustrator 29.3.1, SVG Export Plug-In . SVG Version: 2.1.0 Build 151)  -->
  <defs>
    <style>
      .st0 {
        fill: none;
        stroke: #fff;
        stroke-width: 5.2px;
      }

      .st1 {
        fill: #8247e5;
      }

      .st2 {
        fill: #fff;
      }
    </style>
  </defs>
  <circle id="ellipse1808" class="st1" cx="128" cy="127.8" r="122.5"/>
  <path id="Full-4-8" class="st0" d="M19.4,128.3c0,60.1,48.9,108.9,108.9,108.9s108.9-48.9,108.9-108.9S188.4,19.4,128.3,19.4,19.4,68.3,19.4,128.3Z"/>
  <g>
    <path class="st2" d="M60.5,88.3v-6h31.4v6h-12.2v33.3h-7.1v-33.3h-12.2,0Z"/>
    <path class="st2" d="M97.9,121.7v-39.3h25.6v6h-18.5v10.7h17.1v6h-17.1v10.7h18.6v6h-25.7,0Z"/>
    <path class="st2" d="M152.1,93.2c-.2-1.7-.9-3-2.3-3.9-1.3-.9-3-1.4-5.2-1.4s-2.8.2-3.8.7c-1.1.4-1.9,1.1-2.4,1.8-.6.8-.9,1.6-.9,2.6s.2,1.5.6,2.1.9,1.1,1.5,1.5c.7.4,1.4.8,2.2,1,.8.3,1.6.5,2.4.7l3.7.9c1.5.3,2.9.8,4.3,1.4s2.6,1.3,3.7,2.2c1.1.9,2,2,2.6,3.2.6,1.3,1,2.8,1,4.5s-.6,4.3-1.8,6.1c-1.2,1.7-2.9,3.1-5.1,4.1s-4.9,1.5-8.1,1.5-5.7-.5-8-1.4c-2.2-.9-4-2.3-5.3-4.1-1.3-1.8-1.9-4-2-6.6h7c.1,1.4.5,2.5,1.3,3.4.7.9,1.7,1.6,2.9,2s2.5.7,4,.7,2.9-.2,4.1-.7c1.2-.5,2.1-1.1,2.8-2s1-1.8,1-2.9-.3-1.9-.9-2.5c-.6-.7-1.4-1.2-2.5-1.7s-2.3-.9-3.7-1.2l-4.5-1.2c-3.2-.8-5.8-2.1-7.7-3.8-1.9-1.7-2.8-4-2.8-6.8s.6-4.3,1.9-6.1c1.3-1.7,3-3.1,5.2-4.1s4.6-1.4,7.4-1.4,5.2.5,7.3,1.4c2.1,1,3.8,2.3,5,4s1.8,3.7,1.9,5.9h-6.9.1Z"/>
    <path class="st2" d="M164.1,88.3v-6h31.4v6h-12.2v33.3h-7.1v-33.3h-12.2.1Z"/>
  </g>
  <g>
    <g id="polygon-matic-logo">
      <path id="Path_27" class="st2" d="M54.8,147.9c1.1-.6,2.4-.6,3.4,0l8,4.7,5.4,3,7.9,4.7c1.1.6,2.4.6,3.4,0l6.2-3.7c1.1-.6,1.7-1.8,1.7-3v-7.2c0-1.2-.7-2.4-1.7-3l-6.2-3.6c-1.1-.6-2.4-.6-3.4,0l-6.2,3.7c-1.1.6-1.7,1.8-1.7,3v4.7l-5.4-3.1v-4.9c0-1.2.7-2.4,1.7-3l11.4-6.7c1.1-.6,2.4-.6,3.4,0l11.7,6.9c1.1.5,1.7,1.7,1.7,2.9v13.4c0,1.2-.7,2.4-1.7,3l-11.6,6.7c-1.1.6-2.4.6-3.4,0l-7.9-4.6-5.4-3.1-7.9-4.6c-1.1-.6-2.4-.6-3.4,0l-6.2,3.6c-1.1.6-1.7,1.8-1.7,3v7.2c0,1.2.7,2.4,1.7,3l6,3.6c1.1.6,2.4.6,3.4,0l6.2-3.6c1.1-.6,1.7-1.8,1.7-3v-4.6l5.4,3.1v4.7c0,1.2-.7,2.4-1.7,3l-11.6,6.7c-1.1.6-2.4.6-3.4,0l-11.6-6.7c-1.1-.6-1.7-1.8-1.7-3v-13.6c0-1.2.7-2.4,1.7-3l11.6-6.7h.2Z"/>
    </g>
    <g>
      <path class="st2" d="M112.5,177.1v-39.7h14.9c3,0,5.6.6,7.7,1.7,2.1,1.1,3.6,2.7,4.7,4.7s1.6,4.2,1.6,6.7-.5,4.8-1.6,6.8-2.7,3.5-4.7,4.7c-2.1,1.1-4.7,1.7-7.7,1.7h-9.9v-5.9h8.9c1.8,0,3.2-.3,4.4-.9,1.1-.6,2-1.5,2.5-2.6s.8-2.3.8-3.7-.3-2.6-.8-3.7c-.5-1.1-1.4-1.9-2.5-2.5s-2.6-.9-4.4-.9h-6.6v33.7h-7.3Z"/>
      <path class="st2" d="M183.1,157.2c0,4.3-.8,7.9-2.4,11-1.6,3-3.8,5.4-6.5,7s-5.9,2.4-9.3,2.4-6.6-.8-9.3-2.4c-2.7-1.6-4.9-3.9-6.5-7-1.6-3-2.4-6.7-2.4-10.9s.8-7.9,2.4-11c1.6-3,3.8-5.4,6.5-7s5.9-2.4,9.3-2.4,6.6.8,9.3,2.4c2.7,1.6,4.9,3.9,6.5,7,1.6,3,2.4,6.7,2.4,11h0ZM175.8,157.2c0-3-.5-5.5-1.4-7.6s-2.2-3.6-3.9-4.7c-1.7-1.1-3.6-1.6-5.7-1.6s-4.1.5-5.7,1.6c-1.7,1.1-2.9,2.6-3.9,4.7-.9,2.1-1.4,4.6-1.4,7.6s.5,5.5,1.4,7.6,2.2,3.6,3.9,4.7c1.7,1.1,3.6,1.6,5.7,1.6s4.1-.5,5.7-1.6c1.7-1.1,2.9-2.6,3.9-4.7.9-2.1,1.4-4.6,1.4-7.6Z"/>
      <path class="st2" d="M189.9,177.1v-39.7h7.2v33.6h17.5v6h-24.7Z"/>
    </g>
  </g>
  <g>
    <path class="st2" d="M106.2,203.5h-1.9l4.2-11.6h2l4.2,11.6h-1.9l-3.3-9.5h0l-3.3,9.5h0ZM106.5,199h6v1.5h-6v-1.5Z"/>
    <path class="st2" d="M116.4,191.9h2.1l3.7,9h0l3.7-9h2.1v11.6h-1.7v-8.4h0l-3.4,8.4h-1.4l-3.4-8.4h0v8.4h-1.7v-11.6h.1Z"/>
    <path class="st2" d="M140.8,197.7c0,1.2-.2,2.3-.7,3.2s-1.1,1.6-1.9,2.1c-.8.5-1.7.7-2.7.7s-1.9-.2-2.7-.7-1.4-1.2-1.9-2.1c-.5-.9-.7-2-.7-3.2s.2-2.3.7-3.2,1.1-1.6,1.9-2.1c.8-.5,1.7-.7,2.7-.7s1.9.2,2.7.7,1.4,1.2,1.9,2.1c.5.9.7,2,.7,3.2ZM139.1,197.7c0-.9-.2-1.7-.5-2.4s-.7-1.1-1.2-1.5-1.1-.5-1.8-.5-1.3.2-1.8.5-.9.8-1.2,1.5c-.3.6-.5,1.4-.5,2.4s.2,1.7.5,2.4.7,1.1,1.2,1.5,1.1.5,1.8.5,1.3-.2,1.8-.5.9-.8,1.2-1.5c.3-.6.5-1.4.5-2.4Z"/>
    <path class="st2" d="M141.5,191.9h2l3,5.3h.1l3-5.3h2l-4.2,7.1v4.6h-1.8v-4.6l-4.2-7.1h0Z"/>
  </g>
</svg>