<?xml version="1.0" encoding="UTF-8"?>
<svg id="Layer_1" xmlns="http://www.w3.org/2000/svg" version="1.1" viewBox="0 0 250 250">
  <!-- Generator: Adobe Illustrator 29.0.1, SVG Export Plug-In . SVG Version: 2.1.0 Build 192)  -->
  <defs>
    <style>
      .st0 {
        fill: #fff;
      }

      .st1 {
        fill: #6344de;
        fill-rule: evenodd;
      }
    </style>
  </defs>
  <path class="st0" d="M125,247.5c67.7,0,122.5-54.9,122.5-122.8C247,57.4,192.2,2.5,125,2.5S2.5,57.4,2.5,125.3s54.8,122.2,122.5,122.2Z"/>
  <path class="st1" d="M125,80.6c-24.2,0-43.9,19.9-43.9,44.4s19.7,44.4,43.9,44.4,25.5-6.1,33.6-15.8l33.2,28.3c-16,19.2-40,31.4-66.8,31.4-48.2,0-87.3-39.5-87.3-88.3S76.8,36.7,125,36.7v43.9ZM200.5,169.5l-37.5-22.1c1.3-2.2,2.4-4.6,3.3-7l40.8,15.2c-1.8,4.9-4,9.5-6.5,13.9ZM168.9,125h43.4c0-5.2-.5-10.4-1.3-15.3l-42.8,7.6c.4,2.5.7,5.1.7,7.7ZM192.1,68.5l-33.4,28.1c-1.6-2-3.4-3.8-5.4-5.5l28.1-33.5c3.9,3.3,7.5,7,10.7,10.9Z"/>
</svg>