<?xml version="1.0" encoding="UTF-8"?>
<svg id="Layer_1" xmlns="http://www.w3.org/2000/svg" version="1.1" viewBox="0 0 250 250">
  <!-- Generator: Adobe Illustrator 29.0.1, SVG Export Plug-In . SVG Version: 2.1.0 Build 192)  -->
  <defs>
    <style>
      .st0 {
        fill-rule: evenodd;
      }

      .st0, .st1, .st2 {
        fill: #fff;
      }

      .st3, .st4 {
        fill: #216c58;
      }

      .st3, .st2 {
        stroke: #216c58;
        stroke-width: 4.1px;
      }
    </style>
  </defs>
  <path class="st1" d="M125,2.5h0c67.7,0,122.5,54.8,122.5,122.5h0c0,67.7-54.8,122.5-122.5,122.5h0C57.3,247.5,2.5,192.7,2.5,125h0C2.5,57.3,57.3,2.5,125,2.5Z"/>
  <circle class="st3" cx="125" cy="125" r="114.3"/>
  <path class="st4" d="M231.2,125c0,58.6-47.5,106.2-106.2,106.2S18.8,183.6,18.8,125,66.4,18.8,125,18.8s106.2,47.5,106.2,106.2Z"/>
  <rect class="st4" x="110.7" y="176" width="12.3" height="12.3"/>
  <rect class="st4" x="131.1" y="176" width="12.3" height="12.3"/>
  <rect class="st1" x="86.2" y="49.5" width="85.7" height="10.2" rx="4.1" ry="4.1"/>
  <path class="st1" d="M125,63.7v138.8c0,2.3-1.8,4.1-4.1,4.1h-2c-2.3,0-4.1-1.8-4.1-4.1V63.7h10.2Z"/>
  <path class="st1" d="M141.3,63.7v138.8c0,2.3-1.8,4.1-4.1,4.1h-2c-2.3,0-4.1-1.8-4.1-4.1V63.7h10.2Z"/>
  <path class="st2" d="M116.3,98.3h0c2.8-1,6.4-1.6,10.8-1.6,6.5,0,11.3,1.2,14.8,3.5,2.5,1.6,4.1,3.7,5,6.2.9,2.5,3.2,4.9,6.4,4.9h18.9c3.3,0,6.4-2.8,5.9-6.5-.8-5.6-2.9-10.7-6.4-15.2-4.3-5.6-10.3-10-17.9-13.1-7.6-3.1-16.4-4.6-26.4-4.6s-18.6,1.5-26.5,4.6c-7.8,3.1-14.1,7.4-18.6,13h0c-4.6,5.7-6.9,12.3-6.8,19.9,0,9.2,3.4,16.7,10.3,22.3,6.7,5.4,15.8,9.2,27.1,11.7,0,0,0,0,0,0l14.3,3.2h0c4.7,1,8.7,2.1,11.8,3.3h0c3.2,1.2,5.4,2.6,6.8,4.1h0c1.4,1.4,2.1,3.1,2.1,5.2s-.8,4.3-2.4,6.1c-1.6,1.8-4,3.4-7.3,4.5h0c-3.2,1.1-7.1,1.7-11.6,1.7s-8.7-.6-12.3-1.8c-3.5-1.2-6.2-3-8.2-5.3-1.3-1.5-2.2-3.3-2.7-5.3-.7-2.7-3.1-5.2-6.4-5.2h-19c-3.4,0-6.3,2.8-5.9,6.5.8,6.9,3.1,13,7,18.1h0c4.7,6,11.1,10.5,19.3,13.6h0c8.2,3,17.7,4.5,28.5,4.5s20.3-1.5,28.2-4.4h0c7.9-3,14.1-7.3,18.4-12.9,4.4-5.6,6.5-12.3,6.6-19.9h0c0-5.2-1.1-9.8-3.2-13.9-2.1-4-5-7.6-8.7-10.5-3.7-2.9-8-5.4-13-7.3-4.9-2-10.3-3.5-16.2-4.7l-11.8-2.5h0c-2.8-.6-5.4-1.2-7.9-2-2.4-.8-4.5-1.7-6.3-2.7-1.7-1-3-2.2-3.9-3.5-.8-1.2-1.2-2.5-1.1-4.2h0c0-2.1.6-3.9,2-5.5,1.4-1.6,3.4-3,6.3-4Z"/>
  <rect class="st1" x="114.8" y="90.3" width="10.2" height="14.3"/>
  <rect class="st1" x="114.8" y="141.3" width="10.2" height="14.3"/>
  <rect class="st1" x="114.8" y="184.2" width="10.2" height="14.3"/>
  <rect class="st1" x="131.1" y="90.3" width="10.2" height="14.3"/>
  <rect class="st1" x="131.1" y="141.3" width="10.2" height="14.3"/>
  <rect class="st1" x="131.1" y="184.2" width="10.2" height="14.3"/>
  <path class="st0" d="M227.7,131.1c-1.6,0-3,1.3-3.1,2.9-4.6,51-47.4,91-99.6,91S29.9,185,25.4,134c-.1-1.6-1.5-2.9-3.1-2.9s-3.2,1.5-3,3.2c4.7,54.2,50.3,96.8,105.8,96.8s101-42.6,105.8-96.8c.2-1.8-1.3-3.2-3-3.2ZM22.3,118.9c1.6,0,3-1.3,3.1-2.9,4.6-51,47.4-91,99.6-91s95.1,40,99.6,91c.1,1.6,1.5,2.9,3.1,2.9s3.2-1.5,3-3.2c-4.7-54.2-50.3-96.8-105.8-96.8S24,61.4,19.2,115.6c-.2,1.8,1.3,3.2,3,3.2Z"/>
</svg>