<?xml version="1.0" encoding="UTF-8"?>
<svg id="Layer_1" xmlns="http://www.w3.org/2000/svg" version="1.1" viewBox="0 0 250 250">
  <!-- Generator: Adobe Illustrator 29.0.1, SVG Export Plug-In . SVG Version: 2.1.0 Build 192)  -->
  <defs>
    <style>
      .st0 {
        fill: #fff;
      }
    </style>
  </defs>
  <circle id="fullLogo" class="st0" cx="125" cy="125" r="122.5"/>
  <path id="fullLogo-2" d="M187,166.4c-6.5,11.2-18.4,18.1-31.3,18.1h-20.9v-70.6l-30.2,52.5c-6.5,11.2-18.4,18.1-31.3,18.1h-20.8v-104.2h41.8v70.4l40.5-70.4h0s41.8,0,41.8,0v70.7l43.9-76.3c1.8-3.1,1.7-6.9-.2-10-20.3-32-56.2-53.1-97-52.5C61,13.3,12,63.4,12.3,125.6c.3,61.9,50.6,112.1,112.7,112.1s112.7-50.4,112.7-112.7-1.3-19.7-3.8-29c-.7-2.8-4.5-3.3-5.9-.8l-41,71.2h0s0,0,0,0Z"/>
</svg>