<?xml version="1.0" encoding="UTF-8"?>
<svg id="Layer_1" xmlns="http://www.w3.org/2000/svg" xmlns:xlink="http://www.w3.org/1999/xlink" version="1.1" viewBox="0 0 250 250">
  <!-- Generator: Adobe Illustrator 29.0.1, SVG Export Plug-In . SVG Version: 2.1.0 Build 192)  -->
  <defs>
    <style>
      .st0 {
        fill: #17ff99;
      }

      .st1 {
        fill: url(#linear-gradient);
      }

      .st2 {
        fill: #fcfcfc;
      }
    </style>
    <linearGradient id="linear-gradient" x1="12.6" y1="76.2" x2="237.4" y2="173.8" gradientUnits="userSpaceOnUse">
      <stop offset="0" stop-color="#72febb"/>
      <stop offset="1" stop-color="#17ff99"/>
    </linearGradient>
  </defs>
  <circle class="st1" cx="125" cy="125" r="122.5"/>
  <path d="M74.1,103.9h0s0,0,0,0c0,0,0,0,0,0ZM74.1,103.9h0s0,0,0,0c0,0,0,0,0,0ZM74.1,103.9h0s0,0,0,0c0,0,0,0,0,0ZM74.1,103.9h0s0,0,0,0c0,0,0,0,0,0ZM74.1,103.9h0s0,0,0,0c0,0,0,0,0,0ZM74.1,103.9h0s0,0,0,0c0,0,0,0,0,0ZM74.1,103.9h0s0,0,0,0c0,0,0,0,0,0ZM74.1,103.9h0s0,0,0,0c0,0,0,0,0,0ZM74.1,103.9h0s0,0,0,0c0,0,0,0,0,0ZM74.1,103.9h0s0,0,0,0c0,0,0,0,0,0ZM74.1,103.9h0s0,0,0,0c0,0,0,0,0,0ZM74.1,103.9h0s0,0,0,0c0,0,0,0,0,0ZM74.1,103.9h0s0,0,0,0c0,0,0,0,0,0ZM74.1,103.9h0s0,0,0,0c0,0,0,0,0,0ZM125,2.5C57.3,2.5,2.5,57.3,2.5,125s54.8,122.5,122.5,122.5,122.5-54.8,122.5-122.5S192.6,2.5,125,2.5ZM49.4,38.3s0,0,0-.2c0,0,0,0,.1-.1,0,0,0,0,0-.1,24.7-20.8,53.4-30,86.1-27.5,24.2,2.5,45.6,11.5,64.1,27.2,0,0,0,0,0,.1,0,0,0,.1,0,.2s0,0,0,.1c0,0,0,0,0,0,0,0,0,0,0,0,0,0,0,0,0,0l-11.4,11.4c-.2.2-.6.2-.8,0-18.1-14.8-39-22.4-62.7-22.8-24,.3-45.1,8.1-63.4,23.3-.2.2-.6.2-.8,0l-11.2-11.2s0,0,0,0c0,0,0,0,0,0,0-.1-.1-.2-.1-.4s0,0,0-.2ZM49.4,188.8l-10.9,10.9c-.2.2-.4.2-.6.1,0,0-.1,0-.1,0,0,0,0,0,0,0,0,0,0,0,0,0-7.7-8.9-13.9-18.8-18.4-29.6-8.9-21.3-11.3-43.3-7.2-66.1,3.7-20.1,12-37.9,25.1-53.3.3-.3.6-.3.9,0l11.1,11.1c.2.2.2.6,0,.9-5.9,7.2-10.8,15.2-14.6,24.1,0,0,0,.1,0,.2,0,0,0,0,0,0,0,0,0,0,0,0,0,0,0,0,0,0,0,0,0,0,.1,0h14.1c0,0,1.9,0,1.9,0,.3,0,.6-.2.8-.5,10.6-19.8,26.5-33.2,47.6-40.3,34-11.4,72,1,92.9,30,21.9,30.3,21,70.9-2.1,100.3-23.4,29.8-65.4,39.7-99.5,23.6-17-8-30-20.4-38.8-37-.2-.4-.6-.6-1-.6h-15.6c-.5,0-.6.2-.4.7,3.9,8.8,8.9,17,15,24.5.2.3.2.7,0,.9ZM199.3,212.7c-16.5,13.9-35.4,22.6-56.6,26-5.2.8-11.3,1.3-18.2,1.2-6.9,0-12.9-.5-18.1-1.4-21.2-3.6-40-12.4-56.4-26.4-.2-.2-.2-.4,0-.6l11.3-11.2c.3-.3.7-.3.9,0,17.5,14.7,39.5,22.8,62.4,22.9,22.9,0,45-7.8,62.6-22.4.3-.2.7-.2.9,0l11.2,11.3c.2.2.2.4,0,.6ZM212,200.5c-.2.2-.4.2-.6,0l-11.3-11.3c-.3-.2-.3-.7,0-1,14.8-17.6,22.9-39.9,23-63,0-23.1-8-45.4-22.7-63.1-.2-.3-.2-.7,0-1l11.4-11.3c.2-.2.4-.2.6,0,14,16.7,22.8,35.7,26.3,57,.9,5.3,1.3,11.4,1.3,18.3,0,6.9-.5,13-1.4,18.3-3.6,21.3-12.5,40.3-26.6,56.9ZM74.1,103.9h0s0,0,0,0c0,0,0,0,0,0ZM74.1,103.9h0s0,0,0,0c0,0,0,0,0,0ZM74.1,103.9h0s0,0,0,0c0,0,0,0,0,0ZM74.1,103.9h0s0,0,0,0c0,0,0,0,0,0ZM74.1,103.9h0s0,0,0,0c0,0,0,0,0,0ZM74.1,103.9h0s0,0,0,0c0,0,0,0,0,0ZM74.1,103.9h0s0,0,0,0c0,0,0,0,0,0ZM74.1,103.9h0s0,0,0,0c0,0,0,0,0,0ZM74.1,103.9h0s0,0,0,0c0,0,0,0,0,0ZM74.1,103.9h0s0,0,0,0c0,0,0,0,0,0ZM74.1,103.9h0s0,0,0,0c0,0,0,0,0,0ZM74.1,103.9h0s0,0,0,0c0,0,0,0,0,0ZM74.1,103.9h0s0,0,0,0c0,0,0,0,0,0ZM74.1,103.9h0s0,0,0,0c0,0,0,0,0,0ZM74.1,103.9h0s0,0,0,0c0,0,0,0,0,0Z"/>
  <path d="M118.3,107.7c.8-6.9,2.1-12.8,6.3-18.5,6.8-9.3,16.2-13.9,28.1-13.9,10.1,0,18.6,0,25.7,0,.4,0,.5.2.5.5v26.4c0,.3-.2.5-.5.5h-26.9c-1.7,0-3.3.8-4.2,2.2l-.7,1.1c-.9,1.3-.6,2,1,2h19.6c.5,0,.7.2.7.7v26.4c0,.2-.2.4-.4.4h-20.7c-.3,0-.5.2-.5.5,0,.9,0,3.4-.2,7.5,0,3.6-1.1,7.5-3.1,11.6-3.8,7.9-9.7,13.5-17.5,16.6-17.2,7-36.5-1.8-43-19-2.9-7.8-2.8-15.6.3-23.5,4.3-10.9,12.4-17.7,24.3-20.4,1.8-.4,5.3-.6,10.7-.6.4,0,.6-.2.6-.5ZM140.2,107.7c.7-5.6,5-10.6,10.8-10.7,4.5,0,11.6,0,21.5,0,.4,0,.6-.3.6-.6v-14.4c0-.6-.3-.8-.8-.8-2.6,0-7.6,0-15,0-6.9,0-11.7.5-14.5,1.4-10.7,3.6-18.7,13.9-18.5,25.5,0,.2.2.3.4.3h14.9c.3,0,.5-.2.6-.5ZM162.2,114.2c0-.3-.2-.5-.5-.5h-14.9c-.3,0-.5.2-.5.5v14.9c0,.3.2.5.5.5h14.9c.3,0,.5-.2.5-.5h0v-14.9ZM94.1,160.3c8.4,8.4,22.1,10.5,32.2,4.6,10.4-6.1,15.1-15.7,14.1-28.7,0-.4-.2-.5-.6-.5h-14.6c-.4,0-.5.2-.6.5,0,.7-.1,2.2-.2,4.6-.2,9.5-11.4,15-18.6,7.8-7.2-7.2-1.8-18.3,7.8-18.6,2.4,0,3.9-.1,4.6-.2.4,0,.5-.2.5-.6v-14.6c0-.4-.2-.5-.5-.6-13.1-1-22.7,3.7-28.7,14.1-5.9,10.1-3.9,23.7,4.6,32.2ZM140.5,114.4c0-.2-.2-.4-.4-.4h-15.2c-.2,0-.4.1-.4.4h0s0,15.2,0,15.2c0,.2.2.4.4.4h15.2c.2,0,.4-.1.4-.4v-15.2ZM109.9,144.4c.8.8,1.4,1.2,1.9,1.3,4,.8,6.3-.8,6.8-4.8.2-1.5.3-3.2.1-4.9,0-.1,0-.2-.1-.3,0,0-.2-.1-.3-.1-1.7-.2-3.4-.1-4.9,0-4,.5-5.6,2.7-4.9,6.8,0,.5.5,1.1,1.3,1.9Z"/>
  <path class="st2" d="M151,97c-5.8.1-10.1,5.1-10.8,10.7,0,.3-.2.5-.6.5h-14.9c-.2,0-.3-.2-.4-.3-.2-11.6,7.8-21.8,18.5-25.5,2.7-.9,7.5-1.4,14.5-1.4,7.4,0,12.4,0,15,0,.6,0,.8.3.8.8v14.4c0,.4-.3.6-.6.6-9.9,0-17,0-21.5,0Z"/>
  <path d="M31.2,110.3l5.1,22.7c.2,1,.4,1,.6,0l5.7-28.8c0-.2.3-.4.5-.4h8.3c.4,0,.7.2.8.6l5.8,28.9c.1.7.3.7.4,0l6.7-29.2c0-.2.2-.3.4-.3h8.6c.1,0,.2,0,.2.2,0,0,0,0,0,0l-11.7,41.4c0,.3-.4.6-.8.6h-7.3c-.4,0-.6-.2-.7-.5l-6.1-30.6c-.2-1-.4-1-.6,0l-6.5,30.9-7.7.2c-.4,0-.7-.2-.8-.6l-11.3-40.4c-.3-1.1,0-1.6,1.1-1.4,0,0,2.2,0,6.5,0,.9,0,1.5.5,1.7,1.4l1.1,5.2Z"/>
  <rect class="st2" x="146.2" y="113.7" width="15.9" height="15.9" rx=".5" ry=".5"/>
  <path class="st2" d="M105.9,148.5c7.2,7.2,18.3,1.8,18.6-7.8,0-2.4.1-3.9.2-4.6,0-.4.2-.5.6-.5h14.6c.4,0,.5.2.6.5,1,13.1-3.7,22.7-14.1,28.7-10.1,5.9-23.8,3.8-32.2-4.6-8.4-8.4-10.5-22.1-4.6-32.2,6.1-10.4,15.7-15.1,28.7-14.1.4,0,.5.2.5.6v14.6c0,.4-.2.5-.5.6-.7,0-2.2.1-4.6.2-9.6.2-15,11.4-7.8,18.6Z"/>
  <rect class="st0" x="124.6" y="114" width="15.9" height="15.9" rx=".4" ry=".4" transform="translate(10.4 254.2) rotate(-89.9)"/>
  <path class="st0" d="M118.7,135.8c0,0,.1.2.1.3.1,1.7,0,3.4-.1,4.9-.5,4-2.8,5.6-6.8,4.8-.5,0-1.1-.5-1.9-1.3-.8-.8-1.2-1.4-1.3-1.9-.7-4,.9-6.3,4.9-6.8,1.5-.2,3.2-.2,4.9,0,.1,0,.2,0,.3.1Z"/>
</svg>