<?xml version="1.0" encoding="UTF-8"?>
<svg id="Layer_1" xmlns="http://www.w3.org/2000/svg" version="1.1" viewBox="0 0 250 250">
  <!-- Generator: Adobe Illustrator 29.0.1, SVG Export Plug-In . SVG Version: 2.1.0 Build 192)  -->
  <defs>
    <style>
      .st0 {
        fill: #fff;
        fill-rule: evenodd;
      }

      .st1 {
        fill: #2d2c2c;
      }
    </style>
  </defs>
  <path class="st0" d="M2.5,125c0,67.7,54.8,122.5,122.5,122.5s122.5-54.8,122.5-122.5S192.7,2.5,125,2.5,2.5,57.3,2.5,125Z"/>
  <path class="st1" d="M186.3,19c-18.8-10.9-39.2-16.5-61.3-16.5s-42.5,5.4-61.3,16.5c-18.8,11.1-33.6,25.8-44.7,44.7C7.9,82.5,2.5,102.9,2.5,125s5.4,42.5,16.5,61.3c11.1,18.8,25.8,33.6,44.7,44.7s39.2,16.5,61.3,16.5,42.5-5.4,61.3-16.5c18.8-11.1,33.6-25.8,44.7-44.7,11.1-18.8,16.5-39.2,16.5-61.3s-5.4-42.5-16.5-61.3c-11.1-18.8-25.8-33.6-44.7-44.7h0ZM132.4,169.3c-13.8,0-24.8-3.9-33.4-11.8-5.8-5.4-9.5-12-11.5-19.8h132c-1.4,11.3-4.7,21.7-9.7,31.6h-77.7.2ZM87.7,112.8c1.7-7.6,5.6-14.2,11.3-19.6,8.3-8,19.6-12,33.4-12h78c5,9.9,8.2,20.4,9.3,31.6H87.7ZM42.1,76.3c8.5-14.8,20-26.4,34.6-35.1s30.7-13,48.1-13,33.6,4.3,48.1,13c7.4,4.5,14.2,9.7,20,15.7h-61.7c-14,0-26.4,2.9-37.3,8.7s-19.4,13.8-25.4,24.1c-4.3,7.2-7,14.9-8.2,23.3h-30.3c1.6-13,5.4-25.2,12-36.5v-.2ZM173.1,208.9c-14.6,8.7-30.7,13-48.1,13s-33.6-4.3-48.1-13-26.2-20.4-34.6-35.1c-6.4-11.1-10.5-23.1-12-35.9h30.3c1.2,8.3,3.9,16.1,8.2,23.3,6,10.1,14.6,18.2,25.4,24.1s23.3,8.7,37.3,8.7h61.2c-5.8,5.8-12.2,10.9-19.4,15.1v-.2Z"/>
</svg>