<?xml version="1.0" encoding="UTF-8"?><svg id="Layer_1" xmlns="http://www.w3.org/2000/svg" width="128" height="128" viewBox="0 0 128 128"><defs><style>.cls-1{fill:#254a81;}.cls-2{fill:#fff;}</style></defs><circle class="cls-1" cx="64" cy="64" r="64"/><g class="cls-2" transform="translate(10.693,11.018) scale(0.151333) translate(0,700) scale(0.1,-0.1)" fill="#fff" stroke="none"><path d="M710 4533 c-31 -12 -50 -37 -50 -64 0 -32 -9 -20 410 -550 l309 -393 -32 -40 c-105 -129 -706 -905 -715 -923 -17 -32 -15 -56 9 -82 21 -22 24 -22 238 -19 205 3 218 4 260 27 61 32 108 85 346 391 113 146 211 265 217 265 6 0 115 -133 242 -295 128 -162 251 -309 275 -327 74 -57 117 -64 394 -61 l246 3 -415 528 c-233 296 -413 534 -410 542 4 11 730 937 774 988 16 18 6 18 -253 15 -257 -3 -272 -4 -321 -26 -69 -31 -120 -87 -339 -367 -103 -132 -191 -240 -196 -240 -4 0 -94 110 -199 245 -225 288 -257 322 -330 358 -53 26 -60 27 -250 29 -107 1 -202 0 -210 -4z"/><path d="M2772 4338 l-159 -203 416 -6 c346 -4 429 -8 496 -23 168 -37 265 -106 323 -227 103 -218 86 -640 -33 -816 -57 -84 -144 -134 -296 -168 -60 -14 -147 -18 -467 -22 -216 -3 -392 -8 -390 -12 2 -4 73 -97 158 -206 l155 -197 265 5 c166 4 303 12 368 22 283 44 463 123 602 264 169 171 250 416 250 751 0 340 -82 582 -255 755 -125 125 -254 190 -475 239 -156 34 -303 46 -571 46 l-227 0 -160 -202z"/><path d="M5290 4525 c-396 -49 -648 -193 -779 -444 l-39 -76 24 -84 c73 -252 68 -657 -10 -879 -15 -41 -14 -43 21 -112 93 -181 256 -312 478 -385 205 -67 451 -88 962 -83 328 3 343 4 370 24 15 11 38 36 51 54 20 30 22 44 22 180 l0 148 -482 5 c-539 6 -599 12 -723 71 -88 42 -125 76 -169 149 -59 100 -80 211 -79 417 0 143 4 189 21 251 61 227 167 316 421 354 73 11 208 15 574 15 l477 0 0 148 c0 166 -10 200 -69 239 l-34 23 -466 -1 c-314 -1 -500 -5 -571 -14z"/><path d="M2342 3787 c-134 -170 -200 -262 -195 -270 4 -7 96 -125 203 -261 l195 -247 3 260 c1 144 1 377 0 519 l-3 257 -203 -258z"/></g></svg>
