<?xml version="1.0" encoding="UTF-8"?>
<svg id="Layer_1" xmlns="http://www.w3.org/2000/svg" version="1.1" viewBox="0 0 250 250">
  <!-- Generator: Adobe Illustrator 29.0.1, SVG Export Plug-In . SVG Version: 2.1.0 Build 192)  -->
  <defs>
    <style>
      .st0 {
        fill: #fff;
      }

      .st1 {
        fill: #0a0a0a;
      }
    </style>
  </defs>
  <path class="st1" d="M125,2.5h0c67.7,0,122.5,54.8,122.5,122.5h0c0,67.7-54.8,122.5-122.5,122.5h0C57.3,247.5,2.5,192.7,2.5,125h0C2.5,57.3,57.3,2.5,125,2.5Z"/>
  <g>
    <path class="st0" d="M125,57.5c-5.1,0-10.1,1.1-14.8,3-4.7,2-8.9,4.8-12.5,8.5s-6.4,7.9-8.3,12.6-2.9,9.8-2.8,14.9v12.9h31.2v-18.7c0-.9.2-1.7.5-2.6.3-.8.8-1.6,1.4-2.2.6-.6,1.3-1.1,2.2-1.4s1.7-.5,2.6-.5h1.2c.8,0,1.7.2,2.6.5.8.3,1.6.8,2.2,1.4.6.6,1.1,1.3,1.4,2.2s.5,1.7.5,2.6v50.1c4.1,0,8.2-.8,12-2.4,3.8-1.6,7.2-3.9,10.2-6.8s5.2-6.4,6.7-10.2c1.6-3.8,2.4-7.9,2.4-12v-12.9c0-10.3-4-20.3-11.2-27.6-3.6-3.7-7.8-6.5-12.5-8.5-4.7-1.9-9.7-2.9-14.8-2.9Z"/>
    <path class="st0" d="M125.6,166.1h-1.2c-.8,0-1.7-.2-2.6-.5s-1.5-.8-2.2-1.4c-.6-.6-1.1-1.3-1.4-2.2s-.5-1.7-.5-2.6v-50.1c-4.1,0-8.2.8-12,2.4s-7.2,3.9-10.2,6.8c-2.9,2.9-5.2,6.4-6.7,10.2-1.6,3.8-2.4,7.9-2.4,12v12.7c0,5.1.9,10.2,2.8,14.9,1.9,4.7,4.7,9.1,8.3,12.6,3.6,3.7,7.8,6.5,12.5,8.5,4.7,2,9.7,3,14.8,3s10.2-1,14.8-3,9-4.8,12.5-8.5c3.6-3.7,6.4-7.9,8.3-12.6,1.9-4.7,2.8-9.8,2.8-14.9v-12.7h-31.2v18.7c0,.9-.2,1.7-.5,2.6-.3.8-.8,1.6-1.4,2.2s-1.3,1.1-2.2,1.4c-.7.3-1.6.5-2.5.5Z"/>
  </g>
</svg>