<?xml version="1.0" encoding="UTF-8" standalone="no"?>
<!-- Generator: Adobe Illustrator 27.7.0, SVG Export Plug-In . SVG Version: 6.00 Build 0)  -->

<svg
   version="1.1"
   id="Layer_1"
   x="0px"
   y="0px"
   viewBox="0 0 522.41998 72.519997"
   xml:space="preserve"
   sodipodi:docname="powered_by_light.svg"
   width="522.41998"
   height="72.519997"
   inkscape:version="1.1.1 (c3084ef, 2021-09-22)"
   xmlns:inkscape="http://www.inkscape.org/namespaces/inkscape"
   xmlns:sodipodi="http://sodipodi.sourceforge.net/DTD/sodipodi-0.dtd"
   xmlns="http://www.w3.org/2000/svg"
   xmlns:svg="http://www.w3.org/2000/svg"><defs
   id="defs873" /><sodipodi:namedview
   id="namedview871"
   pagecolor="#ffffff"
   bordercolor="#666666"
   borderopacity="1.0"
   inkscape:pageshadow="2"
   inkscape:pageopacity="0.0"
   inkscape:pagecheckerboard="0"
   showgrid="false"
   inkscape:zoom="1.8676471"
   inkscape:cx="155.54331"
   inkscape:cy="42.566929"
   inkscape:window-width="1680"
   inkscape:window-height="997"
   inkscape:window-x="0"
   inkscape:window-y="25"
   inkscape:window-maximized="1"
   inkscape:current-layer="Layer_1" />
<style
   type="text/css"
   id="style824">
	.st0{fill:#3E64AE;}
	.st1{fill:#FFFFFF;}
	.st2{fill-rule:evenodd;clip-rule:evenodd;fill:#FFFFFF;}
	.st3{fill:#4471B8;}
</style>
<g
   id="g868"
   transform="translate(-44.79,-89.740002)">
	<g
   id="g836">
		<circle
   class="st0"
   cx="389.13"
   cy="126"
   r="36.259998"
   id="circle826" />
		<polygon
   class="st1"
   points="369.03,138.04 375.56,141.81 382.09,138.04 382.09,130.51 375.56,126.74 369.03,130.51 "
   id="polygon828" />
		<polygon
   class="st1"
   points="386.8,138.11 398.09,144.64 409.39,138.11 409.39,125.07 398.09,118.55 386.8,125.07 "
   id="polygon830" />
		<path
   class="st2"
   d="m 389.58,149.96 c 1.38,-0.92 2.77,-1.85 4.15,-2.77 -3.13,-1.81 -6.26,-3.61 -9.39,-5.42 -1.38,0.92 -2.77,1.85 -4.15,2.77 3.13,1.81 6.26,3.62 9.39,5.42 z"
   id="path832" />
		<path
   class="st1"
   d="m 369.25,114.52 c 0,3.7 0,7.4 0,11.1 2.17,-1.23 4.35,-2.45 6.52,-3.68 2.27,1.23 4.54,2.46 6.8,3.69 0,-1.04 0,-2.08 0,-3.11 5.15,-3.03 10.3,-6.06 15.46,-9.09 3.78,2.22 7.57,4.44 11.35,6.66 0,-1.8 0,-3.59 0,-5.39 -6.71,-3.92 -13.43,-7.84 -20.14,-11.77 -6.66,3.87 -13.33,7.73 -19.99,11.59 z"
   id="path834" />
	</g>
	<g
   id="g856">
		<path
   class="st1"
   d="m 44.79,145.07 v -38.02 h 12.85 c 2.98,0 5.42,0.54 7.32,1.61 1.9,1.07 3.31,2.52 4.22,4.33 0.92,1.82 1.37,3.85 1.37,6.09 0,2.24 -0.45,4.28 -1.36,6.11 -0.91,1.83 -2.31,3.29 -4.21,4.37 -1.9,1.08 -4.32,1.62 -7.28,1.62 h -8.32 v 13.89 z m 4.6,-17.97 h 8.17 c 3.06,0 5.23,-0.77 6.53,-2.3 1.29,-1.53 1.94,-3.44 1.94,-5.72 0,-2.29 -0.65,-4.19 -1.95,-5.69 -1.3,-1.5 -3.5,-2.26 -6.59,-2.26 H 49.4 v 15.97 z"
   id="path838" />
		<path
   class="st1"
   d="m 88.67,145.66 c -2.57,0 -4.83,-0.61 -6.77,-1.84 -1.94,-1.23 -3.45,-2.94 -4.53,-5.14 -1.08,-2.2 -1.62,-4.78 -1.62,-7.72 0,-2.97 0.54,-5.56 1.62,-7.78 1.08,-2.22 2.59,-3.94 4.53,-5.16 1.94,-1.23 4.19,-1.84 6.77,-1.84 2.57,0 4.83,0.61 6.77,1.84 1.94,1.23 3.45,2.95 4.53,5.16 1.08,2.21 1.62,4.81 1.62,7.78 0,2.95 -0.54,5.52 -1.62,7.72 -1.08,2.2 -2.59,3.92 -4.53,5.14 -1.94,1.23 -4.19,1.84 -6.77,1.84 z m 0,-3.93 c 1.95,0 3.56,-0.5 4.83,-1.5 1.26,-1 2.2,-2.32 2.8,-3.95 0.61,-1.63 0.91,-3.4 0.91,-5.31 0,-1.91 -0.3,-3.68 -0.91,-5.33 -0.61,-1.65 -1.54,-2.98 -2.8,-3.99 -1.26,-1.02 -2.87,-1.52 -4.83,-1.52 -1.96,0 -3.56,0.51 -4.83,1.52 -1.26,1.02 -2.2,2.35 -2.8,3.99 -0.61,1.65 -0.91,3.42 -0.91,5.33 0,1.91 0.3,3.68 0.91,5.31 0.61,1.63 1.54,2.95 2.8,3.95 1.27,1 2.88,1.5 4.83,1.5 z"
   id="path840" />
		<path
   class="st1"
   d="m 113.77,145.07 -8.69,-28.52 h 4.6 l 6.16,21.83 h 0.3 l 6.09,-21.83 h 4.68 l 6.02,21.76 h 0.3 l 6.16,-21.76 h 4.6 l -8.69,28.52 H 131 l -6.24,-21.91 h -0.45 l -6.24,21.91 z"
   id="path842" />
		<path
   class="st1"
   d="m 160.78,145.66 c -2.75,0 -5.11,-0.61 -7.1,-1.83 -1.99,-1.22 -3.51,-2.93 -4.59,-5.12 -1.07,-2.2 -1.61,-4.76 -1.61,-7.68 0,-2.92 0.53,-5.5 1.61,-7.73 1.07,-2.23 2.57,-3.98 4.49,-5.23 1.92,-1.26 4.17,-1.88 6.75,-1.88 1.49,0 2.95,0.25 4.4,0.74 1.45,0.5 2.77,1.3 3.95,2.4 1.19,1.11 2.14,2.57 2.84,4.39 0.71,1.82 1.06,4.06 1.06,6.72 v 1.86 h -20.7 c 0.1,3.05 0.96,5.38 2.59,7 1.63,1.62 3.73,2.43 6.3,2.43 1.72,0 3.2,-0.37 4.44,-1.11 1.24,-0.74 2.14,-1.86 2.69,-3.34 l 4.23,1.19 c -0.67,2.15 -2.01,3.89 -4.01,5.22 -1.99,1.31 -4.44,1.97 -7.34,1.97 z m -8.89,-17.15 h 16.24 c 0,-2.41 -0.71,-4.41 -2.12,-6.01 -1.41,-1.59 -3.31,-2.39 -5.68,-2.39 -1.67,0 -3.12,0.39 -4.34,1.17 -1.23,0.78 -2.19,1.81 -2.9,3.09 -0.7,1.29 -1.1,2.67 -1.2,4.14 z"
   id="path844" />
		<path
   class="st1"
   d="m 179.27,145.07 v -28.52 h 4.23 v 4.31 h 0.3 c 0.51,-1.41 1.44,-2.56 2.8,-3.43 1.36,-0.88 2.9,-1.32 4.62,-1.32 0.79,0 1.49,0.09 2.08,0.28 0.59,0.19 1.11,0.44 1.56,0.76 l -1.49,3.71 c -0.31,-0.16 -0.67,-0.29 -1.09,-0.38 -0.41,-0.09 -0.89,-0.14 -1.44,-0.14 -2.08,0 -3.8,0.63 -5.16,1.9 -1.36,1.27 -2.04,2.86 -2.04,4.78 v 18.05 z"
   id="path846" />
		<path
   class="st1"
   d="m 210.38,145.66 c -2.75,0 -5.11,-0.61 -7.1,-1.83 -1.99,-1.22 -3.51,-2.93 -4.59,-5.12 -1.07,-2.2 -1.61,-4.76 -1.61,-7.68 0,-2.92 0.53,-5.5 1.61,-7.73 1.07,-2.23 2.57,-3.98 4.49,-5.23 1.92,-1.26 4.17,-1.88 6.75,-1.88 1.49,0 2.95,0.25 4.4,0.74 1.45,0.5 2.77,1.3 3.95,2.4 1.19,1.11 2.14,2.57 2.84,4.39 0.71,1.82 1.06,4.06 1.06,6.72 v 1.86 h -20.7 c 0.1,3.05 0.96,5.38 2.59,7 1.63,1.62 3.73,2.43 6.3,2.43 1.72,0 3.2,-0.37 4.44,-1.11 1.24,-0.74 2.14,-1.86 2.69,-3.34 l 4.23,1.19 c -0.67,2.15 -2.01,3.89 -4.01,5.22 -1.99,1.31 -4.44,1.97 -7.34,1.97 z m -8.89,-17.15 h 16.24 c 0,-2.41 -0.71,-4.41 -2.12,-6.01 -1.41,-1.59 -3.31,-2.39 -5.68,-2.39 -1.67,0 -3.12,0.39 -4.34,1.17 -1.23,0.78 -2.19,1.81 -2.9,3.09 -0.71,1.28 -1.1,2.67 -1.2,4.14 z"
   id="path848" />
		<path
   class="st1"
   d="m 239.64,145.66 c -2.38,0 -4.47,-0.6 -6.29,-1.81 -1.82,-1.21 -3.24,-2.91 -4.27,-5.12 -1.03,-2.21 -1.54,-4.82 -1.54,-7.84 0,-3 0.51,-5.59 1.54,-7.8 1.03,-2.2 2.46,-3.9 4.29,-5.11 1.83,-1.2 3.95,-1.8 6.35,-1.8 1.86,0 3.33,0.31 4.41,0.92 1.08,0.61 1.91,1.31 2.49,2.08 0.58,0.77 1.02,1.41 1.35,1.9 h 0.37 v -14.03 h 4.38 v 38.02 h -4.23 v -4.38 h -0.52 c -0.32,0.52 -0.78,1.17 -1.37,1.96 -0.59,0.79 -1.44,1.49 -2.54,2.1 -1.12,0.61 -2.59,0.91 -4.42,0.91 z m 0.6,-3.93 c 2.64,0 4.66,-1.01 6.06,-3.03 1.4,-2.02 2.11,-4.65 2.11,-7.88 0,-3.19 -0.69,-5.77 -2.08,-7.74 -1.39,-1.97 -3.42,-2.95 -6.09,-2.95 -1.86,0 -3.4,0.47 -4.63,1.42 -1.23,0.95 -2.15,2.23 -2.77,3.84 -0.61,1.61 -0.92,3.43 -0.92,5.43 0,2.03 0.31,3.87 0.94,5.52 0.63,1.65 1.55,2.96 2.79,3.94 1.22,0.96 2.75,1.45 4.59,1.45 z"
   id="path850" />
		<path
   class="st1"
   d="M 276.62,145.07 V 107.05 H 281 v 14.03 h 0.37 c 0.32,-0.5 0.77,-1.13 1.35,-1.9 0.58,-0.77 1.4,-1.47 2.49,-2.08 1.08,-0.61 2.55,-0.92 4.41,-0.92 2.4,0 4.52,0.6 6.35,1.8 1.83,1.2 3.26,2.9 4.29,5.11 1.03,2.2 1.54,4.8 1.54,7.8 0,3.02 -0.51,5.63 -1.54,7.84 -1.03,2.21 -2.45,3.92 -4.27,5.12 -1.82,1.21 -3.92,1.81 -6.29,1.81 -1.83,0 -3.3,-0.31 -4.4,-0.92 -1.1,-0.61 -1.95,-1.31 -2.54,-2.1 -0.59,-0.79 -1.05,-1.44 -1.37,-1.96 h -0.52 v 4.38 h -4.25 z m 4.31,-14.26 c 0,3.23 0.7,5.86 2.11,7.88 1.41,2.02 3.43,3.03 6.06,3.03 1.83,0 3.36,-0.49 4.59,-1.46 1.23,-0.97 2.16,-2.28 2.79,-3.94 0.62,-1.65 0.94,-3.49 0.94,-5.52 0,-2 -0.31,-3.81 -0.92,-5.43 -0.61,-1.62 -1.53,-2.9 -2.77,-3.84 -1.23,-0.95 -2.78,-1.42 -4.63,-1.42 -2.67,0 -4.7,0.98 -6.09,2.95 -1.39,1.98 -2.08,4.56 -2.08,7.75 z"
   id="path852" />
		<path
   class="st1"
   d="m 310.11,156.13 c -0.74,0 -1.41,-0.06 -1.99,-0.18 -0.58,-0.12 -0.98,-0.23 -1.21,-0.34 l 1.11,-3.86 c 1.6,0.41 2.93,0.4 4,-0.03 1.07,-0.43 1.99,-1.71 2.76,-3.83 l 0.96,-2.67 -10.54,-28.66 h 4.75 l 7.87,22.72 h 0.3 l 7.87,-22.72 h 4.75 l -12.25,33.12 c -1.59,4.3 -4.39,6.45 -8.38,6.45 z"
   id="path854" />
	</g>
	<g
   id="g866">
		<path
   class="st3"
   d="m 451,148.83 v -43.02 h 28.48 v 7.5 H 460.1 v 10.25 h 17.5 v 7.5 h -17.5 v 17.77 z"
   id="path858" />
		<path
   class="st3"
   d="m 494.38,105.81 v 43.02 h -8.95 v -43.02 z"
   id="path860" />
		<path
   class="st3"
   d="m 522.21,135.09 v -18.53 h 8.95 v 32.27 h -8.59 v -5.86 h -0.34 c -0.73,1.89 -1.94,3.41 -3.62,4.56 -1.69,1.15 -3.74,1.72 -6.17,1.72 -3.25,0 -5.88,-1.08 -7.89,-3.25 -2.01,-2.16 -3.02,-5.13 -3.04,-8.9 v -20.55 h 8.95 v 18.95 c 0.01,1.91 0.52,3.41 1.53,4.52 1.01,1.11 2.36,1.66 4.05,1.66 1.61,0 3.04,-0.56 4.3,-1.68 1.27,-1.11 1.89,-2.75 1.87,-4.91 z"
   id="path862" />
		<path
   class="st3"
   d="m 545.79,116.56 5.92,11.28 6.07,-11.28 h 9.18 l -9.35,16.13 9.6,16.13 h -9.14 l -6.37,-11.16 -6.26,11.16 h -9.24 l 9.58,-16.13 -9.24,-16.13 z"
   id="path864" />
	</g>
</g>
</svg>
